<svg xmlns="http://www.w3.org/2000/svg" xmlns:xlink="http://www.w3.org/1999/xlink" xmlns:inkscape="http://www.inkscape.org/namespaces/inkscape" version="1.1" width="359" height="126" viewBox="0 0 359 126">
<defs>
<path id="font_1_3" d="M.33399964 .30233766C.33999635 .32835389 .36299134 .42037965 .43299867 .42037965 .43798829 .42037965 .46199037 .42037965 .48298646 .40734864 .45498658 .402359 .43499757 .37734986 .43499757 .35334779 .43499757 .33735658 .44599916 .31835938 .47299195 .31835938 .49499513 .31835938 .5269928 .3363495 .5269928 .37635804 .5269928 .42837525 .46798707 .4423828 .43399049 .4423828 .37599183 .4423828 .34098817 .38935853 .32899476 .36634828 .3039856 .43237306 .25 .4423828 .22099304 .4423828 .116989139 .4423828 .05999756 .3133545 .05999756 .28834535 .05999756 .27833558 .069992069 .27833558 .07199097 .27833558 .07998657 .27833558 .08299255 .28033448 .084991458 .28933717 .11898804 .39535523 .18499756 .42037965 .21899414 .42037965 .23799134 .42037965 .272995 .4113617 .272995 .35334779 .272995 .32235719 .2559967 .25532533 .21899414 .11528015 .20298767 .053268434 .16799927 .011245728 .12399292 .011245728 .117996219 .011245728 .09498596 .011245728 .07398987 .024276734 .09899902 .029266358 .12098694 .05027771 .12098694 .07827759 .12098694 .105270389 .09899902 .11328125 .083999637 .11328125 .053985597 .11328125 .0289917 .08728027 .0289917 .055267335 .0289917 .009246826 .07899475-.0107421879 .12298584-.0107421879 .18899536-.0107421879 .22499085 .059280397 .22799683 .0652771 .23999024 .028274537 .27598573-.0107421879 .33599855-.0107421879 .43899537-.0107421879 .49598695 .118270877 .49598695 .14328003 .49598695 .1532898 .4869995 .1532898 .48399354 .1532898 .47499085 .1532898 .47299195 .14929199 .47099305 .14228821 .43798829 .03527832 .36999513 .011245728 .33799745 .011245728 .29899598 .011245728 .2829895 .043273927 .2829895 .07727051 .2829895 .09927368 .2889862 .121276859 .2999878 .16529846L.33399964 .30233766Z"/>
<path id="font_2_1" d="M.31098939 .36265565H.42999269C.4149933 .30274964 .3929901 .2118988 .3929901 .13302613 .3929901 .09309387 .397995 .06613159 .4039917 .044174196 .41999818-.0057678224 .43299867-.009765625 .44898988-.009765625 .47200013-.009765625 .49598695 .011230469 .49598695 .035186769 .49598695 .043182374 .49398805 .047164918 .48799134 .057159425 .46899415 .09408569 .45098878 .15100098 .45098878 .23286438 .45098878 .25183106 .45098878 .29177857 .46499635 .36265565H.58999636C.60798647 .36265565 .6159973 .36265565 .6269989 .37065126 .6409912 .380661 .6439972 .39665223 .6439972 .4016571 .6439972 .43066407 .6179962 .43066407 .6009979 .43066407H.22399903C.18299866 .43066407 .15499878 .42166139 .10998535 .37965394 .083999637 .35665895 .04499817 .30274964 .04499817 .2937622 .04499817 .28178407 .057998659 .28178407 .06199646 .28178407 .07299805 .28178407 .07398987 .28378297 .07998657 .2927704 .1309967 .36265565 .19299317 .36265565 .21499634 .36265565H.27598573C.24499512 .25283814 .19099427 .13502503 .16099549 .07511902 .15499878 .062149049 .14498902 .04118347 .14199829 .03718567 .14099121 .033187868 .13899231 .029190064 .13899231 .022201539 .13899231 .006225586 .15098572-.009765625 .17399597-.009765625 .21398926-.009765625 .22499085 .035186769 .24899292 .12504578L.31098939 .36265565Z"/>
<path id="font_3_1" d="M.5049896 .18203736H.47099305C.46798707 .16001892 .45799256 .100997928 .44499208 .09098816 .43699647 .084991458 .3600006 .084991458 .34599305 .084991458H.1619873C.2669983 .17803955 .3019867 .20603943 .3619995 .25306703 .43598939 .312088 .5049896 .374115 .5049896 .46914674 .5049896 .5900879 .39898683 .6640625 .2709961 .6640625 .14698792 .6640625 .06298828 .57710269 .06298828 .4851532 .06298828 .43414308 .10598755 .42915345 .115997318 .42915345 .13999939 .42915345 .16899109 .44615174 .16899109 .48214723 .16899109 .5001526 .1619873 .53515627 .10998535 .53515627 .14099121 .6060791 .20899964 .62805178 .2559967 .62805178 .35598756 .62805178 .4079895 .5501404 .4079895 .46914674 .4079895 .38212586 .34599305 .3130951 .31399537 .27708436L.07299805 .038986207C.06298828 .02999878 .06298828 .027999878 .06298828 0H.47499085L.5049896 .18203736Z"/>
<path id="font_1_1" d="M.2649994 .37265016H.37799073C.34498597 .22489929 .33599855 .18196106 .33599855 .11508179 .33599855 .100097659 .33599855 .073150638 .34399415 .03919983 .35398866-.0047454836 .36499024-.0107421879 .37998963-.0107421879 .3999939-.0107421879 .42099 .007247925 .42099 .02722168 .42099 .033218385 .42099 .035202028 .4149933 .049179079 .38598634 .12106323 .38598634 .18595886 .38598634 .21391297 .38598634 .26683045 .3929901 .32073976 .4039917 .37265016H.5179901C.5309906 .37265016 .5669861 .37265016 .5669861 .406662 .5669861 .43066407 .54599 .43066407 .5269928 .43066407H.19198609C.16999817 .43066407 .13198853 .43066407 .08799744 .38365174 .052993776 .34469605 .026992798 .29878236 .026992798 .29379273 .026992798 .29278565 .026992798 .28379823 .038986207 .28379823 .04699707 .28379823 .04899597 .28779603 .054992677 .29577638 .10398865 .37265016 .1619873 .37265016 .18199158 .37265016H.23899842C.20698548 .25186158 .15299988 .13105774 .11099243 .04020691 .102996829 .025222779 .102996829 .023223877 .102996829 .016235352 .102996829-.002746582 .11898804-.0107421879 .13198853-.0107421879 .1619873-.0107421879 .16999817 .017242432 .18199158 .05418396 .19599915 .100097659 .19599915 .10209656 .20899964 .15202332L.2649994 .37265016Z"/>
<path id="font_3_2" d="M.272995 .33428956C.35099793 .33428956 .40699769 .2803192 .40699769 .1733551 .40699769 .04940796 .33499146 .012466431 .2769928 .012466431 .23699951 .012466431 .14898682 .0234375 .10699463 .082351688 .1539917 .084350589 .16499329 .11735535 .16499329 .13835144 .16499329 .17034912 .14099121 .19335938 .10998535 .19335938 .08198547 .19335938 .053985597 .17634583 .053985597 .13534546 .053985597 .041412355 .1579895-.01953125 .2789917-.01953125 .41799928-.01953125 .5139923 .07336426 .5139923 .1733551 .5139923 .2513275 .44999696 .32929994 .33999635 .35229493 .44499208 .39024354 .48298646 .4650879 .48298646 .5260773 .48298646 .60505679 .3919983 .6640625 .2809906 .6640625 .16999817 .6640625 .084991458 .61006167 .084991458 .5300751 .084991458 .49606324 .10699463 .47706605 .13699341 .47706605 .16799927 .47706605 .18798828 .5000763 .18798828 .5280762 .18798828 .5570679 .16799927 .57806399 .13699341 .5800781 .17199707 .62405398 .24099732 .63505557 .27799989 .63505557 .32299806 .63505557 .38598634 .6130676 .38598634 .5260773 .38598634 .48406983 .37199403 .43814088 .34599305 .4072113 .31298829 .36927796 .2849884 .3672943 .23498535 .36428834 .20999146 .3623047 .20799256 .3623047 .20298767 .3612976 .20098877 .3612976 .19299317 .3592987 .19299317 .34829713 .19299317 .33428956 .20199585 .33428956 .21899414 .33428956H.272995Z"/>
<path id="font_4_3" d="M.1269989 .07699585 .23298645 .18003845C.3889923 .31811524 .44898988 .3721466 .44898988 .47216798 .44898988 .5860901 .35899354 .6660156 .23699951 .6660156 .12399292 .6660156 .049987794 .57411196 .049987794 .48516847 .049987794 .4291687 .099990848 .4291687 .102996829 .4291687 .11999512 .4291687 .15499878 .44117738 .15499878 .48217774 .15499878 .5081787 .13699341 .5341797 .101989749 .5341797 .09399414 .5341797 .09199524 .5341797 .08898926 .5331726 .11199951 .59806826 .1659851 .63500979 .22399903 .63500979 .31498719 .63500979 .35798646 .5541382 .35798646 .47216798 .35798646 .39215089 .30799867 .31311036 .25299073 .25108338L.06098938 .036987306C.049987794 .025985718 .049987794 .023986817 .049987794 0H.42099L.44898988 .17404175H.42399598C.4189911 .14402771 .4119873 .1000061 .4019928 .084991458 .394989 .07699585 .32899476 .07699585 .30699159 .07699585H.1269989Z"/>
<path id="font_1_4" d="M.48599244 .38136292C.48999024 .39537049 .48999024 .39736939 .48999024 .40437318 .48999024 .42237855 .47599793 .43138124 .46099855 .43138124 .45098878 .43138124 .43499757 .42536927 .42599488 .41036988 .42399598 .405365 .41600038 .37435914 .4119873 .35635377 .40499879 .33035279 .397995 .30334474 .3919983 .27633668L.34700013 .09628296C.34298707 .08126831 .2999878 .011245728 .23399353 .011245728 .18299866 .011245728 .17199707 .055267335 .17199707 .0922699 .17199707 .1382904 .18899536 .20030213 .22299195 .28833009 .23899842 .3293457 .24299622 .3403473 .24299622 .36035157 .24299622 .405365 .21099854 .4423828 .16099549 .4423828 .06599426 .4423828 .0289917 .29733277 .0289917 .28833009 .0289917 .27833558 .038986207 .27833558 .040985109 .27833558 .050994874 .27833558 .051986696 .28033448 .056991579 .29634095 .083999637 .3903656 .12399292 .42037965 .1579895 .42037965 .1659851 .42037965 .18299866 .42037965 .18299866 .3883667 .18299866 .36335755 .17298889 .3373413 .1659851 .31834413 .12599182 .21231079 .10798645 .1552887 .10798645 .10827637 .10798645 .019256592 .17098999-.0107421879 .22999573-.0107421879 .2689972-.0107421879 .30299378 .0062561037 .33099366 .03425598 .31799317-.017745972 .30599977-.06674194 .2659912-.11973572 .23999024-.15385437 .20199585-.18309021 .1559906-.18309021 .14199829-.18309021 .09700012-.18005371 .07998657-.14074707 .09599304-.14074707 .10899353-.14074707 .12298584-.1287384 .1329956-.11973572 .14299011-.10673523 .14299011-.08773804 .14299011-.056747438 .115997318-.052734376 .10598755-.052734376 .08299255-.052734376 .049987794-.068740848 .049987794-.11773682 .049987794-.16796875 .09399414-.20507813 .1559906-.20507813 .25898744-.20507813 .3619995-.11373901 .3899994-.00074768069L.48599244 .38136292Z"/>
<path id="font_5_121" d="M.45999146 .31976319C.45999146 .39982606 .45498658 .47988893 .41999818 .5539398 .37399293 .65000918 .2919922 .6660156 .25 .6660156 .18998719 .6660156 .116989139 .64001467 .07598877 .54693606 .04399109 .47789 .038986207 .39982606 .038986207 .31976319 .038986207 .24472046 .042999269 .15464783 .083999637 .07859802 .1269989-.0024719239 .19999695-.022460938 .24899292-.022460938 .30299378-.022460938 .3789978-.0014648438 .4229889 .09359741 .45498658 .16265869 .45999146 .2407074 .45999146 .31976319M.3769989 .3317871C.3769989 .25672914 .3769989 .18867493 .3659973 .12461853 .35099793 .029556275 .2939911-.00047302247 .24899292-.00047302247 .20999146-.00047302247 .15098572 .024551392 .1329956 .12062073 .12199402 .18066406 .12199402 .2727356 .12199402 .3317871 .12199402 .39582826 .12199402 .46188355 .12998963 .5159149 .14898682 .63500979 .22399903 .64401248 .24899292 .64401248 .28199769 .64401248 .34799195 .6259918 .36698915 .52693179 .3769989 .47088624 .3769989 .39482118 .3769989 .3317871Z"/>
<path id="font_5_88" d="M.19198609 .052993776C.19198609 .08198547 .16799927 .10598755 .13899231 .10598755 .10998535 .10598755 .085998538 .08198547 .085998538 .052993776 .085998538 .023986817 .10998535 0 .13899231 0 .16799927 0 .19198609 .023986817 .19198609 .052993776Z"/>
<path id="font_5_82" d="M.4189911 0V.0309906H.3869934C.29699708 .0309906 .2939911 .041992189 .2939911 .07902527V.64012148C.2939911 .6640167 .2939911 .6660156 .2709961 .6660156 .20899964 .60227969 .12098694 .60227969 .08898926 .60227969V.57128909C.10899353 .57128909 .16799927 .57128909 .21998596 .5972748V.07902527C.21998596 .042999269 .21699524 .0309906 .1269989 .0309906H.09498596V0C.12998963 .0029907227 .21699524 .0029907227 .25698854 .0029907227 .29699708 .0029907227 .38398744 .0029907227 .4189911 0Z"/>
<path id="font_5_107" d="M.44898988 .17396546H.42399598C.4189911 .14398194 .4119873 .099990848 .4019928 .084991458 .394989 .07699585 .32899476 .07699585 .30699159 .07699585H.1269989L.23298645 .17996216C.3889923 .31803895 .44898988 .37210084 .44898988 .47216798 .44898988 .5860901 .35899354 .6660156 .23699951 .6660156 .12399292 .6660156 .049987794 .57411196 .049987794 .48516847 .049987794 .4291687 .099990848 .4291687 .102996829 .4291687 .11999512 .4291687 .15499878 .44117738 .15499878 .48217774 .15499878 .5081787 .13699341 .5341797 .101989749 .5341797 .09399414 .5341797 .09199524 .5341797 .08898926 .5331726 .11199951 .59806826 .1659851 .63500979 .22399903 .63500979 .31498719 .63500979 .35798646 .5541382 .35798646 .47216798 .35798646 .39196778 .30799867 .31297303 .25299073 .25097657L.06098938 .036987306C.049987794 .025985718 .049987794 .023986817 .049987794 0H.42099L.44898988 .17396546Z"/>
<path id="font_6_2" d="M.15899658 .71398928C.15899658 .7319946 .15899658 .75 .13899231 .75 .11898804 .75 .11898804 .7319946 .11898804 .71398928V-.21400452C.11898804-.23200989 .11898804-.25 .13899231-.25 .15899658-.25 .15899658-.23200989 .15899658-.21400452V.71398928Z"/>
<path id="font_1_2" d="M.30299378 .3157959H.47299195C.61499026 .3157959 .7539978 .41973878 .7539978 .53167727 .7539978 .6086273 .6879883 .6826172 .5569916 .6826172H.23298645C.21398926 .6826172 .20298767 .6826172 .20298767 .66360476 .20298767 .6516113 .21199036 .6516113 .23199463 .6516113 .24499512 .6516113 .2630005 .65060427 .2749939 .6496124 .29100038 .6476135 .29699708 .64460757 .29699708 .6336212 .29699708 .6296234 .29599 .62661746 .29299928 .614624L.15899658 .07795715C.14898682 .038986207 .14698792 .0309906 .067993167 .0309906 .050994874 .0309906 .039993287 .0309906 .039993287 .011993408 .039993287 0 .051986696 0 .054992677 0 .08299255 0 .1539917 .0029907227 .18199158 .0029907227 .20298767 .0029907227 .22499085 .0019989014 .24598694 .0019989014 .2679901 .0019989014 .2899933 0 .31098939 0 .31799317 0 .33099366 0 .33099366 .019989014 .33099366 .0309906 .32199098 .0309906 .30299378 .0309906 .2659912 .0309906 .23799134 .0309906 .23799134 .048980714 .23799134 .054977418 .23999024 .05996704 .24099732 .065963748L.30299378 .3157959M.375 .6136322C.38398744 .64860537 .38598634 .6516113 .42900086 .6516113H.5249939C.60798647 .6516113 .6609955 .62461856 .6609955 .55566409 .6609955 .5166931 .6409912 .43074037 .60198977 .39476014 .5519867 .34977723 .49198915 .34179688 .44799806 .34179688H.30699159L.375 .6136322Z"/>
<path id="font_3_3" d="M.5289917 .1640625V.20005799H.41799928V.64582827C.41799928 .66682437 .41799928 .6738281 .3959961 .6738281 .38398744 .6738281 .37998963 .6738281 .36999513 .65982058L.038986207 .20005799V.1640625H.33299256V.08201599C.33299256 .04800415 .33299256 .035995485 .2519989 .035995485H.22499085V0C.2749939 .0019989014 .33898927 .0039978029 .375 .0039978029 .4119873 .0039978029 .47599793 .0019989014 .526001 0V.035995485H.49899293C.41799928 .035995485 .41799928 .04800415 .41799928 .08201599V.1640625H.5289917M.33999635 .5658722V.20005799H.07598877L.33999635 .5658722Z"/>
<path id="font_4_1" d="M.33099366-.2400055C.33099366-.23701477 .33099366-.23500061 .31399537-.21800232 .18899536-.0920105 .15699768 .09700012 .15699768 .25 .15699768 .42399598 .19499207 .59799197 .31799317 .72299197 .33099366 .73498538 .33099366 .7369995 .33099366 .73999026 .33099366 .746994 .32699586 .75 .32099916 .75 .31098939 .75 .22099304 .6819916 .1619873 .5549927 .11099243 .44499208 .09899902 .33399964 .09899902 .25 .09899902 .17199707 .10998535 .050994874 .16499329-.06201172 .22499085-.18501282 .31098939-.25 .32099916-.25 .32699586-.25 .33099366-.24700928 .33099366-.2400055Z"/>
<path id="font_4_2" d="M.2889862 .25C.2889862 .32798768 .27799989 .44898988 .22299195 .56199648 .16299439 .68499758 .07699585 .75 .066986087 .75 .06098938 .75 .056991579 .74598696 .056991579 .73999026 .056991579 .7369995 .056991579 .73498538 .07598877 .71699526 .17399597 .6179962 .23098755 .45899964 .23098755 .25 .23098755 .07899475 .19400025-.09700012 .069992069-.2230072 .056991579-.23500061 .056991579-.23701477 .056991579-.2400055 .056991579-.2460022 .06098938-.25 .066986087-.25 .07699585-.25 .16699219-.18200684 .22599793-.055007936 .2769928 .054992677 .2889862 .16600037 .2889862 .25Z"/>
<path id="font_6_1" d="M.6589966 .23046875C.6759949 .23046875 .69400027 .23046875 .69400027 .25045777 .69400027 .27046205 .6759949 .27046205 .6589966 .27046205H.117996219C.100997928 .27046205 .08299255 .27046205 .08299255 .25045777 .08299255 .23046875 .100997928 .23046875 .117996219 .23046875H.6589966Z"/>
<path id="font_4_6" d="M.20799256 .19424439C.22999573 .19024658 .31199647 .17424011 .31199647 .102249149 .31199647 .051254274 .2769928 .011245728 .19898987 .011245728 .114990238 .011245728 .07899475 .06825256 .05999756 .15324402 .056991579 .1662445 .055999757 .17024231 .04598999 .17024231 .032989503 .17024231 .032989503 .16323853 .032989503 .14524842V.013244629C.032989503-.003753662 .032989503-.0107421879 .04399109-.0107421879 .04899597-.0107421879 .049987794-.009750366 .068984989 .009246826 .070999149 .011245728 .070999149 .013244629 .08898926 .03224182 .1329956-.009750366 .17799378-.0107421879 .19898987-.0107421879 .31399537-.0107421879 .3600006 .056243898 .3600006 .12825012 .3600006 .1812439 .32998658 .21124268 .31799317 .22323609 .2849884 .25523377 .24598694 .26324464 .20399475 .27124024 .147995 .28224183 .08099365 .2952423 .08099365 .35324098 .08099365 .38822938 .10699463 .42922975 .19299317 .42922975 .30299378 .42922975 .30799867 .3392334 .30999757 .3082428 .31098939 .2992401 .31999208 .2992401 .32199098 .2992401 .33499146 .2992401 .33499146 .304245 .33499146 .3232422V.4242401C.33499146 .4412384 .33499146 .4482422 .32398988 .4482422 .31900025 .4482422 .31698609 .4482422 .3039856 .43623353 .30099488 .43223573 .29100038 .42323304 .2869873 .42022706 .24899292 .4482422 .20799256 .4482422 .19299317 .4482422 .070999149 .4482422 .032989503 .38124085 .032989503 .3252411 .032989503 .29023744 .04899597 .26223756 .07598877 .24023438 .10798645 .21424866 .13598633 .2082367 .20799256 .19424439Z"/>
<path id="font_4_4" d="M.1769867 .4423828 .036987306 .43138124V.40037538C.101989749 .40037538 .11099243 .3943634 .11099243 .34532167V.076034549C.11099243 .0309906 .099990848 .0309906 .032989503 .0309906V0C.06498718 .0009918213 .11898804 .0029907227 .14299011 .0029907227 .17799378 .0029907227 .21299744 .0009918213 .24699402 0V.0309906C.18099976 .0309906 .1769867 .035995485 .1769867 .075042728V.4423828M.18099976 .6159363C.18099976 .64793398 .1559906 .6689453 .12799073 .6689453 .09700012 .6689453 .07499695 .64193728 .07499695 .6159363 .07499695 .5889435 .09700012 .5629425 .12799073 .5629425 .1559906 .5629425 .18099976 .5839386 .18099976 .6159363Z"/>
<path id="font_4_5" d="M.10998535 .34429933V.076034549C.10998535 .0309906 .09899902 .0309906 .03199768 .0309906V0C.066986087 .0009918213 .117996219 .0029907227 .14498902 .0029907227 .17098999 .0029907227 .22299195 .0009918213 .25698854 0V.0309906C.18998719 .0309906 .1789856 .0309906 .1789856 .076034549V.2602234C.1789856 .36431886 .25 .42037965 .31399537 .42037965 .3769989 .42037965 .3880005 .36631776 .3880005 .30926515V.076034549C.3880005 .0309906 .3769989 .0309906 .30999757 .0309906V0C.34498597 .0009918213 .3959961 .0029907227 .4229889 .0029907227 .44898988 .0029907227 .5009918 .0009918213 .5349884 0V.0309906C.48298646 .0309906 .45799256 .0309906 .45700074 .061019899V.25221253C.45700074 .3383026 .45700074 .36932374 .42599488 .405365 .4119873 .42237855 .3789978 .4423828 .32099916 .4423828 .24798584 .4423828 .20098877 .39935304 .17298889 .33729554V.4423828L.03199768 .43138124V.40037538C.101989749 .4003601 .10998535 .39335633 .10998535 .34429933Z"/>
<path id="font_7_1" d="M.2769928 .6851349 .548996 .56199648 .5609894 .58399966 .27799989 .7441406-.005004883 .58399966 .005996704 .56199648 .2769928 .6851349Z"/>
</defs>
<path transform="matrix(1.00005,0,0,-1.00005,21.014298,105.214618)" stroke-width=".3985" stroke-linecap="butt" stroke-miterlimit="10" stroke-linejoin="miter" fill="none" stroke="#000000" d="M-17.71672 0H229.85953"/>
<path transform="matrix(1.00005,0,0,-1.00005,250.8853,105.214618)" stroke-width=".31879" stroke-linecap="round" stroke-linejoin="round" fill="none" stroke="#000000" d="M-1.19551 1.59401C-1.09587 .99626 0 .09961 .29886 0 0-.09961-1.09587-.99626-1.19551-1.59401"/>
<use data-text="x" xlink:href="#font_1_3" transform="matrix(9.963098,0,0,-9.963098,254.86397,101.69444)"/>
<path transform="matrix(1.00005,0,0,-1.00005,21.014298,105.214618)" stroke-width=".3985" stroke-linecap="butt" stroke-miterlimit="10" stroke-linejoin="miter" fill="none" stroke="#000000" d="M55.63084 4.24956V-4.24956"/>
<use data-text="&#x03c0;" xlink:href="#font_2_1" transform="matrix(6.9741489,0,0,-6.9741489,74.192958,115.988147)"/>
<path transform="matrix(1.00005,0,0,-1.00005,-33.0204,27.689738)" stroke-width=".3985" stroke-linecap="butt" stroke-miterlimit="10" stroke-linejoin="miter" fill="none" stroke="#000000" d="M107.208-89.726H112.117"/>
<use data-text="2" xlink:href="#font_3_1" transform="matrix(6.9741489,0,0,-6.9741489,74.66198,123.34651)"/>
<path transform="matrix(1.00005,0,0,-1.00005,21.014298,105.214618)" stroke-width=".3985" stroke-linecap="butt" stroke-miterlimit="10" stroke-linejoin="miter" fill="none" stroke="#000000" d="M111.33202 4.24956V-4.24956"/>
<use data-text="&#x03c0;" xlink:href="#font_1_1" transform="matrix(9.963098,0,0,-9.963098,129.33371,117.274219)"/>
<path transform="matrix(1.00005,0,0,-1.00005,21.014298,105.214618)" stroke-width=".3985" stroke-linecap="butt" stroke-miterlimit="10" stroke-linejoin="miter" fill="none" stroke="#000000" d="M166.96288 4.24956V-4.24956"/>
<use data-text="3" xlink:href="#font_3_2" transform="matrix(6.9741489,0,0,-6.9741489,183.5444,117.47922)"/>
<use data-text="&#x03c0;" xlink:href="#font_2_1" transform="matrix(6.9741489,0,0,-6.9741489,187.51561,117.47922)"/>
<path transform="matrix(1.00005,0,0,-1.00005,76.331058,29.180813)" stroke-width=".3985" stroke-linecap="butt" stroke-miterlimit="10" stroke-linejoin="miter" fill="none" stroke="#000000" d="M107.208-89.726H116.089"/>
<use data-text="2" xlink:href="#font_3_1" transform="matrix(6.9741489,0,0,-6.9741489,185.99954,124.837589)"/>
<path transform="matrix(1.00005,0,0,-1.00005,21.014298,105.214618)" stroke-width=".3985" stroke-linecap="butt" stroke-miterlimit="10" stroke-linejoin="miter" fill="none" stroke="#000000" d="M222.66405 4.24956V-4.24956"/>
<use data-text="2" xlink:href="#font_4_3" transform="matrix(9.963098,0,0,-9.963098,238.18015,119.40532)"/>
<use data-text="&#x03c0;" xlink:href="#font_1_1" transform="matrix(9.963098,0,0,-9.963098,243.1614,119.40532)"/>
<path transform="matrix(1.00005,0,0,-1.00005,21.014298,105.214618)" stroke-width=".3985" stroke-linecap="butt" stroke-miterlimit="10" stroke-linejoin="miter" fill="none" stroke="#000000" d="M0-8.50572V93.08655"/>
<path transform="matrix(0,-1.00005,-1.00005,-0,21.014298,12.123421)" stroke-width=".31879" stroke-linecap="round" stroke-linejoin="round" fill="none" stroke="#000000" d="M-1.19551 1.59401C-1.09587 .99626 0 .09961 .29886 0 0-.09961-1.09587-.99626-1.19551-1.59401"/>
<use data-text="y" xlink:href="#font_1_4" transform="matrix(9.963098,0,0,-9.963098,24.53447,6.207672)"/>
<path transform="matrix(1.00005,0,0,-1.00005,21.014298,105.214618)" stroke-width=".3985" stroke-linecap="butt" stroke-miterlimit="10" stroke-linejoin="miter" fill="none" stroke="#000000" d="M3.54355 42.52274H-3.54355"/>
<use data-text="0" xlink:href="#font_5_121" transform="matrix(9.963098,0,0,-9.963098,1.217308,65.89765)"/>
<use data-text="." xlink:href="#font_5_88" transform="matrix(9.963098,0,0,-9.963098,6.19886,65.89765)"/>
<use data-text="1" xlink:href="#font_5_82" transform="matrix(9.963098,0,0,-9.963098,8.968597,65.89765)"/>
<path transform="matrix(1.00005,0,0,-1.00005,21.014298,105.214618)" stroke-width=".3985" stroke-linecap="butt" stroke-miterlimit="10" stroke-linejoin="miter" fill="none" stroke="#000000" d="M3.54355 85.0391H-3.54355"/>
<use data-text="0" xlink:href="#font_5_121" transform="matrix(9.963098,0,0,-9.963098,1.217308,23.379525)"/>
<use data-text="." xlink:href="#font_5_88" transform="matrix(9.963098,0,0,-9.963098,6.19886,23.379525)"/>
<use data-text="2" xlink:href="#font_5_107" transform="matrix(9.963098,0,0,-9.963098,8.968597,23.379525)"/>
<path transform="matrix(1.00005,0,0,-1.00005,21.014298,105.214618)" stroke-width=".3985" stroke-linecap="butt" stroke-dasharray="2.98883,2.98883" stroke-miterlimit="10" stroke-linejoin="miter" fill="none" stroke="#000000" d="M0 38.73357 1.49385 26.60103 2.98773 15.63622 4.48161 5.79378 5.97548 2.98445 7.46936 10.73106 8.96324 17.52408 10.45712 23.37645 11.951 28.34636 13.44489 32.49217 14.93877 35.85287 16.43265 38.47408 17.92651 40.38155 19.4204 41.65326 20.91428 42.315 22.40813 42.40599 23.90202 41.98413 25.3959 41.06927 26.88979 39.73941 28.38365 37.98106 29.87753 35.87886 31.37141 33.44579 32.8653 30.72745 34.35918 27.76237 35.85306 24.56381 37.34694 21.20949 38.84082 17.68643 40.33469 14.06601 41.82857 10.34843 43.32243 6.55927 44.8163 2.76372 46.3102 1.05737 47.80408 4.83992 49.29796 8.59648 50.79182 12.27528 52.2857 15.85672 53.77959 19.3474 55.27347 22.6951 56.76735 25.90028 58.26123 28.94972 59.75511 31.8238 61.249 34.51001 62.74286 36.98846 64.23674 39.27217 65.7306 41.30939 67.22447 43.1391 68.71837 44.7287 70.21225 46.06519 71.70613 47.18115 73.2 48.01802 74.69388 48.6214 76.18776 48.97826 77.68164 49.07562 79.1755 48.94588 80.6694 48.55002 82.16328 47.92065 83.65717 47.0514 85.15103 45.95482 86.6449 44.64433 88.13878 43.10011 89.63264 41.36139 91.12654 39.41492 92.62042 37.29971 94.1143 34.98363 95.60817 32.51155 97.10205 29.89696 98.59593 27.1264 100.08981 24.23932 101.58368 21.23526 103.07758 18.12105 104.57146 14.94186 106.06534 11.6783 107.55919 8.36298 109.05307 5.02167 110.54695 1.64774 112.04082 1.7321 113.53471 5.10603 115.0286 8.45374 116.52248 11.76268 118.01634 15.03285 119.51022 18.2118 121.0041 21.32623 122.49799 24.33669 123.99185 27.23677 125.48575 30.01372 126.97963 32.63492 128.47351 35.10675 129.96736 37.43608 131.46125 39.55766 132.95513 41.51051 134.44899 43.26224 135.94287 44.80646 137.43677 46.13655 138.93065 47.23293 140.42452 48.12178 141.9184 48.75775 143.41228 49.16638 144.90616 49.31573 146.40003 49.22476 147.89392 48.8875 149.3878 48.28413 150.88166 47.46004 152.37554 46.35706 153.86942 45.02719 155.3633 43.45059 156.85717 41.63388 158.35105 39.61604 159.84494 37.3451 161.33882 34.87326 162.83269 32.20668 164.32657 29.33897 165.82045 26.30891 167.31433 23.11035 168.8082 19.7754 170.3021 16.29135 171.79596 12.72292 173.28983 9.04433 174.7837 5.30054 176.27759 1.53099 177.77147 2.2837 179.26534 6.07265 180.75922 9.85521 182.25312 13.56 183.747 17.18681 185.24086 20.71626 186.73474 24.0512 188.22863 27.24977 189.7225 30.21484 191.21637 32.92041 192.71025 35.36626 194.20413 37.46208 195.698 39.22018 197.19188 40.56989 198.68576 41.48451 200.17964 41.91937 201.67351 41.82838 203.16739 41.17326 204.66129 39.90793 206.15517 38.00706 207.64904 35.39886 209.14292 32.06393 210.6368 27.9245 212.13068 22.96759 213.62454 17.14143 215.11841 10.36143 216.6123 2.63396 218.10617 6.12465 219.60005 15.94748 221.09394 26.8799 222.58782 38.98668"/>
<path transform="matrix(1.00005,0,0,-1.00005,21.014298,105.214618)" stroke-width="1.19553" stroke-linecap="butt" stroke-dasharray="1.19553,1.99255" stroke-miterlimit="10" stroke-linejoin="miter" fill="none" stroke="#000000" d="M0 0 1.49385 11.89903 2.98773 22.63672 4.48161 32.22606 5.97548 40.7384 7.46936 48.22575 8.96324 54.72028 10.45712 60.27394 11.951 64.95197 13.44489 68.77989 14.93877 71.81635 16.43265 74.09367 17.92651 75.65067 19.4204 76.57213 20.91428 76.85762 22.40813 76.57213 23.90202 75.76764 25.3959 74.45055 26.88979 72.7052 28.38365 70.53824 29.87753 68.0144 31.37141 65.14009 32.8653 61.98051 34.35918 58.5676 35.85306 54.91501 37.34694 51.08685 38.84082 47.08379 40.33469 42.98335 41.82857 38.78555 43.32243 34.49039 44.8163 30.18245 46.3102 25.8483 47.80408 21.54036 49.29796 17.26457 50.79182 13.0474 52.2857 8.93396 53.77959 4.8919 55.27347 .9926 56.76735 2.77032 58.26123 6.37776 59.75511 9.82921 61.249 13.09277 62.74286 16.14221 64.23674 19.02292 65.7306 21.6635 67.22447 24.0902 68.71837 26.28314 70.21225 28.22299 71.70613 29.94873 73.2 31.40857 74.69388 32.63492 76.18776 33.62114 77.68164 34.34764 79.1755 34.84088 80.6694 35.08076 82.16328 35.10037 83.65717 34.86687 85.15103 34.42563 86.6449 33.75728 88.13878 32.86842 89.63264 31.77844 91.12654 30.48734 92.62042 29.02748 94.1143 27.37952 95.60817 25.5758 97.10205 23.62296 98.59593 21.52075 100.08981 19.29541 101.58368 16.95331 103.07758 14.53963 104.57146 12.0288 106.06534 9.42697 107.55919 6.78638 109.05307 4.10681 110.54695 1.40785 112.04082 1.29749 113.53471 3.99005 115.0286 6.67601 116.52248 9.31683 118.01634 11.90543 119.51022 14.41626 121.0041 16.85594 122.49799 19.19165 123.99185 21.42339 125.48575 23.5322 126.97963 25.49142 128.47351 27.29515 129.96736 28.96272 131.46125 30.42235 132.95513 31.71367 134.44899 32.80365 135.94287 33.69252 137.43677 34.37364 138.93065 34.82126 140.42452 35.068 141.9184 35.06139 143.41228 34.83426 144.90616 34.34126 146.40003 33.60814 147.89392 32.64792 149.3878 31.41519 150.88166 29.96834 152.37554 28.249 153.86942 26.31554 155.3633 24.12895 156.85717 21.70888 158.35105 19.09428 159.84494 16.21997 161.33882 13.16414 162.83269 9.91359 164.32657 6.4685 165.82045 2.86769 167.31433 .89523 168.8082 4.78154 170.3021 8.8366 171.79596 12.95003 173.28983 17.16083 174.7837 21.43637 176.27759 25.73816 177.77147 30.07848 179.26534 34.38664 180.75922 38.67519 182.25312 42.87299 183.747 46.99942 185.24086 51.0027 186.73474 54.81764 188.22863 58.48344 189.7225 61.90913 191.21637 65.06871 192.71025 67.94942 194.20413 70.47325 195.698 72.67282 197.19188 74.43092 198.68576 75.76103 200.17964 76.58513 201.67351 76.877 203.16739 76.6109 204.66129 75.70265 206.15517 74.17143 207.64904 71.9071 209.14292 68.90965 210.6368 65.10109 212.13068 60.4493 213.62454 54.92778 215.11841 48.46565 216.6123 41.0239 218.10617 32.53755 219.60005 22.96121 221.09394 12.2819 222.58782 .41501"/>
<path transform="matrix(1.00005,0,0,-1.00005,21.014298,105.214618)" stroke-width=".3985" stroke-linecap="butt" stroke-dasharray="2.98883,2.98883" stroke-miterlimit="10" stroke-linejoin="miter" fill="none" stroke="#000000" d="M248.03458 42.52274H265.75135"/>
<use data-text="|" xlink:href="#font_6_2" transform="matrix(9.963098,0,0,-9.963098,290.29878,65.18062)"/>
<use data-text="P" xlink:href="#font_1_2" transform="matrix(9.963098,0,0,-9.963098,293.0659,65.18062)"/>
<use data-text="4" xlink:href="#font_3_3" transform="matrix(6.9741489,0,0,-6.9741489,299.46223,66.67569)"/>
<use data-text="(" xlink:href="#font_4_1" transform="matrix(9.963098,0,0,-9.963098,303.93244,65.18062)"/>
<use data-text="x" xlink:href="#font_1_3" transform="matrix(9.963098,0,0,-9.963098,307.80665,65.18062)"/>
<use data-text=")" xlink:href="#font_4_2" transform="matrix(9.963098,0,0,-9.963098,313.50093,65.18062)"/>
<use data-text="&#x2212;" xlink:href="#font_6_1" transform="matrix(9.963098,0,0,-9.963098,319.5892,65.18062)"/>
<use data-text="s" xlink:href="#font_4_6" transform="matrix(9.963098,0,0,-9.963098,329.5527,65.18062)"/>
<use data-text="i" xlink:href="#font_4_4" transform="matrix(9.963098,0,0,-9.963098,333.47816,65.18062)"/>
<use data-text="n" xlink:href="#font_4_5" transform="matrix(9.963098,0,0,-9.963098,336.2379,65.18062)"/>
<use data-text="x" xlink:href="#font_1_3" transform="matrix(9.963098,0,0,-9.963098,343.44538,65.18062)"/>
<use data-text="|" xlink:href="#font_6_2" transform="matrix(9.963098,0,0,-9.963098,349.13969,65.18062)"/>
<path transform="matrix(1.00005,0,0,-1.00005,21.014298,105.214618)" stroke-width="1.19553" stroke-linecap="butt" stroke-dasharray="1.19553,1.99255" stroke-miterlimit="10" stroke-linejoin="miter" fill="none" stroke="#000000" d="M248.03458 21.26125H265.75135"/>
<use data-text="|" xlink:href="#font_6_2" transform="matrix(9.963098,0,0,-9.963098,290.69776,87.563739)"/>
<use data-text="&#xfffd;" xlink:href="#font_7_1" transform="matrix(9.963098,0,0,-9.963098,295.418,85.04561)"/>
<use data-text="P" xlink:href="#font_1_2" transform="matrix(9.963098,0,0,-9.963098,293.4649,87.563739)"/>
<use data-text="4" xlink:href="#font_3_3" transform="matrix(6.9741489,0,0,-6.9741489,299.8612,89.058818)"/>
<use data-text="(" xlink:href="#font_4_1" transform="matrix(9.963098,0,0,-9.963098,304.33146,87.563739)"/>
<use data-text="x" xlink:href="#font_1_3" transform="matrix(9.963098,0,0,-9.963098,308.20564,87.563739)"/>
<use data-text=")" xlink:href="#font_4_2" transform="matrix(9.963098,0,0,-9.963098,313.8999,87.563739)"/>
<use data-text="&#x2212;" xlink:href="#font_6_1" transform="matrix(9.963098,0,0,-9.963098,319.98823,87.563739)"/>
<use data-text="s" xlink:href="#font_4_6" transform="matrix(9.963098,0,0,-9.963098,329.95173,87.563739)"/>
<use data-text="i" xlink:href="#font_4_4" transform="matrix(9.963098,0,0,-9.963098,333.87718,87.563739)"/>
<use data-text="n" xlink:href="#font_4_5" transform="matrix(9.963098,0,0,-9.963098,336.63697,87.563739)"/>
<use data-text="(" xlink:href="#font_4_1" transform="matrix(9.963098,0,0,-9.963098,342.16645,87.563739)"/>
<use data-text="x" xlink:href="#font_1_3" transform="matrix(9.963098,0,0,-9.963098,346.05854,87.563739)"/>
<use data-text=")" xlink:href="#font_4_2" transform="matrix(9.963098,0,0,-9.963098,351.7528,87.563739)"/>
<use data-text="|" xlink:href="#font_6_2" transform="matrix(9.963098,0,0,-9.963098,355.627,87.563739)"/>
</svg>
