<svg xmlns="http://www.w3.org/2000/svg" xmlns:xlink="http://www.w3.org/1999/xlink" xmlns:inkscape="http://www.inkscape.org/namespaces/inkscape" version="1.1" width="309" height="353" viewBox="0 0 309 353">
<defs>
<path id="font_1_1" d="M.33399964 .30233766C.33999635 .32835389 .36299134 .42037965 .43299867 .42037965 .43798829 .42037965 .46199037 .42037965 .48298646 .40734864 .45498658 .402359 .43499757 .37734986 .43499757 .35334779 .43499757 .33735658 .44599916 .31835938 .47299195 .31835938 .49499513 .31835938 .5269928 .3363495 .5269928 .37635804 .5269928 .42837525 .46798707 .4423828 .43399049 .4423828 .37599183 .4423828 .34098817 .38935853 .32899476 .36634828 .3039856 .43237306 .25 .4423828 .22099304 .4423828 .116989139 .4423828 .05999756 .3133545 .05999756 .28834535 .05999756 .27833558 .069992069 .27833558 .07199097 .27833558 .07998657 .27833558 .08299255 .28033448 .084991458 .28933717 .11898804 .39535523 .18499756 .42037965 .21899414 .42037965 .23799134 .42037965 .272995 .4113617 .272995 .35334779 .272995 .32235719 .2559967 .25532533 .21899414 .11528015 .20298767 .053268434 .16799927 .011245728 .12399292 .011245728 .117996219 .011245728 .09498596 .011245728 .07398987 .024276734 .09899902 .029266358 .12098694 .05027771 .12098694 .07827759 .12098694 .105270389 .09899902 .11328125 .083999637 .11328125 .053985597 .11328125 .0289917 .08728027 .0289917 .055267335 .0289917 .009246826 .07899475-.0107421879 .12298584-.0107421879 .18899536-.0107421879 .22499085 .059280397 .22799683 .0652771 .23999024 .028274537 .27598573-.0107421879 .33599855-.0107421879 .43899537-.0107421879 .49598695 .118270877 .49598695 .14328003 .49598695 .1532898 .4869995 .1532898 .48399354 .1532898 .47499085 .1532898 .47299195 .14929199 .47099305 .14228821 .43798829 .03527832 .36999513 .011245728 .33799745 .011245728 .29899598 .011245728 .2829895 .043273927 .2829895 .07727051 .2829895 .09927368 .2889862 .121276859 .2999878 .16529846L.33399964 .30233766Z"/>
<path id="font_2_64" d="M.27598573 .18710327V.24511719H.010986328V.18710327H.27598573Z"/>
<path id="font_2_106" d="M.45700074 .17037964C.45700074 .252594 .3939972 .33088685 .2899933 .35191346 .37199403 .37893678 .42999269 .4490509 .42999269 .52809146 .42999269 .6100464 .34199525 .6660156 .24598694 .6660156 .14498902 .6660156 .068984989 .60606387 .068984989 .53009036 .068984989 .49710084 .09098816 .47808839 .11999512 .47808839 .15098572 .47808839 .17098999 .50009158 .17098999 .5290985 .17098999 .57910159 .12399292 .57910159 .10899353 .57910159 .13999939 .62802127 .20599365 .64100649 .24198914 .64100649 .2829895 .64100649 .33799745 .6190338 .33799745 .5290985 .33799745 .51708987 .33599855 .45906068 .30999757 .4149933 .27999879 .36691285 .24598694 .36390687 .22099304 .36291505 .21299744 .36190797 .18899536 .35990907 .18199158 .35990907 .17399597 .35890199 .16699219 .35791017 .16699219 .3479004 .16699219 .33691407 .17399597 .33691407 .19099427 .33691407H.23498535C.31698609 .33691407 .35398866 .2686615 .35398866 .17037964 .35398866 .034469606 .2849884 .0055389406 .24099732 .0055389406 .19799805 .0055389406 .12298584 .022491456 .08799744 .08137512 .12298584 .07637024 .1539917 .09837341 .1539917 .1363678 .1539917 .17237854 .1269989 .19238281 .09799194 .19238281 .07398987 .19238281 .041992189 .17837525 .041992189 .1343689 .041992189 .043441774 .1349945-.022460938 .24398804-.022460938 .3659973-.022460938 .45700074 .06838989 .45700074 .17037964Z"/>
<path id="font_2_107" d="M.44898988 .17396546H.42399598C.4189911 .14398194 .4119873 .099990848 .4019928 .084991458 .394989 .07699585 .32899476 .07699585 .30699159 .07699585H.1269989L.23298645 .17996216C.3889923 .31803895 .44898988 .37210084 .44898988 .47216798 .44898988 .5860901 .35899354 .6660156 .23699951 .6660156 .12399292 .6660156 .049987794 .57411196 .049987794 .48516847 .049987794 .4291687 .099990848 .4291687 .102996829 .4291687 .11999512 .4291687 .15499878 .44117738 .15499878 .48217774 .15499878 .5081787 .13699341 .5341797 .101989749 .5341797 .09399414 .5341797 .09199524 .5341797 .08898926 .5331726 .11199951 .59806826 .1659851 .63500979 .22399903 .63500979 .31498719 .63500979 .35798646 .5541382 .35798646 .47216798 .35798646 .39196778 .30799867 .31297303 .25299073 .25097657L.06098938 .036987306C.049987794 .025985718 .049987794 .023986817 .049987794 0H.42099L.44898988 .17396546Z"/>
<path id="font_2_82" d="M.4189911 0V.0309906H.3869934C.29699708 .0309906 .2939911 .041992189 .2939911 .07902527V.64012148C.2939911 .6640167 .2939911 .6660156 .2709961 .6660156 .20899964 .60227969 .12098694 .60227969 .08898926 .60227969V.57128909C.10899353 .57128909 .16799927 .57128909 .21998596 .5972748V.07902527C.21998596 .042999269 .21699524 .0309906 .1269989 .0309906H.09498596V0C.12998963 .0029907227 .21699524 .0029907227 .25698854 .0029907227 .29699708 .0029907227 .38398744 .0029907227 .4189911 0Z"/>
<path id="font_1_2" d="M.48599244 .38136292C.48999024 .39537049 .48999024 .39736939 .48999024 .40437318 .48999024 .42237855 .47599793 .43138124 .46099855 .43138124 .45098878 .43138124 .43499757 .42536927 .42599488 .41036988 .42399598 .405365 .41600038 .37435914 .4119873 .35635377 .40499879 .33035279 .397995 .30334474 .3919983 .27633668L.34700013 .09628296C.34298707 .08126831 .2999878 .011245728 .23399353 .011245728 .18299866 .011245728 .17199707 .055267335 .17199707 .0922699 .17199707 .1382904 .18899536 .20030213 .22299195 .28833009 .23899842 .3293457 .24299622 .3403473 .24299622 .36035157 .24299622 .405365 .21099854 .4423828 .16099549 .4423828 .06599426 .4423828 .0289917 .29733277 .0289917 .28833009 .0289917 .27833558 .038986207 .27833558 .040985109 .27833558 .050994874 .27833558 .051986696 .28033448 .056991579 .29634095 .083999637 .3903656 .12399292 .42037965 .1579895 .42037965 .1659851 .42037965 .18299866 .42037965 .18299866 .3883667 .18299866 .36335755 .17298889 .3373413 .1659851 .31834413 .12599182 .21231079 .10798645 .1552887 .10798645 .10827637 .10798645 .019256592 .17098999-.0107421879 .22999573-.0107421879 .2689972-.0107421879 .30299378 .0062561037 .33099366 .03425598 .31799317-.017745972 .30599977-.06674194 .2659912-.11973572 .23999024-.15385437 .20199585-.18309021 .1559906-.18309021 .14199829-.18309021 .09700012-.18005371 .07998657-.14074707 .09599304-.14074707 .10899353-.14074707 .12298584-.1287384 .1329956-.11973572 .14299011-.10673523 .14299011-.08773804 .14299011-.056747438 .115997318-.052734376 .10598755-.052734376 .08299255-.052734376 .049987794-.068740848 .049987794-.11773682 .049987794-.16796875 .09399414-.20507813 .1559906-.20507813 .25898744-.20507813 .3619995-.11373901 .3899994-.00074768069L.48599244 .38136292Z"/>
<path id="font_2_121" d="M.45999146 .31976319C.45999146 .39982606 .45498658 .47988893 .41999818 .5539398 .37399293 .65000918 .2919922 .6660156 .25 .6660156 .18998719 .6660156 .116989139 .64001467 .07598877 .54693606 .04399109 .47789 .038986207 .39982606 .038986207 .31976319 .038986207 .24472046 .042999269 .15464783 .083999637 .07859802 .1269989-.0024719239 .19999695-.022460938 .24899292-.022460938 .30299378-.022460938 .3789978-.0014648438 .4229889 .09359741 .45498658 .16265869 .45999146 .2407074 .45999146 .31976319M.3769989 .3317871C.3769989 .25672914 .3769989 .18867493 .3659973 .12461853 .35099793 .029556275 .2939911-.00047302247 .24899292-.00047302247 .20999146-.00047302247 .15098572 .024551392 .1329956 .12062073 .12199402 .18066406 .12199402 .2727356 .12199402 .3317871 .12199402 .39582826 .12199402 .46188355 .12998963 .5159149 .14898682 .63500979 .22399903 .64401248 .24899292 .64401248 .28199769 .64401248 .34799195 .6259918 .36698915 .52693179 .3769989 .47088624 .3769989 .39482118 .3769989 .3317871Z"/>
<path id="font_2_51" d="M.45700074 .16764832C.45700074 .20367432 .44599916 .24871826 .4079895 .29074098 .3889923 .31176759 .37298585 .32176209 .30899049 .36180116 .3809967 .39881898 .42999269 .4508667 .42999269 .51690676 .42999269 .6089783 .34098817 .6660156 .25 .6660156 .1499939 .6660156 .068984989 .5919647 .068984989 .49890138 .068984989 .48088075 .070999149 .43585206 .11299133 .38882447 .12399292 .3768158 .16099549 .35179139 .18598938 .33477784 .12799073 .30575563 .041992189 .24971009 .041992189 .15063477 .041992189 .044555665 .14399719-.022460938 .24899292-.022460938 .3619995-.022460938 .45700074 .060577394 .45700074 .16764832M.38598634 .51690676C.38598634 .45986939 .34700013 .41183473 .2869873 .3768158L.16299439 .4568634C.116989139 .4868927 .11299133 .5209198 .11299133 .53793337 .11299133 .5989685 .17799378 .64100649 .24899292 .64100649 .32199098 .64100649 .38598634 .588974 .38598634 .51690676M.40699769 .13162232C.40699769 .05757141 .33198548 .0055389406 .25 .0055389406 .1639862 .0055389406 .09199524 .06758118 .09199524 .15063477 .09199524 .2086792 .12399292 .2727356 .20899964 .31976319L.33198548 .24171448C.3600006 .22268677 .40699769 .19267273 .40699769 .13162232Z"/>
<path id="font_2_101" d="M.45700074 .2036438C.45700074 .33070375 .36799623 .4267578 .25698854 .4267578 .18899536 .4267578 .1519928 .37573243 .13198853 .327713V.35173036C.13198853 .6047821 .2559967 .64100649 .30699159 .64100649 .33099366 .64100649 .37298585 .634964 .394989 .6007538 .37998963 .6007538 .33999635 .6007538 .33999635 .5557556 .33999635 .524765 .3639984 .5097656 .38598634 .5097656 .4019928 .5097656 .43199159 .51875308 .43199159 .5577545 .43199159 .6178589 .3880005 .6660156 .30499269 .6660156 .1769867 .6660156 .041992189 .5367584 .041992189 .31570436 .041992189 .048553468 .1579895-.022460938 .25099183-.022460938 .3619995-.022460938 .45700074 .07156372 .45700074 .2036438M.36698915 .20463562C.36698915 .15661621 .36698915 .10658264 .34999085 .0705719 .31999208 .010528564 .27398683 .0055389406 .25099183 .0055389406 .18798828 .0055389406 .1579895 .06556702 .1519928 .080566409 .13398743 .127594 .13398743 .2076416 .13398743 .22564698 .13398743 .30369569 .1659851 .40374757 .2559967 .40374757 .27198792 .40374757 .31799317 .40374757 .34899903 .34172059 .36698915 .30470277 .36698915 .2536621 .36698915 .20463562Z"/>
<path id="font_2_57" d="M.47099305 .16503906V.19602967H.37098695V.6507721C.37098695 .6707611 .37098695 .6767578 .35499574 .6767578 .34599305 .6767578 .34298707 .6767578 .33499146 .6647644L.027999878 .19602967V.16503906H.2939911V.07800293C.2939911 .041992189 .2919922 .0309906 .21798706 .0309906H.19699097V0C.23799134 .0029907227 .2899933 .0029907227 .33198548 .0029907227 .37399293 .0029907227 .4269867 .0029907227 .46798707 0V.0309906H.44699098C.37298585 .0309906 .37098695 .041992189 .37098695 .07800293V.16503906H.47099305M.2999878 .19602967H.055999757L.2999878 .56881716V.19602967Z"/>
<clipPath id="clip_3">
<path transform="matrix(1.00006,0,0,-1.00008,149.92389,181.75949)" d="M-85.04042-141.73404V141.73404H85.04042V-141.73404ZM85.04042 141.73404"/>
</clipPath>
</defs>
<path transform="matrix(1.00006,0,0,-1.00008,149.92389,181.75949)" stroke-width=".3985" stroke-linecap="butt" stroke-miterlimit="10" stroke-linejoin="miter" fill="none" stroke="#000000" d="M-148.82074 0H148.36246"/>
<path transform="matrix(1.00006,0,0,-1.00008,298.29524,181.75949)" stroke-width=".31879" stroke-linecap="round" stroke-linejoin="round" fill="none" stroke="#000000" d="M-1.19551 1.59401C-1.09587 .99626 0 .09961 .29886 0 0-.09961-1.09587-.99626-1.19551-1.59401"/>
<use data-text="x" xlink:href="#font_1_1" transform="matrix(9.963197,0,0,-9.963397,302.27406,178.23921)"/>
<path transform="matrix(1.00006,0,0,-1.00008,149.92389,181.75949)" stroke-width=".3985" stroke-linecap="butt" stroke-miterlimit="10" stroke-linejoin="miter" fill="none" stroke="#000000" d="M-127.56062 1.4174V-1.4174"/>
<use data-text="-" xlink:href="#font_2_64" transform="matrix(9.963197,0,0,-9.963397,18.205979,193.33242)"/>
<use data-text="3" xlink:href="#font_2_106" transform="matrix(9.963197,0,0,-9.963397,21.523728,193.33242)"/>
<path transform="matrix(1.00006,0,0,-1.00008,149.92389,181.75949)" stroke-width=".3985" stroke-linecap="butt" stroke-miterlimit="10" stroke-linejoin="miter" fill="none" stroke="#000000" d="M-85.04042 1.4174V-1.4174"/>
<use data-text="-" xlink:href="#font_2_64" transform="matrix(9.963197,0,0,-9.963397,60.728548,193.33242)"/>
<use data-text="2" xlink:href="#font_2_107" transform="matrix(9.963197,0,0,-9.963397,64.046298,193.33242)"/>
<path transform="matrix(1.00006,0,0,-1.00008,149.92389,181.75949)" stroke-width=".3985" stroke-linecap="butt" stroke-miterlimit="10" stroke-linejoin="miter" fill="none" stroke="#000000" d="M-42.5202 1.4174V-1.4174"/>
<use data-text="-" xlink:href="#font_2_64" transform="matrix(9.963197,0,0,-9.963397,103.2511,193.33242)"/>
<use data-text="1" xlink:href="#font_2_82" transform="matrix(9.963197,0,0,-9.963397,106.56885,193.33242)"/>
<path transform="matrix(1.00006,0,0,-1.00008,149.92389,181.75949)" stroke-width=".3985" stroke-linecap="butt" stroke-miterlimit="10" stroke-linejoin="miter" fill="none" stroke="#000000" d="M42.5202 1.4174V-1.4174"/>
<use data-text="1" xlink:href="#font_2_82" transform="matrix(9.963197,0,0,-9.963397,189.95629,193.33242)"/>
<path transform="matrix(1.00006,0,0,-1.00008,149.92389,181.75949)" stroke-width=".3985" stroke-linecap="butt" stroke-miterlimit="10" stroke-linejoin="miter" fill="none" stroke="#000000" d="M85.04042 1.4174V-1.4174"/>
<use data-text="2" xlink:href="#font_2_107" transform="matrix(9.963197,0,0,-9.963397,232.47885,193.33242)"/>
<path transform="matrix(1.00006,0,0,-1.00008,149.92389,181.75949)" stroke-width=".3985" stroke-linecap="butt" stroke-miterlimit="10" stroke-linejoin="miter" fill="none" stroke="#000000" d="M127.56062 1.4174V-1.4174"/>
<use data-text="3" xlink:href="#font_2_106" transform="matrix(9.963197,0,0,-9.963397,275.0014,193.33242)"/>
<path transform="matrix(1.00006,0,0,-1.00008,149.92389,181.75949)" stroke-width=".3985" stroke-linecap="butt" stroke-miterlimit="10" stroke-linejoin="miter" fill="none" stroke="#000000" d="M0-170.08086V169.62258"/>
<path transform="matrix(0,-1.00008,-1.00006,-0,149.92389,12.123352)" stroke-width=".31879" stroke-linecap="round" stroke-linejoin="round" fill="none" stroke="#000000" d="M-1.19551 1.59401C-1.09587 .99626 0 .09961 .29886 0 0-.09961-1.09587-.99626-1.19551-1.59401"/>
<use data-text="y" xlink:href="#font_1_2" transform="matrix(9.963197,0,0,-9.963397,153.44409,6.2074587)"/>
<path transform="matrix(1.00006,0,0,-1.00008,149.92389,181.75949)" stroke-width=".3985" stroke-linecap="butt" stroke-miterlimit="10" stroke-linejoin="miter" fill="none" stroke="#000000" d="M4.25226-141.73404H-4.25226"/>
<use data-text="-" xlink:href="#font_2_64" transform="matrix(9.963197,0,0,-9.963397,128.87064,326.71308)"/>
<use data-text="1" xlink:href="#font_2_82" transform="matrix(9.963197,0,0,-9.963397,132.18839,326.71308)"/>
<use data-text="0" xlink:href="#font_2_121" transform="matrix(9.963197,0,0,-9.963397,137.16999,326.71308)"/>
<path transform="matrix(1.00006,0,0,-1.00008,149.92389,181.75949)" stroke-width=".3985" stroke-linecap="butt" stroke-miterlimit="10" stroke-linejoin="miter" fill="none" stroke="#000000" d="M4.25226-113.38724H-4.25226"/>
<use data-text="-" xlink:href="#font_2_64" transform="matrix(9.963197,0,0,-9.963397,133.85193,298.36384)"/>
<use data-text="8" xlink:href="#font_2_51" transform="matrix(9.963197,0,0,-9.963397,137.16968,298.36384)"/>
<path transform="matrix(1.00006,0,0,-1.00008,149.92389,181.75949)" stroke-width=".3985" stroke-linecap="butt" stroke-miterlimit="10" stroke-linejoin="miter" fill="none" stroke="#000000" d="M4.25226-85.04042H-4.25226"/>
<use data-text="-" xlink:href="#font_2_64" transform="matrix(9.963197,0,0,-9.963397,133.85193,270.01457)"/>
<use data-text="6" xlink:href="#font_2_101" transform="matrix(9.963197,0,0,-9.963397,137.16968,270.01457)"/>
<path transform="matrix(1.00006,0,0,-1.00008,149.92389,181.75949)" stroke-width=".3985" stroke-linecap="butt" stroke-miterlimit="10" stroke-linejoin="miter" fill="none" stroke="#000000" d="M4.25226-56.69362H-4.25226"/>
<use data-text="-" xlink:href="#font_2_64" transform="matrix(9.963197,0,0,-9.963397,133.85193,241.83029)"/>
<use data-text="4" xlink:href="#font_2_57" transform="matrix(9.963197,0,0,-9.963397,137.16968,241.83029)"/>
<path transform="matrix(1.00006,0,0,-1.00008,149.92389,181.75949)" stroke-width=".3985" stroke-linecap="butt" stroke-miterlimit="10" stroke-linejoin="miter" fill="none" stroke="#000000" d="M4.25226-28.3468H-4.25226"/>
<use data-text="-" xlink:href="#font_2_64" transform="matrix(9.963197,0,0,-9.963397,133.85193,213.42603)"/>
<use data-text="2" xlink:href="#font_2_107" transform="matrix(9.963197,0,0,-9.963397,137.16968,213.42603)"/>
<path transform="matrix(1.00006,0,0,-1.00008,149.92389,181.75949)" stroke-width=".3985" stroke-linecap="butt" stroke-miterlimit="10" stroke-linejoin="miter" fill="none" stroke="#000000" d="M4.25226 28.3468H-4.25226"/>
<use data-text="2" xlink:href="#font_2_107" transform="matrix(9.963197,0,0,-9.963397,137.17012,156.72849)"/>
<path transform="matrix(1.00006,0,0,-1.00008,149.92389,181.75949)" stroke-width=".3985" stroke-linecap="butt" stroke-miterlimit="10" stroke-linejoin="miter" fill="none" stroke="#000000" d="M4.25226 56.69362H-4.25226"/>
<use data-text="4" xlink:href="#font_2_57" transform="matrix(9.963197,0,0,-9.963397,137.17012,128.43424)"/>
<path transform="matrix(1.00006,0,0,-1.00008,149.92389,181.75949)" stroke-width=".3985" stroke-linecap="butt" stroke-miterlimit="10" stroke-linejoin="miter" fill="none" stroke="#000000" d="M4.25226 85.04042H-4.25226"/>
<use data-text="6" xlink:href="#font_2_101" transform="matrix(9.963197,0,0,-9.963397,137.17012,99.920948)"/>
<path transform="matrix(1.00006,0,0,-1.00008,149.92389,181.75949)" stroke-width=".3985" stroke-linecap="butt" stroke-miterlimit="10" stroke-linejoin="miter" fill="none" stroke="#000000" d="M4.25226 113.38724H-4.25226"/>
<use data-text="8" xlink:href="#font_2_51" transform="matrix(9.963197,0,0,-9.963397,137.17012,71.57168)"/>
<path transform="matrix(1.00006,0,0,-1.00008,149.92389,181.75949)" stroke-width=".3985" stroke-linecap="butt" stroke-miterlimit="10" stroke-linejoin="miter" fill="none" stroke="#000000" d="M4.25226 141.73404H-4.25226"/>
<use data-text="1" xlink:href="#font_2_82" transform="matrix(9.963197,0,0,-9.963397,132.18782,43.222414)"/>
<use data-text="0" xlink:href="#font_2_121" transform="matrix(9.963197,0,0,-9.963397,137.16942,43.222414)"/>
<g clip-path="url(#clip_3)">
<path transform="matrix(1.00006,0,0,-1.00008,149.92389,181.75949)" stroke-width=".3985" stroke-linecap="butt" stroke-miterlimit="10" stroke-linejoin="miter" fill="none" stroke="#000000" d="M-85.04042 56.69362-83.89915 55.1821-82.7579 53.69093-81.61665 52.22029-80.4754 50.7702-79.33417 49.34045-78.19289 47.93105-77.05165 46.54216-75.91039 45.1736-74.76915 43.82559-73.6279 42.49792-72.48663 41.19057-71.34538 39.90378-70.20415 38.63731-69.06288 37.39139-67.92165 36.16579-66.78036 34.96072-65.63913 33.776-64.49788 32.61163-63.35663 31.46777-62.21538 30.34425-61.07414 29.24129-59.93286 28.15865-58.79163 27.09654-57.65036 26.05476-56.50912 25.03334-55.36787 24.03246-54.22661 23.05188-53.08536 22.09186-51.94412 21.15218-50.80286 20.2328-49.66162 19.334-48.52034 18.45572-47.3791 17.59758-46.23785 16.75996-45.0966 15.9429-43.95535 15.14616-42.81412 14.36998-41.67284 13.61412-40.5316 12.87859-39.39034 12.16359-38.2491 11.46895-37.10785 10.79462-35.96658 10.14084-34.82533 9.5076-33.6841 8.8947-32.54283 8.30211-31.4016 7.73009-30.26031 7.17838-29.11908 6.64702-27.97783 6.13618-26.83658 5.6459-25.69533 5.17595-24.5541 4.72633-23.41281 4.29703-22.27158 3.8885-21.13031 3.50008-19.98907 3.1322-18.84782 2.78467-17.70656 2.45767-16.5653 2.151-15.42407 1.86488-14.2828 1.59908-13.14157 1.35384-12.00029 1.1289-10.85905 .92432-9.7178 .74026-8.57655 .57655-7.43532 .43317-6.29407 .31032-5.1528 .20804-4.01155 .12607-2.8703 .06444-1.72905 .02335-.58781 .00258 .55342 .00237 1.69466 .02248 2.8359 .06291 3.97716 .1239 5.11841 .20522 6.25967 .30708 7.40092 .42928 8.54216 .572 9.68343 .73488 10.82466 .91849 11.96591 1.12242 13.10718 1.3467 14.24843 1.5915 15.38968 1.85666 16.53093 2.14214 17.67216 2.44815 18.81345 2.7745 19.95468 3.1214 21.09593 3.48862 22.23718 3.87639 23.37843 4.28448 24.5197 4.71313 25.66095 5.16211 26.80219 5.63141 27.94345 6.12126 29.08469 6.63144 30.22594 7.16194 31.3672 7.713 32.50845 8.2846 33.6497 8.87654 34.79095 9.4888 35.93219 10.1216 37.07347 10.77473 38.2147 11.44818 39.35596 12.1422 40.49721 12.85675 41.63846 13.59163 42.77972 14.34685 43.92097 15.1226 45.06221 15.91869 46.20348 16.73509 47.34471 17.57205 48.48596 18.42957 49.62723 19.30719 50.76848 20.20557 51.90973 21.12405 53.05098 22.0631 54.19221 23.02269 55.3335 24.0026 56.47473 25.00284 57.61598 26.02364 58.75723 27.06476 59.89848 28.12642 61.03975 29.2084 62.181 30.31073 63.32224 31.43361 64.4635 32.5768 65.60474 33.74054 66.74599 34.92462 67.88725 36.12923 69.0285 37.35419 70.16975 38.59946 71.311 39.86528 72.45224 41.15143 73.59352 42.45813 74.73476 43.78516 75.876 45.13274 77.01726 46.50063 78.15851 47.88885 79.29977 49.29764 80.44102 50.72675 81.58226 52.17639 82.72353 53.64638 83.86476 55.1369 85.00604 56.64777"/>
<path transform="matrix(1.00006,0,0,-1.00008,149.92389,181.75949)" stroke-width=".3985" stroke-linecap="butt" stroke-miterlimit="10" stroke-linejoin="miter" fill="none" stroke="#000000" d="M-85.04042 226.77448-83.89915 214.84355-82.7579 203.38909-81.61665 192.39981-80.4754 181.86275-79.33417 171.76406-78.19289 162.09122-77.05165 152.83362-75.91039 143.97762-74.76915 135.51306-73.6279 127.42697-72.48663 119.70747-71.34538 112.34503-70.20415 105.32689-69.06288 98.64352-67.92165 92.28282-66.78036 86.2355-65.63913 80.49013-64.49788 75.03603-63.35663 69.86461-62.21538 64.96481-61.07414 60.328-59.93286 55.94336-58.79163 51.80267-57.65036 47.896-56.50912 44.21423-55.36787 40.74937-54.22661 37.49194-53.08536 34.43411-51.94412 31.56703-50.80286 28.8827-49.66162 26.37355-48.52034 24.0318-47.3791 21.84898-46.23785 19.81845-45.0966 17.93321-43.95535 16.18555-42.81412 14.56915-41.67284 13.0769-40.5316 11.70187-39.39034 10.43864-38.2491 9.28053-37.10785 8.22124-35.96658 7.2556-34.82533 6.37776-33.6841 5.58188-32.54283 4.8628-31.4016 4.21593-30.26031 3.63547-29.11908 3.11728-27.97783 2.65642-26.83658 2.24898-25.69533 1.89018-24.5541 1.57594-23.41281 1.30257-22.27158 1.06662-21.13031 .8642-19.98907 .69205-18.84782 .54694-17.70656 .42603-16.5653 .32634-15.42407 .24522-14.2828 .18034-13.14157 .1291-12.00029 .08974-10.85905 .0601-9.7178 .03848-8.57655 .02335-7.43532 .01317-6.29407 .0067-5.1528 .00302-4.01155 .00107-2.8703 .0002-1.72905 0H-.58781 .55342 1.69466L2.8359 .0002 3.97716 .00107 5.11841 .00279 6.25967 .00647 7.40092 .01295 8.54216 .0229 9.68343 .03804 10.82466 .05946 11.96591 .08888 13.10718 .12779 14.24843 .17862 15.38968 .24307 16.53093 .32373 17.67216 .42279 18.81345 .54305 19.95468 .68729 21.09593 .85857 22.23718 1.06013 23.37843 1.295 24.5197 1.56708 25.66095 1.88 26.80219 2.23729 27.94345 2.64366 29.08469 3.10258 30.22594 3.6188 31.3672 4.19713 32.50845 4.84247 33.6497 5.55917 34.79095 6.35246 35.93219 7.2279 37.07347 8.19095 38.2147 9.24678 39.35596 10.40187 40.49721 11.6623 41.63846 13.03365 42.77972 14.52223 43.92097 16.13516 45.06221 17.87872 46.20348 19.75961 47.34471 21.78563 48.48596 23.96368 49.62723 26.30046 50.76848 28.80486 51.90973 31.48335 53.05098 34.34457 54.19221 37.397 55.3335 40.64818 56.47473 44.10652 57.61598 47.78159 58.75723 51.68135 59.89848 55.81534 61.03975 60.19241 62.181 64.82143 63.32224 69.713 64.4635 74.87598 65.60474 80.32121 66.74599 86.05753 67.88725 92.0964 69.0285 98.44737 70.16975 105.12056 71.311 112.12833 72.45224 119.48016 73.59352 127.18843 74.73476 135.26326 75.876 143.71721 77.01726 152.5609 78.15851 161.80596 79.29977 171.46604 80.44102 181.55153 81.58226 192.07627 82.72353 203.05171 83.86476 214.49169 85.00604 226.40769"/>
<path transform="matrix(1.00006,0,0,-1.00008,149.92389,181.75949)" stroke-width=".3985" stroke-linecap="butt" stroke-miterlimit="10" stroke-linejoin="miter" fill="none" stroke="#000000" d="M-85.04042 907.0979-83.89915 836.4625-82.7579 770.4676-81.61665 708.87527-80.4754 651.44638-79.33417 597.94528-78.19289 548.15347-77.05165 501.86994-75.91039 458.8869-74.76915 419.0201-73.6279 382.08049-72.48663 347.89247-71.34538 316.296-70.20415 287.12565-69.06288 260.23518-67.92165 235.47496-66.78036 212.71222-65.63913 191.81241-64.49788 172.65055-63.35663 155.1133-62.21538 139.08496-61.07414 124.46323-59.93286 111.14409-58.79163 99.03561-57.65036 88.04655-56.50912 78.0919-55.36787 69.09468-54.22661 60.97745-53.08536 53.6719-51.94412 47.11008-50.80286 41.23059-49.66162 35.97612-48.52034 31.2926-47.3791 27.12747-46.23785 23.4351-45.0966 20.17204-43.95535 17.29631-42.81412 14.77116-41.67284 12.56088-40.5316 10.63263-39.39034 8.95828-38.2491 7.50949-37.10785 6.26118-35.96658 5.19109-34.82533 4.27823-33.6841 3.5029-32.54283 2.84825-31.4016 2.29913-30.26031 1.8411-29.11908 1.46175-27.97783 1.14989-26.83658 .89577-25.69533 .6901-24.5541 .5253-23.41281 .3949-22.27158 .2926-21.13031 .21323-19.98907 .1529-18.84782 .10725-17.70656 .07373-16.5653 .0495-15.42407 .03221-14.2828 .02032-13.14157 .0123-12.00029 .00713-10.85905 .00389-9.7178 .00194-8.57655 .00084-7.43532 .0002-6.29407 0H-5.1528-4.01155-2.8703-1.72905-.58781 .55342 1.69466 2.8359 3.97716 5.11841 6.25967L7.40092 .0002 8.54216 .00084 9.68343 .00194 10.82466 .00366 11.96591 .00691 13.10718 .0121 14.24843 .01988 15.38968 .03178 16.53093 .04887 17.67216 .07288 18.81345 .10617 19.95468 .15115 21.09593 .21129 22.23718 .2898 23.37843 .39143 24.5197 .52098 25.66095 .6847 26.80219 .88885 27.94345 1.14168 29.08469 1.45158 30.22594 1.82854 31.3672 2.284 32.50845 2.83029 33.6497 3.48149 34.79095 4.2527 35.93219 5.16145 37.07347 6.22679 38.2147 7.46883 39.35596 8.91113 40.49721 10.57878 41.63846 12.4986 42.77972 14.69978 43.92097 17.21564 45.06221 20.08014 46.20348 23.33086 47.34471 27.00961 48.48596 31.15959 49.62723 35.82668 50.76848 41.06406 51.90973 46.92279 53.05098 53.46255 54.19221 60.74605 55.3335 68.83754 56.47473 77.80687 57.61598 87.73123 58.75723 98.68785 59.89848 110.76279 61.03975 124.04388 62.181 138.62474 63.32224 154.60852 64.4635 172.09842 65.60474 191.2088 66.74599 212.0539 67.88725 234.76172 69.0285 259.4592 70.16975 286.2824 71.311 315.3814 72.45224 346.90196 73.59352 381.0082 74.73476 417.86174 75.876 457.64247 77.01726 500.52754 78.15851 546.7072 79.29977 596.38967 80.44102 649.7748 81.58226 707.08828 82.72353 768.55148 83.86476 834.4084 85.00604 904.8982"/>
<path transform="matrix(1.00006,0,0,-1.00008,149.92389,181.75949)" stroke-width=".3985" stroke-linecap="butt" stroke-dasharray="2.98883,2.98883" stroke-miterlimit="10" stroke-linejoin="miter" fill="none" stroke="#000000" d="M-85.04042-28.3468-83.89915-27.96637-82.7579-27.58595-81.61665-27.20555-80.4754-26.82513-79.33417-26.44472-78.19289-26.06429-77.05165-25.68387-75.91039-25.30345-74.76915-24.92305-73.6279-24.54263-72.48663-24.1622-71.34538-23.78178-70.20415-23.40137-69.06288-23.02095-67.92165-22.64055-66.78036-22.26012-65.63913-21.8797-64.49788-21.49928-63.35663-21.11887-62.21538-20.73845-61.07414-20.35805-59.93286-19.97762-58.79163-19.5972-57.65036-19.21678-56.50912-18.83636-55.36787-18.45595-54.22661-18.07553-53.08536-17.69511-51.94412-17.3147-50.80286-16.93428-49.66162-16.55386-48.52034-16.17343-47.3791-15.79303-46.23785-15.41261-45.0966-15.0322-43.95535-14.65178-42.81412-14.27136-41.67284-13.89093-40.5316-13.51053-39.39034-13.13011-38.2491-12.7497-37.10785-12.36928-35.96658-11.98885-34.82533-11.60843-33.6841-11.22803-32.54283-10.84761-31.4016-10.4672-30.26031-10.08676-29.11908-9.70634-27.97783-9.32593-26.83658-8.94553-25.69533-8.56511-24.5541-8.1847-23.41281-7.80426-22.27158-7.42384-21.13031-7.04343-19.98907-6.66302-18.84782-6.28261-17.70656-5.90218-16.5653-5.52176-15.42407-5.14134-14.2828-4.76093-13.14157-4.38052-12.00029-4.00009-10.85905-3.61967-9.7178-3.23926-8.57655-2.85884-7.43532-2.47844-6.29407-2.09802-5.1528-1.71759-4.01155-1.33717-2.8703-.95676-1.72905-.57634-.58781-.19594 .55342 .18446 1.69466 .56488 2.8359 .9453 3.97716 1.32571 5.11841 1.70613 6.25967 2.08655 7.40092 2.46696 8.54216 2.84738 9.68343 3.2278 10.82466 3.60822 11.96591 3.98863 13.10718 4.36905 14.24843 4.74947 15.38968 5.12988 16.53093 5.5103 17.67216 5.89072 18.81345 6.27115 19.95468 6.65155 21.09593 7.03197 22.23718 7.41238 23.37843 7.7928 24.5197 8.17323 25.66095 8.55365 26.80219 8.93405 27.94345 9.31447 29.08469 9.69489 30.22594 10.0753 31.3672 10.45573 32.50845 10.83615 33.6497 11.21655 34.79095 11.59697 35.93219 11.97739 37.07347 12.35782 38.2147 12.73824 39.35596 13.11865 40.49721 13.49905 41.63846 13.87947 42.77972 14.2599 43.92097 14.64032 45.06221 15.02074 46.20348 15.40115 47.34471 15.78156 48.48596 16.16197 49.62723 16.5424 50.76848 16.92282 51.90973 17.30324 53.05098 17.68365 54.19221 18.06406 55.3335 18.44449 56.47473 18.8249 57.61598 19.20532 58.75723 19.58574 59.89848 19.96616 61.03975 20.34657 62.181 20.72699 63.32224 21.1074 64.4635 21.48782 65.60474 21.86824 66.74599 22.24866 67.88725 22.62907 69.0285 23.00949 70.16975 23.38991 71.311 23.77032 72.45224 24.15074 73.59352 24.53117 74.73476 24.91158 75.876 25.29199 77.01726 25.67241 78.15851 26.05283 79.29977 26.43326 80.44102 26.81367 81.58226 27.19408 82.72353 27.5745 83.86476 27.95491 85.00604 28.33534"/>
<path transform="matrix(1.00006,0,0,-1.00008,149.92389,181.75949)" stroke-width=".3985" stroke-linecap="butt" stroke-dasharray="2.98883,2.98883" stroke-miterlimit="10" stroke-linejoin="miter" fill="none" stroke="#000000" d="M-85.04042-113.38724-83.89915-108.883-82.7579-104.49965-81.61665-100.2357-80.4754-96.0896-79.33417-92.0592-78.19289-88.143-77.05165-84.3397-75.91039-80.64734-74.76915-77.06442-73.6279-73.58919-72.48663-70.21994-71.34538-66.95512-70.20415-63.79308-69.06288-60.73242-67.92165-57.77106-66.78036-54.90765-65.63913-52.1405-64.49788-49.46762-63.35663-46.88797-62.21538-44.39958-61.07414-42.00072-59.93286-39.68988-58.79163-37.46556-57.65036-35.3258-56.50912-33.26909-55.36787-31.29388-54.22661-29.3983-53.08536-27.581-51.94412-25.84003-50.80286-24.17389-49.66162-22.58105-48.52034-21.06004-47.3791-19.60844-46.23785-18.22519-45.0966-16.90875-43.95535-15.65721-42.81412-14.46925-41.67284-13.34271-40.5316-12.27628-39.39034-11.26825-38.2491-10.31688-37.10785-9.42044-35.96658-8.57765-34.82533-7.78696-33.6841-7.04625-32.54283-6.35396-31.4016-5.70862-30.26031-5.10847-29.11908-4.55202-27.97783-4.03752-26.83658-3.56323-25.69533-3.12766-24.5541-2.7293-23.41281-2.36597-22.27158-2.03659-21.13031-1.73923-19.98907-1.47235-18.84782-1.23422-17.70656-1.02338-16.5653-.8378-15.42407-.67625-14.2828-.53699-13.14157-.41824-12.00029-.31854-10.85905-.23593-9.7178-.16911-8.57655-.11612-7.43532-.07568-6.29407-.04582-5.1528-.02507-4.01155-.01189-2.8703-.0043-1.72905-.00084-.58781 0H.55342L1.69466 .00084 2.8359 .00409 3.97716 .01144 5.11841 .02463 6.25967 .04518 7.40092 .0746 8.54216 .11482 9.68343 .16716 10.82466 .23376 11.96591 .31573 13.10718 .41501 14.24843 .5331 15.38968 .67194 16.53093 .83263 17.67216 1.0173 18.81345 1.22752 19.95468 1.46478 21.09593 1.73079 22.23718 2.02707 23.37843 2.35559 24.5197 2.71783 25.66095 3.11513 26.80219 3.5496 27.94345 4.02258 29.08469 4.53601 30.22594 5.09096 31.3672 5.6898 32.50845 6.33385 33.6497 7.02461 34.79095 7.76382 35.93219 8.5532 37.07347 9.3945 38.2147 10.28877 39.35596 11.2384 40.49721 12.24492 41.63846 13.30962 42.77972 14.4342 43.92097 15.62067 45.06221 16.87027 46.20348 18.18475 47.34471 19.56584 48.48596 21.01527 49.62723 22.53413 50.76848 24.125 51.90973 25.78877 53.05098 27.52736 54.19221 29.3425 55.3335 31.2355 56.47473 33.2083 57.61598 35.26263 58.75723 37.39981 59.89848 39.62177 61.03975 41.93 62.181 44.32584 63.32224 46.81163 64.4635 49.38847 65.60474 52.05853 66.74599 54.82266 67.88725 57.68347 69.0285 60.64182 70.16975 63.69943 71.311 66.85825 72.45224 70.1198 73.59352 73.48602 74.73476 76.95802 75.876 80.53792 77.01726 84.22702 78.15851 88.02687 79.29977 91.9396 80.44102 95.96632 81.58226 100.10918 82.72353 104.36945 83.86476 108.74933 85.00604 113.24968"/>
<path transform="matrix(1.00006,0,0,-1.00008,149.92389,181.75949)" stroke-width=".3985" stroke-linecap="butt" stroke-dasharray="2.98883,2.98883" stroke-miterlimit="10" stroke-linejoin="miter" fill="none" stroke="#000000" d="M-85.04042-453.54896-83.89915-423.92054-82.7579-395.86006-81.61665-369.30744-80.4754-344.20054-79.33417-320.4771-78.19289-298.079-77.05165-276.95256-75.91039-257.04-74.76915-238.29122-73.6279-220.6521-72.48663-204.07207-71.34538-188.50566-70.20415-173.90276-69.06288-160.22028-67.92165-147.41219-66.78036-135.43758-65.63913-124.25388-64.49788-113.8202-63.35663-104.10063-62.21538-95.05605-61.07414-86.65227-59.93286-78.85295-58.79163-71.62611-57.65036-64.93886-56.50912-58.76048-55.36787-53.0618-54.22661-47.81381-53.08536-42.98994-51.94412-38.56334-50.80286-34.50873-49.66162-30.80295-48.52034-27.42288-47.3791-24.3456-46.23785-21.55118-45.0966-19.01976-43.95535-16.73186-42.81412-14.66974-41.67284-12.81631-40.5316-11.1545-39.39034-9.67023-38.2491-8.34819-37.10785-7.1747-35.96658-6.13725-34.82533-5.22353-33.6841-4.42183-32.54283-3.72154-31.4016-3.11339-30.26031-2.58722-29.11908-2.13478-27.97783-1.74786-26.83658-1.41936-25.69533-1.1421-24.5541-.91005-23.41281-.71713-22.27158-.55861-21.13031-.42928-19.98907-.32526-18.84782-.24242-17.70656-.17732-16.5653-.12692-15.42407-.08888-14.2828-.06055-13.14157-.03978-12.00029-.02528-10.85905-.01512-9.7178-.00864-8.57655-.00452-7.43532-.00215-6.29407-.00084-5.1528-.0002-4.01155 0H-2.8703-1.72905-.58781 .55342 1.69466 2.8359 3.97716L5.11841 .0002 6.25967 .00084 7.40092 .00215 8.54216 .00452 9.68343 .00864 10.82466 .01512 11.96591 .02486 13.10718 .03935 14.24843 .05968 15.38968 .08778 16.53093 .12585 17.67216 .17558 18.81345 .24026 19.95468 .32245 21.09593 .42581 22.23718 .55429 23.37843 .71194 24.5197 .90355 25.66095 1.13454 26.80219 1.41005 27.94345 1.73727 29.08469 2.12202 30.22594 2.5723 31.3672 3.09608 32.50845 3.70209 33.6497 4.39932 34.79095 5.19759 35.93219 6.10786 37.07347 7.14162 38.2147 8.31033 39.35596 9.62764 40.49721 11.10735 41.63846 12.76332 42.77972 14.61069 43.92097 16.66655 45.06221 18.94753 46.20348 21.47118 47.34471 24.25737 48.48596 27.32579 49.62723 30.69635 50.76848 34.39236 51.90973 38.43553 53.05098 42.85045 54.19221 47.66264 55.3335 52.89722 56.47473 58.58163 57.61598 64.7453 58.75723 71.41655 59.89848 78.6274 61.03975 86.40897 62.181 94.79393 63.32224 103.8184 64.4635 113.51698 65.60474 123.92818 66.74599 135.08853 67.88725 147.03998 69.0285 159.82213 70.16975 173.47713 71.311 188.05129 72.45224 203.58805 73.59352 220.1363 74.73476 237.74256 75.876 256.45893 77.01726 276.33488 78.15851 297.4235 79.29977 319.78248 80.44102 343.46458 81.58226 368.531 82.72353 395.0391 83.86476 423.05287 85.00604 452.6322"/>
</g>
</svg>
