<svg xmlns="http://www.w3.org/2000/svg" xmlns:xlink="http://www.w3.org/1999/xlink" xmlns:inkscape="http://www.inkscape.org/namespaces/inkscape" version="1.1" width="181" height="119" viewBox="0 0 181 119">
<defs>
<path id="font_1_1" d="M.33399964 .30233766C.33999635 .32835389 .36299134 .42037965 .43299867 .42037965 .43798829 .42037965 .46199037 .42037965 .48298646 .40734864 .45498658 .402359 .43499757 .37734986 .43499757 .35334779 .43499757 .33735658 .44599916 .31835938 .47299195 .31835938 .49499513 .31835938 .5269928 .3363495 .5269928 .37635804 .5269928 .42837525 .46798707 .4423828 .43399049 .4423828 .37599183 .4423828 .34098817 .38935853 .32899476 .36634828 .3039856 .43237306 .25 .4423828 .22099304 .4423828 .116989139 .4423828 .05999756 .3133545 .05999756 .28834535 .05999756 .27833558 .069992069 .27833558 .07199097 .27833558 .07998657 .27833558 .08299255 .28033448 .084991458 .28933717 .11898804 .39535523 .18499756 .42037965 .21899414 .42037965 .23799134 .42037965 .272995 .4113617 .272995 .35334779 .272995 .32235719 .2559967 .25532533 .21899414 .11528015 .20298767 .053268434 .16799927 .011245728 .12399292 .011245728 .117996219 .011245728 .09498596 .011245728 .07398987 .024276734 .09899902 .029266358 .12098694 .05027771 .12098694 .07827759 .12098694 .105270389 .09899902 .11328125 .083999637 .11328125 .053985597 .11328125 .0289917 .08728027 .0289917 .055267335 .0289917 .009246826 .07899475-.0107421879 .12298584-.0107421879 .18899536-.0107421879 .22499085 .059280397 .22799683 .0652771 .23999024 .028274537 .27598573-.0107421879 .33599855-.0107421879 .43899537-.0107421879 .49598695 .118270877 .49598695 .14328003 .49598695 .1532898 .4869995 .1532898 .48399354 .1532898 .47499085 .1532898 .47299195 .14929199 .47099305 .14228821 .43798829 .03527832 .36999513 .011245728 .33799745 .011245728 .29899598 .011245728 .2829895 .043273927 .2829895 .07727051 .2829895 .09927368 .2889862 .121276859 .2999878 .16529846L.33399964 .30233766Z"/>
<path id="font_2_82" d="M.4189911 0V.0309906H.3869934C.29699708 .0309906 .2939911 .041992189 .2939911 .07902527V.64012148C.2939911 .6640167 .2939911 .6660156 .2709961 .6660156 .20899964 .60227969 .12098694 .60227969 .08898926 .60227969V.57128909C.10899353 .57128909 .16799927 .57128909 .21998596 .5972748V.07902527C.21998596 .042999269 .21699524 .0309906 .1269989 .0309906H.09498596V0C.12998963 .0029907227 .21699524 .0029907227 .25698854 .0029907227 .29699708 .0029907227 .38398744 .0029907227 .4189911 0Z"/>
<path id="font_1_2" d="M.48599244 .38136292C.48999024 .39537049 .48999024 .39736939 .48999024 .40437318 .48999024 .42237855 .47599793 .43138124 .46099855 .43138124 .45098878 .43138124 .43499757 .42536927 .42599488 .41036988 .42399598 .405365 .41600038 .37435914 .4119873 .35635377 .40499879 .33035279 .397995 .30334474 .3919983 .27633668L.34700013 .09628296C.34298707 .08126831 .2999878 .011245728 .23399353 .011245728 .18299866 .011245728 .17199707 .055267335 .17199707 .0922699 .17199707 .1382904 .18899536 .20030213 .22299195 .28833009 .23899842 .3293457 .24299622 .3403473 .24299622 .36035157 .24299622 .405365 .21099854 .4423828 .16099549 .4423828 .06599426 .4423828 .0289917 .29733277 .0289917 .28833009 .0289917 .27833558 .038986207 .27833558 .040985109 .27833558 .050994874 .27833558 .051986696 .28033448 .056991579 .29634095 .083999637 .3903656 .12399292 .42037965 .1579895 .42037965 .1659851 .42037965 .18299866 .42037965 .18299866 .3883667 .18299866 .36335755 .17298889 .3373413 .1659851 .31834413 .12599182 .21231079 .10798645 .1552887 .10798645 .10827637 .10798645 .019256592 .17098999-.0107421879 .22999573-.0107421879 .2689972-.0107421879 .30299378 .0062561037 .33099366 .03425598 .31799317-.017745972 .30599977-.06674194 .2659912-.11973572 .23999024-.15385437 .20199585-.18309021 .1559906-.18309021 .14199829-.18309021 .09700012-.18005371 .07998657-.14074707 .09599304-.14074707 .10899353-.14074707 .12298584-.1287384 .1329956-.11973572 .14299011-.10673523 .14299011-.08773804 .14299011-.056747438 .115997318-.052734376 .10598755-.052734376 .08299255-.052734376 .049987794-.068740848 .049987794-.11773682 .049987794-.16796875 .09399414-.20507813 .1559906-.20507813 .25898744-.20507813 .3619995-.11373901 .3899994-.00074768069L.48599244 .38136292Z"/>
<path id="font_2_121" d="M.45999146 .31976319C.45999146 .39982606 .45498658 .47988893 .41999818 .5539398 .37399293 .65000918 .2919922 .6660156 .25 .6660156 .18998719 .6660156 .116989139 .64001467 .07598877 .54693606 .04399109 .47789 .038986207 .39982606 .038986207 .31976319 .038986207 .24472046 .042999269 .15464783 .083999637 .07859802 .1269989-.0024719239 .19999695-.022460938 .24899292-.022460938 .30299378-.022460938 .3789978-.0014648438 .4229889 .09359741 .45498658 .16265869 .45999146 .2407074 .45999146 .31976319M.3769989 .3317871C.3769989 .25672914 .3769989 .18867493 .3659973 .12461853 .35099793 .029556275 .2939911-.00047302247 .24899292-.00047302247 .20999146-.00047302247 .15098572 .024551392 .1329956 .12062073 .12199402 .18066406 .12199402 .2727356 .12199402 .3317871 .12199402 .39582826 .12199402 .46188355 .12998963 .5159149 .14898682 .63500979 .22399903 .64401248 .24899292 .64401248 .28199769 .64401248 .34799195 .6259918 .36698915 .52693179 .3769989 .47088624 .3769989 .39482118 .3769989 .3317871Z"/>
<path id="font_2_88" d="M.19198609 .052993776C.19198609 .08198547 .16799927 .10598755 .13899231 .10598755 .10998535 .10598755 .085998538 .08198547 .085998538 .052993776 .085998538 .023986817 .10998535 0 .13899231 0 .16799927 0 .19198609 .023986817 .19198609 .052993776Z"/>
<path id="font_2_107" d="M.44898988 .17396546H.42399598C.4189911 .14398194 .4119873 .099990848 .4019928 .084991458 .394989 .07699585 .32899476 .07699585 .30699159 .07699585H.1269989L.23298645 .17996216C.3889923 .31803895 .44898988 .37210084 .44898988 .47216798 .44898988 .5860901 .35899354 .6660156 .23699951 .6660156 .12399292 .6660156 .049987794 .57411196 .049987794 .48516847 .049987794 .4291687 .099990848 .4291687 .102996829 .4291687 .11999512 .4291687 .15499878 .44117738 .15499878 .48217774 .15499878 .5081787 .13699341 .5341797 .101989749 .5341797 .09399414 .5341797 .09199524 .5341797 .08898926 .5331726 .11199951 .59806826 .1659851 .63500979 .22399903 .63500979 .31498719 .63500979 .35798646 .5541382 .35798646 .47216798 .35798646 .39196778 .30799867 .31297303 .25299073 .25097657L.06098938 .036987306C.049987794 .025985718 .049987794 .023986817 .049987794 0H.42099L.44898988 .17396546Z"/>
</defs>
<path transform="matrix(1.00008,0,0,-1.00005,43.62005,100.23136)" stroke-width=".3985" stroke-linecap="butt" stroke-miterlimit="10" stroke-linejoin="miter" fill="none" stroke="#000000" d="M-42.52019 0H127.10234"/>
<path transform="matrix(1.00008,0,0,-1.00005,170.73256,100.23136)" stroke-width=".31879" stroke-linecap="round" stroke-linejoin="round" fill="none" stroke="#000000" d="M-1.19551 1.59401C-1.09587 .99626 0 .09961 .29886 0 0-.09961-1.09587-.99626-1.19551-1.59401"/>
<use data-text="x" xlink:href="#font_1_1" transform="matrix(9.963397,0,0,-9.963098,174.71054,96.71118)"/>
<path transform="matrix(1.00008,0,0,-1.00005,43.62005,100.23136)" stroke-width=".3985" stroke-linecap="butt" stroke-miterlimit="10" stroke-linejoin="miter" fill="none" stroke="#000000" d="M85.04042 3.56676V-3.56676"/>
<use data-text="1" xlink:href="#font_2_82" transform="matrix(9.963397,0,0,-9.963098,126.17665,113.95405)"/>
<path transform="matrix(1.00008,0,0,-1.00005,43.62005,100.23136)" stroke-width=".3985" stroke-linecap="butt" stroke-miterlimit="10" stroke-linejoin="miter" fill="none" stroke="#000000" d="M0-17.7331V88.10274"/>
<path transform="matrix(0,-1.00005,-1.00008,-0,43.62005,12.124222)" stroke-width=".31879" stroke-linecap="round" stroke-linejoin="round" fill="none" stroke="#000000" d="M-1.19551 1.59401C-1.09587 .99626 0 .09961 .29886 0 0-.09961-1.09587-.99626-1.19551-1.59401"/>
<use data-text="y" xlink:href="#font_1_2" transform="matrix(9.963397,0,0,-9.963098,47.140329,6.208664)"/>
<path transform="matrix(1.00008,0,0,-1.00005,43.62005,100.23136)" stroke-width=".3985" stroke-linecap="butt" stroke-miterlimit="10" stroke-linejoin="miter" fill="none" stroke="#000000" d="M2.5511 35.413H-2.5511"/>
<use data-text="0" xlink:href="#font_2_121" transform="matrix(9.963397,0,0,-9.963098,19.833146,68.02475)"/>
<use data-text="." xlink:href="#font_2_88" transform="matrix(9.963397,0,0,-9.963098,24.814843,68.02475)"/>
<use data-text="0" xlink:href="#font_2_121" transform="matrix(9.963397,0,0,-9.963098,27.584664,68.02475)"/>
<use data-text="1" xlink:href="#font_2_82" transform="matrix(9.963397,0,0,-9.963098,32.566354,68.02475)"/>
<path transform="matrix(1.00008,0,0,-1.00005,43.62005,100.23136)" stroke-width=".3985" stroke-linecap="butt" stroke-miterlimit="10" stroke-linejoin="miter" fill="none" stroke="#000000" d="M2.5511 70.88112H-2.5511"/>
<use data-text="0" xlink:href="#font_2_121" transform="matrix(9.963397,0,0,-9.963098,19.833146,32.554986)"/>
<use data-text="." xlink:href="#font_2_88" transform="matrix(9.963397,0,0,-9.963098,24.814843,32.554986)"/>
<use data-text="0" xlink:href="#font_2_121" transform="matrix(9.963397,0,0,-9.963098,27.584664,32.554986)"/>
<use data-text="2" xlink:href="#font_2_107" transform="matrix(9.963397,0,0,-9.963098,32.566354,32.554986)"/>
<path transform="matrix(1.00008,0,0,-1.00005,43.62005,100.23136)" stroke-width=".3985" stroke-linecap="butt" stroke-dasharray="2.98883,2.98883" stroke-miterlimit="10" stroke-linejoin="miter" fill="none" stroke="#000000" d="M-8.08543 18.13506C-8.0104 18.16826-8.0104 18.16826-7.82068 18.21956-7.63097 18.27087-7.32658 18.28416-7.13687 18.32788-6.94714 18.37158-6.64278 18.5008-6.453 18.54451-6.26324 18.58821-5.95886 18.61671-5.76915 18.65282-5.57942 18.68892-5.27505 18.78584-5.08533 18.81435-4.89561 18.84285-4.59119 18.84094-4.40147 18.86945-4.21175 18.89795-3.90738 19.01007-3.71765 19.03098-3.52792 19.05186-3.22356 19.02527-3.03378 19.03098-2.84402 19.03667-2.53966 19.07088-2.34993 19.08418-2.1602 19.09747-1.85583 19.13168-1.6661 19.13928-1.4764 19.14688-1.17197 19.13928-.98225 19.13928-.79253 19.13928-.48816 19.07277-.29843 19.13928-.10872 19.2058 .19565 19.52884 .38536 19.62575 .57509 19.72266 .8795 19.82907 1.06923 19.84238 1.25894 19.85568 1.56332 19.79297 1.75304 19.73405 1.94276 19.67516 2.24718 19.46803 2.4369 19.40912 2.62662 19.3502 2.931 19.33691 3.12071 19.30081 3.31044 19.2647 3.6148 19.14499 3.80458 19.13928 3.99434 19.13358 4.29872 19.3065 4.48843 19.2476 4.67816 19.18869 4.98253 18.78014 5.17226 18.70602 5.36197 18.63191 5.6664 18.69843 5.85611 18.70602 6.04584 18.71362 6.3502 18.82764 6.53993 18.76114 6.72964 18.69463 7.03403 18.30127 7.22379 18.21956 7.41356 18.13785 7.71793 18.21767 7.90765 18.16635 8.09737 18.11505 8.40175 17.95352 8.59146 17.84142 8.78119 17.7293 9.0856 17.41386 9.27533 17.35495 9.46504 17.29604 9.76942 17.48227 9.95914 17.40816 10.14886 17.33405 10.45328 16.9103 10.643 16.81339 10.83272 16.71646 11.1371 16.75638 11.32681 16.70506 11.51654 16.65376 11.8209 16.54735 12.01068 16.43523 12.20044 16.32312 12.50482 16.03047 12.69453 15.89555 12.88426 15.76065 13.18863 15.55162 13.37836 15.46231 13.56808 15.37299 13.8725 15.33499 14.06221 15.24568 14.25194 15.15637 14.5563 14.96254 14.74603 14.81432 14.93576 14.6661 15.24013 14.27655 15.4299 14.16443 15.61966 14.05232 15.92404 14.12263 16.11375 14.00291 16.30348 13.8832 16.60785 13.42714 16.79758 13.29982 16.98729 13.1725 17.29172 13.21811 17.48143 13.08319 17.67116 12.94827 17.97552 12.4618 18.16525 12.32689 18.35497 12.19199 18.65935 12.25848 18.8491 12.11028 19.03888 11.96205 19.34325 11.38817 19.53297 11.24565 19.72269 11.10313 20.02707 11.17915 20.21678 11.08223 20.40651 10.98532 20.71092 10.69838 20.90065 10.54256 21.09036 10.38675 21.39474 10.1036 21.58446 9.94778 21.77419 9.79196 22.07855 9.56964 22.26833 9.40622 22.45808 9.2428 22.76247 8.92165 22.95218 8.75824 23.1419 8.59482 23.44627 8.33638 23.636 8.21666 23.82571 8.09694 24.13014 8.05704 24.31985 7.89362 24.50958 7.7302 24.81395 7.19814 25.00368 7.0271 25.19339 6.85608 25.49777 6.81238 25.68753 6.64896 25.8773 6.48553 26.18167 6.00098 26.3714 5.83755 26.56111 5.67413 26.8655 5.62282 27.0552 5.4594 27.24493 5.29597 27.54935 4.81142 27.73907 4.648 27.92879 4.48457 28.23317 4.42567 28.42288 4.26985 28.61261 4.11403 28.91698 3.72258 29.10675 3.51355 29.29651 3.30452 29.60089 2.92827 29.7906 2.75725 29.98033 2.58623 30.2847 2.419 30.47443 2.27078 30.66414 2.12257 30.96857 1.81853 31.15828 1.67601 31.348 1.5335 31.65237 1.42899 31.8421 1.24275 32.03183 1.05653 32.3362 .48645 32.52597 .32303 32.71573 .1596 33.0201 .00949 33.20982 .05319 33.39955 .09691 33.70392 .47696 33.89365 .64798 34.08336 .819 34.38779 1.08693 34.5775 1.29596 34.76723 1.50499 35.0716 1.94585 35.26132 2.16248 35.45103 2.3791 35.75542 2.70784 35.94518 2.86366 36.13495 3.01949 36.43932 3.1544 36.62904 3.29692 36.81876 3.43944 37.12314 3.70547 37.31285 3.8917 37.50258 4.07793 37.80699 4.47697 37.99672 4.648 38.18643 4.81902 38.49081 4.98055 38.68053 5.13637 38.87025 5.29218 39.17462 5.63612 39.3644 5.78435 39.55415 5.93257 39.85854 6.07509 40.04825 6.2176 40.23798 6.36012 40.54234 6.63376 40.73207 6.81238 40.92178 6.991 41.22621 7.35014 41.41592 7.51357 41.60565 7.67699 41.91002 7.84612 42.09975 8.00194 42.28946 8.15776 42.59384 8.5093 42.7836 8.64992 42.97337 8.79054 43.27774 8.90836 43.46747 9.02806 43.65718 9.14778 43.96156 9.3587 44.15128 9.51453 44.341 9.67035 44.64542 10.01619 44.83514 10.16441 45.02486 10.31264 45.32924 10.46086 45.51895 10.59576 45.70868 10.73068 46.01309 10.98152 46.20282 11.13734 46.39253 11.29317 46.69691 11.5915 46.88663 11.73212 47.07635 11.87274 47.38072 12.08937 47.5705 12.16348 47.76025 12.23758 48.06464 12.16728 48.25435 12.27179 48.44408 12.3763 48.74844 12.77916 48.93817 12.92168 49.12788 13.0642 49.43231 13.18011 49.62202 13.29982 49.81175 13.41954 50.11612 13.68178 50.30585 13.78629 50.49557 13.8908 50.79994 13.97441 50.98972 14.05612 51.17947 14.13783 51.48384 14.26895 51.67357 14.38106 51.8633 14.49318 52.16766 14.77821 52.35739 14.86752 52.5471 14.95683 52.85153 14.96254 53.04124 15.02905 53.23097 15.09555 53.53534 15.30269 53.72507 15.35399 53.91478 15.4053 54.21916 15.34259 54.40892 15.4091 54.5987 15.4756 54.90306 15.74355 55.09279 15.84045 55.2825 15.93736 55.58688 16.07419 55.7766 16.11029 55.96632 16.1464 56.27074 16.10269 56.46046 16.11029 56.65018 16.11789 56.95456 16.1445 57.14427 16.16539 57.334 16.1863 57.63837 16.2224 57.82814 16.27371 58.0179 16.32501 58.32228 16.52264 58.512 16.54355 58.70172 16.56445 59.00609 16.44093 59.19582 16.43523 59.38553 16.42953 59.68996 16.47704 59.87967 16.49034 60.0694 16.50365 60.37376 16.55115 60.56349 16.54355 60.7532 16.53595 61.05759 16.46373 61.24734 16.43523 61.43712 16.40672 61.74149 16.38582 61.93121 16.32692 62.12093 16.268 62.42531 16.03998 62.61502 16.00388 62.80475 15.96777 63.10916 16.08559 63.29889 16.05708 63.4886 16.02858 63.79298 15.83095 63.9827 15.78725 64.17242 15.74355 64.47679 15.81384 64.66656 15.73215 64.85632 15.65044 65.1607 15.31218 65.35042 15.19247 65.54015 15.07275 65.84451 14.96445 66.03424 14.86752 66.22395 14.77061 66.52838 14.57109 66.7181 14.48938 66.90782 14.40767 67.21219 14.38486 67.40192 14.27275 67.59164 14.16063 67.89601 13.8205 68.08577 13.67798 68.27554 13.53546 68.57991 13.41574 68.76964 13.24472 68.95937 13.0737 69.26373 12.61383 69.45346 12.43521 69.64317 12.25659 69.9476 12.10457 70.13731 11.94875 70.32704 11.79292 70.63141 11.48509 70.82114 11.29886 71.01085 11.11264 71.31523 10.82 71.50499 10.59576 71.69476 10.37154 71.99913 9.88698 72.18886 9.67795 72.37857 9.46892 72.68295 9.2846 72.87267 9.08318 73.0624 8.88174 73.3668 8.4941 73.55653 8.21666 73.74625 7.93922 74.05063 7.35774 74.24034 7.08221 74.43007 6.80667 74.73444 6.47984 74.92421 6.2176 75.11397 5.95537 75.41835 5.4898 75.60806 5.18958 75.79779 4.88933 76.10216 4.36676 76.29189 4.05322 76.4816 3.73969 76.78603 3.26271 76.97574 2.91878 77.16547 2.57483 77.46983 1.92685 77.65956 1.5677 77.84927 1.20856 78.1537 .40474 78.34341 .32303 78.53314 .24132 78.83751 .70308 79.02724 .97292 79.21695 1.24275 79.52133 1.86603 79.71109 2.27078 79.90086 2.67554 80.20523 3.43564 80.39496 3.8917 80.58467 4.34776 80.88905 5.11926 81.07877 5.56772 81.2685 6.01617 81.5729 6.70216 81.76263 7.13542 81.95235 7.56868 82.25673 8.22426 82.44644 8.70313 82.63617 9.18199 82.94054 10.0713 83.13031 10.59576 83.32007 11.12024 83.62445 11.97156 83.81416 12.48842 84.00389 13.00528 84.30826 13.80908 84.49799 14.32596 84.6877 14.84282 84.99213 15.64853 85.18184 16.2186 85.37157 16.78868 85.67593 17.83002 85.86566 18.43619 86.05539 19.04237 86.35976 19.9849 86.54951 20.59868 86.73929 21.21245 87.04366 22.2481 87.23338 22.86946 87.42311 23.49084 87.72748 24.43527 87.9172 25.08705 88.10692 25.73885 88.41135 26.92079 88.60106 27.57259 88.79079 28.22437 89.09515 29.12318 89.28488 29.79018 89.4746 30.45715 89.77898 31.68091 89.96873 32.38591 90.15851 33.0909 90.46288 34.12463 90.6526 34.87334 90.84232 35.62202 91.1467 36.95981 91.33641 37.79211 91.52614 38.62442 91.83055 40.10281 92.02028 40.87431 92.20999 41.64581 92.51437 42.60544 92.70409 43.36174 92.89381 44.11803 93.38795 46.33562 93.28833 45.88834"/>
<path transform="matrix(-.91459318,.4044402,.40445233,.9145657,35.533975,82.0954)" stroke-width=".31879" stroke-linecap="round" stroke-linejoin="round" fill="none" stroke="#000000" d="M-1.19551 1.59401C-1.09587 .99626 0 .09961 .29886 0 0-.09961-1.09587-.99626-1.19551-1.59401"/>
<path transform="matrix(.21741739,-.97607877,-.9761081,-.21741086,136.91582,54.34073)" stroke-width=".31879" stroke-linecap="round" stroke-linejoin="round" fill="none" stroke="#000000" d="M-1.19551 1.59401C-1.09587 .99626 0 .09961 .29886 0 0-.09961-1.09587-.99626-1.19551-1.59401"/>
</svg>
