<svg xmlns="http://www.w3.org/2000/svg" xmlns:xlink="http://www.w3.org/1999/xlink" xmlns:inkscape="http://www.inkscape.org/namespaces/inkscape" version="1.1" width="210" height="200" viewBox="0 0 210 200">
<defs>
<path id="font_1_1" d="M.33399964 .30233766C.33999635 .32835389 .36299134 .42037965 .43299867 .42037965 .43798829 .42037965 .46199037 .42037965 .48298646 .40734864 .45498658 .402359 .43499757 .37734986 .43499757 .35334779 .43499757 .33735658 .44599916 .31835938 .47299195 .31835938 .49499513 .31835938 .5269928 .3363495 .5269928 .37635804 .5269928 .42837525 .46798707 .4423828 .43399049 .4423828 .37599183 .4423828 .34098817 .38935853 .32899476 .36634828 .3039856 .43237306 .25 .4423828 .22099304 .4423828 .116989139 .4423828 .05999756 .3133545 .05999756 .28834535 .05999756 .27833558 .069992069 .27833558 .07199097 .27833558 .07998657 .27833558 .08299255 .28033448 .084991458 .28933717 .11898804 .39535523 .18499756 .42037965 .21899414 .42037965 .23799134 .42037965 .272995 .4113617 .272995 .35334779 .272995 .32235719 .2559967 .25532533 .21899414 .11528015 .20298767 .053268434 .16799927 .011245728 .12399292 .011245728 .117996219 .011245728 .09498596 .011245728 .07398987 .024276734 .09899902 .029266358 .12098694 .05027771 .12098694 .07827759 .12098694 .105270389 .09899902 .11328125 .083999637 .11328125 .053985597 .11328125 .0289917 .08728027 .0289917 .055267335 .0289917 .009246826 .07899475-.0107421879 .12298584-.0107421879 .18899536-.0107421879 .22499085 .059280397 .22799683 .0652771 .23999024 .028274537 .27598573-.0107421879 .33599855-.0107421879 .43899537-.0107421879 .49598695 .118270877 .49598695 .14328003 .49598695 .1532898 .4869995 .1532898 .48399354 .1532898 .47499085 .1532898 .47299195 .14929199 .47099305 .14228821 .43798829 .03527832 .36999513 .011245728 .33799745 .011245728 .29899598 .011245728 .2829895 .043273927 .2829895 .07727051 .2829895 .09927368 .2889862 .121276859 .2999878 .16529846L.33399964 .30233766Z"/>
<path id="font_2_64" d="M.27598573 .18710327V.24511719H.010986328V.18710327H.27598573Z"/>
<path id="font_2_106" d="M.45700074 .17037964C.45700074 .252594 .3939972 .33088685 .2899933 .35191346 .37199403 .37893678 .42999269 .4490509 .42999269 .52809146 .42999269 .6100464 .34199525 .6660156 .24598694 .6660156 .14498902 .6660156 .068984989 .60606387 .068984989 .53009036 .068984989 .49710084 .09098816 .47808839 .11999512 .47808839 .15098572 .47808839 .17098999 .50009158 .17098999 .5290985 .17098999 .57910159 .12399292 .57910159 .10899353 .57910159 .13999939 .62802127 .20599365 .64100649 .24198914 .64100649 .2829895 .64100649 .33799745 .6190338 .33799745 .5290985 .33799745 .51708987 .33599855 .45906068 .30999757 .4149933 .27999879 .36691285 .24598694 .36390687 .22099304 .36291505 .21299744 .36190797 .18899536 .35990907 .18199158 .35990907 .17399597 .35890199 .16699219 .35791017 .16699219 .3479004 .16699219 .33691407 .17399597 .33691407 .19099427 .33691407H.23498535C.31698609 .33691407 .35398866 .2686615 .35398866 .17037964 .35398866 .034469606 .2849884 .0055389406 .24099732 .0055389406 .19799805 .0055389406 .12298584 .022491456 .08799744 .08137512 .12298584 .07637024 .1539917 .09837341 .1539917 .1363678 .1539917 .17237854 .1269989 .19238281 .09799194 .19238281 .07398987 .19238281 .041992189 .17837525 .041992189 .1343689 .041992189 .043441774 .1349945-.022460938 .24398804-.022460938 .3659973-.022460938 .45700074 .06838989 .45700074 .17037964Z"/>
<path id="font_2_107" d="M.44898988 .17396546H.42399598C.4189911 .14398194 .4119873 .099990848 .4019928 .084991458 .394989 .07699585 .32899476 .07699585 .30699159 .07699585H.1269989L.23298645 .17996216C.3889923 .31803895 .44898988 .37210084 .44898988 .47216798 .44898988 .5860901 .35899354 .6660156 .23699951 .6660156 .12399292 .6660156 .049987794 .57411196 .049987794 .48516847 .049987794 .4291687 .099990848 .4291687 .102996829 .4291687 .11999512 .4291687 .15499878 .44117738 .15499878 .48217774 .15499878 .5081787 .13699341 .5341797 .101989749 .5341797 .09399414 .5341797 .09199524 .5341797 .08898926 .5331726 .11199951 .59806826 .1659851 .63500979 .22399903 .63500979 .31498719 .63500979 .35798646 .5541382 .35798646 .47216798 .35798646 .39196778 .30799867 .31297303 .25299073 .25097657L.06098938 .036987306C.049987794 .025985718 .049987794 .023986817 .049987794 0H.42099L.44898988 .17396546Z"/>
<path id="font_2_82" d="M.4189911 0V.0309906H.3869934C.29699708 .0309906 .2939911 .041992189 .2939911 .07902527V.64012148C.2939911 .6640167 .2939911 .6660156 .2709961 .6660156 .20899964 .60227969 .12098694 .60227969 .08898926 .60227969V.57128909C.10899353 .57128909 .16799927 .57128909 .21998596 .5972748V.07902527C.21998596 .042999269 .21699524 .0309906 .1269989 .0309906H.09498596V0C.12998963 .0029907227 .21699524 .0029907227 .25698854 .0029907227 .29699708 .0029907227 .38398744 .0029907227 .4189911 0Z"/>
<path id="font_1_2" d="M.48599244 .38136292C.48999024 .39537049 .48999024 .39736939 .48999024 .40437318 .48999024 .42237855 .47599793 .43138124 .46099855 .43138124 .45098878 .43138124 .43499757 .42536927 .42599488 .41036988 .42399598 .405365 .41600038 .37435914 .4119873 .35635377 .40499879 .33035279 .397995 .30334474 .3919983 .27633668L.34700013 .09628296C.34298707 .08126831 .2999878 .011245728 .23399353 .011245728 .18299866 .011245728 .17199707 .055267335 .17199707 .0922699 .17199707 .1382904 .18899536 .20030213 .22299195 .28833009 .23899842 .3293457 .24299622 .3403473 .24299622 .36035157 .24299622 .405365 .21099854 .4423828 .16099549 .4423828 .06599426 .4423828 .0289917 .29733277 .0289917 .28833009 .0289917 .27833558 .038986207 .27833558 .040985109 .27833558 .050994874 .27833558 .051986696 .28033448 .056991579 .29634095 .083999637 .3903656 .12399292 .42037965 .1579895 .42037965 .1659851 .42037965 .18299866 .42037965 .18299866 .3883667 .18299866 .36335755 .17298889 .3373413 .1659851 .31834413 .12599182 .21231079 .10798645 .1552887 .10798645 .10827637 .10798645 .019256592 .17098999-.0107421879 .22999573-.0107421879 .2689972-.0107421879 .30299378 .0062561037 .33099366 .03425598 .31799317-.017745972 .30599977-.06674194 .2659912-.11973572 .23999024-.15385437 .20199585-.18309021 .1559906-.18309021 .14199829-.18309021 .09700012-.18005371 .07998657-.14074707 .09599304-.14074707 .10899353-.14074707 .12298584-.1287384 .1329956-.11973572 .14299011-.10673523 .14299011-.08773804 .14299011-.056747438 .115997318-.052734376 .10598755-.052734376 .08299255-.052734376 .049987794-.068740848 .049987794-.11773682 .049987794-.16796875 .09399414-.20507813 .1559906-.20507813 .25898744-.20507813 .3619995-.11373901 .3899994-.00074768069L.48599244 .38136292Z"/>
<path id="font_2_121" d="M.45999146 .31976319C.45999146 .39982606 .45498658 .47988893 .41999818 .5539398 .37399293 .65000918 .2919922 .6660156 .25 .6660156 .18998719 .6660156 .116989139 .64001467 .07598877 .54693606 .04399109 .47789 .038986207 .39982606 .038986207 .31976319 .038986207 .24472046 .042999269 .15464783 .083999637 .07859802 .1269989-.0024719239 .19999695-.022460938 .24899292-.022460938 .30299378-.022460938 .3789978-.0014648438 .4229889 .09359741 .45498658 .16265869 .45999146 .2407074 .45999146 .31976319M.3769989 .3317871C.3769989 .25672914 .3769989 .18867493 .3659973 .12461853 .35099793 .029556275 .2939911-.00047302247 .24899292-.00047302247 .20999146-.00047302247 .15098572 .024551392 .1329956 .12062073 .12199402 .18066406 .12199402 .2727356 .12199402 .3317871 .12199402 .39582826 .12199402 .46188355 .12998963 .5159149 .14898682 .63500979 .22399903 .64401248 .24899292 .64401248 .28199769 .64401248 .34799195 .6259918 .36698915 .52693179 .3769989 .47088624 .3769989 .39482118 .3769989 .3317871Z"/>
<path id="font_2_56" d="M.44898988 .20091248C.44898988 .31991578 .36698915 .41992188 .25898744 .41992188 .21099854 .41992188 .16799927 .4039154 .13198853 .36891175V.5641022C.1519928 .55778506 .18499756 .55078127 .21699524 .55078127 .33999635 .55078127 .4099884 .6418457 .4099884 .65493777 .4099884 .6609802 .40699769 .6660156 .3999939 .6660156 .3999939 .66607668 .39698792 .66607668 .3919983 .66308596 .37199403 .65408328 .32299806 .63378909 .2559967 .63378909 .21598816 .63409426 .16999817 .641098 .12298584 .6621094 .114990238 .6651001 .11099243 .6651001 .11099243 .6651001 .100997928 .66508486 .100997928 .657074 .100997928 .64108279V.3447113C.100997928 .3266449 .100997928 .31861878 .114990238 .31861878 .12199402 .31861878 .12399292 .32164 .12799073 .32765199 .13899231 .34371949 .17599488 .3979187 .25698854 .3979187 .30899049 .3979187 .33399964 .3517456 .34199525 .3336792 .35798646 .2965393 .3600006 .2574005 .3600006 .20721436 .3600006 .17218018 .3600006 .112197879 .33599855 .07032776 .31199647 .031448366 .2749939 .0055389406 .22898865 .0055389406 .1559906 .0055389406 .09899902 .05836487 .08198547 .1171875 .084991458 .11685181 .08799744 .115859989 .09899902 .115859989 .13198853 .115859989 .14898682 .14085388 .14898682 .16485596 .14898682 .18885803 .13198853 .21386719 .09899902 .21386719 .084991458 .21386719 .049987794 .2068634 .049987794 .16085816 .049987794 .07432556 .11898804-.022460938 .23098755-.022460938 .34700013-.022460938 .44898988 .07331848 .44898988 .20019531V.20091248Z"/>
<clipPath id="clip_3">
<path transform="matrix(1.00003,0,0,-1.00003,100.28589,130.72354)" d="M-113.38724-56.69275V124.72404H85.04042V-56.69275ZM85.04042 124.72404"/>
</clipPath>
</defs>
<path transform="matrix(1.00003,0,0,-1.00003,100.28589,130.72354)" stroke-width=".3985" stroke-linecap="butt" stroke-miterlimit="10" stroke-linejoin="miter" fill="none" stroke="#000000" d="M-99.21382 0H98.75554"/>
<path transform="matrix(1.00003,0,0,-1.00003,199.0444,130.72354)" stroke-width=".31879" stroke-linecap="round" stroke-linejoin="round" fill="none" stroke="#000000" d="M-1.19551 1.59401C-1.09587 .99626 0 .09961 .29886 0 0-.09961-1.09587-.99626-1.19551-1.59401"/>
<use data-text="x" xlink:href="#font_1_1" transform="matrix(9.962899,0,0,-9.962899,203.02298,127.20344)"/>
<path transform="matrix(1.00003,0,0,-1.00003,100.28589,130.72354)" stroke-width=".3985" stroke-linecap="butt" stroke-miterlimit="10" stroke-linejoin="miter" fill="none" stroke="#000000" d="M-85.04042 .56696V-.56696"/>
<use data-text="-" xlink:href="#font_2_64" transform="matrix(9.962899,0,0,-9.962899,11.093216,141.44586)"/>
<use data-text="3" xlink:href="#font_2_106" transform="matrix(9.962899,0,0,-9.962899,14.410873,141.44586)"/>
<path transform="matrix(1.00003,0,0,-1.00003,100.28589,130.72354)" stroke-width=".3985" stroke-linecap="butt" stroke-miterlimit="10" stroke-linejoin="miter" fill="none" stroke="#000000" d="M-56.69362 .56696V-.56696"/>
<use data-text="-" xlink:href="#font_2_64" transform="matrix(9.962899,0,0,-9.962899,39.441057,141.44586)"/>
<use data-text="2" xlink:href="#font_2_107" transform="matrix(9.962899,0,0,-9.962899,42.758714,141.44586)"/>
<path transform="matrix(1.00003,0,0,-1.00003,100.28589,130.72354)" stroke-width=".3985" stroke-linecap="butt" stroke-miterlimit="10" stroke-linejoin="miter" fill="none" stroke="#000000" d="M-28.3468 .56696V-.56696"/>
<use data-text="-" xlink:href="#font_2_64" transform="matrix(9.962899,0,0,-9.962899,67.78891,141.44586)"/>
<use data-text="1" xlink:href="#font_2_82" transform="matrix(9.962899,0,0,-9.962899,71.10657,141.44586)"/>
<path transform="matrix(1.00003,0,0,-1.00003,100.28589,130.72354)" stroke-width=".3985" stroke-linecap="butt" stroke-miterlimit="10" stroke-linejoin="miter" fill="none" stroke="#000000" d="M28.3468 .56696V-.56696"/>
<use data-text="1" xlink:href="#font_2_82" transform="matrix(9.962899,0,0,-9.962899,126.14267,141.44586)"/>
<path transform="matrix(1.00003,0,0,-1.00003,100.28589,130.72354)" stroke-width=".3985" stroke-linecap="butt" stroke-miterlimit="10" stroke-linejoin="miter" fill="none" stroke="#000000" d="M56.69362 .56696V-.56696"/>
<use data-text="2" xlink:href="#font_2_107" transform="matrix(9.962899,0,0,-9.962899,154.49051,141.44586)"/>
<path transform="matrix(1.00003,0,0,-1.00003,100.28589,130.72354)" stroke-width=".3985" stroke-linecap="butt" stroke-miterlimit="10" stroke-linejoin="miter" fill="none" stroke="#000000" d="M85.04042 .56696V-.56696"/>
<use data-text="3" xlink:href="#font_2_106" transform="matrix(9.962899,0,0,-9.962899,182.83838,141.44586)"/>
<path transform="matrix(1.00003,0,0,-1.00003,100.28589,130.72354)" stroke-width=".3985" stroke-linecap="butt" stroke-miterlimit="10" stroke-linejoin="miter" fill="none" stroke="#000000" d="M0-68.0313V118.5965"/>
<path transform="matrix(0,-1.00003,-1.00003,-0,100.28589,12.123482)" stroke-width=".31879" stroke-linecap="round" stroke-linejoin="round" fill="none" stroke="#000000" d="M-1.19551 1.59401C-1.09587 .99626 0 .09961 .29886 0 0-.09961-1.09587-.99626-1.19551-1.59401"/>
<use data-text="y" xlink:href="#font_1_2" transform="matrix(9.962899,0,0,-9.962899,103.80599,6.207802)"/>
<path transform="matrix(1.00003,0,0,-1.00003,100.28589,130.72354)" stroke-width=".3985" stroke-linecap="butt" stroke-miterlimit="10" stroke-linejoin="miter" fill="none" stroke="#000000" d="M2.83484-56.69275H-2.83484"/>
<use data-text="-" xlink:href="#font_2_64" transform="matrix(9.962899,0,0,-9.962899,80.6503,190.62635)"/>
<use data-text="1" xlink:href="#font_2_82" transform="matrix(9.962899,0,0,-9.962899,83.96796,190.62635)"/>
<use data-text="0" xlink:href="#font_2_121" transform="matrix(9.962899,0,0,-9.962899,88.9494,190.62635)"/>
<path transform="matrix(1.00003,0,0,-1.00003,100.28589,130.72354)" stroke-width=".3985" stroke-linecap="butt" stroke-miterlimit="10" stroke-linejoin="miter" fill="none" stroke="#000000" d="M2.83484-28.34636H-2.83484"/>
<use data-text="-" xlink:href="#font_2_64" transform="matrix(9.962899,0,0,-9.962899,85.63145,162.27849)"/>
<use data-text="5" xlink:href="#font_2_56" transform="matrix(9.962899,0,0,-9.962899,88.949108,162.27849)"/>
<path transform="matrix(1.00003,0,0,-1.00003,100.28589,130.72354)" stroke-width=".3985" stroke-linecap="butt" stroke-miterlimit="10" stroke-linejoin="miter" fill="none" stroke="#000000" d="M2.83484 28.34636H-2.83484"/>
<use data-text="5" xlink:href="#font_2_56" transform="matrix(9.962899,0,0,-9.962899,88.94955,105.584789)"/>
<path transform="matrix(1.00003,0,0,-1.00003,100.28589,130.72354)" stroke-width=".3985" stroke-linecap="butt" stroke-miterlimit="10" stroke-linejoin="miter" fill="none" stroke="#000000" d="M2.83484 56.69275H-2.83484"/>
<use data-text="1" xlink:href="#font_2_82" transform="matrix(9.962899,0,0,-9.962899,83.9684,77.23694)"/>
<use data-text="0" xlink:href="#font_2_121" transform="matrix(9.962899,0,0,-9.962899,88.949848,77.23694)"/>
<path transform="matrix(1.00003,0,0,-1.00003,100.28589,130.72354)" stroke-width=".3985" stroke-linecap="butt" stroke-miterlimit="10" stroke-linejoin="miter" fill="none" stroke="#000000" d="M2.83484 85.03911H-2.83484"/>
<use data-text="1" xlink:href="#font_2_82" transform="matrix(9.962899,0,0,-9.962899,83.9684,48.890085)"/>
<use data-text="5" xlink:href="#font_2_56" transform="matrix(9.962899,0,0,-9.962899,88.949848,48.890085)"/>
<path transform="matrix(1.00003,0,0,-1.00003,100.28589,130.72354)" stroke-width=".3985" stroke-linecap="butt" stroke-miterlimit="10" stroke-linejoin="miter" fill="none" stroke="#000000" d="M2.83484 113.3855H-2.83484"/>
<use data-text="2" xlink:href="#font_2_107" transform="matrix(9.962899,0,0,-9.962899,83.9684,20.543229)"/>
<use data-text="0" xlink:href="#font_2_121" transform="matrix(9.962899,0,0,-9.962899,88.949848,20.543229)"/>
<g clip-path="url(#clip_3)">
<path transform="matrix(1.00003,0,0,-1.00003,100.28589,130.72354)" stroke-width=".3985" stroke-linecap="butt" stroke-miterlimit="10" stroke-linejoin="miter" fill="none" stroke="#000000" d="M-45.33296 211.14875-44.48003 193.48685-43.605 176.30046-42.72998 160.02709-41.85497 144.63555-40.97993 130.09575-40.1049 116.38458-39.22989 103.47559-38.35486 91.34647-37.47983 79.96526-36.60481 69.30708-35.72978 59.35324-34.85475 50.07622-33.97974 41.44955-33.10472 33.45508-32.22969 26.06424-31.35466 19.25679-30.47964 13.01253-29.60461 7.30466-28.72958 2.11142-27.85457-2.58089-26.97954-6.80145-26.1045-10.56784-25.22949-13.90268-24.35448-16.82355-23.47945-19.34763-22.60442-21.49878-21.7294-23.29337-20.85437-24.74977-19.97934-25.88596-19.10432-26.72003-18.2293-27.2705-17.35426-27.55103-16.47926-27.58163-15.60423-27.37663-14.7292-26.95024-13.85417-26.32115-12.97916-25.50291-12.10413-24.51024-11.2291-23.35745-10.35408-22.0596-9.47905-20.62758-8.60402-19.07773-7.72902-17.41992-6.85399-15.66895-5.97896-13.83623-5.10393-11.93292-4.22891-9.9707-3.35388-7.96046-2.47885-5.91312-1.60384-3.8393-.7288-1.74733 .1462 .3507 1.0212 2.44846 1.89622 4.53569 2.77126 6.60474 3.64627 8.6469 4.5213 10.65471 5.39633 12.62125 6.27136 14.5391 7.14638 16.40192 8.02141 18.20384 8.89644 19.93872 9.77144 21.60121 10.64647 23.18617 11.5215 24.68906 12.39651 26.10568 13.27155 27.43207 14.14658 28.66435 15.0216 29.79941 15.89662 30.83472 16.77165 31.76743 17.64668 32.59563 18.52168 33.31813 19.39671 33.93268 20.27174 34.43874 21.14676 34.8358 22.02179 35.12308 22.89682 35.30164 23.77184 35.37154 24.64687 35.33313 25.5219 35.18822 26.39693 34.93884 27.27193 34.58606 28.14696 34.13277 29.02199 33.58163 29.897 32.93578 30.77203 32.19814 31.64706 31.37357 32.52208 30.46533 33.39711 29.47899 34.27214 28.4185 35.14717 27.2896 36.02217 26.09816 36.8972 24.85004 37.77223 23.55191 38.64725 22.21056 39.52228 20.83302 40.39731 19.4261 41.27232 17.99942 42.14735 16.55954 43.02238 15.1159 43.89742 13.67767 44.77242 12.2542 45.64745 10.85522 46.52248 9.49101 47.39749 8.17197 48.27252 6.90794 49.14755 5.71242 50.02257 4.59468 50.8976 3.56786 51.77263 2.64578 52.64764 1.8385 53.52266 1.16037 54.39769 .62361 55.27272 .24472 56.14774 .03674 57.02277 .01251 57.8978 .19022 58.77281 .582 59.64784 1.20518 60.52287 2.07579 61.39789 3.21031 62.2729 4.62556 63.14793 6.33882 64.02296 8.36748 64.89798 10.7277 65.77301 13.44157 66.64804 16.5239 67.52306 19.99556 68.39809 23.87813 69.27312 28.18736 70.14813 32.9453 71.02315 38.17036 71.89818 43.88782 72.7732 50.11679 73.64822 56.87657 74.52325 64.19379 75.39828 72.0861 76.2733 80.57867 77.14833 89.69463 78.02336 99.45737 78.89838 109.8909 79.77339 121.01941 80.64842 132.8675 81.52344 145.45734 82.39847 158.81989 83.2735 172.97509 84.14853 187.952 84.99826 203.32259"/>
<path transform="matrix(-.04822145,-.99882999,-.99882999,.04822145,54.951578,-80.43153)" stroke-width=".31879" stroke-linecap="round" stroke-linejoin="round" fill="none" stroke="#000000" d="M-1.19551 1.59401C-1.09587 .99626 0 .09961 .29886 0 0-.09961-1.09587-.99626-1.19551-1.59401"/>
<path transform="matrix(.05519166,-.99846,-.99846,-.05519166,185.28672,-72.60513)" stroke-width=".31879" stroke-linecap="round" stroke-linejoin="round" fill="none" stroke="#000000" d="M-1.19551 1.59401C-1.09587 .99626 0 .09961 .29886 0 0-.09961-1.09587-.99626-1.19551-1.59401"/>
<path transform="matrix(1.00003,0,0,-1.00003,100.28589,130.72354)" stroke-width=".3985" stroke-linecap="butt" stroke-dasharray="2.98883,2.98883" stroke-miterlimit="10" stroke-linejoin="miter" fill="none" stroke="#000000" d="M-42.43677 76.08461-41.33937 70.15883-40.15854 63.78244-38.9777 57.40607-37.79689 51.0297-36.61606 44.6533-35.43523 38.27693-34.2544 31.90056-33.07356 25.52417-31.89275 19.1478-30.71191 12.77142-29.53108 6.39503-28.35025 .01866-27.16942-6.35767-25.9886-12.73405-24.80777-19.11043-23.62694-25.4868-22.4461-31.86319-21.26527-38.23956-20.08446-44.61595-18.90363-50.99232-17.7228-57.3687-16.54196-63.74509-15.36113-70.12146-14.26373-76.04726"/>
<path transform="matrix(-.18207547,-.98325958,-.98325958,.18207547,57.847845,54.636644)" stroke-width=".31879" stroke-linecap="round" stroke-linejoin="round" fill="none" stroke="#000000" d="M-1.19551 1.59401C-1.09587 .99626 0 .09961 .29886 0 0-.09961-1.09587-.99626-1.19551-1.59401"/>
<path transform="matrix(.18207547,.98325958,.98325958,-.18207547,86.02173,206.77307)" stroke-width=".31879" stroke-linecap="round" stroke-linejoin="round" fill="none" stroke="#000000" d="M-1.19551 1.59401C-1.09587 .99626 0 .09961 .29886 0 0-.09961-1.09587-.99626-1.19551-1.59401"/>
<path transform="matrix(1.00003,0,0,-1.00003,100.28589,130.72354)" stroke-width=".3985" stroke-linecap="butt" stroke-dasharray="2.98883,2.98883" stroke-miterlimit="10" stroke-linejoin="miter" fill="none" stroke="#000000" d="M-28.17056-67.60829-25.98471-62.36235-23.62262-56.69344-21.26053-51.0245-18.89844-45.35556-16.53635-39.68665-14.17426-34.01772-11.81216-28.34879-9.45007-22.67986-7.088-17.01093-4.72589-11.342-2.36382-5.67307-.00171-.00412 2.36034 5.66476 4.72244 11.3337 7.08452 17.00261 9.44661 22.67155 11.8087 28.34048 14.17079 34.0094 16.53288 39.67834 18.89497 45.34726 21.25706 51.01619 23.61916 56.68513 25.98123 62.35405 28.1671 67.59998"/>
<path transform="matrix(-.38459156,.9230477,.9230477,.38459156,72.11448,198.33385)" stroke-width=".31879" stroke-linecap="round" stroke-linejoin="round" fill="none" stroke="#000000" d="M-1.19551 1.59401C-1.09587 .99626 0 .09961 .29886 0 0-.09961-1.09587-.99626-1.19551-1.59401"/>
<path transform="matrix(.38459156,-.9230477,-.9230477,-.38459156,128.45384,63.12155)" stroke-width=".31879" stroke-linecap="round" stroke-linejoin="round" fill="none" stroke="#000000" d="M-1.19551 1.59401C-1.09587 .99626 0 .09961 .29886 0 0-.09961-1.09587-.99626-1.19551-1.59401"/>
<path transform="matrix(1.00003,0,0,-1.00003,100.28589,130.72354)" stroke-width=".3985" stroke-linecap="butt" stroke-dasharray="2.98883,2.98883" stroke-miterlimit="10" stroke-linejoin="miter" fill="none" stroke="#000000" d="M34.09776 64.85905 35.90584 54.87888 37.7956 45.35402 39.68535 36.73695 41.5751 29.02614 43.46486 22.2231 45.35463 16.32788 47.24438 11.33887 49.13414 7.25612 51.0239 4.08118 52.91365 1.81401 54.8034 .45311 56.69318 0 58.58293 .45311 60.47269 1.81247 62.36244 4.07962 64.2522 7.25458 66.14197 11.33577 68.03172 16.32475 69.92148 22.21999 71.81123 29.02301 73.70099 36.73384 75.59074 45.34935 77.48051 54.8742 79.28859 64.85439"/>
<path transform="matrix(-.17825535,-.9839796,-.9839796,.17825535,134.38468,65.86255)" stroke-width=".31879" stroke-linecap="round" stroke-linejoin="round" fill="none" stroke="#000000" d="M-1.19551 1.59401C-1.09587 .99626 0 .09961 .29886 0 0-.09961-1.09587-.99626-1.19551-1.59401"/>
<path transform="matrix(.17825535,-.9839796,-.9839796,-.17825535,179.57686,65.8672)" stroke-width=".31879" stroke-linecap="round" stroke-linejoin="round" fill="none" stroke="#000000" d="M-1.19551 1.59401C-1.09587 .99626 0 .09961 .29886 0 0-.09961-1.09587-.99626-1.19551-1.59401"/>
</g>
</svg>
