<svg xmlns="http://www.w3.org/2000/svg" xmlns:xlink="http://www.w3.org/1999/xlink" xmlns:inkscape="http://www.inkscape.org/namespaces/inkscape" version="1.1" width="342" height="148" viewBox="0 0 342 148">
<defs>
<path id="font_1_1" d="M.33399964 .30233766C.33999635 .32835389 .36299134 .42037965 .43299867 .42037965 .43798829 .42037965 .46199037 .42037965 .48298646 .40734864 .45498658 .402359 .43499757 .37734986 .43499757 .35334779 .43499757 .33735658 .44599916 .31835938 .47299195 .31835938 .49499513 .31835938 .5269928 .3363495 .5269928 .37635804 .5269928 .42837525 .46798707 .4423828 .43399049 .4423828 .37599183 .4423828 .34098817 .38935853 .32899476 .36634828 .3039856 .43237306 .25 .4423828 .22099304 .4423828 .116989139 .4423828 .05999756 .3133545 .05999756 .28834535 .05999756 .27833558 .069992069 .27833558 .07199097 .27833558 .07998657 .27833558 .08299255 .28033448 .084991458 .28933717 .11898804 .39535523 .18499756 .42037965 .21899414 .42037965 .23799134 .42037965 .272995 .4113617 .272995 .35334779 .272995 .32235719 .2559967 .25532533 .21899414 .11528015 .20298767 .053268434 .16799927 .011245728 .12399292 .011245728 .117996219 .011245728 .09498596 .011245728 .07398987 .024276734 .09899902 .029266358 .12098694 .05027771 .12098694 .07827759 .12098694 .105270389 .09899902 .11328125 .083999637 .11328125 .053985597 .11328125 .0289917 .08728027 .0289917 .055267335 .0289917 .009246826 .07899475-.0107421879 .12298584-.0107421879 .18899536-.0107421879 .22499085 .059280397 .22799683 .0652771 .23999024 .028274537 .27598573-.0107421879 .33599855-.0107421879 .43899537-.0107421879 .49598695 .118270877 .49598695 .14328003 .49598695 .1532898 .4869995 .1532898 .48399354 .1532898 .47499085 .1532898 .47299195 .14929199 .47099305 .14228821 .43798829 .03527832 .36999513 .011245728 .33799745 .011245728 .29899598 .011245728 .2829895 .043273927 .2829895 .07727051 .2829895 .09927368 .2889862 .121276859 .2999878 .16529846L.33399964 .30233766Z"/>
<path id="font_2_85" d="M.33099366-.2400055C.33099366-.23701477 .33099366-.23500061 .31399537-.21800232 .18899536-.0920105 .15699768 .09700012 .15699768 .25 .15699768 .42399598 .19499207 .59799197 .31799317 .72299197 .33099366 .7350006 .33099366 .7369995 .33099366 .73999026 .33099366 .746994 .32699586 .75 .32099916 .75 .31098939 .75 .22099304 .6819916 .1619873 .5549927 .11099243 .44499208 .09899902 .33399964 .09899902 .25 .09899902 .17199707 .10998535 .050994874 .16499329-.06201172 .22499085-.18501282 .31098939-.25 .32099916-.25 .32699586-.25 .33099366-.24700928 .33099366-.2400055Z"/>
<path id="font_2_118" d="M.5079956 .3996582V.43066407C.4850006 .4286499 .45599366 .42765809 .43299867 .42765809L.34599305 .43066407V.3996582C.3769989 .39866639 .3929901 .3816681 .3929901 .35668946 .3929901 .34669496 .3919983 .34469605 .3869934 .33270265L.28599549 .08685303 .1749878 .35568238C.17098999 .36567689 .16899109 .36967469 .16899109 .3736725 .16899109 .3996582 .20599365 .3996582 .22499085 .3996582V.43066407L.115997318 .42765809C.08898926 .42765809 .04899597 .4286499 .018997193 .43066407V.3996582C.066986087 .3996582 .085998538 .3996582 .099990848 .36468507L.25-.000091552738 .22499085-.059066774C.20298767-.11407471 .1749878-.18309021 .11099243-.18309021 .10598755-.18309021 .08299255-.18309021 .06399536-.16503906 .09498596-.16104126 .102996829-.13905335 .102996829-.123046878 .102996829-.0970459 .083999637-.08103943 .06098938-.08103943 .040985109-.08103943 .018997193-.09403992 .018997193-.124053958 .018997193-.16905213 .06098938-.20507813 .11099243-.20507813 .17399597-.20507813 .21499634-.14804077 .23899842-.091049198L.4149933 .33569337C.44099427 .39865113 .49198915 .3996582 .5079956 .3996582Z"/>
<path id="font_2_50" d="M.4149933 .11933899C.4149933 .12934876 .40699769 .13134766 .4019928 .13134766 .3929901 .13134766 .3909912 .12535095 .3889923 .11734009 .35398866 .014251709 .2639923 .014251709 .2539978 .014251709 .20399475 .014251709 .1639862 .044281007 .14099121 .08131409 .11099243 .12934876 .11099243 .19540406 .11099243 .23144531H.3899994C.4119873 .23144531 .4149933 .23144531 .4149933 .2524414 .4149933 .35131837 .36099244 .4482422 .23599243 .4482422 .11999512 .4482422 .027999878 .34532167 .027999878 .22042847 .027999878 .08631897 .1329956-.0107421879 .24798584-.0107421879 .36999513-.0107421879 .4149933 .10032654 .4149933 .11933899M.34899903 .2524414H.11199951C.117996219 .40126039 .20199585 .426239 .23599243 .426239 .33898927 .426239 .34899903 .2913971 .34899903 .2524414Z"/>
<path id="font_2_28" d="M.48298646 .08912659V.14511109H.45799256V.08912659C.45799256 .03112793 .43299867 .025131226 .42199708 .025131226 .3889923 .025131226 .3849945 .070129398 .3849945 .07511902V.27508546C.3849945 .31707765 .3849945 .3560791 .34899903 .39312745 .30999757 .43223573 .2599945 .4482422 .21199036 .4482422 .12998963 .4482422 .06098938 .40115357 .06098938 .335083 .06098938 .30508424 .08099365 .28808595 .10699463 .28808595 .1349945 .28808595 .15299988 .30807496 .15299988 .33407594 .15299988 .3460846 .147995 .37908937 .101989749 .38008119 .1289978 .41519166 .17799378 .426239 .20999146 .426239 .25898744 .426239 .31599427 .38710023 .31599427 .29808045V.26107789C.2649994 .25808717 .19499207 .25508119 .13198853 .22509766 .056991579 .19110108 .03199768 .13911438 .03199768 .09512329 .03199768 .014251709 .1289978-.0107421879 .19198609-.0107421879 .2579956-.0107421879 .3039856 .029251099 .32299806 .07624817 .32699586 .036132814 .35398866-.005859375 .40098573-.005859375 .42199708-.005859375 .48298646 .008132935 .48298646 .08912659M.31599427 .14013672C.31599427 .04525757 .24398804 .011245728 .19898987 .011245728 .1499939 .011245728 .10899353 .04624939 .10899353 .09625244 .10899353 .15124512 .15098572 .23425293 .31599427 .24024964V.14013672Z"/>
<path id="font_2_96" d="M.3639984 .38137818C.3639984 .41337586 .33299256 .4423828 .2899933 .4423828 .21699524 .4423828 .18099976 .37538148 .16699219 .3323822V.4423828L.027999878 .43066407V.3996582C.09799194 .3996582 .10598755 .39266969 .10598755 .34370423V.07595825C.10598755 .0309906 .09498596 .0309906 .027999878 .0309906V0L.14199829 .0029907227C.18199158 .0029907227 .22898865 .0029907227 .2689972 0V.0309906H.24798584C.17399597 .0309906 .17199707 .04197693 .17199707 .07795715V.23181153C.17199707 .33137513 .21398926 .42037965 .2899933 .42037965 .29699708 .42037965 .29899598 .42037965 .30099488 .41937257 .2979889 .41838075 .27799989 .40637208 .27799989 .3803711 .27799989 .35237123 .29899598 .33737184 .32099916 .33737184 .33898927 .33737184 .3639984 .3493805 .3639984 .38137818Z"/>
<path id="font_2_98" d="M.3600006 .12823487C.3600006 .18122864 .32998658 .21122742 .31799317 .22323609 .2849884 .25523377 .24598694 .26322938 .20399475 .27124024 .147995 .28224183 .08099365 .29522706 .08099365 .35324098 .08099365 .38822938 .10699463 .42922975 .19299317 .42922975 .30299378 .42922975 .30799867 .3392334 .30999757 .30822755 .31098939 .2992401 .32199098 .2992401 .32199098 .2992401 .33499146 .2992401 .33499146 .30422975 .33499146 .32322694V.4242401C.33499146 .4412384 .33499146 .4482422 .32398988 .4482422 .31900025 .4482422 .31698609 .4482422 .3039856 .43623353 .30099488 .43223573 .29100038 .42323304 .2869873 .42022706 .24899292 .4482422 .20799256 .4482422 .19299317 .4482422 .070999149 .4482422 .032989503 .38124085 .032989503 .3252411 .032989503 .29023744 .04899597 .26223756 .07598877 .24023438 .10798645 .2142334 .13598633 .2082367 .20799256 .19422913 .22999573 .19021607 .31199647 .17422486 .31199647 .10221863 .31199647 .051223756 .2769928 .011245728 .19898987 .011245728 .114990238 .011245728 .07899475 .068222049 .05999756 .1532135 .056991579 .16621399 .055999757 .17021179 .04598999 .17021179 .032989503 .17021179 .032989503 .16322327 .032989503 .1452179V.013214111C.032989503-.003753662 .032989503-.0107421879 .04399109-.0107421879 .04899597-.0107421879 .049987794-.009750366 .068984989 .009246826 .070999149 .011245728 .070999149 .013214111 .08898926 .032226564 .1329956-.009750366 .17799378-.0107421879 .19898987-.0107421879 .31399537-.0107421879 .3600006 .05621338 .3600006 .1282196V.12823487Z"/>
<path id="font_2_66" d="M.24699402 0V.0309906C.18099976 .0309906 .1769867 .035995485 .1769867 .075042728V.4423828L.036987306 .43066407V.3996582C.101989749 .3996582 .11099243 .3936615 .11099243 .3447113V.07595825C.11099243 .0309906 .099990848 .0309906 .032989503 .0309906V0L.14299011 .0029907227C.17799378 .0029907227 .21299744 .0009918213 .24699402 0M.19198609 .603775C.19198609 .6307678 .16899109 .6567688 .13899231 .6567688 .10499573 .6567688 .084991458 .6287689 .084991458 .603775 .084991458 .57676699 .10798645 .55078127 .13798523 .55078127 .17199707 .55078127 .19198609 .5787811 .19198609 .603775Z"/>
<path id="font_2_77" d="M.5349884 0V.0309906C.48298646 .0309906 .45799256 .0309906 .45700074 .061019899V.25221253C.45700074 .3383026 .45700074 .36932374 .42599488 .405365 .4119873 .42237855 .3789978 .4423828 .32099916 .4423828 .24798584 .4423828 .20098877 .39935304 .17298889 .33729554V.4423828L.03199768 .43066407V.3996582C.101989749 .3996582 .10998535 .39266969 .10998535 .34370423V.07595825C.10998535 .0309906 .09899902 .0309906 .03199768 .0309906V0L.14498902 .0029907227 .25698854 0V.0309906C.18998719 .0309906 .1789856 .0309906 .1789856 .07595825V.25978089C.1789856 .36431886 .25 .42037965 .31399537 .42037965 .3769989 .42037965 .3880005 .36631776 .3880005 .30926515V.076034549C.3880005 .0309906 .3769989 .0309906 .30999757 .0309906V0L.4229889 .0029907227 .5349884 0Z"/>
<path id="font_2_43" d="M.4149933 .119140628C.4149933 .12911988 .40499879 .12911988 .4019928 .12911988 .3929901 .12911988 .3909912 .12512207 .3889923 .119140628 .3600006 .026229859 .29499818 .014251709 .2579956 .014251709 .20498657 .014251709 .116989139 .0572052 .116989139 .21801758 .116989139 .38093568 .19898987 .42323304 .2519989 .42323304 .26098634 .42323304 .32398988 .42222596 .35899354 .38594056 .31799317 .38293458 .31199647 .3529358 .31199647 .3399353 .31199647 .31393434 .32998658 .2939453 .35798646 .2939453 .38398744 .2939453 .4039917 .3109436 .4039917 .34094239 .4039917 .40911866 .32798768 .4482422 .25099183 .4482422 .12599182 .4482422 .033996583 .3399353 .033996583 .21601868 .033996583 .08816528 .1329956-.0107421879 .24899292-.0107421879 .3829956-.0107421879 .4149933 .10914612 .4149933 .119140628Z"/>
<path id="font_2_82" d="M.4189911 0V.0309906H.3869934C.29699708 .0309906 .2939911 .041992189 .2939911 .07902527V.64012148C.2939911 .6640167 .2939911 .6660156 .2709961 .6660156 .20899964 .60227969 .12098694 .60227969 .08898926 .60227969V.57128909C.10899353 .57128909 .16799927 .57128909 .21998596 .5972748V.07902527C.21998596 .042999269 .21699524 .0309906 .1269989 .0309906H.09498596V0C.12998963 .0029907227 .21699524 .0029907227 .25698854 .0029907227 .29699708 .0029907227 .38398744 .0029907227 .4189911 0Z"/>
<path id="font_2_78" d="M.45700074 .32888795C.45700074 .598114 .34199525 .6660156 .25299073 .6660156 .19799805 .6660156 .14898682 .64801028 .10598755 .6031189 .06498718 .5580902 .041992189 .5160217 .041992189 .44091798 .041992189 .3158722 .12998963 .21777344 .24198914 .21777344 .30299378 .21777344 .34399415 .25979615 .36698915 .3178711V.28582765C.36698915 .05178833 .2630005 .0055389406 .20498657 .0055389406 .18798828 .0055389406 .13398743 .007537842 .10699463 .041778566 .15098572 .041778566 .15899658 .07078552 .15899658 .08778381 .15899658 .118774417 .1349945 .13378906 .11299133 .13378906 .09700012 .13378906 .066986087 .12478638 .066986087 .08578491 .066986087 .018615723 .12098694-.022460938 .20599365-.022460938 .33499146-.022460938 .45700074 .11378479 .45700074 .32888795M.36499024 .42089845C.36499024 .33789063 .33099366 .24076844 .24299622 .24076844 .22698975 .2407074 .18099976 .2407074 .1499939 .30371095 .13198853 .34072877 .13198853 .3908081 .13198853 .43988038 .13198853 .49397279 .13198853 .5410614 .15299988 .578125 .17999268 .62805178 .21798706 .64100649 .25299073 .64100649 .29899598 .64100649 .33198548 .60710147 .34899903 .562088 .36099244 .52989199 .36499024 .46688844 .36499024 .42089845Z"/>
<path id="font_2_121" d="M.45999146 .31976319C.45999146 .39982606 .45498658 .47988893 .41999818 .5539398 .37399293 .65000918 .2919922 .6660156 .25 .6660156 .18998719 .6660156 .116989139 .64001467 .07598877 .54693606 .04399109 .47789 .038986207 .39982606 .038986207 .31976319 .038986207 .24472046 .042999269 .15464783 .083999637 .07859802 .1269989-.0024719239 .19999695-.022460938 .24899292-.022460938 .30299378-.022460938 .3789978-.0014648438 .4229889 .09359741 .45498658 .16265869 .45999146 .2407074 .45999146 .31976319M.3769989 .3317871C.3769989 .25672914 .3769989 .18867493 .3659973 .12461853 .35099793 .029556275 .2939911-.00047302247 .24899292-.00047302247 .20999146-.00047302247 .15098572 .024551392 .1329956 .12062073 .12199402 .18066406 .12199402 .2727356 .12199402 .3317871 .12199402 .39582826 .12199402 .46188355 .12998963 .5159149 .14898682 .63500979 .22399903 .64401248 .24899292 .64401248 .28199769 .64401248 .34799195 .6259918 .36698915 .52693179 .3769989 .47088624 .3769989 .39482118 .3769989 .3317871Z"/>
<path id="font_2_86" d="M.2889862 .25C.2889862 .32798768 .27799989 .44898988 .22299195 .56199648 .16299439 .68499758 .07699585 .75 .066986087 .75 .06098938 .75 .056991579 .74598696 .056991579 .73999026 .056991579 .7369995 .056991579 .7350006 .07598877 .71699526 .17399597 .6179962 .23098755 .45899964 .23098755 .25 .23098755 .07899475 .19400025-.09700012 .069992069-.2230072 .056991579-.23500061 .056991579-.23701477 .056991579-.2400055 .056991579-.2460022 .06098938-.25 .066986087-.25 .07699585-.25 .16699219-.18200684 .22599793-.055007936 .2769928 .054992677 .2889862 .16600037 .2889862 .25Z"/>
<path id="font_2_107" d="M.44898988 .17396546H.42399598C.4189911 .14398194 .4119873 .099990848 .4019928 .084991458 .394989 .07699585 .32899476 .07699585 .30699159 .07699585H.1269989L.23298645 .17996216C.3889923 .31803895 .44898988 .37210084 .44898988 .47216798 .44898988 .5860901 .35899354 .6660156 .23699951 .6660156 .12399292 .6660156 .049987794 .57411196 .049987794 .48516847 .049987794 .4291687 .099990848 .4291687 .102996829 .4291687 .11999512 .4291687 .15499878 .44117738 .15499878 .48217774 .15499878 .5081787 .13699341 .5341797 .101989749 .5341797 .09399414 .5341797 .09199524 .5341797 .08898926 .5331726 .11199951 .59806826 .1659851 .63500979 .22399903 .63500979 .31498719 .63500979 .35798646 .5541382 .35798646 .47216798 .35798646 .39196778 .30799867 .31297303 .25299073 .25097657L.06098938 .036987306C.049987794 .025985718 .049987794 .023986817 .049987794 0H.42099L.44898988 .17396546Z"/>
<path id="font_2_106" d="M.45700074 .17037964C.45700074 .252594 .3939972 .33088685 .2899933 .35191346 .37199403 .37893678 .42999269 .4490509 .42999269 .52809146 .42999269 .6100464 .34199525 .6660156 .24598694 .6660156 .14498902 .6660156 .068984989 .60606387 .068984989 .53009036 .068984989 .49710084 .09098816 .47808839 .11999512 .47808839 .15098572 .47808839 .17098999 .50009158 .17098999 .5290985 .17098999 .57910159 .12399292 .57910159 .10899353 .57910159 .13999939 .62802127 .20599365 .64100649 .24198914 .64100649 .2829895 .64100649 .33799745 .6190338 .33799745 .5290985 .33799745 .51708987 .33599855 .45906068 .30999757 .4149933 .27999879 .36691285 .24598694 .36390687 .22099304 .36291505 .21299744 .36190797 .18899536 .35990907 .18199158 .35990907 .17399597 .35890199 .16699219 .35791017 .16699219 .3479004 .16699219 .33691407 .17399597 .33691407 .19099427 .33691407H.23498535C.31698609 .33691407 .35398866 .2686615 .35398866 .17037964 .35398866 .034469606 .2849884 .0055389406 .24099732 .0055389406 .19799805 .0055389406 .12298584 .022491456 .08799744 .08137512 .12298584 .07637024 .1539917 .09837341 .1539917 .1363678 .1539917 .17237854 .1269989 .19238281 .09799194 .19238281 .07398987 .19238281 .041992189 .17837525 .041992189 .1343689 .041992189 .043441774 .1349945-.022460938 .24398804-.022460938 .3659973-.022460938 .45700074 .06838989 .45700074 .17037964Z"/>
<path id="font_2_57" d="M.47099305 .16503906V.19602967H.37098695V.6507721C.37098695 .6707611 .37098695 .6767578 .35499574 .6767578 .34599305 .6767578 .34298707 .6767578 .33499146 .6647644L.027999878 .19602967V.16503906H.2939911V.07800293C.2939911 .041992189 .2919922 .0309906 .21798706 .0309906H.19699097V0C.23799134 .0029907227 .2899933 .0029907227 .33198548 .0029907227 .37399293 .0029907227 .4269867 .0029907227 .46798707 0V.0309906H.44699098C.37298585 .0309906 .37098695 .041992189 .37098695 .07800293V.16503906H.47099305M.2999878 .19602967H.055999757L.2999878 .56881716V.19602967Z"/>
<path id="font_2_56" d="M.44898988 .20091248C.44898988 .31991578 .36698915 .41992188 .25898744 .41992188 .21099854 .41992188 .16799927 .4039154 .13198853 .36891175V.5641022C.1519928 .55778506 .18499756 .55078127 .21699524 .55078127 .33999635 .55078127 .4099884 .6418457 .4099884 .65493777 .4099884 .6609802 .40699769 .6660156 .3999939 .6660156 .3999939 .66607668 .39698792 .66607668 .3919983 .66308596 .37199403 .65408328 .32299806 .63378909 .2559967 .63378909 .21598816 .63409426 .16999817 .641098 .12298584 .6621094 .114990238 .6651001 .11099243 .6651001 .11099243 .6651001 .100997928 .66508486 .100997928 .657074 .100997928 .64108279V.3447113C.100997928 .3266449 .100997928 .31861878 .114990238 .31861878 .12199402 .31861878 .12399292 .32164 .12799073 .32765199 .13899231 .34371949 .17599488 .3979187 .25698854 .3979187 .30899049 .3979187 .33399964 .3517456 .34199525 .3336792 .35798646 .2965393 .3600006 .2574005 .3600006 .20721436 .3600006 .17218018 .3600006 .112197879 .33599855 .07032776 .31199647 .031448366 .2749939 .0055389406 .22898865 .0055389406 .1559906 .0055389406 .09899902 .05836487 .08198547 .1171875 .084991458 .11685181 .08799744 .115859989 .09899902 .115859989 .13198853 .115859989 .14898682 .14085388 .14898682 .16485596 .14898682 .18885803 .13198853 .21386719 .09899902 .21386719 .084991458 .21386719 .049987794 .2068634 .049987794 .16085816 .049987794 .07432556 .11898804-.022460938 .23098755-.022460938 .34700013-.022460938 .44898988 .07331848 .44898988 .20019531V.20091248Z"/>
<path id="font_2_101" d="M.45700074 .2036438C.45700074 .33070375 .36799623 .4267578 .25698854 .4267578 .18899536 .4267578 .1519928 .37573243 .13198853 .327713V.35173036C.13198853 .6047821 .2559967 .64100649 .30699159 .64100649 .33099366 .64100649 .37298585 .634964 .394989 .6007538 .37998963 .6007538 .33999635 .6007538 .33999635 .5557556 .33999635 .524765 .3639984 .5097656 .38598634 .5097656 .4019928 .5097656 .43199159 .51875308 .43199159 .5577545 .43199159 .6178589 .3880005 .6660156 .30499269 .6660156 .1769867 .6660156 .041992189 .5367584 .041992189 .31570436 .041992189 .048553468 .1579895-.022460938 .25099183-.022460938 .3619995-.022460938 .45700074 .07156372 .45700074 .2036438M.36698915 .20463562C.36698915 .15661621 .36698915 .10658264 .34999085 .0705719 .31999208 .010528564 .27398683 .0055389406 .25099183 .0055389406 .18798828 .0055389406 .1579895 .06556702 .1519928 .080566409 .13398743 .127594 .13398743 .2076416 .13398743 .22564698 .13398743 .30369569 .1659851 .40374757 .2559967 .40374757 .27198792 .40374757 .31799317 .40374757 .34899903 .34172059 .36698915 .30470277 .36698915 .2536621 .36698915 .20463562Z"/>
<path id="font_2_100" d="M.4850006 .6435547H.24198914C.11999512 .6435547 .117996219 .6566467 .11399841 .67578127H.08898926L.055999757 .46954347H.08099365C.083999637 .48554994 .09298706 .54855349 .10598755 .5605469 .11299133 .5665436 .19099427 .5665436 .20399475 .5665436H.41099549L.29899598 .40853883C.20899964 .2735443 .17599488 .13453675 .17599488 .03253174 .17599488 .022537232 .17599488-.022460938 .22200012-.022460938 .2679901-.022460938 .2679901 .022537232 .2679901 .03253174V.08354187C.2679901 .13853455 .2709961 .19354248 .2789917 .24754334 .2829895 .27053834 .29699708 .35653688 .34098817 .41854859L.47599793 .608551C.4850006 .62054446 .4850006 .62254336 .4850006 .6435547Z"/>
<path id="font_2_51" d="M.45700074 .16764832C.45700074 .20367432 .44599916 .24871826 .4079895 .29074098 .3889923 .31176759 .37298585 .32176209 .30899049 .36180116 .3809967 .39881898 .42999269 .4508667 .42999269 .51690676 .42999269 .6089783 .34098817 .6660156 .25 .6660156 .1499939 .6660156 .068984989 .5919647 .068984989 .49890138 .068984989 .48088075 .070999149 .43585206 .11299133 .38882447 .12399292 .3768158 .16099549 .35179139 .18598938 .33477784 .12799073 .30575563 .041992189 .24971009 .041992189 .15063477 .041992189 .044555665 .14399719-.022460938 .24899292-.022460938 .3619995-.022460938 .45700074 .060577394 .45700074 .16764832M.38598634 .51690676C.38598634 .45986939 .34700013 .41183473 .2869873 .3768158L.16299439 .4568634C.116989139 .4868927 .11299133 .5209198 .11299133 .53793337 .11299133 .5989685 .17799378 .64100649 .24899292 .64100649 .32199098 .64100649 .38598634 .588974 .38598634 .51690676M.40699769 .13162232C.40699769 .05757141 .33198548 .0055389406 .25 .0055389406 .1639862 .0055389406 .09199524 .06758118 .09199524 .15063477 .09199524 .2086792 .12399292 .2727356 .20899964 .31976319L.33198548 .24171448C.3600006 .22268677 .40699769 .19267273 .40699769 .13162232Z"/>
<path id="font_2_83" d="M.6239929 .4967041C.6239929 .59465029 .5249939 .6826172 .3880005 .6826172H.034988405V.6516113H.05899048C.13598633 .6516113 .13798523 .64060977 .13798523 .6046295V.07795715C.13798523 .041992189 .13598633 .0309906 .05899048 .0309906H.034988405V0C.069992069 .0029907227 .14399719 .0029907227 .18199158 .0029907227 .21998596 .0029907227 .29499818 .0029907227 .32998658 0V.0309906H.30599977C.22898865 .0309906 .22698975 .041992189 .22698975 .07795715V.3157959H.3959961C.5159912 .3157959 .6239929 .39675904 .6239929 .4967041M.5209961 .4967041C.5209961 .4497223 .5209961 .34179688 .3619995 .34179688H.22399903V.6116333C.22399903 .64460757 .22599793 .6516113 .272995 .6516113H.3619995C.5209961 .6516113 .5209961 .54566958 .5209961 .4967041Z"/>
<path id="font_2_81" d="M.47099305 .21424866C.47099305 .34223939 .37098695 .4482422 .25 .4482422 .125 .4482422 .027999878 .3392334 .027999878 .21424866 .027999878 .085250858 .13198853-.0107421879 .24899292-.0107421879 .36999513-.0107421879 .47099305 .087249759 .47099305 .21424866M.3880005 .22224427C.3880005 .18624878 .3880005 .13224793 .3659973 .08824158 .34399415 .04324341 .2999878 .014251709 .25 .014251709 .20698548 .014251709 .16299439 .035247804 .13598633 .08125305 .11099243 .12524414 .11099243 .18624878 .11099243 .22224427 .11099243 .26124574 .11099243 .31523133 .1349945 .35923768 .1619873 .40522767 .20899964 .426239 .24899292 .426239 .29299928 .426239 .33599855 .40423585 .3619995 .36123658 .3880005 .3182373 .3880005 .26023866 .3880005 .22224427Z"/>
<path id="font_2_84" d="M.5209961 .21636963C.5209961 .34336854 .42399598 .4423828 .31199647 .4423828 .23399353 .4423828 .19198609 .39837647 .17199707 .3763733V.4423828L.027999878 .43066407V.3996582C.09899902 .3996582 .10598755 .3936615 .10598755 .34973146V-.117996219C.10598755-.16308594 .09498596-.16308594 .027999878-.16308594V-.1940918L.13999939-.19110108 .25299073-.1940918V-.16308594C.18598938-.16308594 .1749878-.16308594 .1749878-.117996219V.050186159 .059173585C.17999268 .04319763 .22200012-.0107421879 .2979889-.0107421879 .4169922-.0107421879 .5209961 .087127689 .5209961 .21594239V.21636963M.43798829 .21594239C.43798829 .09512329 .36799623 .011245728 .2939911 .011245728 .2539978 .011245728 .21598816 .031219483 .18899536 .07215881 .1749878 .09312439 .1749878 .09411621 .1749878 .114089969V.33674623C.20399475 .38838197 .25299073 .41737367 .3039856 .41737367 .3769989 .41737367 .43798829 .32937623 .43798829 .21636963V.21594239Z"/>
<path id="font_2_109" d="M.5349884 0V.0309906C.46499635 .0309906 .45700074 .037994386 .45700074 .08705139V.4423828L.30999757 .43066407V.3996582C.37998963 .3996582 .3880005 .39266969 .3880005 .34373475V.16601563C.3880005 .07910156 .33999635 .011245728 .2669983 .011245728 .18299866 .011245728 .1789856 .058135988 .1789856 .11009216V.4423828L.03199768 .43066407V.3996582C.10998535 .3996582 .10998535 .39666749 .10998535 .3078003V.15802002C.10998535 .080093387 .10998535-.0107421879 .2619934-.0107421879 .31799317-.0107421879 .3619995 .017242432 .3909912 .07910156V-.0107421879L.5349884 0Z"/>
<path id="font_2_72" d="M.25498963 0V.0309906C.18798828 .0309906 .1769867 .0309906 .1769867 .07601929V.69433596L.032989503 .6826172V.6516113C.102996829 .6516113 .11099243 .64460757 .11099243 .5956421V.07595825C.11099243 .0309906 .099990848 .0309906 .032989503 .0309906V0L.14399719 .0029907227 .25498963 0Z"/>
<path id="font_2_105" d="M.33198548 .12385559V.18066406H.30699159V.12585449C.30699159 .052108766 .2769928 .014251709 .23999024 .014251709 .17298889 .014251709 .17298889 .10491943 .17298889 .12187195V.3996582H.31599427V.43066407H.17298889V.6142578H.147995C.14698792 .5324249 .116989139 .42565919 .018997193 .42166139V.3996582H.10398865V.12408447C.10398865 .0012512207 .19699097-.0107421879 .23298645-.0107421879 .3039856-.0107421879 .33198548 .060180665 .33198548 .12408447V.12385559Z"/>
<path id="font_2_75" d="M.8129883 0V.0309906C.7609863 .0309906 .73599246 .0309906 .7350006 .061019899V.25221253C.7350006 .3383026 .7350006 .36932374 .70399478 .405365 .6899872 .42237855 .6569977 .4423828 .598999 .4423828 .5149994 .4423828 .47099305 .38233949 .45399476 .34429933 .43998719 .43138124 .3659973 .4423828 .32099916 .4423828 .24798584 .4423828 .20098877 .39935304 .17298889 .33729554V.4423828L.03199768 .43066407V.3996582C.101989749 .3996582 .10998535 .39266969 .10998535 .34370423V.07595825C.10998535 .0309906 .09899902 .0309906 .03199768 .0309906V0L.14498902 .0029907227 .25698854 0V.0309906C.18998719 .0309906 .1789856 .0309906 .1789856 .07595825V.25978089C.1789856 .36431886 .25 .42037965 .31399537 .42037965 .3769989 .42037965 .3880005 .36631776 .3880005 .30926515V.076034549C.3880005 .0309906 .3769989 .0309906 .30999757 .0309906V0L.4229889 .0029907227 .5349884 0V.0309906C.46798707 .0309906 .45700074 .0309906 .45700074 .076034549V.2602234C.45700074 .36431886 .5279999 .42037965 .59199526 .42037965 .6549988 .42037965 .66600039 .36631776 .66600039 .30926515V.076034549C.66600039 .0309906 .6549988 .0309906 .58799746 .0309906V0L.70098879 .0029907227 .8129883 0Z"/>
</defs>
<path transform="matrix(1.00008,0,0,-1.00006,12.853668,134.46729)" stroke-width=".3985" stroke-linecap="butt" stroke-miterlimit="10" stroke-linejoin="miter" fill="none" stroke="#000000" d="M-11.33896 0H237.66037"/>
<path transform="matrix(1.00008,0,0,-1.00006,250.53305,134.46729)" stroke-width=".31879" stroke-linecap="round" stroke-linejoin="round" fill="none" stroke="#000000" d="M-1.19551 1.59401C-1.09587 .99626 0 .09961 .29886 0 0-.09961-1.09587-.99626-1.19551-1.59401"/>
<use data-text="x" xlink:href="#font_1_1" transform="matrix(9.963397,0,0,-9.963197,254.511,128.45693)"/>
<use data-text="(" xlink:href="#font_2_85" transform="matrix(9.963397,0,0,-9.963197,263.5237,128.45693)"/>
<use data-text="y" xlink:href="#font_2_118" transform="matrix(9.963397,0,0,-9.963197,267.39949,128.45693)"/>
<use data-text="e" xlink:href="#font_2_50" transform="matrix(9.963397,0,0,-9.963197,272.38117,128.45693)"/>
<use data-text="a" xlink:href="#font_2_28" transform="matrix(9.963397,0,0,-9.963197,276.80494,128.45693)"/>
<use data-text="r" xlink:href="#font_2_96" transform="matrix(9.963397,0,0,-9.963197,281.78663,128.45693)"/>
<use data-text="s" xlink:href="#font_2_98" transform="matrix(9.963397,0,0,-9.963197,285.6923,128.45693)"/>
<use data-text="s" xlink:href="#font_2_98" transform="matrix(9.963397,0,0,-9.963197,292.92573,128.45693)"/>
<use data-text="i" xlink:href="#font_2_66" transform="matrix(9.963397,0,0,-9.963197,296.8513,128.45693)"/>
<use data-text="n" xlink:href="#font_2_77" transform="matrix(9.963397,0,0,-9.963197,299.62113,128.45693)"/>
<use data-text="c" xlink:href="#font_2_43" transform="matrix(9.963397,0,0,-9.963197,305.16078,128.45693)"/>
<use data-text="e" xlink:href="#font_2_50" transform="matrix(9.963397,0,0,-9.963197,309.58454,128.45693)"/>
<use data-text="1" xlink:href="#font_2_82" transform="matrix(9.963397,0,0,-9.963197,317.3261,128.45693)"/>
<use data-text="9" xlink:href="#font_2_78" transform="matrix(9.963397,0,0,-9.963197,322.3078,128.45693)"/>
<use data-text="0" xlink:href="#font_2_121" transform="matrix(9.963397,0,0,-9.963197,327.2895,128.45693)"/>
<use data-text="0" xlink:href="#font_2_121" transform="matrix(9.963397,0,0,-9.963197,332.27119,128.45693)"/>
<use data-text=")" xlink:href="#font_2_86" transform="matrix(9.963397,0,0,-9.963197,337.25288,128.45693)"/>
<path transform="matrix(1.00008,0,0,-1.00006,12.853668,134.46729)" stroke-width=".3985" stroke-linecap="butt" stroke-miterlimit="10" stroke-linejoin="miter" fill="none" stroke="#000000" d="M22.67795 1.70091V-1.70091"/>
<use data-text="1" xlink:href="#font_2_82" transform="matrix(9.963397,0,0,-9.963197,30.552086,146.32399)"/>
<use data-text="0" xlink:href="#font_2_121" transform="matrix(9.963397,0,0,-9.963197,35.533784,146.32399)"/>
<path transform="matrix(1.00008,0,0,-1.00006,12.853668,134.46729)" stroke-width=".3985" stroke-linecap="butt" stroke-miterlimit="10" stroke-linejoin="miter" fill="none" stroke="#000000" d="M45.35591 1.70091V-1.70091"/>
<use data-text="2" xlink:href="#font_2_107" transform="matrix(9.963397,0,0,-9.963197,53.2319,146.32399)"/>
<use data-text="0" xlink:href="#font_2_121" transform="matrix(9.963397,0,0,-9.963197,58.213598,146.32399)"/>
<path transform="matrix(1.00008,0,0,-1.00006,12.853668,134.46729)" stroke-width=".3985" stroke-linecap="butt" stroke-miterlimit="10" stroke-linejoin="miter" fill="none" stroke="#000000" d="M68.03389 1.70091V-1.70091"/>
<use data-text="3" xlink:href="#font_2_106" transform="matrix(9.963397,0,0,-9.963197,75.91171,146.32399)"/>
<use data-text="0" xlink:href="#font_2_121" transform="matrix(9.963397,0,0,-9.963197,80.89341,146.32399)"/>
<path transform="matrix(1.00008,0,0,-1.00006,12.853668,134.46729)" stroke-width=".3985" stroke-linecap="butt" stroke-miterlimit="10" stroke-linejoin="miter" fill="none" stroke="#000000" d="M90.71185 1.70091V-1.70091"/>
<use data-text="4" xlink:href="#font_2_57" transform="matrix(9.963397,0,0,-9.963197,98.59053,146.434)"/>
<use data-text="0" xlink:href="#font_2_121" transform="matrix(9.963397,0,0,-9.963197,103.57223,146.434)"/>
<path transform="matrix(1.00008,0,0,-1.00006,12.853668,134.46729)" stroke-width=".3985" stroke-linecap="butt" stroke-miterlimit="10" stroke-linejoin="miter" fill="none" stroke="#000000" d="M113.38982 1.70091V-1.70091"/>
<use data-text="5" xlink:href="#font_2_56" transform="matrix(9.963397,0,0,-9.963197,121.27034,146.32399)"/>
<use data-text="0" xlink:href="#font_2_121" transform="matrix(9.963397,0,0,-9.963197,126.25204,146.32399)"/>
<path transform="matrix(1.00008,0,0,-1.00006,12.853668,134.46729)" stroke-width=".3985" stroke-linecap="butt" stroke-miterlimit="10" stroke-linejoin="miter" fill="none" stroke="#000000" d="M136.0678 1.70091V-1.70091"/>
<use data-text="6" xlink:href="#font_2_101" transform="matrix(9.963397,0,0,-9.963197,143.95015,146.32399)"/>
<use data-text="0" xlink:href="#font_2_121" transform="matrix(9.963397,0,0,-9.963197,148.93186,146.32399)"/>
<path transform="matrix(1.00008,0,0,-1.00006,12.853668,134.46729)" stroke-width=".3985" stroke-linecap="butt" stroke-miterlimit="10" stroke-linejoin="miter" fill="none" stroke="#000000" d="M158.74576 1.70091V-1.70091"/>
<use data-text="7" xlink:href="#font_2_100" transform="matrix(9.963397,0,0,-9.963197,166.62998,146.42401)"/>
<use data-text="0" xlink:href="#font_2_121" transform="matrix(9.963397,0,0,-9.963197,171.61167,146.42401)"/>
<path transform="matrix(1.00008,0,0,-1.00006,12.853668,134.46729)" stroke-width=".3985" stroke-linecap="butt" stroke-miterlimit="10" stroke-linejoin="miter" fill="none" stroke="#000000" d="M181.42372 1.70091V-1.70091"/>
<use data-text="8" xlink:href="#font_2_51" transform="matrix(9.963397,0,0,-9.963197,189.30979,146.32399)"/>
<use data-text="0" xlink:href="#font_2_121" transform="matrix(9.963397,0,0,-9.963197,194.29148,146.32399)"/>
<path transform="matrix(1.00008,0,0,-1.00006,12.853668,134.46729)" stroke-width=".3985" stroke-linecap="butt" stroke-miterlimit="10" stroke-linejoin="miter" fill="none" stroke="#000000" d="M204.1017 1.70091V-1.70091"/>
<use data-text="9" xlink:href="#font_2_78" transform="matrix(9.963397,0,0,-9.963197,211.9896,146.32399)"/>
<use data-text="0" xlink:href="#font_2_121" transform="matrix(9.963397,0,0,-9.963197,216.97129,146.32399)"/>
<path transform="matrix(1.00008,0,0,-1.00006,12.853668,134.46729)" stroke-width=".3985" stroke-linecap="butt" stroke-miterlimit="10" stroke-linejoin="miter" fill="none" stroke="#000000" d="M226.77965 1.70091V-1.70091"/>
<use data-text="1" xlink:href="#font_2_82" transform="matrix(9.963397,0,0,-9.963197,232.17922,146.32399)"/>
<use data-text="0" xlink:href="#font_2_121" transform="matrix(9.963397,0,0,-9.963197,237.16092,146.32399)"/>
<use data-text="0" xlink:href="#font_2_121" transform="matrix(9.963397,0,0,-9.963197,242.14261,146.32399)"/>
<path transform="matrix(1.00008,0,0,-1.00006,12.853668,134.46729)" stroke-width=".3985" stroke-linecap="butt" stroke-miterlimit="10" stroke-linejoin="miter" fill="none" stroke="#000000" d="M0-8.50412V118.59952"/>
<path transform="matrix(0,-1.00006,-1.00008,-0,12.853668,15.860657)" stroke-width=".31879" stroke-linecap="round" stroke-linejoin="round" fill="none" stroke="#000000" d="M-1.19551 1.59401C-1.09587 .99626 0 .09961 .29886 0 0-.09961-1.09587-.99626-1.19551-1.59401"/>
<use data-text="P" xlink:href="#font_2_83" transform="matrix(9.963397,0,0,-9.963197,16.373948,9.391785)"/>
<use data-text="o" xlink:href="#font_2_81" transform="matrix(9.963397,0,0,-9.963197,22.890007,9.391785)"/>
<use data-text="p" xlink:href="#font_2_84" transform="matrix(9.963397,0,0,-9.963197,27.871705,9.391785)"/>
<use data-text="u" xlink:href="#font_2_109" transform="matrix(9.963397,0,0,-9.963197,33.41136,9.391785)"/>
<use data-text="l" xlink:href="#font_2_72" transform="matrix(9.963397,0,0,-9.963197,38.95101,9.391785)"/>
<use data-text="a" xlink:href="#font_2_28" transform="matrix(9.963397,0,0,-9.963197,41.720834,9.391785)"/>
<use data-text="t" xlink:href="#font_2_105" transform="matrix(9.963397,0,0,-9.963197,46.70253,9.391785)"/>
<use data-text="i" xlink:href="#font_2_66" transform="matrix(9.963397,0,0,-9.963197,50.578294,9.391785)"/>
<use data-text="o" xlink:href="#font_2_81" transform="matrix(9.963397,0,0,-9.963197,53.348115,9.391785)"/>
<use data-text="n" xlink:href="#font_2_77" transform="matrix(9.963397,0,0,-9.963197,58.329805,9.391785)"/>
<use data-text="(" xlink:href="#font_2_85" transform="matrix(9.963397,0,0,-9.963197,67.17731,9.391785)"/>
<use data-text="i" xlink:href="#font_2_66" transform="matrix(9.963397,0,0,-9.963197,71.05307,9.391785)"/>
<use data-text="n" xlink:href="#font_2_77" transform="matrix(9.963397,0,0,-9.963197,73.82291,9.391785)"/>
<use data-text="m" xlink:href="#font_2_75" transform="matrix(9.963397,0,0,-9.963197,82.68036,9.391785)"/>
<use data-text="i" xlink:href="#font_2_66" transform="matrix(9.963397,0,0,-9.963197,90.97987,9.391785)"/>
<use data-text="l" xlink:href="#font_2_72" transform="matrix(9.963397,0,0,-9.963197,93.749698,9.391785)"/>
<use data-text="l" xlink:href="#font_2_72" transform="matrix(9.963397,0,0,-9.963197,96.51953,9.391785)"/>
<use data-text="i" xlink:href="#font_2_66" transform="matrix(9.963397,0,0,-9.963197,99.28935,9.391785)"/>
<use data-text="o" xlink:href="#font_2_81" transform="matrix(9.963397,0,0,-9.963197,102.05919,9.391785)"/>
<use data-text="n" xlink:href="#font_2_77" transform="matrix(9.963397,0,0,-9.963197,107.04088,9.391785)"/>
<use data-text="s" xlink:href="#font_2_98" transform="matrix(9.963397,0,0,-9.963197,112.58052,9.391785)"/>
<use data-text=")" xlink:href="#font_2_86" transform="matrix(9.963397,0,0,-9.963197,116.50609,9.391785)"/>
<path transform="matrix(1.00008,0,0,-1.00006,12.853668,134.46729)" stroke-width=".3985" stroke-linecap="butt" stroke-miterlimit="10" stroke-linejoin="miter" fill="none" stroke="#000000" d="M1.13388 17.00824H-1.13388"/>
<use data-text="1" xlink:href="#font_2_82" transform="matrix(9.963397,0,0,-9.963197,3.2178956,120.77547)"/>
<path transform="matrix(1.00008,0,0,-1.00006,12.853668,134.46729)" stroke-width=".3985" stroke-linecap="butt" stroke-miterlimit="10" stroke-linejoin="miter" fill="none" stroke="#000000" d="M1.13388 34.0165H-1.13388"/>
<use data-text="2" xlink:href="#font_2_107" transform="matrix(9.963397,0,0,-9.963197,3.2178956,103.76645)"/>
<path transform="matrix(1.00008,0,0,-1.00006,12.853668,134.46729)" stroke-width=".3985" stroke-linecap="butt" stroke-miterlimit="10" stroke-linejoin="miter" fill="none" stroke="#000000" d="M1.13388 51.02477H-1.13388"/>
<use data-text="3" xlink:href="#font_2_106" transform="matrix(9.963397,0,0,-9.963197,3.2178956,86.647418)"/>
<path transform="matrix(1.00008,0,0,-1.00006,12.853668,134.46729)" stroke-width=".3985" stroke-linecap="butt" stroke-miterlimit="10" stroke-linejoin="miter" fill="none" stroke="#000000" d="M1.13388 68.03302H-1.13388"/>
<use data-text="4" xlink:href="#font_2_57" transform="matrix(9.963397,0,0,-9.963197,3.2178956,69.80241)"/>
<path transform="matrix(1.00008,0,0,-1.00006,12.853668,134.46729)" stroke-width=".3985" stroke-linecap="butt" stroke-miterlimit="10" stroke-linejoin="miter" fill="none" stroke="#000000" d="M1.13388 85.04128H-1.13388"/>
<use data-text="5" xlink:href="#font_2_56" transform="matrix(9.963397,0,0,-9.963197,3.2178956,52.62938)"/>
<path transform="matrix(1.00008,0,0,-1.00006,12.853668,134.46729)" stroke-width=".3985" stroke-linecap="butt" stroke-miterlimit="10" stroke-linejoin="miter" fill="none" stroke="#000000" d="M1.13388 102.04953H-1.13388"/>
<use data-text="6" xlink:href="#font_2_101" transform="matrix(9.963397,0,0,-9.963197,3.2178956,35.620355)"/>
<path transform="matrix(1.00008,0,0,-1.00006,12.853668,134.46729)" d="M1.59407 47.62315C1.59407 48.28343 .88039 48.8187 0 48.8187-.88039 48.8187-1.59407 48.28343-1.59407 47.62315-1.59407 46.96288-.88039 46.42761 0 46.42761 .88039 46.42761 1.59407 46.96288 1.59407 47.62315ZM0 47.62315"/>
<path transform="matrix(1.00008,0,0,-1.00006,12.853668,134.46729)" d="M24.27203 57.82796C24.27203 58.48824 23.55835 59.0235 22.67795 59.0235 21.79756 59.0235 21.08388 58.48824 21.08388 57.82796 21.08388 57.16766 21.79756 56.63242 22.67795 56.63242 23.55835 56.63242 24.27203 57.16766 24.27203 57.82796ZM22.67795 57.82796"/>
<path transform="matrix(1.00008,0,0,-1.00006,12.853668,134.46729)" d="M46.95 64.63141C46.95 65.2917 46.23631 65.82697 45.35591 65.82697 44.47552 65.82697 43.76184 65.2917 43.76184 64.63141 43.76184 63.97113 44.47552 63.43587 45.35591 63.43587 46.23631 63.43587 46.95 63.97113 46.95 64.63141ZM45.35591 64.63141"/>
<path transform="matrix(1.00008,0,0,-1.00006,12.853668,134.46729)" d="M69.62798 71.43462C69.62798 72.09491 68.91429 72.63017 68.03389 72.63017 67.1535 72.63017 66.43982 72.09491 66.43982 71.43462 66.43982 70.77434 67.1535 70.23907 68.03389 70.23907 68.91429 70.23907 69.62798 70.77434 69.62798 71.43462ZM68.03389 71.43462"/>
<path transform="matrix(1.00008,0,0,-1.00006,12.853668,134.46729)" d="M92.30594 73.13554C92.30594 73.79582 91.59224 74.33109 90.71185 74.33109 89.83147 74.33109 89.11777 73.79582 89.11777 73.13554 89.11777 72.47525 89.83147 71.94 90.71185 71.94 91.59224 71.94 92.30594 72.47525 92.30594 73.13554ZM90.71185 73.13554"/>
<path transform="matrix(1.00008,0,0,-1.00006,12.853668,134.46729)" d="M114.9839 79.93875C114.9839 80.59903 114.2702 81.1343 113.38982 81.1343 112.50943 81.1343 111.79573 80.59903 111.79573 79.93875 111.79573 79.27846 112.50943 78.7432 113.38982 78.7432 114.2702 78.7432 114.9839 79.27846 114.9839 79.93875ZM113.38982 79.93875"/>
<path transform="matrix(1.00008,0,0,-1.00006,12.853668,134.46729)" d="M137.66187 86.7422C137.66187 87.4025 136.94818 87.93776 136.0678 87.93776 135.18741 87.93776 134.47371 87.4025 134.47371 86.7422 134.47371 86.08192 135.18741 85.54666 136.0678 85.54666 136.94818 85.54666 137.66187 86.08192 137.66187 86.7422ZM136.0678 86.7422"/>
<path transform="matrix(1.00008,0,0,-1.00006,12.853668,134.46729)" d="M160.33983 96.947C160.33983 97.60728 159.62615 98.14255 158.74576 98.14255 157.86536 98.14255 157.15167 97.60728 157.15167 96.947 157.15167 96.28673 157.86536 95.75146 158.74576 95.75146 159.62615 95.75146 160.33983 96.28673 160.33983 96.947ZM158.74576 96.947"/>
<path transform="matrix(1.00008,0,0,-1.00006,12.853668,134.46729)" d="M183.01779 96.947C183.01779 97.60728 182.30411 98.14255 181.42372 98.14255 180.54332 98.14255 179.82964 97.60728 179.82964 96.947 179.82964 96.28673 180.54332 95.75146 181.42372 95.75146 182.30411 95.75146 183.01779 96.28673 183.01779 96.947ZM181.42372 96.947"/>
<path transform="matrix(1.00008,0,0,-1.00006,12.853668,134.46729)" d="M205.69577 102.04953C205.69577 102.70982 204.98209 103.24509 204.1017 103.24509 203.2213 103.24509 202.50762 102.70982 202.50762 102.04953 202.50762 101.38925 203.2213 100.85399 204.1017 100.85399 204.98209 100.85399 205.69577 101.38925 205.69577 102.04953ZM204.1017 102.04953"/>
<path transform="matrix(1.00008,0,0,-1.00006,12.853668,134.46729)" d="M228.37374 107.15207C228.37374 107.81235 227.66005 108.34761 226.77965 108.34761 225.89926 108.34761 225.18558 107.81235 225.18558 107.15207 225.18558 106.49178 225.89926 105.95651 226.77965 105.95651 227.66005 105.95651 228.37374 106.49178 228.37374 107.15207ZM226.77965 107.15207"/>
<path transform="matrix(1.00008,0,0,-1.00006,12.853668,134.46729)" stroke-width=".3985" stroke-linecap="butt" stroke-miterlimit="10" stroke-linejoin="miter" fill="none" stroke="#000000" d="M-6.37329 46.50107-5.57263 46.79553-4.34186 47.24606-3.11111 47.69453-1.88036 48.14064-.6496 48.5847 .58112 49.02615 1.81187 49.46605 3.04262 49.90361 4.27339 50.33936 5.50414 50.77277 6.7349 51.20435 7.96565 51.6336 9.1964 52.06104 10.42715 52.48615 11.6579 52.90968 12.88867 53.3309 14.11942 53.75055 15.35017 54.16788 16.58093 54.58337 17.81168 54.99654 19.04243 55.4084 20.2732 55.81793 21.50395 56.2259 22.73471 56.63155 23.96545 57.03537 25.19621 57.43736 26.42696 57.83781 27.65773 58.23619 28.88847 58.63249 30.11923 59.02774 31.34999 59.42067 32.58073 59.81177 33.8115 60.20107 35.04224 60.58905 36.27301 60.97496 37.50375 61.35907 38.73451 61.7416 39.96527 62.12259 41.19601 62.50122 42.42677 62.8791 43.65752 63.25464 44.88829 63.6286 46.11903 64.0013 47.3498 64.37215 48.58055 64.7412 49.8113 65.10895 51.04205 65.47461 52.2728 65.83951 53.50357 66.20233 54.73431 66.56358 55.96507 66.92328 57.19583 67.2817 58.42657 67.6388 59.65733 67.9941 60.88809 68.34755 62.11885 68.70026 63.3496 69.05113 64.58035 69.40071 65.81111 69.749 67.04185 70.0952 68.27261 70.44064 69.50337 70.78476 70.73413 71.12683 71.96487 71.4681 73.19563 71.80782 74.42639 72.14624 75.65714 72.48361 76.88791 72.81918 78.11865 73.15422 79.34941 73.48747 80.58015 73.81912 81.81091 74.14977 83.04167 74.47937 84.27242 74.80766 85.50319 75.13466 86.73393 75.46037 87.96469 75.7853 89.19543 76.10841 90.4262 76.431 91.65695 76.7528 92.88771 77.0723 94.11847 77.3915 95.34921 77.70917 96.57997 78.0263 97.81071 78.34215 99.04147 78.65617 100.27223 78.96968 101.50299 79.28267 102.73375 79.5941 103.9645 79.90475 105.19525 80.21384 106.42601 80.52242 107.65675 80.82996 108.88751 81.13646 110.11827 81.44243 111.34903 81.74686 112.57977 82.05025 113.81053 82.35362 115.04129 82.6552 116.27203 82.95676 117.5028 83.25703 118.73355 83.55576 119.96431 83.85498 121.19505 84.15189 122.42581 84.44904 123.65657 84.74567 124.88731 85.04024 126.11809 85.33505 127.34883 85.62859 128.57959 85.92159 129.81034 86.21434 131.04109 86.50577 132.27185 86.7967 133.50261 87.08711 134.73337 87.3757 135.96411 87.66455 137.19487 87.95316 138.42562 88.24043 139.65637 88.52774 140.88713 88.81348 142.11789 89.09975 143.34865 89.38417 144.57939 89.66913 145.81015 89.95305 147.0409 90.23567 148.27165 90.51907 149.50241 90.80118 150.73317 91.08354 151.96393 91.36435 153.19467 91.64517 154.42543 91.9257 155.65618 92.20546 156.88694 92.48499 158.1177 92.76422 159.34845 93.0427 160.57921 93.3209 161.80995 93.59914 163.04071 93.8763 164.27146 94.15347 165.50222 94.43063 166.73299 94.70679 167.96373 94.98291 169.19449 95.25803 170.42523 95.53441 171.65599 95.80951 172.88674 96.08382 174.11751 96.35944 175.34827 96.63298 176.57901 96.90782 177.80977 97.18163 179.04051 97.45566 180.27127 97.7287 181.50203 98.00198 182.73279 98.27525 183.96355 98.54906 185.19429 98.82182 186.42505 99.0951 187.65579 99.36732 188.88655 99.63985 190.11731 99.91261 191.34807 100.18484 192.57883 100.45708 193.80957 100.73088 195.04033 101.00287 196.27108 101.27512 197.50183 101.54683 198.7326 101.81985 199.96335 102.0921 201.1941 102.36382 202.42485 102.6371 203.65561 102.9096 204.88636 103.18158 206.11711 103.45486 207.34789 103.72685 208.57863 104.00012 209.80939 104.27419 211.04013 104.54617 212.27089 104.81998 213.50164 105.09325 214.7324 105.36705 215.96317 105.64137 217.19391 105.91412 218.42467 106.18974 219.65541 106.46379 220.88617 106.73837 222.11692 107.01375 223.34769 107.28831 224.57845 107.56523 225.80919 107.84135 227.03995 108.11697 228.27069 108.39337 229.50145 108.6708 230.7322 108.94746 231.96297 109.2249 233.19373 109.50337 234.42447 109.78235 235.65523 110.06134 236.88597 110.33955 237.66992 110.5183"/>
<path transform="matrix(-.93859508,.34512068,.34512759,.9385763,6.4798786,87.963428)" stroke-width=".31879" stroke-linecap="round" stroke-linejoin="round" fill="none" stroke="#000000" d="M-1.19551 1.59401C-1.09587 .99626 0 .09961 .29886 0 0-.09961-1.09587-.99626-1.19551-1.59401"/>
<path transform="matrix(.975038,-.22219332,-.22219777,-.9750185,250.5426,23.942376)" stroke-width=".31879" stroke-linecap="round" stroke-linejoin="round" fill="none" stroke="#000000" d="M-1.19551 1.59401C-1.09587 .99626 0 .09961 .29886 0 0-.09961-1.09587-.99626-1.19551-1.59401"/>
</svg>
