<svg xmlns="http://www.w3.org/2000/svg" xmlns:xlink="http://www.w3.org/1999/xlink" xmlns:inkscape="http://www.inkscape.org/namespaces/inkscape" version="1.1" width="252" height="192" viewBox="0 0 252 192">
<defs>
<path id="font_1_1" d="M.33399964 .30233766C.33999635 .32835389 .36299134 .42037965 .43299867 .42037965 .43798829 .42037965 .46199037 .42037965 .48298646 .40734864 .45498658 .402359 .43499757 .37734986 .43499757 .35334779 .43499757 .33735658 .44599916 .31835938 .47299195 .31835938 .49499513 .31835938 .5269928 .3363495 .5269928 .37635804 .5269928 .42837525 .46798707 .4423828 .43399049 .4423828 .37599183 .4423828 .34098817 .38935853 .32899476 .36634828 .3039856 .43237306 .25 .4423828 .22099304 .4423828 .116989139 .4423828 .05999756 .3133545 .05999756 .28834535 .05999756 .27833558 .069992069 .27833558 .07199097 .27833558 .07998657 .27833558 .08299255 .28033448 .084991458 .28933717 .11898804 .39535523 .18499756 .42037965 .21899414 .42037965 .23799134 .42037965 .272995 .4113617 .272995 .35334779 .272995 .32235719 .2559967 .25532533 .21899414 .11528015 .20298767 .053268434 .16799927 .011245728 .12399292 .011245728 .117996219 .011245728 .09498596 .011245728 .07398987 .024276734 .09899902 .029266358 .12098694 .05027771 .12098694 .07827759 .12098694 .105270389 .09899902 .11328125 .083999637 .11328125 .053985597 .11328125 .0289917 .08728027 .0289917 .055267335 .0289917 .009246826 .07899475-.0107421879 .12298584-.0107421879 .18899536-.0107421879 .22499085 .059280397 .22799683 .0652771 .23999024 .028274537 .27598573-.0107421879 .33599855-.0107421879 .43899537-.0107421879 .49598695 .118270877 .49598695 .14328003 .49598695 .1532898 .4869995 .1532898 .48399354 .1532898 .47499085 .1532898 .47299195 .14929199 .47099305 .14228821 .43798829 .03527832 .36999513 .011245728 .33799745 .011245728 .29899598 .011245728 .2829895 .043273927 .2829895 .07727051 .2829895 .09927368 .2889862 .121276859 .2999878 .16529846L.33399964 .30233766Z"/>
<path id="font_2_121" d="M.45999146 .31976319C.45999146 .39982606 .45498658 .47988893 .41999818 .5539398 .37399293 .65000918 .2919922 .6660156 .25 .6660156 .18998719 .6660156 .116989139 .64001467 .07598877 .54693606 .04399109 .47789 .038986207 .39982606 .038986207 .31976319 .038986207 .24472046 .042999269 .15464783 .083999637 .07859802 .1269989-.0024719239 .19999695-.022460938 .24899292-.022460938 .30299378-.022460938 .3789978-.0014648438 .4229889 .09359741 .45498658 .16265869 .45999146 .2407074 .45999146 .31976319M.3769989 .3317871C.3769989 .25672914 .3769989 .18867493 .3659973 .12461853 .35099793 .029556275 .2939911-.00047302247 .24899292-.00047302247 .20999146-.00047302247 .15098572 .024551392 .1329956 .12062073 .12199402 .18066406 .12199402 .2727356 .12199402 .3317871 .12199402 .39582826 .12199402 .46188355 .12998963 .5159149 .14898682 .63500979 .22399903 .64401248 .24899292 .64401248 .28199769 .64401248 .34799195 .6259918 .36698915 .52693179 .3769989 .47088624 .3769989 .39482118 .3769989 .3317871Z"/>
<path id="font_2_88" d="M.19198609 .052993776C.19198609 .08198547 .16799927 .10598755 .13899231 .10598755 .10998535 .10598755 .085998538 .08198547 .085998538 .052993776 .085998538 .023986817 .10998535 0 .13899231 0 .16799927 0 .19198609 .023986817 .19198609 .052993776Z"/>
<path id="font_2_107" d="M.44898988 .17396546H.42399598C.4189911 .14398194 .4119873 .099990848 .4019928 .084991458 .394989 .07699585 .32899476 .07699585 .30699159 .07699585H.1269989L.23298645 .17996216C.3889923 .31803895 .44898988 .37210084 .44898988 .47216798 .44898988 .5860901 .35899354 .6660156 .23699951 .6660156 .12399292 .6660156 .049987794 .57411196 .049987794 .48516847 .049987794 .4291687 .099990848 .4291687 .102996829 .4291687 .11999512 .4291687 .15499878 .44117738 .15499878 .48217774 .15499878 .5081787 .13699341 .5341797 .101989749 .5341797 .09399414 .5341797 .09199524 .5341797 .08898926 .5331726 .11199951 .59806826 .1659851 .63500979 .22399903 .63500979 .31498719 .63500979 .35798646 .5541382 .35798646 .47216798 .35798646 .39196778 .30799867 .31297303 .25299073 .25097657L.06098938 .036987306C.049987794 .025985718 .049987794 .023986817 .049987794 0H.42099L.44898988 .17396546Z"/>
<path id="font_2_56" d="M.44898988 .20091248C.44898988 .31991578 .36698915 .41992188 .25898744 .41992188 .21099854 .41992188 .16799927 .4039154 .13198853 .36891175V.5641022C.1519928 .55778506 .18499756 .55078127 .21699524 .55078127 .33999635 .55078127 .4099884 .6418457 .4099884 .65493777 .4099884 .6609802 .40699769 .6660156 .3999939 .6660156 .3999939 .66607668 .39698792 .66607668 .3919983 .66308596 .37199403 .65408328 .32299806 .63378909 .2559967 .63378909 .21598816 .63409426 .16999817 .641098 .12298584 .6621094 .114990238 .6651001 .11099243 .6651001 .11099243 .6651001 .100997928 .66508486 .100997928 .657074 .100997928 .64108279V.3447113C.100997928 .3266449 .100997928 .31861878 .114990238 .31861878 .12199402 .31861878 .12399292 .32164 .12799073 .32765199 .13899231 .34371949 .17599488 .3979187 .25698854 .3979187 .30899049 .3979187 .33399964 .3517456 .34199525 .3336792 .35798646 .2965393 .3600006 .2574005 .3600006 .20721436 .3600006 .17218018 .3600006 .112197879 .33599855 .07032776 .31199647 .031448366 .2749939 .0055389406 .22898865 .0055389406 .1559906 .0055389406 .09899902 .05836487 .08198547 .1171875 .084991458 .11685181 .08799744 .115859989 .09899902 .115859989 .13198853 .115859989 .14898682 .14085388 .14898682 .16485596 .14898682 .18885803 .13198853 .21386719 .09899902 .21386719 .084991458 .21386719 .049987794 .2068634 .049987794 .16085816 .049987794 .07432556 .11898804-.022460938 .23098755-.022460938 .34700013-.022460938 .44898988 .07331848 .44898988 .20019531V.20091248Z"/>
<path id="font_2_100" d="M.4850006 .6435547H.24198914C.11999512 .6435547 .117996219 .6566467 .11399841 .67578127H.08898926L.055999757 .46954347H.08099365C.083999637 .48554994 .09298706 .54855349 .10598755 .5605469 .11299133 .5665436 .19099427 .5665436 .20399475 .5665436H.41099549L.29899598 .40853883C.20899964 .2735443 .17599488 .13453675 .17599488 .03253174 .17599488 .022537232 .17599488-.022460938 .22200012-.022460938 .2679901-.022460938 .2679901 .022537232 .2679901 .03253174V.08354187C.2679901 .13853455 .2709961 .19354248 .2789917 .24754334 .2829895 .27053834 .29699708 .35653688 .34098817 .41854859L.47599793 .608551C.4850006 .62054446 .4850006 .62254336 .4850006 .6435547Z"/>
<path id="font_2_82" d="M.4189911 0V.0309906H.3869934C.29699708 .0309906 .2939911 .041992189 .2939911 .07902527V.64012148C.2939911 .6640167 .2939911 .6660156 .2709961 .6660156 .20899964 .60227969 .12098694 .60227969 .08898926 .60227969V.57128909C.10899353 .57128909 .16799927 .57128909 .21998596 .5972748V.07902527C.21998596 .042999269 .21699524 .0309906 .1269989 .0309906H.09498596V0C.12998963 .0029907227 .21699524 .0029907227 .25698854 .0029907227 .29699708 .0029907227 .38398744 .0029907227 .4189911 0Z"/>
<path id="font_1_2" d="M.48599244 .38136292C.48999024 .39537049 .48999024 .39736939 .48999024 .40437318 .48999024 .42237855 .47599793 .43138124 .46099855 .43138124 .45098878 .43138124 .43499757 .42536927 .42599488 .41036988 .42399598 .405365 .41600038 .37435914 .4119873 .35635377 .40499879 .33035279 .397995 .30334474 .3919983 .27633668L.34700013 .09628296C.34298707 .08126831 .2999878 .011245728 .23399353 .011245728 .18299866 .011245728 .17199707 .055267335 .17199707 .0922699 .17199707 .1382904 .18899536 .20030213 .22299195 .28833009 .23899842 .3293457 .24299622 .3403473 .24299622 .36035157 .24299622 .405365 .21099854 .4423828 .16099549 .4423828 .06599426 .4423828 .0289917 .29733277 .0289917 .28833009 .0289917 .27833558 .038986207 .27833558 .040985109 .27833558 .050994874 .27833558 .051986696 .28033448 .056991579 .29634095 .083999637 .3903656 .12399292 .42037965 .1579895 .42037965 .1659851 .42037965 .18299866 .42037965 .18299866 .3883667 .18299866 .36335755 .17298889 .3373413 .1659851 .31834413 .12599182 .21231079 .10798645 .1552887 .10798645 .10827637 .10798645 .019256592 .17098999-.0107421879 .22999573-.0107421879 .2689972-.0107421879 .30299378 .0062561037 .33099366 .03425598 .31799317-.017745972 .30599977-.06674194 .2659912-.11973572 .23999024-.15385437 .20199585-.18309021 .1559906-.18309021 .14199829-.18309021 .09700012-.18005371 .07998657-.14074707 .09599304-.14074707 .10899353-.14074707 .12298584-.1287384 .1329956-.11973572 .14299011-.10673523 .14299011-.08773804 .14299011-.056747438 .115997318-.052734376 .10598755-.052734376 .08299255-.052734376 .049987794-.068740848 .049987794-.11773682 .049987794-.16796875 .09399414-.20507813 .1559906-.20507813 .25898744-.20507813 .3619995-.11373901 .3899994-.00074768069L.48599244 .38136292Z"/>
<path id="font_2_106" d="M.45700074 .17037964C.45700074 .252594 .3939972 .33088685 .2899933 .35191346 .37199403 .37893678 .42999269 .4490509 .42999269 .52809146 .42999269 .6100464 .34199525 .6660156 .24598694 .6660156 .14498902 .6660156 .068984989 .60606387 .068984989 .53009036 .068984989 .49710084 .09098816 .47808839 .11999512 .47808839 .15098572 .47808839 .17098999 .50009158 .17098999 .5290985 .17098999 .57910159 .12399292 .57910159 .10899353 .57910159 .13999939 .62802127 .20599365 .64100649 .24198914 .64100649 .2829895 .64100649 .33799745 .6190338 .33799745 .5290985 .33799745 .51708987 .33599855 .45906068 .30999757 .4149933 .27999879 .36691285 .24598694 .36390687 .22099304 .36291505 .21299744 .36190797 .18899536 .35990907 .18199158 .35990907 .17399597 .35890199 .16699219 .35791017 .16699219 .3479004 .16699219 .33691407 .17399597 .33691407 .19099427 .33691407H.23498535C.31698609 .33691407 .35398866 .2686615 .35398866 .17037964 .35398866 .034469606 .2849884 .0055389406 .24099732 .0055389406 .19799805 .0055389406 .12298584 .022491456 .08799744 .08137512 .12298584 .07637024 .1539917 .09837341 .1539917 .1363678 .1539917 .17237854 .1269989 .19238281 .09799194 .19238281 .07398987 .19238281 .041992189 .17837525 .041992189 .1343689 .041992189 .043441774 .1349945-.022460938 .24398804-.022460938 .3659973-.022460938 .45700074 .06838989 .45700074 .17037964Z"/>
<path id="font_2_57" d="M.47099305 .16503906V.19602967H.37098695V.6507721C.37098695 .6707611 .37098695 .6767578 .35499574 .6767578 .34599305 .6767578 .34298707 .6767578 .33499146 .6647644L.027999878 .19602967V.16503906H.2939911V.07800293C.2939911 .041992189 .2919922 .0309906 .21798706 .0309906H.19699097V0C.23799134 .0029907227 .2899933 .0029907227 .33198548 .0029907227 .37399293 .0029907227 .4269867 .0029907227 .46798707 0V.0309906H.44699098C.37298585 .0309906 .37098695 .041992189 .37098695 .07800293V.16503906H.47099305M.2999878 .19602967H.055999757L.2999878 .56881716V.19602967Z"/>
</defs>
<path transform="matrix(1.00008,0,0,-1.00003,71.96832,164.74456)" stroke-width=".3985" stroke-linecap="butt" stroke-miterlimit="10" stroke-linejoin="miter" fill="none" stroke="#000000" d="M-70.86697 0H169.62213"/>
<path transform="matrix(1.00008,0,0,-1.00003,241.60402,164.74456)" stroke-width=".31879" stroke-linecap="round" stroke-linejoin="round" fill="none" stroke="#000000" d="M-1.19551 1.59401C-1.09587 .99626 0 .09961 .29886 0 0-.09961-1.09587-.99626-1.19551-1.59401"/>
<use data-text="x" xlink:href="#font_1_1" transform="matrix(9.963397,0,0,-9.962899,245.58222,161.22444)"/>
<path transform="matrix(1.00008,0,0,-1.00003,71.96832,164.74456)" stroke-width=".3985" stroke-linecap="butt" stroke-miterlimit="10" stroke-linejoin="miter" fill="none" stroke="#000000" d="M35.43344 5.10344V-5.10344"/>
<use data-text="0" xlink:href="#font_2_121" transform="matrix(9.963397,0,0,-9.962899,98.54745,180.003)"/>
<use data-text="." xlink:href="#font_2_88" transform="matrix(9.963397,0,0,-9.962899,103.52914,180.003)"/>
<use data-text="2" xlink:href="#font_2_107" transform="matrix(9.963397,0,0,-9.962899,106.29897,180.003)"/>
<use data-text="5" xlink:href="#font_2_56" transform="matrix(9.963397,0,0,-9.962899,111.28066,180.003)"/>
<path transform="matrix(1.00008,0,0,-1.00003,71.96832,164.74456)" stroke-width=".3985" stroke-linecap="butt" stroke-miterlimit="10" stroke-linejoin="miter" fill="none" stroke="#000000" d="M70.86697 5.10344V-5.10344"/>
<use data-text="0" xlink:href="#font_2_121" transform="matrix(9.963397,0,0,-9.962899,136.47449,180.003)"/>
<use data-text="." xlink:href="#font_2_88" transform="matrix(9.963397,0,0,-9.962899,141.45618,180.003)"/>
<use data-text="5" xlink:href="#font_2_56" transform="matrix(9.963397,0,0,-9.962899,144.22602,180.003)"/>
<path transform="matrix(1.00008,0,0,-1.00003,71.96832,164.74456)" stroke-width=".3985" stroke-linecap="butt" stroke-miterlimit="10" stroke-linejoin="miter" fill="none" stroke="#000000" d="M106.3005 5.10344V-5.10344"/>
<use data-text="0" xlink:href="#font_2_121" transform="matrix(9.963397,0,0,-9.962899,169.42012,180.10301)"/>
<use data-text="." xlink:href="#font_2_88" transform="matrix(9.963397,0,0,-9.962899,174.40181,180.10301)"/>
<use data-text="7" xlink:href="#font_2_100" transform="matrix(9.963397,0,0,-9.962899,177.17165,180.10301)"/>
<use data-text="5" xlink:href="#font_2_56" transform="matrix(9.963397,0,0,-9.962899,182.15334,180.10301)"/>
<path transform="matrix(1.00008,0,0,-1.00003,71.96832,164.74456)" stroke-width=".3985" stroke-linecap="butt" stroke-miterlimit="10" stroke-linejoin="miter" fill="none" stroke="#000000" d="M141.73404 5.10344V-5.10344"/>
<use data-text="1" xlink:href="#font_2_82" transform="matrix(9.963397,0,0,-9.962899,211.22246,180.003)"/>
<path transform="matrix(1.00008,0,0,-1.00003,71.96832,164.74456)" stroke-width=".3985" stroke-linecap="butt" stroke-miterlimit="10" stroke-linejoin="miter" fill="none" stroke="#000000" d="M0-25.51364V152.61594"/>
<path transform="matrix(0,-1.00003,-1.00008,-0,71.96832,12.124039)" stroke-width=".31879" stroke-linecap="round" stroke-linejoin="round" fill="none" stroke="#000000" d="M-1.19551 1.59401C-1.09587 .99626 0 .09961 .29886 0 0-.09961-1.09587-.99626-1.19551-1.59401"/>
<use data-text="y" xlink:href="#font_1_2" transform="matrix(9.963397,0,0,-9.962899,75.4886,6.208786)"/>
<path transform="matrix(1.00008,0,0,-1.00003,71.96832,164.74456)" stroke-width=".3985" stroke-linecap="butt" stroke-miterlimit="10" stroke-linejoin="miter" fill="none" stroke="#000000" d="M2.83524 25.51364H-2.83524"/>
<use data-text="0" xlink:href="#font_2_121" transform="matrix(9.963397,0,0,-9.962899,52.8798,142.43788)"/>
<use data-text="." xlink:href="#font_2_88" transform="matrix(9.963397,0,0,-9.962899,57.86149,142.43788)"/>
<use data-text="1" xlink:href="#font_2_82" transform="matrix(9.963397,0,0,-9.962899,60.631326,142.43788)"/>
<path transform="matrix(1.00008,0,0,-1.00003,71.96832,164.74456)" stroke-width=".3985" stroke-linecap="butt" stroke-miterlimit="10" stroke-linejoin="miter" fill="none" stroke="#000000" d="M2.83524 51.02345H-2.83524"/>
<use data-text="0" xlink:href="#font_2_121" transform="matrix(9.963397,0,0,-9.962899,52.8798,116.928119)"/>
<use data-text="." xlink:href="#font_2_88" transform="matrix(9.963397,0,0,-9.962899,57.86149,116.928119)"/>
<use data-text="2" xlink:href="#font_2_107" transform="matrix(9.963397,0,0,-9.962899,60.631326,116.928119)"/>
<path transform="matrix(1.00008,0,0,-1.00003,71.96832,164.74456)" stroke-width=".3985" stroke-linecap="butt" stroke-miterlimit="10" stroke-linejoin="miter" fill="none" stroke="#000000" d="M2.83524 76.53711H-2.83524"/>
<use data-text="0" xlink:href="#font_2_121" transform="matrix(9.963397,0,0,-9.962899,52.8798,91.413349)"/>
<use data-text="." xlink:href="#font_2_88" transform="matrix(9.963397,0,0,-9.962899,57.86149,91.413349)"/>
<use data-text="3" xlink:href="#font_2_106" transform="matrix(9.963397,0,0,-9.962899,60.631326,91.413349)"/>
<path transform="matrix(1.00008,0,0,-1.00003,71.96832,164.74456)" stroke-width=".3985" stroke-linecap="butt" stroke-miterlimit="10" stroke-linejoin="miter" fill="none" stroke="#000000" d="M2.83524 102.04692H-2.83524"/>
<use data-text="0" xlink:href="#font_2_121" transform="matrix(9.963397,0,0,-9.962899,52.8798,65.95759)"/>
<use data-text="." xlink:href="#font_2_88" transform="matrix(9.963397,0,0,-9.962899,57.86149,65.95759)"/>
<use data-text="4" xlink:href="#font_2_57" transform="matrix(9.963397,0,0,-9.962899,60.631326,65.95759)"/>
<path transform="matrix(1.00008,0,0,-1.00003,71.96832,164.74456)" stroke-width=".3985" stroke-linecap="butt" stroke-miterlimit="10" stroke-linejoin="miter" fill="none" stroke="#000000" d="M2.83524 127.56056H-2.83524"/>
<use data-text="0" xlink:href="#font_2_121" transform="matrix(9.963397,0,0,-9.962899,52.8798,40.387819)"/>
<use data-text="." xlink:href="#font_2_88" transform="matrix(9.963397,0,0,-9.962899,57.86149,40.387819)"/>
<use data-text="5" xlink:href="#font_2_56" transform="matrix(9.963397,0,0,-9.962899,60.631326,40.387819)"/>
<path transform="matrix(1.00008,0,0,-1.00003,71.96832,164.74456)" stroke-width=".3985" stroke-linecap="butt" stroke-miterlimit="10" stroke-linejoin="miter" fill="none" stroke="#000000" d="M-27.971-19.84361-20.08052-14.31784-11.81474-8.45123-3.54889-2.54193 4.71678 3.37885 12.98256 9.29991 21.24841 15.19757 29.51418 21.03682 37.77995 26.80998 46.04579 32.49353 54.31157 38.06407 62.57742 43.51024 70.84319 48.82397 79.10896 53.98584 87.3748 58.98038 95.64058 63.79977 103.90643 68.43216 112.1722 72.86998 120.43797 77.11325 128.70381 81.14622 136.96959 84.96906 145.23537 88.57762 153.5012 91.98001 161.76699 95.1643 169.60157 97.97966"/>
<path transform="matrix(-.8191555,.57362726,.5736559,.8191146,43.995088,184.58875)" stroke-width=".31879" stroke-linecap="round" stroke-linejoin="round" fill="none" stroke="#000000" d="M-1.19551 1.59401C-1.09587 .99626 0 .09961 .29886 0 0-.09961-1.09587-.99626-1.19551-1.59401"/>
<path transform="matrix(.9411353,-.33816017,-.33817707,-.94108828,241.58345,66.76197)" stroke-width=".31879" stroke-linecap="round" stroke-linejoin="round" fill="none" stroke="#000000" d="M-1.19551 1.59401C-1.09587 .99626 0 .09961 .29886 0 0-.09961-1.09587-.99626-1.19551-1.59401"/>
<path transform="matrix(1.00008,0,0,-1.00003,71.96832,164.74456)" d="M1.24535 0C1.24535 .74278 .68777 1.34491 0 1.34491-.68777 1.34491-1.24535 .74278-1.24535 0-1.24535-.74278-.68777-1.34491 0-1.34491 .68777-1.34491 1.24535-.74278 1.24535 0ZM0 0"/>
<path transform="matrix(1.00008,0,0,-1.00003,71.96832,164.74456)" d="M36.67879 25.17885C36.67879 25.92163 36.12123 26.52377 35.43344 26.52377 34.74567 26.52377 34.1881 25.92163 34.1881 25.17885 34.1881 24.43607 34.74567 23.83392 35.43344 23.83392 36.12123 23.83392 36.67879 24.43607 36.67879 25.17885ZM35.43344 25.17885"/>
<path transform="matrix(1.00008,0,0,-1.00003,71.96832,164.74456)" d="M72.11232 48.85503C72.11232 49.59781 71.55476 50.19995 70.86697 50.19995 70.1792 50.19995 69.62163 49.59781 69.62163 48.85503 69.62163 48.11224 70.1792 47.51012 70.86697 47.51012 71.55476 47.51012 72.11232 48.11224 72.11232 48.85503ZM70.86697 48.85503"/>
<path transform="matrix(1.00008,0,0,-1.00003,71.96832,164.74456)" d="M107.54585 69.75189C107.54585 70.49469 106.9883 71.09682 106.3005 71.09682 105.61273 71.09682 105.05516 70.49469 105.05516 69.75189 105.05516 69.00911 105.61273 68.40698 106.3005 68.40698 106.9883 68.40698 107.54585 69.00911 107.54585 69.75189ZM106.3005 69.75189"/>
<path transform="matrix(1.00008,0,0,-1.00003,71.96832,164.74456)" d="M142.97939 87.07112C142.97939 87.8139 142.42183 88.41603 141.73404 88.41603 141.04627 88.41603 140.4887 87.8139 140.4887 87.07112 140.4887 86.32834 141.04627 85.7262 141.73404 85.7262 142.42183 85.7262 142.97939 86.32834 142.97939 87.07112ZM141.73404 87.07112"/>
</svg>
