<svg xmlns="http://www.w3.org/2000/svg" xmlns:xlink="http://www.w3.org/1999/xlink" xmlns:inkscape="http://www.inkscape.org/namespaces/inkscape" version="1.1" width="351" height="343" viewBox="0 0 351 343">
<defs>
<path id="font_1_1" d="M.33399964 .30233766C.33999635 .32835389 .36299134 .42037965 .43299867 .42037965 .43798829 .42037965 .46199037 .42037965 .48298646 .40734864 .45498658 .402359 .43499757 .37734986 .43499757 .35334779 .43499757 .33735658 .44599916 .31835938 .47299195 .31835938 .49499513 .31835938 .5269928 .3363495 .5269928 .37635804 .5269928 .42837525 .46798707 .4423828 .43399049 .4423828 .37599183 .4423828 .34098817 .38935853 .32899476 .36634828 .3039856 .43237306 .25 .4423828 .22099304 .4423828 .116989139 .4423828 .05999756 .3133545 .05999756 .28834535 .05999756 .27833558 .069992069 .27833558 .07199097 .27833558 .07998657 .27833558 .08299255 .28033448 .084991458 .28933717 .11898804 .39535523 .18499756 .42037965 .21899414 .42037965 .23799134 .42037965 .272995 .4113617 .272995 .35334779 .272995 .32235719 .2559967 .25532533 .21899414 .11528015 .20298767 .053268434 .16799927 .011245728 .12399292 .011245728 .117996219 .011245728 .09498596 .011245728 .07398987 .024276734 .09899902 .029266358 .12098694 .05027771 .12098694 .07827759 .12098694 .105270389 .09899902 .11328125 .083999637 .11328125 .053985597 .11328125 .0289917 .08728027 .0289917 .055267335 .0289917 .009246826 .07899475-.0107421879 .12298584-.0107421879 .18899536-.0107421879 .22499085 .059280397 .22799683 .0652771 .23999024 .028274537 .27598573-.0107421879 .33599855-.0107421879 .43899537-.0107421879 .49598695 .118270877 .49598695 .14328003 .49598695 .1532898 .4869995 .1532898 .48399354 .1532898 .47499085 .1532898 .47299195 .14929199 .47099305 .14228821 .43798829 .03527832 .36999513 .011245728 .33799745 .011245728 .29899598 .011245728 .2829895 .043273927 .2829895 .07727051 .2829895 .09927368 .2889862 .121276859 .2999878 .16529846L.33399964 .30233766Z"/>
<path id="font_2_3" d="M.5049896 .18203736H.47099305C.46798707 .16001892 .45799256 .100997928 .44499208 .09098816 .43699647 .084991458 .3600006 .084991458 .34599305 .084991458H.1619873C.2669983 .17803955 .3019867 .20603943 .3619995 .25306703 .43598939 .312088 .5049896 .374115 .5049896 .46914674 .5049896 .5900879 .39898683 .6640625 .2709961 .6640625 .14698792 .6640625 .06298828 .57710269 .06298828 .4851532 .06298828 .43414308 .10598755 .42915345 .115997318 .42915345 .13999939 .42915345 .16899109 .44615174 .16899109 .48214723 .16899109 .5001526 .1619873 .53515627 .10998535 .53515627 .14099121 .6060791 .20899964 .62805178 .2559967 .62805178 .35598756 .62805178 .4079895 .5501404 .4079895 .46914674 .4079895 .38212586 .34599305 .3130951 .31399537 .27708436L.07299805 .038986207C.06298828 .02999878 .06298828 .027999878 .06298828 0H.47499085L.5049896 .18203736Z"/>
<path id="font_2_2" d="M.33499146 .63612368C.33499146 .6630554 .33299256 .6640625 .30499269 .6640625 .24099732 .6014404 .1499939 .6004486 .10899353 .6004486V.5644531C.1329956 .5644531 .19898987 .5644531 .2539978 .592453V.08203125C.2539978 .04899597 .2539978 .035995485 .1539917 .035995485H.115997318V0C.13398743 .0009918213 .25698854 .0039978029 .2939911 .0039978029 .32499696 .0039978029 .45098878 .0009918213 .47299195 0V.035995485H.43499757C.33499146 .035995485 .33499146 .04899597 .33499146 .08203125V.63612368Z"/>
<path id="font_2_1" d="M.5159912 .31925965C.5159912 .42918397 .5029907 .50813296 .45700074 .5780945 .42599488 .62405398 .3639984 .6640625 .28399659 .6640625 .051986696 .6640625 .051986696 .39120484 .051986696 .31925965 .051986696 .2472992 .051986696-.01953125 .28399659-.01953125 .5159912-.01953125 .5159912 .2472992 .5159912 .31925965M.28399659 .008468628C.23799134 .008468628 .1769867 .035446168 .15699768 .117385867 .14299011 .17634583 .14299011 .25830079 .14299011 .33224488 .14299011 .40519715 .14299011 .4811554 .1579895 .53611758 .1789856 .6150665 .24299622 .63604739 .28399659 .63604739 .33799745 .63604739 .3899994 .6030731 .4079895 .545105 .42399598 .4911499 .4249878 .41918946 .4249878 .33224488 .4249878 .25830079 .4249878 .18434143 .4119873 .12138367 .3919983 .030441285 .32398988 .008468628 .28399659 .008468628Z"/>
</defs>
<path transform="matrix(1.00003,0,0,-1.00005,57.7912,171.88478)" stroke-width=".3985" stroke-linecap="butt" stroke-miterlimit="10" stroke-linejoin="miter" fill="none" stroke="#000000" d="M-56.69362 0H283.0098"/>
<path transform="matrix(1.00003,0,0,-1.00005,340.8095,171.88478)" stroke-width=".31879" stroke-linecap="round" stroke-linejoin="round" fill="none" stroke="#000000" d="M-1.19551 1.59401C-1.09587 .99626 0 .09961 .29886 0 0-.09961-1.09587-.99626-1.19551-1.59401"/>
<use data-text="x" xlink:href="#font_1_1" transform="matrix(9.962899,0,0,-9.963098,344.78785,168.36461)"/>
<path transform="matrix(1.00003,0,0,-1.00005,57.7912,171.88478)" stroke-width=".3985" stroke-linecap="butt" stroke-miterlimit="10" stroke-linejoin="miter" fill="none" stroke="#000000" d="M0-170.08086V169.62258"/>
<path transform="matrix(0,-1.00005,-1.00003,-0,57.7912,2.2537385)" stroke-width=".31879" stroke-linecap="round" stroke-linejoin="round" fill="none" stroke="#000000" d="M-1.19551 1.59401C-1.09587 .99626 0 .09961 .29886 0 0-.09961-1.09587-.99626-1.19551-1.59401"/>
<path transform="matrix(1.00003,0,0,-1.00005,57.7912,171.88478)" stroke-width=".3985" stroke-linecap="butt" stroke-miterlimit="10" stroke-linejoin="miter" fill="none" stroke="#000000" d="M-27.89233-68.88504-16.53592-67.41273-4.725-65.64885 7.08582-63.58911 18.89668-61.16603 30.7076-58.28535 42.51846-54.8207 54.32935-50.61038 66.14021-45.4502 77.95111-39.10832 89.762-31.32957 101.57286-21.98068 113.38376-11.19406 125.19464 .46797 137.00551 12.09286 148.81642 22.78003 160.62729 32.00432 172.43816 39.6611 184.24907 45.9018 196.05994 50.97719 207.8708 55.12177 219.68169 58.53448 231.49259 61.37366 243.30347 63.76472 254.66272 65.71912"/>
<path transform="matrix(-.9916798,.12856643,.12856387,.9916995,29.898032,240.77326)" stroke-width=".31879" stroke-linecap="round" stroke-linejoin="round" fill="none" stroke="#000000" d="M-1.19551 1.59401C-1.09587 .99626 0 .09961 .29886 0 0-.09961-1.09587-.99626-1.19551-1.59401"/>
<path transform="matrix(.98551967,-.16953847,-.1695351,-.98553928,312.46156,106.162387)" stroke-width=".31879" stroke-linecap="round" stroke-linejoin="round" fill="none" stroke="#000000" d="M-1.19551 1.59401C-1.09587 .99626 0 .09961 .29886 0 0-.09961-1.09587-.99626-1.19551-1.59401"/>
<path transform="matrix(1.00003,0,0,-1.00005,57.7912,171.88478)" stroke-width=".3985" stroke-linecap="butt" stroke-miterlimit="10" stroke-linejoin="miter" fill="none" stroke="#000000" d="M56.69362 5.6697V-5.6697"/>
<use data-text="x" xlink:href="#font_1_1" transform="matrix(9.962899,0,0,-9.963098,109.40475,185.36446)"/>
<use data-text="2" xlink:href="#font_2_3" transform="matrix(6.9740097,0,0,-6.9741489,115.098918,186.85953)"/>
<path transform="matrix(1.00003,0,0,-1.00005,57.7912,171.88478)" stroke-width=".3985" stroke-linecap="butt" stroke-miterlimit="10" stroke-linejoin="miter" fill="none" stroke="#000000" d="M170.08086 5.6697V-5.6697"/>
<use data-text="x" xlink:href="#font_1_1" transform="matrix(9.962899,0,0,-9.963098,222.79515,185.36446)"/>
<use data-text="1" xlink:href="#font_2_2" transform="matrix(6.9740097,0,0,-6.9741489,228.48932,186.85953)"/>
<path transform="matrix(1.00003,0,0,-1.00005,57.7912,171.88478)" stroke-width=".3985" stroke-linecap="butt" stroke-miterlimit="10" stroke-linejoin="miter" fill="none" stroke="#000000" d="M226.77448 5.6697V-5.6697"/>
<use data-text="x" xlink:href="#font_1_1" transform="matrix(9.962899,0,0,-9.963098,279.49085,185.36446)"/>
<use data-text="0" xlink:href="#font_2_1" transform="matrix(6.9740097,0,0,-6.9741489,285.185,186.85953)"/>
<path transform="matrix(1.00003,0,0,-1.00005,57.7912,171.88478)" d="M172.07341 38.25276C172.07341 39.35323 171.18132 40.24532 170.08086 40.24532 168.98038 40.24532 168.0883 39.35323 168.0883 38.25276 168.0883 37.15228 168.98038 36.26021 170.08086 36.26021 171.18132 36.26021 172.07341 37.15228 172.07341 38.25276ZM170.08086 38.25276"/>
<path transform="matrix(1.00003,0,0,-1.00005,57.7912,171.88478)" d="M228.76703 60.30095C228.76703 61.40143 227.87494 62.2935 226.77448 62.2935 225.674 62.2935 224.78192 61.40143 224.78192 60.30095 224.78192 59.20049 225.674 58.3084 226.77448 58.3084 227.87494 58.3084 228.76703 59.20049 228.76703 60.30095ZM226.77448 60.30095"/>
<path transform="matrix(1.00003,0,0,-1.00005,57.7912,171.88478)" d="M58.68617-49.66054C58.68617-48.56007 57.79408-47.66798 56.69362-47.66798 55.59314-47.66798 54.70107-48.56007 54.70107-49.66054 54.70107-50.76102 55.59314-51.65309 56.69362-51.65309 57.79408-51.65309 58.68617-50.76102 58.68617-49.66054ZM56.69362-49.66054"/>
<path transform="matrix(1.00003,0,0,-1.00005,57.7912,171.88478)" stroke-width=".3985" stroke-linecap="butt" stroke-miterlimit="10" stroke-linejoin="miter" fill="none" stroke="#0000ff" d="M28.64891-80.43105 37.79515-70.00105 47.24352-59.63225 56.69188-49.66917 66.14021-40.11008 75.58858-30.95845 85.03694-22.21254 94.4853-13.87146 103.93367-5.937 113.38203 1.59258 122.8304 8.71736 132.27877 15.43465 141.7271 21.74712 151.17546 27.65385 160.62383 33.15486 170.07219 38.24933 179.52056 42.93889 188.96892 47.2236 198.41728 51.10175 207.86562 54.57416 217.31398 57.64085 226.76235 60.30183 236.21071 62.55708 245.65908 64.40834 254.65445 65.78294"/>
<path transform="matrix(-.6592898,.75186756,.7518526,.6593029,86.44097,252.31986)" stroke-width=".31879" stroke-linecap="round" stroke-linejoin="round" fill="none" stroke="#0000ff" d="M-1.19551 1.59401C-1.09587 .99626 0 .09961 .29886 0 0-.09961-1.09587-.99626-1.19551-1.59401"/>
<path transform="matrix(.98850968,-.15105754,-.15105455,-.9885293,312.4533,106.09855)" stroke-width=".31879" stroke-linecap="round" stroke-linejoin="round" fill="none" stroke="#0000ff" d="M-1.19551 1.59401C-1.09587 .99626 0 .09961 .29886 0 0-.09961-1.09587-.99626-1.19551-1.59401"/>
</svg>
