<svg xmlns="http://www.w3.org/2000/svg" xmlns:xlink="http://www.w3.org/1999/xlink" xmlns:inkscape="http://www.inkscape.org/namespaces/inkscape" version="1.1" width="309" height="119" viewBox="0 0 309 119">
<defs>
<path id="font_1_3" d="M.33399964 .30233766C.33999635 .32835389 .36299134 .42037965 .43299867 .42037965 .43798829 .42037965 .46199037 .42037965 .48298646 .40734864 .45498658 .402359 .43499757 .37734986 .43499757 .35334779 .43499757 .33735658 .44599916 .31835938 .47299195 .31835938 .49499513 .31835938 .5269928 .3363495 .5269928 .37635804 .5269928 .42837525 .46798707 .4423828 .43399049 .4423828 .37599183 .4423828 .34098817 .38935853 .32899476 .36634828 .3039856 .43237306 .25 .4423828 .22099304 .4423828 .116989139 .4423828 .05999756 .3133545 .05999756 .28834535 .05999756 .27833558 .069992069 .27833558 .07199097 .27833558 .07998657 .27833558 .08299255 .28033448 .084991458 .28933717 .11898804 .39535523 .18499756 .42037965 .21899414 .42037965 .23799134 .42037965 .272995 .4113617 .272995 .35334779 .272995 .32235719 .2559967 .25532533 .21899414 .11528015 .20298767 .053268434 .16799927 .011245728 .12399292 .011245728 .117996219 .011245728 .09498596 .011245728 .07398987 .024276734 .09899902 .029266358 .12098694 .05027771 .12098694 .07827759 .12098694 .105270389 .09899902 .11328125 .083999637 .11328125 .053985597 .11328125 .0289917 .08728027 .0289917 .055267335 .0289917 .009246826 .07899475-.0107421879 .12298584-.0107421879 .18899536-.0107421879 .22499085 .059280397 .22799683 .0652771 .23999024 .028274537 .27598573-.0107421879 .33599855-.0107421879 .43899537-.0107421879 .49598695 .118270877 .49598695 .14328003 .49598695 .1532898 .4869995 .1532898 .48399354 .1532898 .47499085 .1532898 .47299195 .14929199 .47099305 .14228821 .43798829 .03527832 .36999513 .011245728 .33799745 .011245728 .29899598 .011245728 .2829895 .043273927 .2829895 .07727051 .2829895 .09927368 .2889862 .121276859 .2999878 .16529846L.33399964 .30233766Z"/>
<path id="font_2_1" d="M.31098939 .36265565H.42999269C.4149933 .30274964 .3929901 .2118988 .3929901 .13302613 .3929901 .09309387 .397995 .06613159 .4039917 .044174196 .41999818-.0057678224 .43299867-.009765625 .44898988-.009765625 .47200013-.009765625 .49598695 .011230469 .49598695 .035186769 .49598695 .043182374 .49398805 .047164918 .48799134 .057159425 .46899415 .09408569 .45098878 .15100098 .45098878 .23286438 .45098878 .25183106 .45098878 .29177857 .46499635 .36265565H.58999636C.60798647 .36265565 .6159973 .36265565 .6269989 .37065126 .6409912 .380661 .6439972 .39665223 .6439972 .4016571 .6439972 .43066407 .6179962 .43066407 .6009979 .43066407H.22399903C.18299866 .43066407 .15499878 .42166139 .10998535 .37965394 .083999637 .35665895 .04499817 .30274964 .04499817 .2937622 .04499817 .28178407 .057998659 .28178407 .06199646 .28178407 .07299805 .28178407 .07398987 .28378297 .07998657 .2927704 .1309967 .36265565 .19299317 .36265565 .21499634 .36265565H.27598573C.24499512 .25283814 .19099427 .13502503 .16099549 .07511902 .15499878 .062149049 .14498902 .04118347 .14199829 .03718567 .14099121 .033187868 .13899231 .029190064 .13899231 .022201539 .13899231 .006225586 .15098572-.009765625 .17399597-.009765625 .21398926-.009765625 .22499085 .035186769 .24899292 .12504578L.31098939 .36265565Z"/>
<path id="font_3_1" d="M.5049896 .18203736H.47099305C.46798707 .16001892 .45799256 .100997928 .44499208 .09098816 .43699647 .084991458 .3600006 .084991458 .34599305 .084991458H.1619873C.2669983 .17803955 .3019867 .20603943 .3619995 .25306703 .43598939 .312088 .5049896 .374115 .5049896 .46914674 .5049896 .5900879 .39898683 .6640625 .2709961 .6640625 .14698792 .6640625 .06298828 .57710269 .06298828 .4851532 .06298828 .43414308 .10598755 .42915345 .115997318 .42915345 .13999939 .42915345 .16899109 .44615174 .16899109 .48214723 .16899109 .5001526 .1619873 .53515627 .10998535 .53515627 .14099121 .6060791 .20899964 .62805178 .2559967 .62805178 .35598756 .62805178 .4079895 .5501404 .4079895 .46914674 .4079895 .38212586 .34599305 .3130951 .31399537 .27708436L.07299805 .038986207C.06298828 .02999878 .06298828 .027999878 .06298828 0H.47499085L.5049896 .18203736Z"/>
<path id="font_1_1" d="M.2649994 .37265016H.37799073C.34498597 .22489929 .33599855 .18196106 .33599855 .11508179 .33599855 .100097659 .33599855 .073150638 .34399415 .03919983 .35398866-.0047454836 .36499024-.0107421879 .37998963-.0107421879 .3999939-.0107421879 .42099 .007247925 .42099 .02722168 .42099 .033218385 .42099 .035202028 .4149933 .049179079 .38598634 .12106323 .38598634 .18595886 .38598634 .21391297 .38598634 .26683045 .3929901 .32073976 .4039917 .37265016H.5179901C.5309906 .37265016 .5669861 .37265016 .5669861 .406662 .5669861 .43066407 .54599 .43066407 .5269928 .43066407H.19198609C.16999817 .43066407 .13198853 .43066407 .08799744 .38365174 .052993776 .34469605 .026992798 .29878236 .026992798 .29379273 .026992798 .29278565 .026992798 .28379823 .038986207 .28379823 .04699707 .28379823 .04899597 .28779603 .054992677 .29577638 .10398865 .37265016 .1619873 .37265016 .18199158 .37265016H.23899842C.20698548 .25186158 .15299988 .13105774 .11099243 .04020691 .102996829 .025222779 .102996829 .023223877 .102996829 .016235352 .102996829-.002746582 .11898804-.0107421879 .13198853-.0107421879 .1619873-.0107421879 .16999817 .017242432 .18199158 .05418396 .19599915 .100097659 .19599915 .10209656 .20899964 .15202332L.2649994 .37265016Z"/>
<path id="font_3_2" d="M.272995 .33428956C.35099793 .33428956 .40699769 .2803192 .40699769 .1733551 .40699769 .04940796 .33499146 .012466431 .2769928 .012466431 .23699951 .012466431 .14898682 .0234375 .10699463 .082351688 .1539917 .084350589 .16499329 .11735535 .16499329 .13835144 .16499329 .17034912 .14099121 .19335938 .10998535 .19335938 .08198547 .19335938 .053985597 .17634583 .053985597 .13534546 .053985597 .041412355 .1579895-.01953125 .2789917-.01953125 .41799928-.01953125 .5139923 .07336426 .5139923 .1733551 .5139923 .2513275 .44999696 .32929994 .33999635 .35229493 .44499208 .39024354 .48298646 .4650879 .48298646 .5260773 .48298646 .60505679 .3919983 .6640625 .2809906 .6640625 .16999817 .6640625 .084991458 .61006167 .084991458 .5300751 .084991458 .49606324 .10699463 .47706605 .13699341 .47706605 .16799927 .47706605 .18798828 .5000763 .18798828 .5280762 .18798828 .5570679 .16799927 .57806399 .13699341 .5800781 .17199707 .62405398 .24099732 .63505557 .27799989 .63505557 .32299806 .63505557 .38598634 .6130676 .38598634 .5260773 .38598634 .48406983 .37199403 .43814088 .34599305 .4072113 .31298829 .36927796 .2849884 .3672943 .23498535 .36428834 .20999146 .3623047 .20799256 .3623047 .20298767 .3612976 .20098877 .3612976 .19299317 .3592987 .19299317 .34829713 .19299317 .33428956 .20199585 .33428956 .21899414 .33428956H.272995Z"/>
<path id="font_4_3" d="M.1269989 .07699585 .23298645 .18003845C.3889923 .31811524 .44898988 .3721466 .44898988 .47216798 .44898988 .5860901 .35899354 .6660156 .23699951 .6660156 .12399292 .6660156 .049987794 .57411196 .049987794 .48516847 .049987794 .4291687 .099990848 .4291687 .102996829 .4291687 .11999512 .4291687 .15499878 .44117738 .15499878 .48217774 .15499878 .5081787 .13699341 .5341797 .101989749 .5341797 .09399414 .5341797 .09199524 .5341797 .08898926 .5331726 .11199951 .59806826 .1659851 .63500979 .22399903 .63500979 .31498719 .63500979 .35798646 .5541382 .35798646 .47216798 .35798646 .39215089 .30799867 .31311036 .25299073 .25108338L.06098938 .036987306C.049987794 .025985718 .049987794 .023986817 .049987794 0H.42099L.44898988 .17404175H.42399598C.4189911 .14402771 .4119873 .1000061 .4019928 .084991458 .394989 .07699585 .32899476 .07699585 .30699159 .07699585H.1269989Z"/>
<path id="font_1_4" d="M.48599244 .38136292C.48999024 .39537049 .48999024 .39736939 .48999024 .40437318 .48999024 .42237855 .47599793 .43138124 .46099855 .43138124 .45098878 .43138124 .43499757 .42536927 .42599488 .41036988 .42399598 .405365 .41600038 .37435914 .4119873 .35635377 .40499879 .33035279 .397995 .30334474 .3919983 .27633668L.34700013 .09628296C.34298707 .08126831 .2999878 .011245728 .23399353 .011245728 .18299866 .011245728 .17199707 .055267335 .17199707 .0922699 .17199707 .1382904 .18899536 .20030213 .22299195 .28833009 .23899842 .3293457 .24299622 .3403473 .24299622 .36035157 .24299622 .405365 .21099854 .4423828 .16099549 .4423828 .06599426 .4423828 .0289917 .29733277 .0289917 .28833009 .0289917 .27833558 .038986207 .27833558 .040985109 .27833558 .050994874 .27833558 .051986696 .28033448 .056991579 .29634095 .083999637 .3903656 .12399292 .42037965 .1579895 .42037965 .1659851 .42037965 .18299866 .42037965 .18299866 .3883667 .18299866 .36335755 .17298889 .3373413 .1659851 .31834413 .12599182 .21231079 .10798645 .1552887 .10798645 .10827637 .10798645 .019256592 .17098999-.0107421879 .22999573-.0107421879 .2689972-.0107421879 .30299378 .0062561037 .33099366 .03425598 .31799317-.017745972 .30599977-.06674194 .2659912-.11973572 .23999024-.15385437 .20199585-.18309021 .1559906-.18309021 .14199829-.18309021 .09700012-.18005371 .07998657-.14074707 .09599304-.14074707 .10899353-.14074707 .12298584-.1287384 .1329956-.11973572 .14299011-.10673523 .14299011-.08773804 .14299011-.056747438 .115997318-.052734376 .10598755-.052734376 .08299255-.052734376 .049987794-.068740848 .049987794-.11773682 .049987794-.16796875 .09399414-.20507813 .1559906-.20507813 .25898744-.20507813 .3619995-.11373901 .3899994-.00074768069L.48599244 .38136292Z"/>
<path id="font_5_64" d="M.27598573 .18710327V.24511719H.010986328V.18710327H.27598573Z"/>
<path id="font_5_82" d="M.4189911 0V.0309906H.3869934C.29699708 .0309906 .2939911 .041992189 .2939911 .07902527V.64012148C.2939911 .6640167 .2939911 .6660156 .2709961 .6660156 .20899964 .60227969 .12098694 .60227969 .08898926 .60227969V.57128909C.10899353 .57128909 .16799927 .57128909 .21998596 .5972748V.07902527C.21998596 .042999269 .21699524 .0309906 .1269989 .0309906H.09498596V0C.12998963 .0029907227 .21699524 .0029907227 .25698854 .0029907227 .29699708 .0029907227 .38398744 .0029907227 .4189911 0Z"/>
<path id="font_4_6" d="M.20799256 .19424439C.22999573 .19024658 .31199647 .17424011 .31199647 .102249149 .31199647 .051254274 .2769928 .011245728 .19898987 .011245728 .114990238 .011245728 .07899475 .06825256 .05999756 .15324402 .056991579 .1662445 .055999757 .17024231 .04598999 .17024231 .032989503 .17024231 .032989503 .16323853 .032989503 .14524842V.013244629C.032989503-.003753662 .032989503-.0107421879 .04399109-.0107421879 .04899597-.0107421879 .049987794-.009750366 .068984989 .009246826 .070999149 .011245728 .070999149 .013244629 .08898926 .03224182 .1329956-.009750366 .17799378-.0107421879 .19898987-.0107421879 .31399537-.0107421879 .3600006 .056243898 .3600006 .12825012 .3600006 .1812439 .32998658 .21124268 .31799317 .22323609 .2849884 .25523377 .24598694 .26324464 .20399475 .27124024 .147995 .28224183 .08099365 .2952423 .08099365 .35324098 .08099365 .38822938 .10699463 .42922975 .19299317 .42922975 .30299378 .42922975 .30799867 .3392334 .30999757 .3082428 .31098939 .2992401 .31999208 .2992401 .32199098 .2992401 .33499146 .2992401 .33499146 .304245 .33499146 .3232422V.4242401C.33499146 .4412384 .33499146 .4482422 .32398988 .4482422 .31900025 .4482422 .31698609 .4482422 .3039856 .43623353 .30099488 .43223573 .29100038 .42323304 .2869873 .42022706 .24899292 .4482422 .20799256 .4482422 .19299317 .4482422 .070999149 .4482422 .032989503 .38124085 .032989503 .3252411 .032989503 .29023744 .04899597 .26223756 .07598877 .24023438 .10798645 .21424866 .13598633 .2082367 .20799256 .19424439Z"/>
<path id="font_4_4" d="M.1769867 .4423828 .036987306 .43138124V.40037538C.101989749 .40037538 .11099243 .3943634 .11099243 .34532167V.076034549C.11099243 .0309906 .099990848 .0309906 .032989503 .0309906V0C.06498718 .0009918213 .11898804 .0029907227 .14299011 .0029907227 .17799378 .0029907227 .21299744 .0009918213 .24699402 0V.0309906C.18099976 .0309906 .1769867 .035995485 .1769867 .075042728V.4423828M.18099976 .6159363C.18099976 .64793398 .1559906 .6689453 .12799073 .6689453 .09700012 .6689453 .07499695 .64193728 .07499695 .6159363 .07499695 .5889435 .09700012 .5629425 .12799073 .5629425 .1559906 .5629425 .18099976 .5839386 .18099976 .6159363Z"/>
<path id="font_4_5" d="M.10998535 .34429933V.076034549C.10998535 .0309906 .09899902 .0309906 .03199768 .0309906V0C.066986087 .0009918213 .117996219 .0029907227 .14498902 .0029907227 .17098999 .0029907227 .22299195 .0009918213 .25698854 0V.0309906C.18998719 .0309906 .1789856 .0309906 .1789856 .076034549V.2602234C.1789856 .36431886 .25 .42037965 .31399537 .42037965 .3769989 .42037965 .3880005 .36631776 .3880005 .30926515V.076034549C.3880005 .0309906 .3769989 .0309906 .30999757 .0309906V0C.34498597 .0009918213 .3959961 .0029907227 .4229889 .0029907227 .44898988 .0029907227 .5009918 .0009918213 .5349884 0V.0309906C.48298646 .0309906 .45799256 .0309906 .45700074 .061019899V.25221253C.45700074 .3383026 .45700074 .36932374 .42599488 .405365 .4119873 .42237855 .3789978 .4423828 .32099916 .4423828 .24798584 .4423828 .20098877 .39935304 .17298889 .33729554V.4423828L.03199768 .43138124V.40037538C.101989749 .4003601 .10998535 .39335633 .10998535 .34429933Z"/>
<path id="font_1_2" d="M.30299378 .3157959H.47299195C.61499026 .3157959 .7539978 .41973878 .7539978 .53167727 .7539978 .6086273 .6879883 .6826172 .5569916 .6826172H.23298645C.21398926 .6826172 .20298767 .6826172 .20298767 .66360476 .20298767 .6516113 .21199036 .6516113 .23199463 .6516113 .24499512 .6516113 .2630005 .65060427 .2749939 .6496124 .29100038 .6476135 .29699708 .64460757 .29699708 .6336212 .29699708 .6296234 .29599 .62661746 .29299928 .614624L.15899658 .07795715C.14898682 .038986207 .14698792 .0309906 .067993167 .0309906 .050994874 .0309906 .039993287 .0309906 .039993287 .011993408 .039993287 0 .051986696 0 .054992677 0 .08299255 0 .1539917 .0029907227 .18199158 .0029907227 .20298767 .0029907227 .22499085 .0019989014 .24598694 .0019989014 .2679901 .0019989014 .2899933 0 .31098939 0 .31799317 0 .33099366 0 .33099366 .019989014 .33099366 .0309906 .32199098 .0309906 .30299378 .0309906 .2659912 .0309906 .23799134 .0309906 .23799134 .048980714 .23799134 .054977418 .23999024 .05996704 .24099732 .065963748L.30299378 .3157959M.375 .6136322C.38398744 .64860537 .38598634 .6516113 .42900086 .6516113H.5249939C.60798647 .6516113 .6609955 .62461856 .6609955 .55566409 .6609955 .5166931 .6409912 .43074037 .60198977 .39476014 .5519867 .34977723 .49198915 .34179688 .44799806 .34179688H.30699159L.375 .6136322Z"/>
<path id="font_3_3" d="M.5289917 .1640625V.20005799H.41799928V.64582827C.41799928 .66682437 .41799928 .6738281 .3959961 .6738281 .38398744 .6738281 .37998963 .6738281 .36999513 .65982058L.038986207 .20005799V.1640625H.33299256V.08201599C.33299256 .04800415 .33299256 .035995485 .2519989 .035995485H.22499085V0C.2749939 .0019989014 .33898927 .0039978029 .375 .0039978029 .4119873 .0039978029 .47599793 .0019989014 .526001 0V.035995485H.49899293C.41799928 .035995485 .41799928 .04800415 .41799928 .08201599V.1640625H.5289917M.33999635 .5658722V.20005799H.07598877L.33999635 .5658722Z"/>
<path id="font_4_1" d="M.33099366-.2400055C.33099366-.23701477 .33099366-.23500061 .31399537-.21800232 .18899536-.0920105 .15699768 .09700012 .15699768 .25 .15699768 .42399598 .19499207 .59799197 .31799317 .72299197 .33099366 .73498538 .33099366 .7369995 .33099366 .73999026 .33099366 .746994 .32699586 .75 .32099916 .75 .31098939 .75 .22099304 .6819916 .1619873 .5549927 .11099243 .44499208 .09899902 .33399964 .09899902 .25 .09899902 .17199707 .10998535 .050994874 .16499329-.06201172 .22499085-.18501282 .31098939-.25 .32099916-.25 .32699586-.25 .33099366-.24700928 .33099366-.2400055Z"/>
<path id="font_4_2" d="M.2889862 .25C.2889862 .32798768 .27799989 .44898988 .22299195 .56199648 .16299439 .68499758 .07699585 .75 .066986087 .75 .06098938 .75 .056991579 .74598696 .056991579 .73999026 .056991579 .7369995 .056991579 .73498538 .07598877 .71699526 .17399597 .6179962 .23098755 .45899964 .23098755 .25 .23098755 .07899475 .19400025-.09700012 .069992069-.2230072 .056991579-.23500061 .056991579-.23701477 .056991579-.2400055 .056991579-.2460022 .06098938-.25 .066986087-.25 .07699585-.25 .16699219-.18200684 .22599793-.055007936 .2769928 .054992677 .2889862 .16600037 .2889862 .25Z"/>
<path id="font_6_1" d="M.2769928 .6851349 .548996 .56199648 .5609894 .58399966 .27799989 .7441406-.005004883 .58399966 .005996704 .56199648 .2769928 .6851349Z"/>
</defs>
<path transform="matrix(1.00006,0,0,-1.00005,22.357262,64.81959)" stroke-width=".3985" stroke-linecap="butt" stroke-miterlimit="10" stroke-linejoin="miter" fill="none" stroke="#000000" d="M-21.26009 0H275.9231"/>
<path transform="matrix(1.00006,0,0,-1.00005,298.2969,64.81959)" stroke-width=".31879" stroke-linecap="round" stroke-linejoin="round" fill="none" stroke="#000000" d="M-1.19551 1.59401C-1.09587 .99626 0 .09961 .29886 0 0-.09961-1.09587-.99626-1.19551-1.59401"/>
<use data-text="x" xlink:href="#font_1_3" transform="matrix(9.963197,0,0,-9.963098,302.27503,61.29941)"/>
<path transform="matrix(1.00006,0,0,-1.00005,22.357262,64.81959)" stroke-width=".3985" stroke-linecap="butt" stroke-miterlimit="10" stroke-linejoin="miter" fill="none" stroke="#000000" d="M66.75702 3.54355V-3.54355"/>
<use data-text="&#x03c0;" xlink:href="#font_2_1" transform="matrix(6.9742186,0,0,-6.9741489,86.66312,74.88609)"/>
<path transform="matrix(1.00006,0,0,-1.00005,-18.894215,26.9847)" stroke-width=".3985" stroke-linecap="butt" stroke-miterlimit="10" stroke-linejoin="miter" fill="none" stroke="#000000" d="M105.551-49.331H110.46"/>
<use data-text="2" xlink:href="#font_3_1" transform="matrix(6.9742186,0,0,-6.9741489,87.13214,82.24446)"/>
<path transform="matrix(1.00006,0,0,-1.00005,22.357262,64.81959)" stroke-width=".3985" stroke-linecap="butt" stroke-miterlimit="10" stroke-linejoin="miter" fill="none" stroke="#000000" d="M133.59844 3.54355V-3.54355"/>
<use data-text="&#x03c0;" xlink:href="#font_1_1" transform="matrix(9.963197,0,0,-9.963098,152.9451,76.17316)"/>
<path transform="matrix(1.00006,0,0,-1.00005,22.357262,64.81959)" stroke-width=".3985" stroke-linecap="butt" stroke-miterlimit="10" stroke-linejoin="miter" fill="none" stroke="#000000" d="M200.35546 3.54355V-3.54355"/>
<use data-text="3" xlink:href="#font_3_2" transform="matrix(6.9742186,0,0,-6.9741489,218.28401,76.37717)"/>
<use data-text="&#x03c0;" xlink:href="#font_2_1" transform="matrix(6.9742186,0,0,-6.9741489,222.25525,76.37717)"/>
<path transform="matrix(1.00006,0,0,-1.00005,112.72668,28.475773)" stroke-width=".3985" stroke-linecap="butt" stroke-miterlimit="10" stroke-linejoin="miter" fill="none" stroke="#000000" d="M105.551-49.331H114.432"/>
<use data-text="2" xlink:href="#font_3_1" transform="matrix(6.9742186,0,0,-6.9741489,220.73915,83.735538)"/>
<path transform="matrix(1.00006,0,0,-1.00005,22.357262,64.81959)" stroke-width=".3985" stroke-linecap="butt" stroke-miterlimit="10" stroke-linejoin="miter" fill="none" stroke="#000000" d="M267.19688 3.54355V-3.54355"/>
<use data-text="2" xlink:href="#font_4_3" transform="matrix(9.963197,0,0,-9.963098,284.0609,78.30426)"/>
<use data-text="&#x03c0;" xlink:href="#font_1_1" transform="matrix(9.963197,0,0,-9.963098,289.04225,78.30426)"/>
<path transform="matrix(1.00006,0,0,-1.00005,22.357262,64.81959)" stroke-width=".3985" stroke-linecap="butt" stroke-miterlimit="10" stroke-linejoin="miter" fill="none" stroke="#000000" d="M0-53.15024V52.69197"/>
<path transform="matrix(0,-1.00005,-1.00006,-0,22.357262,12.124985)" stroke-width=".31879" stroke-linecap="round" stroke-linejoin="round" fill="none" stroke="#000000" d="M-1.19551 1.59401C-1.09587 .99626 0 .09961 .29886 0 0-.09961-1.09587-.99626-1.19551-1.59401"/>
<use data-text="y" xlink:href="#font_1_4" transform="matrix(9.963197,0,0,-9.963098,25.877472,6.2096636)"/>
<path transform="matrix(1.00006,0,0,-1.00005,22.357262,64.81959)" stroke-width=".3985" stroke-linecap="butt" stroke-miterlimit="10" stroke-linejoin="miter" fill="none" stroke="#000000" d="M4.25226-35.43349H-4.25226"/>
<use data-text="-" xlink:href="#font_5_64" transform="matrix(9.963197,0,0,-9.963098,6.285301,103.572528)"/>
<use data-text="1" xlink:href="#font_5_82" transform="matrix(9.963197,0,0,-9.963098,9.603043,103.572528)"/>
<path transform="matrix(1.00006,0,0,-1.00005,22.357262,64.81959)" stroke-width=".3985" stroke-linecap="butt" stroke-miterlimit="10" stroke-linejoin="miter" fill="none" stroke="#000000" d="M4.25226 35.43349H-4.25226"/>
<use data-text="1" xlink:href="#font_5_82" transform="matrix(9.963197,0,0,-9.963098,9.6035,32.70198)"/>
<path transform="matrix(1.00006,0,0,-1.00005,22.357262,64.81959)" stroke-width=".3985" stroke-linecap="butt" stroke-dasharray="2.98883,2.98883" stroke-miterlimit="10" stroke-linejoin="miter" fill="none" stroke="#000000" d="M0-3.22778 1.79262-.72394 3.58527 1.68039 5.37793 3.98636 7.17058 6.19499 8.96324 8.30795 10.75589 10.32735 12.54855 12.25325 14.3412 14.0872 16.13387 15.8314 17.92651 17.48695 19.71918 19.05492 21.51183 20.53635 23.30449 21.93236 25.09714 23.24619 26.88977 24.47731 28.68243 25.6273 30.47508 26.69893 32.26775 27.69214 34.0604 28.6086 35.85306 29.44934 37.6457 30.21654 39.43837 30.91132 41.23102 31.53415 43.02367 32.08727 44.81631 32.57225 46.60898 32.98965 48.40163 33.34163 50.19429 33.62927 51.98692 33.85365 53.77957 34.01639 55.57224 34.11804 57.36488 34.16129 59.15755 34.1467 60.9502 34.07587 62.74286 33.94936 64.5355 33.77039 66.32817 33.53845 68.12082 33.2562 69.91348 32.92369 71.70613 32.54305 73.4988 32.11647 75.29144 31.64339 77.0841 31.12703 78.87674 30.56744 80.66939 29.96675 82.46205 29.32552 84.2547 28.64589 86.04735 27.92894 87.84 27.1769 89.63266 26.38911 91.42531 25.56837 93.21797 24.71574 95.01062 23.83229 96.80328 22.91963 98.59593 21.97993 100.3886 21.0132 102.18124 20.02162 103.97388 19.00569 105.76654 17.9676 107.55919 16.90897 109.35185 15.8303 111.1445 14.73276 112.93716 13.61899 114.72981 12.48952 116.52248 11.34546 118.31512 10.18893 120.10779 9.02002 121.90044 7.84189 123.6931 6.65512 125.48575 5.45967 127.27841 4.25938 129.07103 3.05371 130.86368 1.84422 132.65634 .6331 134.44899-.5785 136.24166-1.7896 138.0343-2.99908 139.82697-4.20534 141.61962-5.40562 143.41228-6.60104 145.20493-7.78836 146.99759-8.96703 148.79024-10.13542 150.5829-11.29192 152.37555-12.43654 154.16822-13.56654 155.96085-14.68031 157.7535-15.77843 159.54616-16.85762 161.3388-17.91678 163.13147-18.95541 164.92412-19.97133 166.71678-20.964 168.50943-21.93127 170.3021-22.87149 172.09473-23.7847 173.88739-24.6687 175.68004-25.52133 177.4727-26.34317 179.26535-27.13147 181.05799-27.88461 182.85065-28.60263 184.6433-29.28336 186.43596-29.92511 188.2286-30.52689 190.02127-31.08702 191.81392-31.60445 193.60659-32.07861 195.39923-32.50627 197.1919-32.88747 198.98455-33.22105 200.7772-33.50436 202.56986-33.7374 204.36252-33.91798 206.15515-34.04504 207.9478-34.11751 209.74047-34.13318 211.53311-34.09099 213.32576-33.99043 215.11841-33.82877 216.91107-33.60602 218.70372-33.31946 220.49639-32.96964 222.28903-32.55386 224.0817-32.06996 225.87435-31.51848 227.667-30.89673 229.45966-30.20302 231.25232-29.43797 233.04496-28.59883 234.8376-27.68349 236.63027-26.69243 238.42292-25.62297 240.21558-24.4746 242.00823-23.2451 243.80089-21.93289 245.59354-20.5385 247.3862-19.05869 249.17885-17.4929 250.97151-15.83951 252.76416-14.09694 254.55683-12.26514 256.34947-10.34142 258.1421-8.32362 259.93476-6.21231 261.7274-4.00581 263.52009-1.70203 265.3127 .70015 267.10539 3.20184"/>
<path transform="matrix(1.00006,0,0,-1.00005,22.357262,64.81959)" stroke-width=".3985" stroke-linecap="butt" stroke-miterlimit="10" stroke-linejoin="miter" fill="none" stroke="#000000" d="M0 0 1.79262 1.49278 3.58527 2.98341 5.37793 4.46918 7.17058 5.94629 8.96324 7.4137 10.75589 8.867 12.54855 10.3052 14.3412 11.725 16.13387 13.12372 17.92651 14.49919 19.71918 15.84871 21.51183 17.17119 23.30449 18.46123 25.09714 19.71992 26.88977 20.94347 28.68243 22.12862 30.47508 23.27647 32.26775 24.38051 34.0604 25.44348 35.85306 26.45941 37.6457 27.42938 39.43837 28.3507 41.23102 29.22063 43.02367 30.04027 44.81631 30.8048 46.60898 31.51578 48.40163 32.16945 50.19429 32.76689 51.98692 33.30702 53.77957 33.78606 55.57224 34.20616 57.36488 34.56462 59.15755 34.86308 60.9502 35.0988 62.74286 35.27074 64.5355 35.38268 66.32817 35.42969 68.12082 35.41457 69.91348 35.33617 71.70613 35.19505 73.4988 34.9923 75.29144 34.72575 77.0841 34.39973 78.87674 34.00989 80.66939 33.56168 82.46205 33.0529 84.2547 32.48466 86.04735 31.86072 87.84 31.17839 89.63266 30.44092 91.42531 29.64993 93.21797 28.80539 95.01062 27.9111 96.80328 26.96548 98.59593 25.97334 100.3886 24.93417 102.18124 23.85121 103.97388 22.72607 105.76654 21.5593 107.55919 20.35576 109.35185 19.11491 111.1445 17.84108 112.93716 16.53429 114.72981 15.19882 116.52248 13.83687 118.31512 12.4495 120.10779 11.03998 121.90044 9.61153 123.6931 8.16522 125.48575 6.70485 127.27841 5.2326 129.07103 3.75063 130.86368 2.26268 132.65634 .77045 134.44899-.72285 136.24166-2.2151 138.0343-3.70358 139.82697-5.18556 141.61962-6.65836 143.41228-8.11871 145.20493-9.56555 146.99759-10.99509 148.79024-12.40515 150.5829-13.79306 152.37555-15.15611 154.16822-16.49211 155.96085-17.8 157.7535-19.0749 159.54616-20.31683 161.3388-21.52199 163.13147-22.6893 164.92412-23.81606 166.71678-24.9001 168.50943-25.94144 170.3021-26.93466 172.09473-27.88191 173.88739-28.77835 175.68004-29.62341 177.4727-30.41713 179.26535-31.15515 181.05799-31.83965 182.85065-32.46573 184.6433-33.03561 186.43596-33.546 188.2286-33.99637 190.02127-34.38835 191.81392-34.71655 193.60659-34.98473 195.39923-35.19019 197.1919-35.33238 198.98455-35.41348 200.7772-35.43025 202.56986-35.38536 204.36252-35.2756 206.15515-35.10532 207.9478-34.8712 209.74047-34.57492 211.53311-34.2186 213.32576-33.80011 215.11841-33.3227 216.91107-32.78474 218.70372-32.18945 220.49639-31.53741 222.28903-30.8275 224.0817-30.0657 225.87435-29.24765 227.667-28.37878 229.45966-27.45964 231.25232-26.49077 233.04496-25.477 234.8376-24.41513 236.63027-23.31161 238.42292-22.16594 240.21558-20.98132 242.00823-19.75938 243.80089-18.50179 245.59354-17.21283 247.3862-15.89142 249.17885-14.54298 250.97151-13.16753 252.76416-11.76987 254.55683-10.35114 256.34947-8.91296 258.1421-7.46016 259.93476-5.9928 261.7274-4.5162 263.52009-3.03099 265.3127-1.53981 267.10539-.04701"/>
<path transform="matrix(1.00006,0,0,-1.00005,22.357262,64.81959)" stroke-width="1.19553" stroke-linecap="butt" stroke-dasharray="1.19553,1.99255" stroke-miterlimit="10" stroke-linejoin="miter" fill="none" stroke="#000000" d="M0 0 1.79262 2.48438 3.58527 4.86981 5.37793 7.1547 7.17058 9.34119 8.96324 11.43251 10.75589 13.42703 12.54855 15.32803 14.3412 17.13766 16.13387 18.8554 17.92651 20.4839 19.71918 22.0232 21.51183 23.47543 23.30449 24.84225 25.09714 26.12474 26.88977 27.32448 28.68243 28.44261 30.47508 29.48068 32.26775 30.43932 34.0604 31.32166 35.85306 32.12727 37.6457 32.85773 39.43837 33.51573 41.23102 34.10127 43.02367 34.61653 44.81631 35.06203 46.60898 35.43942 48.40163 35.75142 50.19429 35.99904 51.98692 36.18124 53.77957 36.30127 55.57224 36.3602 57.36488 36.35966 59.15755 36.30182 60.9502 36.18611 62.74286 36.01526 64.5355 35.79033 66.32817 35.51244 68.12082 35.1837 69.91348 34.80469 71.70613 34.37593 73.4988 33.90121 75.29144 33.38054 77.0841 32.81447 78.87674 32.20459 80.66939 31.55417 82.46205 30.86264 84.2547 30.13275 86.04735 29.36499 87.84 28.56102 89.63266 27.72134 91.42531 26.84814 93.21797 25.94305 95.01062 25.0077 96.80328 24.04207 98.59593 23.04832 100.3886 22.0286 102.18124 20.9824 103.97388 19.91295 105.76654 18.82024 107.55919 17.70753 109.35185 16.57428 111.1445 15.42212 112.93716 14.25264 114.72981 13.06749 116.52248 11.86829 118.31512 10.6561 120.10779 9.432 121.90044 8.19875 123.6931 6.95355 125.48575 5.70245 127.27841 4.44699 129.07103 3.18507 130.86368 1.92046 132.65634 .6531 134.44899-.61472 136.24166-1.8826 138.0343-3.14723 139.82697-4.40918 141.61962-5.66623 143.41228-6.91734 145.20493-8.16089 146.99759-9.39577 148.79024-10.61987 150.5829-11.83205 152.37555-13.03181 154.16822-14.2175 155.96085-15.38644 157.7535-16.53969 159.54616-17.67401 161.3388-18.78835 163.13147-19.88159 164.92412-20.95158 166.71678-21.99832 168.50943-23.0191 170.3021-24.01285 172.09473-24.97905 173.88739-25.91656 175.68004-26.82274 177.4727-27.69647 179.26535-28.53722 181.05799-29.34227 182.85065-30.11165 184.6433-30.84264 186.43596-31.53523 188.2286-32.18729 190.02127-32.79716 191.81392-33.36487 193.60659-33.88771 195.39923-34.36403 197.1919-34.79332 198.98455-35.17451 200.7772-35.50485 202.56986-35.78386 204.36252-36.01201 206.15515-36.18446 207.9478-36.30127 209.74047-36.36127 211.53311-36.36345 213.32576-36.30669 215.11841-36.18828 216.91107-36.00768 218.70372-35.76222 220.49639-35.45404 222.28903-35.07774 224.0817-34.63383 225.87435-34.12129 227.667-33.53789 229.45966-32.88205 231.25232-32.15324 233.04496-31.3498 234.8376-30.47119 236.63027-29.5142 238.42292-28.47935 240.21558-27.36342 242.00823-26.16582 243.80089-24.88605 245.59354-23.52141 247.3862-22.07239 249.17885-20.53525 250.97151-18.90999 252.76416-17.19498 254.55683-15.3886 256.34947-13.49031 258.1421-11.499 259.93476-9.41147 261.7274-7.22769 263.52009-4.94444 265.3127-2.56331 267.10539-.08163"/>
<path transform="matrix(1.00006,0,0,-1.00005,22.357262,64.81959)" stroke-width=".3985" stroke-linecap="butt" stroke-miterlimit="10" stroke-linejoin="miter" fill="none" stroke="#000000" d="M170.08086 44.29187H191.34095"/>
<use data-text="s" xlink:href="#font_4_6" transform="matrix(9.963197,0,0,-9.963098,217.22995,23.852543)"/>
<use data-text="i" xlink:href="#font_4_4" transform="matrix(9.963197,0,0,-9.963098,221.15544,23.852543)"/>
<use data-text="n" xlink:href="#font_4_5" transform="matrix(9.963197,0,0,-9.963098,223.91526,23.852543)"/>
<use data-text="x" xlink:href="#font_1_3" transform="matrix(9.963197,0,0,-9.963098,231.12277,23.852543)"/>
<path transform="matrix(1.00006,0,0,-1.00005,22.357262,64.81959)" stroke-width=".3985" stroke-linecap="butt" stroke-dasharray="2.98883,2.98883" stroke-miterlimit="10" stroke-linejoin="miter" fill="none" stroke="#000000" d="M170.08086 30.11868H191.34095"/>
<use data-text="P" xlink:href="#font_1_2" transform="matrix(9.963197,0,0,-9.963098,217.22995,37.19021)"/>
<use data-text="4" xlink:href="#font_3_3" transform="matrix(6.9742186,0,0,-6.9741489,223.62631,38.68428)"/>
<use data-text="(" xlink:href="#font_4_1" transform="matrix(9.963197,0,0,-9.963098,228.0956,37.19021)"/>
<use data-text="x" xlink:href="#font_1_3" transform="matrix(9.963197,0,0,-9.963098,231.97083,37.19021)"/>
<use data-text=")" xlink:href="#font_4_2" transform="matrix(9.963197,0,0,-9.963098,237.66516,37.19021)"/>
<path transform="matrix(1.00006,0,0,-1.00005,22.357262,64.81959)" stroke-width="1.19553" stroke-linecap="butt" stroke-dasharray="1.19553,1.99255" stroke-miterlimit="10" stroke-linejoin="miter" fill="none" stroke="#000000" d="M170.08086 15.94493H191.34095"/>
<use data-text="&#xfffd;" xlink:href="#font_6_1" transform="matrix(9.963197,0,0,-9.963098,219.58008,49.96785)"/>
<use data-text="P" xlink:href="#font_1_2" transform="matrix(9.963197,0,0,-9.963098,217.62796,52.485979)"/>
<use data-text="4" xlink:href="#font_3_3" transform="matrix(6.9742186,0,0,-6.9741489,224.02436,53.98005)"/>
<use data-text="(" xlink:href="#font_4_1" transform="matrix(9.963197,0,0,-9.963098,228.49362,52.485979)"/>
<use data-text="x" xlink:href="#font_1_3" transform="matrix(9.963197,0,0,-9.963098,232.36885,52.485979)"/>
<use data-text=")" xlink:href="#font_4_2" transform="matrix(9.963197,0,0,-9.963098,238.0632,52.485979)"/>
</svg>
