<svg xmlns="http://www.w3.org/2000/svg" xmlns:xlink="http://www.w3.org/1999/xlink" xmlns:inkscape="http://www.inkscape.org/namespaces/inkscape" version="1.1" width="351" height="71" viewBox="0 0 351 71">
<defs>
<path id="font_1_3" d="M.33399964 .30233766C.33999635 .32835389 .36299134 .42037965 .43299867 .42037965 .43798829 .42037965 .46199037 .42037965 .48298646 .40734864 .45498658 .402359 .43499757 .37734986 .43499757 .35334779 .43499757 .33735658 .44599916 .31835938 .47299195 .31835938 .49499513 .31835938 .5269928 .3363495 .5269928 .37635804 .5269928 .42837525 .46798707 .4423828 .43399049 .4423828 .37599183 .4423828 .34098817 .38935853 .32899476 .36634828 .3039856 .43237306 .25 .4423828 .22099304 .4423828 .116989139 .4423828 .05999756 .3133545 .05999756 .28834535 .05999756 .27833558 .069992069 .27833558 .07199097 .27833558 .07998657 .27833558 .08299255 .28033448 .084991458 .28933717 .11898804 .39535523 .18499756 .42037965 .21899414 .42037965 .23799134 .42037965 .272995 .4113617 .272995 .35334779 .272995 .32235719 .2559967 .25532533 .21899414 .11528015 .20298767 .053268434 .16799927 .011245728 .12399292 .011245728 .117996219 .011245728 .09498596 .011245728 .07398987 .024276734 .09899902 .029266358 .12098694 .05027771 .12098694 .07827759 .12098694 .105270389 .09899902 .11328125 .083999637 .11328125 .053985597 .11328125 .0289917 .08728027 .0289917 .055267335 .0289917 .009246826 .07899475-.0107421879 .12298584-.0107421879 .18899536-.0107421879 .22499085 .059280397 .22799683 .0652771 .23999024 .028274537 .27598573-.0107421879 .33599855-.0107421879 .43899537-.0107421879 .49598695 .118270877 .49598695 .14328003 .49598695 .1532898 .4869995 .1532898 .48399354 .1532898 .47499085 .1532898 .47299195 .14929199 .47099305 .14228821 .43798829 .03527832 .36999513 .011245728 .33799745 .011245728 .29899598 .011245728 .2829895 .043273927 .2829895 .07727051 .2829895 .09927368 .2889862 .121276859 .2999878 .16529846L.33399964 .30233766Z"/>
<path id="font_2_1" d="M.31098939 .36265565H.42999269C.4149933 .30274964 .3929901 .2118988 .3929901 .13302613 .3929901 .09309387 .397995 .06613159 .4039917 .044174196 .41999818-.0057678224 .43299867-.009765625 .44898988-.009765625 .47200013-.009765625 .49598695 .011230469 .49598695 .035186769 .49598695 .043182374 .49398805 .047164918 .48799134 .057159425 .46899415 .09408569 .45098878 .15100098 .45098878 .23286438 .45098878 .25183106 .45098878 .29177857 .46499635 .36265565H.58999636C.60798647 .36265565 .6159973 .36265565 .6269989 .37065126 .6409912 .380661 .6439972 .39665223 .6439972 .4016571 .6439972 .43066407 .6179962 .43066407 .6009979 .43066407H.22399903C.18299866 .43066407 .15499878 .42166139 .10998535 .37965394 .083999637 .35665895 .04499817 .30274964 .04499817 .2937622 .04499817 .28178407 .057998659 .28178407 .06199646 .28178407 .07299805 .28178407 .07398987 .28378297 .07998657 .2927704 .1309967 .36265565 .19299317 .36265565 .21499634 .36265565H.27598573C.24499512 .25283814 .19099427 .13502503 .16099549 .07511902 .15499878 .062149049 .14498902 .04118347 .14199829 .03718567 .14099121 .033187868 .13899231 .029190064 .13899231 .022201539 .13899231 .006225586 .15098572-.009765625 .17399597-.009765625 .21398926-.009765625 .22499085 .035186769 .24899292 .12504578L.31098939 .36265565Z"/>
<path id="font_3_3" d="M.5289917 .1640625V.20005799H.41799928V.64582827C.41799928 .66682437 .41799928 .6738281 .3959961 .6738281 .38398744 .6738281 .37998963 .6738281 .36999513 .65982058L.038986207 .20005799V.1640625H.33299256V.08201599C.33299256 .04800415 .33299256 .035995485 .2519989 .035995485H.22499085V0C.2749939 .0019989014 .33898927 .0039978029 .375 .0039978029 .4119873 .0039978029 .47599793 .0019989014 .526001 0V.035995485H.49899293C.41799928 .035995485 .41799928 .04800415 .41799928 .08201599V.1640625H.5289917M.33999635 .5658722V.20005799H.07598877L.33999635 .5658722Z"/>
<path id="font_3_1" d="M.5049896 .18203736H.47099305C.46798707 .16001892 .45799256 .100997928 .44499208 .09098816 .43699647 .084991458 .3600006 .084991458 .34599305 .084991458H.1619873C.2669983 .17803955 .3019867 .20603943 .3619995 .25306703 .43598939 .312088 .5049896 .374115 .5049896 .46914674 .5049896 .5900879 .39898683 .6640625 .2709961 .6640625 .14698792 .6640625 .06298828 .57710269 .06298828 .4851532 .06298828 .43414308 .10598755 .42915345 .115997318 .42915345 .13999939 .42915345 .16899109 .44615174 .16899109 .48214723 .16899109 .5001526 .1619873 .53515627 .10998535 .53515627 .14099121 .6060791 .20899964 .62805178 .2559967 .62805178 .35598756 .62805178 .4079895 .5501404 .4079895 .46914674 .4079895 .38212586 .34599305 .3130951 .31399537 .27708436L.07299805 .038986207C.06298828 .02999878 .06298828 .027999878 .06298828 0H.47499085L.5049896 .18203736Z"/>
<path id="font_3_2" d="M.272995 .33428956C.35099793 .33428956 .40699769 .2803192 .40699769 .1733551 .40699769 .04940796 .33499146 .012466431 .2769928 .012466431 .23699951 .012466431 .14898682 .0234375 .10699463 .082351688 .1539917 .084350589 .16499329 .11735535 .16499329 .13835144 .16499329 .17034912 .14099121 .19335938 .10998535 .19335938 .08198547 .19335938 .053985597 .17634583 .053985597 .13534546 .053985597 .041412355 .1579895-.01953125 .2789917-.01953125 .41799928-.01953125 .5139923 .07336426 .5139923 .1733551 .5139923 .2513275 .44999696 .32929994 .33999635 .35229493 .44499208 .39024354 .48298646 .4650879 .48298646 .5260773 .48298646 .60505679 .3919983 .6640625 .2809906 .6640625 .16999817 .6640625 .084991458 .61006167 .084991458 .5300751 .084991458 .49606324 .10699463 .47706605 .13699341 .47706605 .16799927 .47706605 .18798828 .5000763 .18798828 .5280762 .18798828 .5570679 .16799927 .57806399 .13699341 .5800781 .17199707 .62405398 .24099732 .63505557 .27799989 .63505557 .32299806 .63505557 .38598634 .6130676 .38598634 .5260773 .38598634 .48406983 .37199403 .43814088 .34599305 .4072113 .31298829 .36927796 .2849884 .3672943 .23498535 .36428834 .20999146 .3623047 .20799256 .3623047 .20298767 .3612976 .20098877 .3612976 .19299317 .3592987 .19299317 .34829713 .19299317 .33428956 .20199585 .33428956 .21899414 .33428956H.272995Z"/>
<path id="font_1_1" d="M.2649994 .37265016H.37799073C.34498597 .22489929 .33599855 .18196106 .33599855 .11508179 .33599855 .100097659 .33599855 .073150638 .34399415 .03919983 .35398866-.0047454836 .36499024-.0107421879 .37998963-.0107421879 .3999939-.0107421879 .42099 .007247925 .42099 .02722168 .42099 .033218385 .42099 .035202028 .4149933 .049179079 .38598634 .12106323 .38598634 .18595886 .38598634 .21391297 .38598634 .26683045 .3929901 .32073976 .4039917 .37265016H.5179901C.5309906 .37265016 .5669861 .37265016 .5669861 .406662 .5669861 .43066407 .54599 .43066407 .5269928 .43066407H.19198609C.16999817 .43066407 .13198853 .43066407 .08799744 .38365174 .052993776 .34469605 .026992798 .29878236 .026992798 .29379273 .026992798 .29278565 .026992798 .28379823 .038986207 .28379823 .04699707 .28379823 .04899597 .28779603 .054992677 .29577638 .10398865 .37265016 .1619873 .37265016 .18199158 .37265016H.23899842C.20698548 .25186158 .15299988 .13105774 .11099243 .04020691 .102996829 .025222779 .102996829 .023223877 .102996829 .016235352 .102996829-.002746582 .11898804-.0107421879 .13198853-.0107421879 .1619873-.0107421879 .16999817 .017242432 .18199158 .05418396 .19599915 .100097659 .19599915 .10209656 .20899964 .15202332L.2649994 .37265016Z"/>
<path id="font_1_4" d="M.48599244 .38136292C.48999024 .39537049 .48999024 .39736939 .48999024 .40437318 .48999024 .42237855 .47599793 .43138124 .46099855 .43138124 .45098878 .43138124 .43499757 .42536927 .42599488 .41036988 .42399598 .405365 .41600038 .37435914 .4119873 .35635377 .40499879 .33035279 .397995 .30334474 .3919983 .27633668L.34700013 .09628296C.34298707 .08126831 .2999878 .011245728 .23399353 .011245728 .18299866 .011245728 .17199707 .055267335 .17199707 .0922699 .17199707 .1382904 .18899536 .20030213 .22299195 .28833009 .23899842 .3293457 .24299622 .3403473 .24299622 .36035157 .24299622 .405365 .21099854 .4423828 .16099549 .4423828 .06599426 .4423828 .0289917 .29733277 .0289917 .28833009 .0289917 .27833558 .038986207 .27833558 .040985109 .27833558 .050994874 .27833558 .051986696 .28033448 .056991579 .29634095 .083999637 .3903656 .12399292 .42037965 .1579895 .42037965 .1659851 .42037965 .18299866 .42037965 .18299866 .3883667 .18299866 .36335755 .17298889 .3373413 .1659851 .31834413 .12599182 .21231079 .10798645 .1552887 .10798645 .10827637 .10798645 .019256592 .17098999-.0107421879 .22999573-.0107421879 .2689972-.0107421879 .30299378 .0062561037 .33099366 .03425598 .31799317-.017745972 .30599977-.06674194 .2659912-.11973572 .23999024-.15385437 .20199585-.18309021 .1559906-.18309021 .14199829-.18309021 .09700012-.18005371 .07998657-.14074707 .09599304-.14074707 .10899353-.14074707 .12298584-.1287384 .1329956-.11973572 .14299011-.10673523 .14299011-.08773804 .14299011-.056747438 .115997318-.052734376 .10598755-.052734376 .08299255-.052734376 .049987794-.068740848 .049987794-.11773682 .049987794-.16796875 .09399414-.20507813 .1559906-.20507813 .25898744-.20507813 .3619995-.11373901 .3899994-.00074768069L.48599244 .38136292Z"/>
<path id="font_4_1" d="M.45999146 .31976319C.45999146 .39982606 .45498658 .47988893 .41999818 .5539398 .37399293 .65000918 .2919922 .6660156 .25 .6660156 .18998719 .6660156 .116989139 .64001467 .07598877 .54693606 .04399109 .47789 .038986207 .39982606 .038986207 .31976319 .038986207 .24472046 .042999269 .15464783 .083999637 .07859802 .1269989-.0024719239 .19999695-.022460938 .24899292-.022460938 .30299378-.022460938 .3789978-.0014648438 .4229889 .09359741 .45498658 .16265869 .45999146 .2407074 .45999146 .31976319M.24899292-.00047302247C.20999146-.00047302247 .15098572 .024551392 .1329956 .12062073 .12199402 .18066406 .12199402 .2727356 .12199402 .3317871 .12199402 .39582826 .12199402 .46188355 .12998963 .5159149 .14898682 .63500979 .22399903 .64401248 .24899292 .64401248 .28199769 .64401248 .34799195 .6259918 .36698915 .52693179 .3769989 .47088624 .3769989 .39482118 .3769989 .3317871 .3769989 .25672914 .3769989 .18867493 .3659973 .12461853 .35099793 .029556275 .2939911-.00047302247 .24899292-.00047302247Z"/>
<path id="font_1_2" d="M.19198609 .052993776C.19198609 .08198547 .16799927 .10598755 .13899231 .10598755 .10998535 .10598755 .085998538 .08198547 .085998538 .052993776 .085998538 .023986817 .10998535 0 .13899231 0 .16799927 0 .19198609 .023986817 .19198609 .052993776Z"/>
<path id="font_4_2" d="M.2939911 .64004519C.2939911 .66400149 .2939911 .6660156 .2709961 .6660156 .20899964 .60227969 .12098694 .60227969 .08898926 .60227969V.57128909C.10899353 .57128909 .16799927 .57128909 .21998596 .5972748V.07902527C.21998596 .042999269 .21699524 .0309906 .1269989 .0309906H.09498596V0C.12998963 .0029907227 .21699524 .0029907227 .25698854 .0029907227 .29699708 .0029907227 .38398744 .0029907227 .4189911 0V.0309906H.3869934C.29699708 .0309906 .2939911 .041992189 .2939911 .07902527V.64004519Z"/>
<path id="font_4_3" d="M.1269989 .07699585 .23298645 .18003845C.3889923 .31811524 .44898988 .3721466 .44898988 .47216798 .44898988 .5860901 .35899354 .6660156 .23699951 .6660156 .12399292 .6660156 .049987794 .57411196 .049987794 .48516847 .049987794 .4291687 .099990848 .4291687 .102996829 .4291687 .11999512 .4291687 .15499878 .44117738 .15499878 .48217774 .15499878 .5081787 .13699341 .5341797 .101989749 .5341797 .09399414 .5341797 .09199524 .5341797 .08898926 .5331726 .11199951 .59806826 .1659851 .63500979 .22399903 .63500979 .31498719 .63500979 .35798646 .5541382 .35798646 .47216798 .35798646 .39215089 .30799867 .31311036 .25299073 .25108338L.06098938 .036987306C.049987794 .025985718 .049987794 .023986817 .049987794 0H.42099L.44898988 .17404175H.42399598C.4189911 .14402771 .4119873 .1000061 .4019928 .084991458 .394989 .07699585 .32899476 .07699585 .30699159 .07699585H.1269989Z"/>
<path id="font_4_4" d="M.2899933 .35191346C.37199403 .37893678 .42999269 .4490509 .42999269 .52809146 .42999269 .6100464 .34199525 .6660156 .24598694 .6660156 .14498902 .6660156 .068984989 .60606387 .068984989 .53009036 .068984989 .49710084 .09098816 .47808839 .11999512 .47808839 .15098572 .47808839 .17098999 .50009158 .17098999 .5290985 .17098999 .57910159 .12399292 .57910159 .10899353 .57910159 .13999939 .62802127 .20599365 .64100649 .24198914 .64100649 .2829895 .64100649 .33799745 .6190338 .33799745 .5290985 .33799745 .51708987 .33599855 .45906068 .30999757 .4149933 .27999879 .36691285 .24598694 .36390687 .22099304 .36291505 .21299744 .36190797 .18899536 .35990907 .18199158 .35990907 .17399597 .35890199 .16699219 .35791017 .16699219 .3479004 .16699219 .33691407 .17399597 .33691407 .19099427 .33691407H.23498535C.31698609 .33691407 .35398866 .2686615 .35398866 .17037964 .35398866 .034469606 .2849884 .0055389406 .24099732 .0055389406 .19799805 .0055389406 .12298584 .022491456 .08799744 .08137512 .12298584 .07637024 .1539917 .09837341 .1539917 .1363678 .1539917 .17237854 .1269989 .19238281 .09799194 .19238281 .07398987 .19238281 .041992189 .17837525 .041992189 .1343689 .041992189 .043441774 .1349945-.022460938 .24398804-.022460938 .3659973-.022460938 .45700074 .06838989 .45700074 .17037964 .45700074 .252594 .3939972 .33088685 .2899933 .35191346Z"/>
</defs>
<path transform="matrix(1.00003,0,0,-1.00003,43.617776,45.68298)" stroke-width=".3985" stroke-linecap="butt" stroke-miterlimit="10" stroke-linejoin="miter" fill="none" stroke="#000000" d="M-42.52019 0H297.1832"/>
<path transform="matrix(1.00003,0,0,-1.00003,340.8099,45.68298)" stroke-width=".31879" stroke-linecap="round" stroke-linejoin="round" fill="none" stroke="#000000" d="M-1.19551 1.59401C-1.09587 .99626 0 .09961 .29886 0 0-.09961-1.09587-.99626-1.19551-1.59401"/>
<use data-text="x" xlink:href="#font_1_3" transform="matrix(9.962899,0,0,-9.962899,344.7878,42.162874)"/>
<path transform="matrix(1.00003,0,0,-1.00003,43.617776,45.68298)" stroke-width=".3985" stroke-linecap="butt" stroke-miterlimit="10" stroke-linejoin="miter" fill="none" stroke="#000000" d="M66.757 8.50455V-8.50455"/>
<use data-text="&#x03c0;" xlink:href="#font_2_1" transform="matrix(6.9740097,0,0,-6.9740097,107.9217,60.711435)"/>
<path transform="matrix(1.00003,0,0,-1.00003,-18.893105,31.94857)" stroke-width=".3985" stroke-linecap="butt" stroke-miterlimit="10" stroke-linejoin="miter" fill="none" stroke="#000000" d="M126.811-30.194H131.72"/>
<use data-text="4" xlink:href="#font_3_3" transform="matrix(6.9740097,0,0,-6.9740097,108.39072,68.06966)"/>
<path transform="matrix(1.00003,0,0,-1.00003,43.617776,45.68298)" stroke-width=".3985" stroke-linecap="butt" stroke-miterlimit="10" stroke-linejoin="miter" fill="none" stroke="#000000" d="M133.51406 8.50455V-8.50455"/>
<use data-text="&#x03c0;" xlink:href="#font_2_1" transform="matrix(6.9740097,0,0,-6.9740097,174.68071,60.711435)"/>
<path transform="matrix(1.00003,0,0,-1.00003,47.865907,31.94857)" stroke-width=".3985" stroke-linecap="butt" stroke-miterlimit="10" stroke-linejoin="miter" fill="none" stroke="#000000" d="M126.811-30.194H131.72"/>
<use data-text="2" xlink:href="#font_3_1" transform="matrix(6.9740097,0,0,-6.9740097,175.14972,68.06966)"/>
<path transform="matrix(1.00003,0,0,-1.00003,43.617776,45.68298)" stroke-width=".3985" stroke-linecap="butt" stroke-miterlimit="10" stroke-linejoin="miter" fill="none" stroke="#000000" d="M200.35544 8.50455V-8.50455"/>
<use data-text="3" xlink:href="#font_3_2" transform="matrix(6.9740097,0,0,-6.9740097,239.53865,62.202478)"/>
<use data-text="&#x03c0;" xlink:href="#font_2_1" transform="matrix(6.9740097,0,0,-6.9740097,243.50977,62.202478)"/>
<path transform="matrix(1.00003,0,0,-1.00003,112.72385,33.439615)" stroke-width=".3985" stroke-linecap="butt" stroke-miterlimit="10" stroke-linejoin="miter" fill="none" stroke="#000000" d="M126.811-30.194H135.691"/>
<use data-text="4" xlink:href="#font_3_3" transform="matrix(6.9740097,0,0,-6.9740097,241.99373,69.5607)"/>
<path transform="matrix(1.00003,0,0,-1.00003,43.617776,45.68298)" stroke-width=".3985" stroke-linecap="butt" stroke-miterlimit="10" stroke-linejoin="miter" fill="none" stroke="#000000" d="M267.19688 8.50455V-8.50455"/>
<use data-text="&#x03c0;" xlink:href="#font_1_1" transform="matrix(9.962899,0,0,-9.962899,307.8047,61.997468)"/>
<path transform="matrix(1.00003,0,0,-1.00003,43.617776,45.68298)" stroke-width=".3985" stroke-linecap="butt" stroke-miterlimit="10" stroke-linejoin="miter" fill="none" stroke="#000000" d="M0-8.50455V33.55736"/>
<path transform="matrix(0,-1.00003,-1.00003,-0,43.617776,12.124611)" stroke-width=".31879" stroke-linecap="round" stroke-linejoin="round" fill="none" stroke="#000000" d="M-1.19551 1.59401C-1.09587 .99626 0 .09961 .29886 0 0-.09961-1.09587-.99626-1.19551-1.59401"/>
<use data-text="y" xlink:href="#font_1_4" transform="matrix(9.962899,0,0,-9.962899,47.13788,6.2087938)"/>
<path transform="matrix(1.00003,0,0,-1.00003,43.617776,45.68298)" stroke-width=".3985" stroke-linecap="butt" stroke-miterlimit="10" stroke-linejoin="miter" fill="none" stroke="#000000" d="M1.70114 8.50455H-1.70114"/>
<use data-text="0" xlink:href="#font_4_1" transform="matrix(9.962899,0,0,-9.962899,15.702934,40.38882)"/>
<use data-text="." xlink:href="#font_1_2" transform="matrix(9.962899,0,0,-9.962899,20.684082,40.38882)"/>
<use data-text="0" xlink:href="#font_4_1" transform="matrix(9.962899,0,0,-9.962899,23.451172,40.38882)"/>
<use data-text="0" xlink:href="#font_4_1" transform="matrix(9.962899,0,0,-9.962899,28.432602,40.38882)"/>
<use data-text="1" xlink:href="#font_4_2" transform="matrix(9.962899,0,0,-9.962899,33.414049,40.38882)"/>
<path transform="matrix(1.00003,0,0,-1.00003,43.617776,45.68298)" stroke-width=".3985" stroke-linecap="butt" stroke-miterlimit="10" stroke-linejoin="miter" fill="none" stroke="#000000" d="M1.70114 17.00781H-1.70114"/>
<use data-text="0" xlink:href="#font_4_1" transform="matrix(9.962899,0,0,-9.962899,15.702934,31.884564)"/>
<use data-text="." xlink:href="#font_1_2" transform="matrix(9.962899,0,0,-9.962899,20.684082,31.884564)"/>
<use data-text="0" xlink:href="#font_4_1" transform="matrix(9.962899,0,0,-9.962899,23.451172,31.884564)"/>
<use data-text="0" xlink:href="#font_4_1" transform="matrix(9.962899,0,0,-9.962899,28.432602,31.884564)"/>
<use data-text="2" xlink:href="#font_4_3" transform="matrix(9.962899,0,0,-9.962899,33.414049,31.884564)"/>
<path transform="matrix(1.00003,0,0,-1.00003,43.617776,45.68298)" stroke-width=".3985" stroke-linecap="butt" stroke-miterlimit="10" stroke-linejoin="miter" fill="none" stroke="#000000" d="M1.70114 25.51236H-1.70114"/>
<use data-text="0" xlink:href="#font_4_1" transform="matrix(9.962899,0,0,-9.962899,15.702934,23.38031)"/>
<use data-text="." xlink:href="#font_1_2" transform="matrix(9.962899,0,0,-9.962899,20.684082,23.38031)"/>
<use data-text="0" xlink:href="#font_4_1" transform="matrix(9.962899,0,0,-9.962899,23.451172,23.38031)"/>
<use data-text="0" xlink:href="#font_4_1" transform="matrix(9.962899,0,0,-9.962899,28.432602,23.38031)"/>
<use data-text="3" xlink:href="#font_4_4" transform="matrix(9.962899,0,0,-9.962899,33.414049,23.38031)"/>
<path transform="matrix(1.00003,0,0,-1.00003,43.617776,45.68298)" stroke-width=".3985" stroke-linecap="butt" stroke-miterlimit="10" stroke-linejoin="miter" fill="none" stroke="#000000" d="M-25.36986 36.80594C-25.06981 35.88918-25.06981 35.88918-24.89987 35.29506-24.72995 34.70096-24.45737 33.48145-24.28743 32.95935-24.11751 32.43726-23.84488 32.0901-23.67494 31.53198-23.50502 30.97386-23.23239 29.5489-23.06245 28.93678-22.89253 28.32465-22.6199 27.57019-22.44997 27.1201-22.28004 26.67003-22.00746 26.17885-21.83752 25.69273-21.6676 25.20662-21.39497 24.13863-21.22504 23.61653-21.05511 23.09442-20.78249 22.37973-20.61255 21.92966-20.44263 21.47957-20.17004 20.7506-20.0001 20.37253-19.83018 19.99446-19.55756 19.58272-19.38762 19.20465-19.2177 18.82658-18.94507 18.0256-18.77513 17.64752-18.60521 17.26945-18.33263 16.80368-18.16269 16.47964-17.99277 16.15562-17.72014 15.6899-17.5502 15.31181-17.38028 14.93375-17.10765 14.07872-16.93771 13.7547-16.76779 13.43066-16.49516 13.28218-16.32523 12.9761-16.1553 12.67004-15.88272 11.89078-15.71278 11.54874-15.54286 11.2067-15.27023 10.76268-15.1003 10.51065-14.93037 10.25864-14.65775 9.96613-14.48781 9.73207-14.31789 9.49802-14.0453 9.07576-13.87537 8.82373-13.70544 8.57172-13.43282 8.14946-13.26288 7.9154-13.09296 7.68135-12.82033 7.38889-12.65039 7.13687-12.48047 6.88484-12.20789 6.31477-12.03795 6.09874-11.86803 5.8827-11.5954 5.7597-11.42546 5.5797-11.25554 5.39969-10.98291 4.96315-10.81297 4.80116-10.64305 4.63916-10.37047 4.5559-10.20053 4.41187-10.03061 4.26784-9.75798 3.92506-9.58804 3.76303-9.41812 3.601-9.1455 3.38802-8.97556 3.24399-8.80563 3.09996-8.533 2.85095-8.36307 2.72495-8.19315 2.59894-7.92056 2.46167-7.75063 2.33565-7.5807 2.20964-7.30807 1.96063-7.13814 1.81662-6.96822 1.67259-6.69559 1.40556-6.52565 1.29758-6.35573 1.18958-6.08315 1.11009-5.91321 1.03807-5.74329 .96606-5.47066 .83253-5.30072 .77853-5.1308 .72453-4.85817 .7208-4.68823 .64879-4.51831 .57677-4.24573 .31349-4.07579 .25949-3.90587 .20549-3.63324 .27747-3.4633 .25949-3.29338 .24152-3.02075 .1477-2.85081 .12975-2.6809 .11177-2.40826 .12975-2.23833 .12975-2.0684 .12975-1.79582 .12975-1.62589 .12975-1.45596 .12975-1.18333 .1477-1.0134 .12975-.84348 .11177-.57085 .01796-.40091 0-.23099-.01796 .04153-.01796 .21147 0 .3814 .01796 .65402 .09377 .82396 .12975 .99388 .16573 1.26651 .27747 1.43645 .25949 1.60637 .24152 1.87895 0 2.04889 0 2.21881 0 2.49144 .22351 2.66138 .25949 2.8313 .29547 3.10393 .25949 3.27386 .25949 3.44379 .25949 3.71637 .24152 3.8863 .25949 4.05623 .27747 4.32886 .31723 4.4988 .38924 4.66872 .46126 4.94135 .74255 5.11128 .77853 5.2812 .81451 5.55383 .64879 5.72377 .64879 5.89369 .64879 6.16628 .68855 6.33621 .77853 6.50613 .86852 6.77876 1.18958 6.9487 1.29758 7.11862 1.40556 7.39125 1.50311 7.56119 1.55711 7.73111 1.61111 8.0037 1.65088 8.17363 1.68686 8.34355 1.72285 8.61618 1.72664 8.78612 1.81662 8.95604 1.9066 9.22867 2.20964 9.3986 2.33565 9.56853 2.46167 9.84111 2.61696 10.01105 2.72495 10.18097 2.83295 10.4536 3.04222 10.62354 3.11424 10.79346 3.18625 11.06609 3.18999 11.23602 3.24399 11.40594 3.29799 11.67857 3.43152 11.84851 3.50352 12.01843 3.57555 12.29102 3.65503 12.46095 3.76303 12.63087 3.87102 12.9035 4.19214 13.07344 4.28212 13.24336 4.3721 13.51599 4.30386 13.68593 4.41187 13.85585 4.51987 14.12843 4.93465 14.29837 5.06065 14.46829 5.18666 14.74092 5.24818 14.91086 5.3202 15.08078 5.39221 15.35341 5.43567 15.52335 5.5797 15.69327 5.72372 15.96585 6.25029 16.13579 6.35828 16.30571 6.46628 16.57834 6.2683 16.74828 6.35828 16.9182 6.44826 17.19083 6.89908 17.36076 7.00706 17.53069 7.11507 17.80327 7.04689 17.9732 7.13687 18.14313 7.22685 18.41576 7.54791 18.5857 7.6559 18.75562 7.7639 19.02824 7.7894 19.19818 7.9154 19.3681 8.04141 19.64073 8.4022 19.81067 8.56424 19.98059 8.72627 20.25317 8.97528 20.42311 9.08328 20.59303 9.19127 20.86566 9.23479 21.0356 9.34277 21.20552 9.45078 21.47815 9.75383 21.64809 9.86182 21.81801 9.96982 22.09059 9.97734 22.26053 10.12137 22.43045 10.26538 22.70308 10.80997 22.87302 10.89995 23.04294 10.98993 23.31557 10.69814 23.4855 10.77016 23.65543 10.84216 23.92801 11.25696 24.09795 11.41899 24.26787 11.58102 24.5405 11.86601 24.71043 11.93803 24.88036 12.01004 25.15298 11.88403 25.32292 11.93803 25.49284 11.99203 25.76543 12.1833 25.93536 12.32732 26.10529 12.47134 26.37791 12.8501 26.54785 12.9761 26.71777 13.10213 26.9904 13.14563 27.16034 13.23561 27.33026 13.32559 27.60289 13.5169 27.77283 13.62491 27.94275 13.7329 28.21533 13.9062 28.38527 14.01419 28.55519 14.1222 28.82782 14.3135 28.99776 14.40349 29.16768 14.49347 29.4403 14.57304 29.61024 14.66302 29.78017 14.753 30.05275 14.94427 30.22269 15.05228 30.39261 15.16028 30.66524 15.33357 30.83517 15.44157 31.0051 15.54956 31.27773 15.72287 31.44766 15.83086 31.61758 15.93886 31.89017 16.13017 32.0601 16.22015 32.23003 16.31013 32.50266 16.38966 32.67259 16.47964 32.84251 16.56963 33.11514 16.72491 33.28508 16.86894 33.455 17.01297 33.72763 17.4278 33.89757 17.51778 34.06749 17.60776 34.34007 17.4818 34.51001 17.51778 34.67993 17.55376 34.95256 17.6873 35.1225 17.77728 35.29242 17.86726 35.56505 18.09456 35.73499 18.16656 35.9049 18.23859 36.17749 18.24232 36.34743 18.29633 36.51735 18.35031 36.78998 18.46588 36.95992 18.55586 37.12984 18.64584 37.40247 18.81914 37.5724 18.94516 37.74232 19.07117 38.01491 19.39218 38.18484 19.46419 38.35477 19.53621 38.6274 19.37422 38.79733 19.46419 38.96725 19.55417 39.23988 20.04097 39.40982 20.11299 39.57974 20.185 39.85233 19.89325 40.02226 19.98323 40.19218 20.07321 40.46481 20.63577 40.63475 20.76178 40.80467 20.88779 41.0773 20.85559 41.24724 20.89157 41.41716 20.92755 41.68979 20.98534 41.85973 21.02132 42.02965 21.0573 42.30223 21.15106 42.47217 21.15106 42.64209 21.15106 42.91472 20.96732 43.08466 21.02132 43.25458 21.07532 43.5272 21.46835 43.69714 21.54036 43.86707 21.61237 44.13965 21.50438 44.30959 21.54036 44.4795 21.57634 44.75214 21.72789 44.92207 21.7999 45.092 21.87192 45.36462 22.0054 45.53456 22.0594 45.70448 22.1134 45.97707 22.15317 46.147 22.18915 46.31693 22.22513 46.58955 22.28296 46.75949 22.31894 46.92941 22.35493 47.20204 22.3947 47.37198 22.4487 47.5419 22.50269 47.81453 22.67226 47.98447 22.70824 48.15439 22.74422 48.42697 22.69026 48.59691 22.70824 48.76683 22.72621 49.03946 22.78398 49.2094 22.83798 49.37932 22.89198 49.65195 23.0615 49.82188 23.09749 49.9918 23.13347 50.26439 23.0615 50.43433 23.09749 50.60425 23.13347 50.87688 23.32104 51.04681 23.35703 51.21674 23.393 51.48936 23.33905 51.6593 23.35703 51.82922 23.375 52.1018 23.45079 52.27174 23.48677 52.44167 23.52275 52.7143 23.61653 52.88423 23.61653 53.05415 23.61653 53.32678 23.46881 53.49672 23.48677 53.66664 23.50475 53.93922 23.72835 54.10916 23.74632 54.27908 23.76428 54.55171 23.63449 54.72165 23.61653 54.89157 23.59856 55.1642 23.61653 55.33414 23.61653 55.50406 23.61653 55.77669 23.59856 55.94662 23.61653 56.11655 23.63449 56.38913 23.71034 56.55907 23.74632 56.72899 23.7823 57.00162 23.89404 57.17155 23.87607 57.34148 23.8581 57.6141 23.61653 57.78404 23.61653 57.95396 23.61653 58.22655 23.84009 58.39648 23.87607 58.5664 23.91205 58.83904 23.89404 59.00897 23.87607 59.1789 23.8581 59.45152 23.7823 59.62144 23.74632 59.79138 23.71034 60.06396 23.67052 60.2339 23.61653 60.40382 23.56253 60.67645 23.35703 60.84637 23.35703 61.01631 23.35703 61.28894 23.63449 61.45886 23.61653 61.6288 23.59856 61.90138 23.26326 62.0713 23.22728 62.24124 23.1913 62.51387 23.33905 62.68379 23.35703 62.85373 23.375 63.12636 23.393 63.29628 23.35703 63.46622 23.32104 63.73885 23.13347 63.90877 23.09749 64.0787 23.0615 64.35129 23.09749 64.52121 23.09749 64.69115 23.09749 64.96378 23.13347 65.1337 23.09749 65.30363 23.0615 65.57626 22.89198 65.74619 22.83798 65.91612 22.78398 66.1887 22.74422 66.35863 22.70824 66.52856 22.67226 66.8012 22.5964 66.97112 22.57845 67.14105 22.56047 67.41368 22.61443 67.5836 22.57845 67.75354 22.54247 68.02612 22.35493 68.19604 22.31894 68.36598 22.28296 68.63861 22.37294 68.80853 22.31894 68.97847 22.26495 69.2511 22.00166 69.42102 21.92966 69.59096 21.85764 69.86359 21.7999 70.03351 21.7999 70.20345 21.7999 70.47603 21.96564 70.64595 21.92966 70.81589 21.89366 71.08852 21.61237 71.25844 21.54036 71.42838 21.46835 71.701 21.46461 71.87093 21.41061 72.04086 21.35661 72.31345 21.24104 72.48337 21.15106 72.6533 21.06108 72.92593 20.83379 73.09586 20.76178 73.2658 20.68976 73.53842 20.66801 73.70834 20.63202 73.87828 20.59604 74.15086 20.53825 74.32079 20.50227 74.49072 20.4663 74.76335 20.42653 74.93327 20.37253 75.10321 20.31853 75.37584 20.185 75.54576 20.11299 75.7157 20.04097 75.98828 19.92546 76.1582 19.85344 76.32814 19.78143 76.60077 19.66595 76.77069 19.59395 76.94063 19.52193 77.21326 19.3884 77.38318 19.3344 77.55312 19.2804 77.82574 19.27666 77.99567 19.20465 78.1656 19.13264 78.43819 18.88737 78.60811 18.81535 78.77805 18.74335 79.05067 18.75763 79.2206 18.68561 79.39053 18.6136 79.66316 18.38629 79.83308 18.29633 80.00302 18.20634 80.2756 18.0548 80.44553 18.03682 80.61546 18.01884 80.88809 18.23859 81.05801 18.16656 81.22795 18.09456 81.50058 17.60776 81.6705 17.51778 81.84044 17.4278 82.11302 17.57178 82.28294 17.51778 82.45288 17.46378 82.72551 17.2005 82.89543 17.1285 83.06537 17.05647 83.338 17.05269 83.50792 16.99869 83.67786 16.9447 83.95049 16.8652 84.1204 16.7392 84.29034 16.61319 84.56293 16.14441 84.73285 16.09041 84.90279 16.0364 85.17542 16.38588 85.34534 16.3499 85.51527 16.31392 85.7879 15.92084 85.95782 15.83086 86.12776 15.74088 86.40034 15.77312 86.57027 15.70111 86.7402 15.6291 87.01283 15.41982 87.18275 15.31181 87.35269 15.20383 87.62532 14.99454 87.79524 14.92253 87.96518 14.85051 88.23776 14.9188 88.40768 14.79279 88.57762 14.66676 88.85025 14.10417 89.02017 14.01419 89.19011 13.92421 89.46274 14.17993 89.63266 14.14394 89.8026 14.10796 90.07518 13.86269 90.2451 13.7547 90.41504 13.6467 90.68767 13.4194 90.85759 13.3654 91.02753 13.3114 91.30016 13.43742 91.47008 13.3654 91.64001 13.2934 91.91264 12.93634 92.08257 12.84636 92.2525 12.75638 92.52509 12.80655 92.695 12.71657 92.86494 12.62659 93.13757 12.30553 93.3075 12.19753 93.47743 12.08954 93.75006 11.97401 93.91998 11.93803 94.08992 11.90205 94.3625 12.01004 94.53242 11.93803 94.70236 11.86601 94.97499 11.491 95.14491 11.41899 95.31485 11.34697 95.58748 11.52698 95.7574 11.41899 95.92734 11.31099 96.19992 10.73038 96.36984 10.64041 96.53978 10.55043 96.81241 10.84216 96.98233 10.77016 97.15227 10.69814 97.4249 10.24738 97.59482 10.12137 97.76476 9.99536 98.03734 9.8978 98.20726 9.86182 98.3772 9.82584 98.64983 9.91582 98.81975 9.86182 98.98969 9.80782 99.26231 9.56256 99.43224 9.47258 99.60217 9.3826 99.8748 9.32103 100.04472 9.21303 100.21466 9.10504 100.48724 8.766 100.65717 8.69398 100.8271 8.62198 101.09973 8.72997 101.26965 8.69398 101.43959 8.658 101.71222 8.54243 101.88214 8.43445 102.05208 8.32645 102.32466 8.00539 102.49458 7.9154 102.66452 7.82542 102.93715 7.87564 103.10707 7.78566 103.27701 7.69568 103.54964 7.3566 103.71956 7.26662 103.8895 7.17664 104.16208 7.20888 104.332 7.13687 104.50194 7.06485 104.77457 6.81958 104.94449 6.74757 105.11443 6.67557 105.38705 6.65376 105.55698 6.61778 105.72691 6.5818 105.99954 6.59602 106.16946 6.48804 106.3394 6.38004 106.61198 5.91125 106.7819 5.83923 106.95184 5.76723 107.22447 5.98695 107.3944 5.969 107.56433 5.95102 107.83696 5.78151 108.00688 5.70949 108.17682 5.63748 108.4494 5.50395 108.61932 5.44995 108.78926 5.39595 109.06189 5.39221 109.23181 5.3202 109.40175 5.24818 109.67438 4.98491 109.8443 4.93091 110.01424 4.8769 110.28682 4.96689 110.45674 4.93091 110.62668 4.89493 110.8993 4.76134 111.06923 4.67136 111.23917 4.58138 111.5118 4.35413 111.68172 4.28212 111.85165 4.2101 112.12424 4.22433 112.29416 4.15233 112.4641 4.0803 112.73672 3.81703 112.90665 3.76303 113.07658 3.70903 113.34921 3.81703 113.51913 3.76303 113.68907 3.70903 113.9617 3.42778 114.13162 3.37378 114.30156 3.31978 114.57414 3.40976 114.74406 3.37378 114.914 3.3378 115.18663 3.18625 115.35655 3.11424 115.52649 3.04222 115.79912 2.89073 115.96904 2.85474 116.13898 2.81876 116.41156 2.92676 116.58148 2.85474 116.75142 2.78273 117.02405 2.38965 117.19397 2.33565 117.3639 2.28166 117.63654 2.48341 117.80646 2.46545 117.9764 2.44748 118.24898 2.2599 118.4189 2.2059 118.58884 2.1519 118.86147 2.09413 119.03139 2.07616 119.20132 2.05818 119.47395 2.14816 119.64388 2.07616 119.81381 2.00415 120.08644 1.5931 120.25636 1.55711 120.4263 1.52113 120.69888 1.83458 120.8688 1.81662 121.03874 1.79865 121.31137 1.48137 121.4813 1.42737 121.65123 1.37337 121.92386 1.44534 122.09378 1.42737 122.26372 1.4094 122.5363 1.36958 122.70622 1.29758 122.87616 1.22556 123.14879 .94426 123.31871 .90828 123.48865 .8723 123.76128 1.03807 123.9312 1.03807 124.10114 1.03807 124.37372 .92625 124.54364 .90828 124.71358 .8903 124.9862 .90828 125.15613 .90828 125.32607 .90828 125.5987 .94426 125.76862 .90828 125.93855 .8723 126.21114 .68477 126.38106 .64879 126.551 .6128 126.82362 .70277 126.99355 .64879 127.16348 .59479 127.43611 .25949 127.60603 .25949 127.77597 .25949 128.0486 .6128 128.21852 .64879 128.38846 .68477 128.66104 .57303 128.83097 .51903 129.0009 .46504 129.27353 .29547 129.44345 .25949 129.61339 .22351 129.88602 .27747 130.05594 .25949 130.22588 .24152 130.49846 .12975 130.66838 .12975 130.83832 .12975 131.11095 .24152 131.28087 .25949 131.4508 .27747 131.72344 .27747 131.89336 .25949 132.0633 .24152 132.33588 .11177 132.5058 .12975 132.67574 .1477 132.94837 .37128 133.11829 .38924 133.28823 .40721 133.56085 .24152 133.73078 .25949 133.90071 .27747 134.1733 .51903 134.34322 .51903 134.51316 .51903 134.78578 .27747 134.9557 .25949 135.12564 .24152 135.39827 .37128 135.56819 .38924 135.73813 .40721 136.01076 .38924 136.18068 .38924 136.35062 .38924 136.6232 .37128 136.79312 .38924 136.96306 .40721 137.23569 .51903 137.40561 .51903 137.57555 .51903 137.84818 .37128 138.0181 .38924 138.18804 .40721 138.46062 .59479 138.63054 .64879 138.80048 .70277 139.0731 .77853 139.24303 .77853 139.41297 .77853 139.6856 .63081 139.85552 .64879 140.02545 .66675 140.29804 .8903 140.46796 .90828 140.6379 .92625 140.91053 .76056 141.08045 .77853 141.25038 .7965 141.52301 1.00209 141.69293 1.03807 141.86287 1.07405 142.1355 1.03807 142.30542 1.03807 142.47536 1.03807 142.74794 1.00209 142.91786 1.03807 143.0878 1.07405 143.36043 1.2796 143.53035 1.29758 143.70029 1.31554 143.97292 1.13184 144.14284 1.16782 144.31278 1.20381 144.58536 1.52113 144.75528 1.55711 144.92522 1.5931 145.19785 1.4094 145.36777 1.42737 145.5377 1.44534 145.81034 1.61485 145.98026 1.68686 146.15019 1.75888 146.42278 1.91043 146.5927 1.94641 146.76264 1.98239 147.03527 1.92844 147.20519 1.94641 147.37512 1.96437 147.64775 2.05818 147.81768 2.07616 147.98761 2.09413 148.2602 2.02216 148.43012 2.07616 148.60005 2.13016 148.87268 2.37547 149.0426 2.46545 149.21254 2.55544 149.48517 2.67094 149.65509 2.72495 149.82503 2.77895 150.09766 2.80075 150.26758 2.85474 150.43752 2.90874 150.7101 3.09627 150.88002 3.11424 151.04996 3.1322 151.32259 2.9305 151.49251 2.9845 151.66245 3.03848 151.93508 3.43152 152.105 3.50352 152.27494 3.57555 152.54752 3.48557 152.71744 3.50352 152.88738 3.5215 153.16 3.59729 153.32993 3.63329 153.49987 3.66927 153.77249 3.69102 153.94242 3.76303 154.11235 3.83504 154.38494 4.0803 154.55486 4.15233 154.7248 4.22433 154.99742 4.24614 155.16735 4.28212 155.33728 4.3181 155.60991 4.33986 155.77983 4.41187 155.94977 4.48387 156.2224 4.69316 156.39232 4.80116 156.56226 4.90915 156.83484 5.15442 157.00476 5.1904 157.1747 5.22638 157.44733 4.98865 157.61725 5.06065 157.78719 5.13266 158.05982 5.6195 158.22974 5.70949 158.39968 5.79947 158.67226 5.65549 158.84218 5.70949 159.01212 5.76349 159.28475 6.04474 159.45467 6.09874 159.6246 6.15274 159.89723 6.04474 160.06716 6.09874 160.23709 6.15274 160.50968 6.41602 160.6796 6.48804 160.84954 6.56004 161.12216 6.5818 161.29209 6.61778 161.46202 6.65376 161.73465 6.6576 161.90457 6.74757 162.07451 6.83755 162.34709 7.1946 162.51702 7.26662 162.68695 7.33862 162.95958 7.15862 163.1295 7.26662 163.29944 7.3746 163.57207 7.95522 163.74199 8.0452 163.91193 8.13518 164.18456 7.87943 164.35448 7.9154 164.52442 7.95139 164.797 8.21472 164.96692 8.3047 165.13686 8.39468 165.40949 8.51024 165.5794 8.56424 165.74935 8.61824 166.02198 8.62198 166.1919 8.69398 166.36183 8.766 166.63442 8.97528 166.80434 9.08328 166.97428 9.19127 167.2469 9.3826 167.41683 9.47258 167.58676 9.56256 167.85939 9.64209 168.02931 9.73207 168.19925 9.82205 168.47183 10.08537 168.64176 10.12137 168.81169 10.15735 169.08432 9.9196 169.25424 9.99161 169.42418 10.06363 169.69681 10.53241 169.86673 10.64041 170.03667 10.7484 170.30925 10.69814 170.47917 10.77016 170.64911 10.84216 170.92174 11.05145 171.09166 11.15944 171.2616 11.26744 171.53423 11.47673 171.70415 11.54874 171.87409 11.62074 172.14672 11.60648 172.31664 11.67848 172.48656 11.7505 172.75916 12.01378 172.92908 12.06778 173.09902 12.12178 173.37165 11.9778 173.54157 12.06778 173.71149 12.15776 173.98413 12.59056 174.15406 12.71657 174.32398 12.84258 174.59658 12.94012 174.7665 12.9761 174.93642 13.0121 175.20906 12.88614 175.37899 12.9761 175.5489 13.06609 175.82155 13.5709 175.99147 13.62491 176.16139 13.6789 176.43399 13.2934 176.60391 13.3654 176.77384 13.43742 177.04648 14.03595 177.2164 14.14394 177.38632 14.25194 177.65897 14.08995 177.82889 14.14394 177.99881 14.19794 178.27146 14.42525 178.44138 14.53323 178.6113 14.64124 178.8839 14.86853 179.05382 14.92253 179.22374 14.97653 179.49639 14.85051 179.6663 14.92253 179.83623 14.99454 180.10887 15.3516 180.2788 15.44157 180.44872 15.53156 180.72132 15.48134 180.89124 15.57132 181.06116 15.6613 181.3338 16.00043 181.50373 16.09041 181.67365 16.18039 181.94629 16.18417 182.11621 16.22015 182.28614 16.25613 182.55873 16.25992 182.72866 16.3499 182.89858 16.43988 183.17122 16.79694 183.34114 16.86894 183.51107 16.94095 183.7837 16.81494 183.95363 16.86894 184.12355 16.92294 184.39615 17.13223 184.56607 17.25824 184.736 17.38425 185.00864 17.70526 185.17856 17.77728 185.34848 17.84929 185.62113 17.74129 185.79105 17.77728 185.96097 17.81326 186.23361 17.98282 186.40354 18.03682 186.57346 18.09082 186.84606 18.09456 187.01598 18.16656 187.1859 18.23859 187.45854 18.46588 187.62847 18.55586 187.79839 18.64584 188.07103 18.76137 188.24095 18.81535 188.41088 18.86935 188.68347 18.87314 188.8534 18.94516 189.02332 19.01717 189.29596 19.24442 189.46588 19.3344 189.6358 19.42438 189.90845 19.53995 190.07837 19.59395 190.24829 19.64793 190.52089 19.6697 190.69081 19.7237 190.86074 19.7777 191.13338 19.91122 191.3033 19.98323 191.47322 20.05525 191.74587 20.15276 191.91579 20.24274 192.08571 20.33272 192.35836 20.59604 192.52828 20.63202 192.6982 20.66801 192.9708 20.4663 193.14072 20.50227 193.31064 20.53825 193.58329 20.83757 193.7532 20.89157 193.92313 20.94557 194.19577 20.81956 194.36569 20.89157 194.53562 20.96358 194.80821 21.3386 194.97814 21.41061 195.14806 21.48262 195.4207 21.35661 195.59062 21.41061 195.76055 21.46461 196.03319 21.70992 196.20311 21.7999 196.37303 21.88988 196.64563 22.07736 196.81555 22.0594 196.98548 22.04143 197.25812 21.6701 197.42804 21.6701 197.59796 21.6701 197.8706 21.96942 198.04053 22.0594 198.21045 22.14938 198.48305 22.28296 198.65297 22.31894 198.82289 22.35493 199.09554 22.30098 199.26546 22.31894 199.43538 22.33691 199.70803 22.4127 199.87795 22.4487 200.04787 22.48468 200.32051 22.52444 200.49044 22.57845 200.66036 22.63245 200.93296 22.78398 201.10288 22.83798 201.2728 22.89198 201.54544 22.96773 201.71537 22.96773 201.88529 22.96773 202.15793 22.802 202.32785 22.83798 202.49777 22.87396 202.77037 23.2093 202.94029 23.22728 203.11022 23.24524 203.38286 22.96773 203.55278 22.96773 203.7227 22.96773 203.99535 23.1913 204.16527 23.22728 204.33519 23.26326 204.60779 23.1913 204.77771 23.22728 204.94763 23.26326 205.22028 23.43279 205.3902 23.48677 205.56012 23.54077 205.83277 23.63449 206.00269 23.61653 206.1726 23.59856 206.4452 23.35703 206.61513 23.35703 206.78505 23.35703 207.0577 23.58054 207.22762 23.61653 207.39754 23.65251 207.67018 23.58054 207.8401 23.61653 208.01003 23.65251 208.28267 23.91205 208.45259 23.87607 208.62252 23.84009 208.89511 23.393 209.06504 23.35703 209.23496 23.32104 209.5076 23.56253 209.67752 23.61653 209.84745 23.67052 210.12009 23.7823 210.29001 23.74632 210.45993 23.71034 210.73253 23.393 210.90245 23.35703 211.07238 23.32104 211.34502 23.46881 211.51494 23.48677 211.68486 23.50475 211.9575 23.46881 212.12743 23.48677 212.29735 23.50475 212.56995 23.63449 212.73987 23.61653 212.90979 23.59856 213.18244 23.375 213.35236 23.35703 213.52228 23.33905 213.79492 23.45079 213.96485 23.48677 214.13477 23.52275 214.40741 23.65251 214.57733 23.61653 214.74726 23.58054 215.01985 23.29929 215.18978 23.22728 215.3597 23.15526 215.63234 23.11545 215.80226 23.09749 215.97219 23.07951 216.24483 23.11545 216.41475 23.09749 216.58467 23.07951 216.85727 23.03975 217.02719 22.96773 217.19712 22.89572 217.46976 22.63245 217.63968 22.57845 217.8096 22.52444 218.08225 22.57845 218.25217 22.57845 218.42209 22.57845 218.69469 22.5964 218.86461 22.57845 219.03453 22.56047 219.30718 22.50269 219.4771 22.4487 219.64702 22.3947 219.91967 22.24315 220.08959 22.18915 220.2595 22.13515 220.5321 22.07736 220.70203 22.0594 220.87195 22.04143 221.14459 22.09538 221.31452 22.0594 221.48444 22.02342 221.75708 21.9079 221.927 21.7999 222.09693 21.69191 222.36957 21.29878 222.53949 21.28082 222.70941 21.26285 222.98201 21.6701 223.15193 21.6701 223.32186 21.6701 223.5945 21.40683 223.76442 21.28082 223.93434 21.1548 224.20699 20.83379 224.3769 20.76178 224.54683 20.68976 224.81943 20.79776 224.98935 20.76178 225.15927 20.7258 225.43192 20.52025 225.60184 20.50227 225.77176 20.48431 226.0444 20.70404 226.21433 20.63202 226.38425 20.56001 226.65685 20.07321 226.82677 19.98323 226.99669 19.89325 227.26934 20.01923 227.43926 19.98323 227.60918 19.94725 227.88182 19.81367 228.05175 19.7237 228.22167 19.63371 228.49431 19.4424 228.66423 19.3344 228.83415 19.22641 229.10675 19.05315 229.27667 18.94516 229.4466 18.83716 229.71924 18.59184 229.88916 18.55586 230.05908 18.51988 230.33173 18.75763 230.50165 18.68561 230.67157 18.6136 230.94417 18.1988 231.11409 18.03682 231.28401 17.87483 231.55666 17.60776 231.72658 17.51778 231.8965 17.4278 232.16915 17.44199 232.33907 17.38799 232.50899 17.33398 232.78159 17.23648 232.9515 17.1285 233.12143 17.0205 233.39408 16.73546 233.564 16.60945 233.73392 16.48344 234.00656 16.29216 234.17649 16.22015 234.3464 16.14815 234.619 16.12639 234.78893 16.09041 234.95885 16.05443 235.23149 16.0686 235.40142 15.96062 235.57134 15.85262 235.84398 15.45584 236.0139 15.31181 236.18383 15.1678 236.45647 14.99454 236.62639 14.92253 236.79631 14.85051 237.06891 14.9368 237.23883 14.79279 237.40876 14.64876 237.6814 14.02847 237.85132 13.88445 238.02124 13.74042 238.29389 13.8087 238.4638 13.7547 238.63373 13.7007 238.90633 13.56717 239.07625 13.49515 239.24617 13.42314 239.51882 13.3976 239.68874 13.23561 239.85866 13.07362 240.1313 12.47134 240.30123 12.32732 240.47115 12.1833 240.74375 12.2335 240.91367 12.19753 241.08359 12.16154 241.35623 12.15776 241.52616 12.06778 241.69608 11.9778 241.9687 11.71072 242.13864 11.54874 242.30857 11.38675 242.58116 11.04398 242.75109 10.89995 242.921 10.75592 243.19364 10.60063 243.36357 10.51065 243.5335 10.42067 243.80612 10.3591 243.97606 10.25111 244.14598 10.14311 244.41861 9.85808 244.58855 9.73207 244.75847 9.60606 245.03105 9.43275 245.20099 9.34277 245.37091 9.25279 245.64354 9.15529 245.81348 9.08328 245.9834 9.01128 246.25603 9.00374 246.42597 8.82373 246.59589 8.64374 246.86847 7.92967 247.0384 7.78566 247.20833 7.64163 247.48096 7.82164 247.6509 7.78566 247.82082 7.74968 248.09345 7.59813 248.26338 7.52611 248.4333 7.4541 248.70589 7.4286 248.87583 7.26662 249.04575 7.10461 249.31838 6.5023 249.48831 6.35828 249.65824 6.21426 249.93087 6.30054 250.1008 6.22853 250.27072 6.15652 250.54335 6.01924 250.71329 5.83923 250.88321 5.65923 251.15579 5.07494 251.32573 4.93091 251.49565 4.78688 251.76828 4.83714 251.93822 4.80116 252.10814 4.76517 252.38077 4.72536 252.5507 4.67136 252.72063 4.61737 252.99321 4.57385 253.16315 4.41187 253.33307 4.24988 253.6057 3.64755 253.77564 3.50352 253.94556 3.35951 254.21819 3.42778 254.38813 3.37378 254.55805 3.31978 254.83063 3.18625 255.00057 3.11424 255.17049 3.04222 255.44312 2.94472 255.61305 2.85474 255.78298 2.76476 256.0556 2.59146 256.22554 2.46545 256.39546 2.33945 256.66807 1.96437 256.83799 1.94641 257.0079 1.92844 257.28053 2.42563 257.45048 2.33565 257.6204 2.24568 257.893 1.44159 258.06297 1.29758 258.23289 1.15355 258.50553 1.36958 258.67546 1.29758 258.84538 1.22556 259.11796 .81451 259.2879 .77853 259.45783 .74255 259.73045 1.14607 259.9004 1.03807 260.0703 .93008 260.34294 .10799 260.51286 0 260.6828-.10799 260.95539 .24152 261.1253 .25949 261.29524 .27747 261.56788 .1477 261.7378 .12975 261.9077 .11177 262.18034 .07574 262.35029 .12975 262.5202 .18373 262.7928 .46504 262.9627 .51903 263.13264 .57303 263.40528 .50107 263.5752 .51903 263.74513 .537 264.01777 .5588 264.1877 .64879 264.3576 .73877 264.63026 1.11383 264.8002 1.16782 264.97013 1.22182 265.24269 1.07405 265.41264 1.03807 265.58256 1.00209 265.8552 .94426 266.02513 .90828 266.19505 .8723 266.46769 .67053 266.6376 .77853 266.80754 .88652 267.0801 1.59688 267.25007 1.68686 267.41999 1.77684 267.6926 1.53535 267.86253 1.42737 268.03248 1.31937 268.30509 .99826 268.475 .90828 268.64494 .8183 268.91755 .68855 269.08747 .77853 269.2574 .86852 269.53 1.50311 269.69996 1.55711 269.86988 1.61111 270.1425 1.31184 270.31245 1.16782 270.48237 1.0238 270.75495 .55502 270.92488 .51903 271.0948 .48305 271.36744 .90828 271.53739 .90828 271.70729 .90828 271.97993 .59105 272.14988 .51903 272.3198 .44702 272.5924 .40721 272.76234 .38924 272.93229 .37128 273.20487 .42522 273.3748 .38924 273.5447 .35326 273.81736 .11177 273.98728 .12975 274.1572 .1477 274.4298 .37502 274.59977 .51903 274.76969 .66306 275.04228 .95178 275.2122 1.16782 275.38215 1.38387 275.65476 1.95015 275.82469 2.07616 275.9946 2.20216 276.26725 2.02216 276.4372 2.07616 276.6071 2.13016 276.87968 2.26743 277.04963 2.46545 277.21955 2.66347 277.49217 3.37752 277.6621 3.50352 277.83204 3.62955 278.10466 3.2658 278.2746 3.37378 278.44453 3.48178 278.7171 4.01208 278.88706 4.28212 279.05696 4.55215 279.3296 5.03215 279.49955 5.3202 279.66947 5.60825 280.112 6.35828 279.87916 5.96362"/>
<path transform="matrix(-.31096933,-.95042857,-.95042857,.31096933,18.247153,8.875954)" stroke-width=".31879" stroke-linecap="round" stroke-linejoin="round" fill="none" stroke="#000000" d="M-1.19551 1.59401C-1.09587 .99626 0 .09961 .29886 0 0-.09961-1.09587-.99626-1.19551-1.59401"/>
<path transform="matrix(.50817528,-.8612159,-.8612159,-.50817528,323.50535,39.71918)" stroke-width=".31879" stroke-linecap="round" stroke-linejoin="round" fill="none" stroke="#000000" d="M-1.19551 1.59401C-1.09587 .99626 0 .09961 .29886 0 0-.09961-1.09587-.99626-1.19551-1.59401"/>
</svg>
