<svg xmlns="http://www.w3.org/2000/svg" xmlns:xlink="http://www.w3.org/1999/xlink" xmlns:inkscape="http://www.inkscape.org/namespaces/inkscape" version="1.1" width="258" height="33" viewBox="0 0 258 33">
<defs>
<path id="font_1_64" d="M.27598573 .18710327V.24511719H.010986328V.18710327H.27598573Z"/>
<path id="font_1_106" d="M.45700074 .17037964C.45700074 .252594 .3939972 .33088685 .2899933 .35191346 .37199403 .37893678 .42999269 .4490509 .42999269 .52809146 .42999269 .6100464 .34199525 .6660156 .24598694 .6660156 .14498902 .6660156 .068984989 .60606387 .068984989 .53009036 .068984989 .49710084 .09098816 .47808839 .11999512 .47808839 .15098572 .47808839 .17098999 .50009158 .17098999 .5290985 .17098999 .57910159 .12399292 .57910159 .10899353 .57910159 .13999939 .62802127 .20599365 .64100649 .24198914 .64100649 .2829895 .64100649 .33799745 .6190338 .33799745 .5290985 .33799745 .51708987 .33599855 .45906068 .30999757 .4149933 .27999879 .36691285 .24598694 .36390687 .22099304 .36291505 .21299744 .36190797 .18899536 .35990907 .18199158 .35990907 .17399597 .35890199 .16699219 .35791017 .16699219 .3479004 .16699219 .33691407 .17399597 .33691407 .19099427 .33691407H.23498535C.31698609 .33691407 .35398866 .2686615 .35398866 .17037964 .35398866 .034469606 .2849884 .0055389406 .24099732 .0055389406 .19799805 .0055389406 .12298584 .022491456 .08799744 .08137512 .12298584 .07637024 .1539917 .09837341 .1539917 .1363678 .1539917 .17237854 .1269989 .19238281 .09799194 .19238281 .07398987 .19238281 .041992189 .17837525 .041992189 .1343689 .041992189 .043441774 .1349945-.022460938 .24398804-.022460938 .3659973-.022460938 .45700074 .06838989 .45700074 .17037964Z"/>
<path id="font_1_82" d="M.4189911 0V.0309906H.3869934C.29699708 .0309906 .2939911 .041992189 .2939911 .07902527V.64012148C.2939911 .6640167 .2939911 .6660156 .2709961 .6660156 .20899964 .60227969 .12098694 .60227969 .08898926 .60227969V.57128909C.10899353 .57128909 .16799927 .57128909 .21998596 .5972748V.07902527C.21998596 .042999269 .21699524 .0309906 .1269989 .0309906H.09498596V0C.12998963 .0029907227 .21699524 .0029907227 .25698854 .0029907227 .29699708 .0029907227 .38398744 .0029907227 .4189911 0Z"/>
<path id="font_1_107" d="M.44898988 .17396546H.42399598C.4189911 .14398194 .4119873 .099990848 .4019928 .084991458 .394989 .07699585 .32899476 .07699585 .30699159 .07699585H.1269989L.23298645 .17996216C.3889923 .31803895 .44898988 .37210084 .44898988 .47216798 .44898988 .5860901 .35899354 .6660156 .23699951 .6660156 .12399292 .6660156 .049987794 .57411196 .049987794 .48516847 .049987794 .4291687 .099990848 .4291687 .102996829 .4291687 .11999512 .4291687 .15499878 .44117738 .15499878 .48217774 .15499878 .5081787 .13699341 .5341797 .101989749 .5341797 .09399414 .5341797 .09199524 .5341797 .08898926 .5331726 .11199951 .59806826 .1659851 .63500979 .22399903 .63500979 .31498719 .63500979 .35798646 .5541382 .35798646 .47216798 .35798646 .39196778 .30799867 .31297303 .25299073 .25097657L.06098938 .036987306C.049987794 .025985718 .049987794 .023986817 .049987794 0H.42099L.44898988 .17396546Z"/>
<path id="font_2_1" d="M.6589966 .23046875C.6759949 .23046875 .69400027 .23046875 .69400027 .25045777 .69400027 .27046205 .6759949 .27046205 .6589966 .27046205H.117996219C.100997928 .27046205 .08299255 .27046205 .08299255 .25045777 .08299255 .23046875 .100997928 .23046875 .117996219 .23046875H.6589966Z"/>
<path id="font_3_1" d="M.40899659 .23046875H.6879883C.70199587 .23046875 .72099307 .23046875 .72099307 .25045777 .72099307 .27046205 .70199587 .27046205 .6879883 .27046205H.40899659V.5500183C.40899659 .56399539 .40899659 .5830078 .3889923 .5830078 .36898805 .5830078 .36898805 .56399539 .36898805 .5500183V.27046205H.08898926C.07499695 .27046205 .055999757 .27046205 .055999757 .25045777 .055999757 .23046875 .07499695 .23046875 .08898926 .23046875H.36898805V-.05000305C.36898805-.06401062 .36898805-.08300781 .3889923-.08300781 .40899659-.08300781 .40899659-.06401062 .40899659-.05000305V.23046875Z"/>
</defs>
<path transform="matrix(1.00008,0,0,-1.00006,142.84,18.17037)" stroke-width=".3985" stroke-linecap="butt" stroke-miterlimit="10" stroke-linejoin="miter" fill="none" stroke="#000000" d="M-141.73404 0H112.92896"/>
<path transform="matrix(1.00008,0,0,-1.00006,255.77799,18.17037)" stroke-width=".31879" stroke-linecap="round" stroke-linejoin="round" fill="none" stroke="#000000" d="M-1.19551 1.59401C-1.09587 .99626 0 .09961 .29886 0 0-.09961-1.09587-.99626-1.19551-1.59401"/>
<path transform="matrix(1.00008,0,0,-1.00006,142.84,18.17037)" stroke-width=".3985" stroke-linecap="butt" stroke-miterlimit="10" stroke-linejoin="miter" fill="none" stroke="#000000" d="M-85.04042 2.83484V-2.83484"/>
<use data-text="-" xlink:href="#font_1_64" transform="matrix(9.963397,0,0,-9.963197,53.642869,31.16115)"/>
<use data-text="3" xlink:href="#font_1_106" transform="matrix(9.963397,0,0,-9.963197,56.96068,31.16115)"/>
<path transform="matrix(1.00008,0,0,-1.00006,142.84,18.17037)" stroke-width=".3985" stroke-linecap="butt" stroke-miterlimit="10" stroke-linejoin="miter" fill="none" stroke="#000000" d="M-28.3468 2.83484V-2.83484"/>
<use data-text="-" xlink:href="#font_1_64" transform="matrix(9.963397,0,0,-9.963197,110.3414,31.16115)"/>
<use data-text="1" xlink:href="#font_1_82" transform="matrix(9.963397,0,0,-9.963197,113.65921,31.16115)"/>
<path transform="matrix(1.00008,0,0,-1.00006,142.84,18.17037)" stroke-width=".3985" stroke-linecap="butt" stroke-miterlimit="10" stroke-linejoin="miter" fill="none" stroke="#000000" d="M56.69362 2.83484V-2.83484"/>
<use data-text="2" xlink:href="#font_1_107" transform="matrix(9.963397,0,0,-9.963197,197.04734,31.16115)"/>
<path transform="matrix(1.00008,0,0,-1.00006,142.84,18.17037)" stroke-width=".3985" stroke-linecap="butt" stroke-miterlimit="10" stroke-linejoin="miter" fill="none" stroke="#000000" d="M-113.38724 7.08669"/>
<use data-text="&#x2212;" xlink:href="#font_2_1" transform="matrix(9.963397,0,0,-9.963197,25.568619,6.7326848)"/>
<path transform="matrix(1.00008,0,0,-1.00006,142.84,18.17037)" stroke-width=".3985" stroke-linecap="butt" stroke-miterlimit="10" stroke-linejoin="miter" fill="none" stroke="#000000" d="M-56.69362 7.08669"/>
<use data-text="+" xlink:href="#font_3_1" transform="matrix(9.963397,0,0,-9.963197,82.26715,6.7326848)"/>
<path transform="matrix(1.00008,0,0,-1.00006,142.84,18.17037)" stroke-width=".3985" stroke-linecap="butt" stroke-miterlimit="10" stroke-linejoin="miter" fill="none" stroke="#000000" d="M14.17339 7.08669"/>
<use data-text="+" xlink:href="#font_3_1" transform="matrix(9.963397,0,0,-9.963197,153.13982,6.7326848)"/>
<path transform="matrix(1.00008,0,0,-1.00006,142.84,18.17037)" stroke-width=".3985" stroke-linecap="butt" stroke-miterlimit="10" stroke-linejoin="miter" fill="none" stroke="#000000" d="M85.04042 7.08669"/>
<use data-text="&#x2212;" xlink:href="#font_2_1" transform="matrix(9.963397,0,0,-9.963197,224.01248,6.7326848)"/>
</svg>
