<svg xmlns="http://www.w3.org/2000/svg" xmlns:xlink="http://www.w3.org/1999/xlink" xmlns:inkscape="http://www.inkscape.org/namespaces/inkscape" version="1.1" width="351" height="226" viewBox="0 0 351 226">
<defs>
<path id="font_1_2" d="M.33399964 .30233766C.33999635 .32835389 .36299134 .42037965 .43299867 .42037965 .43798829 .42037965 .46199037 .42037965 .48298646 .40734864 .45498658 .402359 .43499757 .37734986 .43499757 .35334779 .43499757 .33735658 .44599916 .31835938 .47299195 .31835938 .49499513 .31835938 .5269928 .3363495 .5269928 .37635804 .5269928 .42837525 .46798707 .4423828 .43399049 .4423828 .37599183 .4423828 .34098817 .38935853 .32899476 .36634828 .3039856 .43237306 .25 .4423828 .22099304 .4423828 .116989139 .4423828 .05999756 .3133545 .05999756 .28834535 .05999756 .27833558 .069992069 .27833558 .07199097 .27833558 .07998657 .27833558 .08299255 .28033448 .084991458 .28933717 .11898804 .39535523 .18499756 .42037965 .21899414 .42037965 .23799134 .42037965 .272995 .4113617 .272995 .35334779 .272995 .32235719 .2559967 .25532533 .21899414 .11528015 .20298767 .053268434 .16799927 .011245728 .12399292 .011245728 .117996219 .011245728 .09498596 .011245728 .07398987 .024276734 .09899902 .029266358 .12098694 .05027771 .12098694 .07827759 .12098694 .105270389 .09899902 .11328125 .083999637 .11328125 .053985597 .11328125 .0289917 .08728027 .0289917 .055267335 .0289917 .009246826 .07899475-.0107421879 .12298584-.0107421879 .18899536-.0107421879 .22499085 .059280397 .22799683 .0652771 .23999024 .028274537 .27598573-.0107421879 .33599855-.0107421879 .43899537-.0107421879 .49598695 .118270877 .49598695 .14328003 .49598695 .1532898 .4869995 .1532898 .48399354 .1532898 .47499085 .1532898 .47299195 .14929199 .47099305 .14228821 .43798829 .03527832 .36999513 .011245728 .33799745 .011245728 .29899598 .011245728 .2829895 .043273927 .2829895 .07727051 .2829895 .09927368 .2889862 .121276859 .2999878 .16529846L.33399964 .30233766Z"/>
<path id="font_2_1" d="M.31098939 .36265565H.42999269C.4149933 .30274964 .3929901 .2118988 .3929901 .13302613 .3929901 .09309387 .397995 .06613159 .4039917 .044174196 .41999818-.0057678224 .43299867-.009765625 .44898988-.009765625 .47200013-.009765625 .49598695 .011230469 .49598695 .035186769 .49598695 .043182374 .49398805 .047164918 .48799134 .057159425 .46899415 .09408569 .45098878 .15100098 .45098878 .23286438 .45098878 .25183106 .45098878 .29177857 .46499635 .36265565H.58999636C.60798647 .36265565 .6159973 .36265565 .6269989 .37065126 .6409912 .380661 .6439972 .39665223 .6439972 .4016571 .6439972 .43066407 .6179962 .43066407 .6009979 .43066407H.22399903C.18299866 .43066407 .15499878 .42166139 .10998535 .37965394 .083999637 .35665895 .04499817 .30274964 .04499817 .2937622 .04499817 .28178407 .057998659 .28178407 .06199646 .28178407 .07299805 .28178407 .07398987 .28378297 .07998657 .2927704 .1309967 .36265565 .19299317 .36265565 .21499634 .36265565H.27598573C.24499512 .25283814 .19099427 .13502503 .16099549 .07511902 .15499878 .062149049 .14498902 .04118347 .14199829 .03718567 .14099121 .033187868 .13899231 .029190064 .13899231 .022201539 .13899231 .006225586 .15098572-.009765625 .17399597-.009765625 .21398926-.009765625 .22499085 .035186769 .24899292 .12504578L.31098939 .36265565Z"/>
<path id="font_3_3" d="M.5289917 .1640625V.20005799H.41799928V.64582827C.41799928 .66682437 .41799928 .6738281 .3959961 .6738281 .38398744 .6738281 .37998963 .6738281 .36999513 .65982058L.038986207 .20005799V.1640625H.33299256V.08201599C.33299256 .04800415 .33299256 .035995485 .2519989 .035995485H.22499085V0C.2749939 .0019989014 .33898927 .0039978029 .375 .0039978029 .4119873 .0039978029 .47599793 .0019989014 .526001 0V.035995485H.49899293C.41799928 .035995485 .41799928 .04800415 .41799928 .08201599V.1640625H.5289917M.33999635 .5658722V.20005799H.07598877L.33999635 .5658722Z"/>
<path id="font_3_1" d="M.5049896 .18203736H.47099305C.46798707 .16001892 .45799256 .100997928 .44499208 .09098816 .43699647 .084991458 .3600006 .084991458 .34599305 .084991458H.1619873C.2669983 .17803955 .3019867 .20603943 .3619995 .25306703 .43598939 .312088 .5049896 .374115 .5049896 .46914674 .5049896 .5900879 .39898683 .6640625 .2709961 .6640625 .14698792 .6640625 .06298828 .57710269 .06298828 .4851532 .06298828 .43414308 .10598755 .42915345 .115997318 .42915345 .13999939 .42915345 .16899109 .44615174 .16899109 .48214723 .16899109 .5001526 .1619873 .53515627 .10998535 .53515627 .14099121 .6060791 .20899964 .62805178 .2559967 .62805178 .35598756 .62805178 .4079895 .5501404 .4079895 .46914674 .4079895 .38212586 .34599305 .3130951 .31399537 .27708436L.07299805 .038986207C.06298828 .02999878 .06298828 .027999878 .06298828 0H.47499085L.5049896 .18203736Z"/>
<path id="font_3_2" d="M.272995 .33428956C.35099793 .33428956 .40699769 .2803192 .40699769 .1733551 .40699769 .04940796 .33499146 .012466431 .2769928 .012466431 .23699951 .012466431 .14898682 .0234375 .10699463 .082351688 .1539917 .084350589 .16499329 .11735535 .16499329 .13835144 .16499329 .17034912 .14099121 .19335938 .10998535 .19335938 .08198547 .19335938 .053985597 .17634583 .053985597 .13534546 .053985597 .041412355 .1579895-.01953125 .2789917-.01953125 .41799928-.01953125 .5139923 .07336426 .5139923 .1733551 .5139923 .2513275 .44999696 .32929994 .33999635 .35229493 .44499208 .39024354 .48298646 .4650879 .48298646 .5260773 .48298646 .60505679 .3919983 .6640625 .2809906 .6640625 .16999817 .6640625 .084991458 .61006167 .084991458 .5300751 .084991458 .49606324 .10699463 .47706605 .13699341 .47706605 .16799927 .47706605 .18798828 .5000763 .18798828 .5280762 .18798828 .5570679 .16799927 .57806399 .13699341 .5800781 .17199707 .62405398 .24099732 .63505557 .27799989 .63505557 .32299806 .63505557 .38598634 .6130676 .38598634 .5260773 .38598634 .48406983 .37199403 .43814088 .34599305 .4072113 .31298829 .36927796 .2849884 .3672943 .23498535 .36428834 .20999146 .3623047 .20799256 .3623047 .20298767 .3612976 .20098877 .3612976 .19299317 .3592987 .19299317 .34829713 .19299317 .33428956 .20199585 .33428956 .21899414 .33428956H.272995Z"/>
<path id="font_1_1" d="M.2649994 .37265016H.37799073C.34498597 .22489929 .33599855 .18196106 .33599855 .11508179 .33599855 .100097659 .33599855 .073150638 .34399415 .03919983 .35398866-.0047454836 .36499024-.0107421879 .37998963-.0107421879 .3999939-.0107421879 .42099 .007247925 .42099 .02722168 .42099 .033218385 .42099 .035202028 .4149933 .049179079 .38598634 .12106323 .38598634 .18595886 .38598634 .21391297 .38598634 .26683045 .3929901 .32073976 .4039917 .37265016H.5179901C.5309906 .37265016 .5669861 .37265016 .5669861 .406662 .5669861 .43066407 .54599 .43066407 .5269928 .43066407H.19198609C.16999817 .43066407 .13198853 .43066407 .08799744 .38365174 .052993776 .34469605 .026992798 .29878236 .026992798 .29379273 .026992798 .29278565 .026992798 .28379823 .038986207 .28379823 .04699707 .28379823 .04899597 .28779603 .054992677 .29577638 .10398865 .37265016 .1619873 .37265016 .18199158 .37265016H.23899842C.20698548 .25186158 .15299988 .13105774 .11099243 .04020691 .102996829 .025222779 .102996829 .023223877 .102996829 .016235352 .102996829-.002746582 .11898804-.0107421879 .13198853-.0107421879 .1619873-.0107421879 .16999817 .017242432 .18199158 .05418396 .19599915 .100097659 .19599915 .10209656 .20899964 .15202332L.2649994 .37265016Z"/>
<path id="font_1_3" d="M.48599244 .38136292C.48999024 .39537049 .48999024 .39736939 .48999024 .40437318 .48999024 .42237855 .47599793 .43138124 .46099855 .43138124 .45098878 .43138124 .43499757 .42536927 .42599488 .41036988 .42399598 .405365 .41600038 .37435914 .4119873 .35635377 .40499879 .33035279 .397995 .30334474 .3919983 .27633668L.34700013 .09628296C.34298707 .08126831 .2999878 .011245728 .23399353 .011245728 .18299866 .011245728 .17199707 .055267335 .17199707 .0922699 .17199707 .1382904 .18899536 .20030213 .22299195 .28833009 .23899842 .3293457 .24299622 .3403473 .24299622 .36035157 .24299622 .405365 .21099854 .4423828 .16099549 .4423828 .06599426 .4423828 .0289917 .29733277 .0289917 .28833009 .0289917 .27833558 .038986207 .27833558 .040985109 .27833558 .050994874 .27833558 .051986696 .28033448 .056991579 .29634095 .083999637 .3903656 .12399292 .42037965 .1579895 .42037965 .1659851 .42037965 .18299866 .42037965 .18299866 .3883667 .18299866 .36335755 .17298889 .3373413 .1659851 .31834413 .12599182 .21231079 .10798645 .1552887 .10798645 .10827637 .10798645 .019256592 .17098999-.0107421879 .22999573-.0107421879 .2689972-.0107421879 .30299378 .0062561037 .33099366 .03425598 .31799317-.017745972 .30599977-.06674194 .2659912-.11973572 .23999024-.15385437 .20199585-.18309021 .1559906-.18309021 .14199829-.18309021 .09700012-.18005371 .07998657-.14074707 .09599304-.14074707 .10899353-.14074707 .12298584-.1287384 .1329956-.11973572 .14299011-.10673523 .14299011-.08773804 .14299011-.056747438 .115997318-.052734376 .10598755-.052734376 .08299255-.052734376 .049987794-.068740848 .049987794-.11773682 .049987794-.16796875 .09399414-.20507813 .1559906-.20507813 .25898744-.20507813 .3619995-.11373901 .3899994-.00074768069L.48599244 .38136292Z"/>
<path id="font_4_64" d="M.27598573 .18710327V.24511719H.010986328V.18710327H.27598573Z"/>
<path id="font_4_82" d="M.4189911 0V.0309906H.3869934C.29699708 .0309906 .2939911 .041992189 .2939911 .07902527V.64012148C.2939911 .6640167 .2939911 .6660156 .2709961 .6660156 .20899964 .60227969 .12098694 .60227969 .08898926 .60227969V.57128909C.10899353 .57128909 .16799927 .57128909 .21998596 .5972748V.07902527C.21998596 .042999269 .21699524 .0309906 .1269989 .0309906H.09498596V0C.12998963 .0029907227 .21699524 .0029907227 .25698854 .0029907227 .29699708 .0029907227 .38398744 .0029907227 .4189911 0Z"/>
</defs>
<path transform="matrix(1.00003,0,0,-1.00003,43.617776,117.97015)" stroke-width=".3985" stroke-linecap="butt" stroke-miterlimit="10" stroke-linejoin="miter" fill="none" stroke="#000000" d="M-42.52019 0H297.1832"/>
<path transform="matrix(1.00003,0,0,-1.00003,340.8099,117.97015)" stroke-width=".31879" stroke-linecap="round" stroke-linejoin="round" fill="none" stroke="#000000" d="M-1.19551 1.59401C-1.09587 .99626 0 .09961 .29886 0 0-.09961-1.09587-.99626-1.19551-1.59401"/>
<use data-text="x" xlink:href="#font_1_2" transform="matrix(9.962899,0,0,-9.962899,344.7878,114.45005)"/>
<path transform="matrix(1.00003,0,0,-1.00003,43.617776,117.97015)" stroke-width=".3985" stroke-linecap="butt" stroke-miterlimit="10" stroke-linejoin="miter" fill="none" stroke="#000000" d="M66.757 8.50455V-8.50455"/>
<use data-text="&#x03c0;" xlink:href="#font_2_1" transform="matrix(6.9740097,0,0,-6.9740097,107.9217,132.99762)"/>
<path transform="matrix(1.00003,0,0,-1.00003,-18.893105,31.944573)" stroke-width=".3985" stroke-linecap="butt" stroke-miterlimit="10" stroke-linejoin="miter" fill="none" stroke="#000000" d="M126.811-102.482H131.72"/>
<use data-text="4" xlink:href="#font_3_3" transform="matrix(6.9740097,0,0,-6.9740097,108.39072,140.35584)"/>
<path transform="matrix(1.00003,0,0,-1.00003,43.617776,117.97015)" stroke-width=".3985" stroke-linecap="butt" stroke-miterlimit="10" stroke-linejoin="miter" fill="none" stroke="#000000" d="M133.51406 8.50455V-8.50455"/>
<use data-text="&#x03c0;" xlink:href="#font_2_1" transform="matrix(6.9740097,0,0,-6.9740097,174.68071,132.99762)"/>
<path transform="matrix(1.00003,0,0,-1.00003,47.865907,31.944573)" stroke-width=".3985" stroke-linecap="butt" stroke-miterlimit="10" stroke-linejoin="miter" fill="none" stroke="#000000" d="M126.811-102.482H131.72"/>
<use data-text="2" xlink:href="#font_3_1" transform="matrix(6.9740097,0,0,-6.9740097,175.14972,140.35584)"/>
<path transform="matrix(1.00003,0,0,-1.00003,43.617776,117.97015)" stroke-width=".3985" stroke-linecap="butt" stroke-miterlimit="10" stroke-linejoin="miter" fill="none" stroke="#000000" d="M200.35544 8.50455V-8.50455"/>
<use data-text="3" xlink:href="#font_3_2" transform="matrix(6.9740097,0,0,-6.9740097,239.53865,134.48865)"/>
<use data-text="&#x03c0;" xlink:href="#font_2_1" transform="matrix(6.9740097,0,0,-6.9740097,243.50977,134.48865)"/>
<path transform="matrix(1.00003,0,0,-1.00003,112.72385,33.435617)" stroke-width=".3985" stroke-linecap="butt" stroke-miterlimit="10" stroke-linejoin="miter" fill="none" stroke="#000000" d="M126.811-102.482H135.691"/>
<use data-text="4" xlink:href="#font_3_3" transform="matrix(6.9740097,0,0,-6.9740097,241.99373,141.84687)"/>
<path transform="matrix(1.00003,0,0,-1.00003,43.617776,117.97015)" stroke-width=".3985" stroke-linecap="butt" stroke-miterlimit="10" stroke-linejoin="miter" fill="none" stroke="#000000" d="M267.19688 8.50455V-8.50455"/>
<use data-text="&#x03c0;" xlink:href="#font_1_1" transform="matrix(9.962899,0,0,-9.962899,307.8047,134.28464)"/>
<path transform="matrix(1.00003,0,0,-1.00003,43.617776,117.97015)" stroke-width=".3985" stroke-linecap="butt" stroke-miterlimit="10" stroke-linejoin="miter" fill="none" stroke="#000000" d="M0-106.30049V105.84221"/>
<path transform="matrix(0,-1.00003,-1.00003,-0,43.617776,12.1247639)" stroke-width=".31879" stroke-linecap="round" stroke-linejoin="round" fill="none" stroke="#000000" d="M-1.19551 1.59401C-1.09587 .99626 0 .09961 .29886 0 0-.09961-1.09587-.99626-1.19551-1.59401"/>
<use data-text="y" xlink:href="#font_1_3" transform="matrix(9.962899,0,0,-9.962899,47.13788,6.209793)"/>
<path transform="matrix(1.00003,0,0,-1.00003,43.617776,117.97015)" stroke-width=".3985" stroke-linecap="butt" stroke-miterlimit="10" stroke-linejoin="miter" fill="none" stroke="#000000" d="M8.50455-85.04042H-8.50455"/>
<use data-text="-" xlink:href="#font_4_64" transform="matrix(9.962899,0,0,-9.962899,23.294167,206.33081)"/>
<use data-text="1" xlink:href="#font_4_82" transform="matrix(9.962899,0,0,-9.962899,26.611817,206.33081)"/>
<path transform="matrix(1.00003,0,0,-1.00003,43.617776,117.97015)" stroke-width=".3985" stroke-linecap="butt" stroke-miterlimit="10" stroke-linejoin="miter" fill="none" stroke="#000000" d="M8.50455 85.04042H-8.50455"/>
<use data-text="1" xlink:href="#font_4_82" transform="matrix(9.962899,0,0,-9.962899,26.61126,36.244699)"/>
<path transform="matrix(1.00003,0,0,-1.00003,43.617776,117.97015)" stroke-width=".3985" stroke-linecap="butt" stroke-miterlimit="10" stroke-linejoin="miter" fill="none" stroke="#000000" d="M-8.18024-8.1639 3.54243 3.53989 15.58951 15.50127 27.63655 27.15126 39.6836 38.25754 51.73067 48.59691 63.77771 57.9644 75.82474 66.1666 87.87178 73.04657 99.91885 78.46022 111.9659 82.30502 124.01292 84.49931 136.05997 85.00015 148.10704 83.7999 160.15409 80.92047 172.20111 76.41904 184.2482 70.38646 196.29523 62.94202 208.34227 54.23895 220.38932 44.44713 232.43639 33.7665 244.48343 22.40846 256.53047 10.60278 268.5775-1.41437 280.29978-13.08105"/>
<path transform="matrix(-.7076813,.7065312,.7065312,.7076813,35.43729,126.1343)" stroke-width=".31879" stroke-linecap="round" stroke-linejoin="round" fill="none" stroke="#000000" d="M-1.19551 1.59401C-1.09587 .99626 0 .09961 .29886 0 0-.09961-1.09587-.99626-1.19551-1.59401"/>
<path transform="matrix(.70879128,.7054212,.7054212,-.70879128,323.92597,131.05159)" stroke-width=".31879" stroke-linecap="round" stroke-linejoin="round" fill="none" stroke="#000000" d="M-1.19551 1.59401C-1.09587 .99626 0 .09961 .29886 0 0-.09961-1.09587-.99626-1.19551-1.59401"/>
<path transform="matrix(1.00003,0,0,-1.00003,43.617776,117.97015)" stroke-width=".3985" stroke-linecap="butt" stroke-dasharray="2.98883,2.98883" stroke-miterlimit="10" stroke-linejoin="miter" fill="none" stroke="#000000" d="M-25.17622-24.44566C-25.06981-24.34709-25.06981-24.34709-24.89987-24.19011-24.72995-24.03313-24.45737-23.78336-24.28743-23.62564-24.11751-23.46794-23.84488-23.21109-23.67494-23.05338-23.50502-22.89568-23.23239-22.64662-23.06245-22.48892-22.89253-22.3312-22.6199-22.07614-22.44997-21.91666-22.28004-21.75717-22.00746-21.49872-21.83752-21.33923-21.6676-21.17975-21.39497-20.92645-21.22504-20.76697-21.05511-20.60748-20.78249-20.35014-20.61255-20.18956-20.44263-20.02898-20.17004-19.77098-20.0001-19.6095-19.83018-19.448-19.55756-19.18727-19.38762-19.0256-19.2177-18.86392-18.94507-18.60631-18.77513-18.44426-18.60521-18.28223-18.33263-18.02045-18.16269-17.85773-17.99277-17.695-17.72014-17.43378-17.5502-17.27124-17.38028-17.10869-17.10765-16.84924-16.93771-16.68597-16.76779-16.5227-16.49516-16.25792-16.32523-16.09428-16.1553-15.93065-15.88272-15.6701-15.71278-15.50647-15.54286-15.34283-15.27023-15.07964-15.1003-14.91473-14.93037-14.74982-14.65775-14.48306-14.48781-14.31784-14.31789-14.1526-14.0453-13.88846-13.87537-13.72354-13.70544-13.55864-13.43282-13.29485-13.26288-13.12921-13.09296-12.96358-12.82033-12.69531-12.65039-12.52972-12.48047-12.36412-12.20789-12.1014-12.03795-11.93542-11.86803-11.76947-11.5954-11.50003-11.42546-11.33334-11.25554-11.16666-10.98291-10.90073-10.81297-10.73386-10.64305-10.56699-10.37047-10.29767-10.20053-10.13043-10.03061-9.9632-9.75798-9.69559-9.58804-9.52835-9.41812-9.36111-9.1455-9.09236-8.97556-8.92494-8.80563-8.75752-8.533-8.48935-8.36307-8.32156-8.19315-8.1538-7.92056-7.88376-7.75063-7.7156-7.5807-7.54745-7.30807-7.27756-7.13814-7.10959-6.96822-6.94162-6.69559-6.67323-6.52565-6.5049-6.35573-6.33658-6.08315-6.06503-5.91321-5.89633-5.74329-5.72765-5.47066-5.45807-5.30072-5.28905-5.1308-5.12004-4.85817-4.84708-4.68823-4.67789-4.51831-4.50868-4.24573-4.23846-4.07579-4.06927-3.90587-3.90007-3.63324-3.62767-3.4633-3.45811-3.29338-3.28854-3.02075-3.01614-2.85081-2.84694-2.6809-2.67775-2.40826-2.40771-2.23833-2.23833-2.0684-2.06895-1.79582-1.796-1.62589-1.62589-1.45596-1.45578-1.18333-1.18205-1.0134-1.01213-.84348-.8422-.57085-.57066-.40091-.40091-.23099-.23117 .04153 .04172 .21147 .21147 .3814 .38121 .65402 .65312 .82396 .82268 .99388 .99223 1.26651 1.26392 1.43645 1.43384 1.60637 1.60378 1.87895 1.87732 2.04889 2.0476 2.21881 2.2179 2.49144 2.49126 2.66138 2.66138 2.8313 2.83148 3.10393 3.10393 3.27386 3.27386 3.44379 3.44379 3.71637 3.71619 3.8863 3.8863 4.05623 4.05641 4.32886 4.32964 4.4988 4.5001 4.66872 4.6706 4.94135 4.94522 5.11128 5.11516 5.2812 5.28508 5.55383 5.55548 5.72377 5.72504 5.89369 5.8946 6.16628 6.16724 6.33621 6.33752 6.50613 6.50783 6.77876 6.78209 6.9487 6.95258 7.11862 7.12305 7.39125 7.39659 7.56119 7.56633 7.73111 7.73608 8.0037 8.00685 8.17363 8.17622 8.34355 8.34561 8.61618 8.61746 8.78612 8.78738 8.95604 8.95732 9.22867 9.2311 9.3986 9.4012 9.56853 9.5713 9.84111 9.84372 10.01105 10.01364 10.18097 10.18356 10.4536 10.45676 10.62354 10.62613 10.79346 10.79552 11.06609 11.06581 11.23602 11.2347 11.40594 11.40358 11.67857 11.67429 11.84851 11.8433 12.01843 12.01233 12.29102 12.28395 12.46095 12.45316 12.63087 12.62234 12.9035 12.89435 13.07344 13.06303 13.24336 13.23174 13.51599 13.50017 13.68593 13.66905 13.85585 13.83792 14.12843 14.11137 14.29837 14.28021 14.46829 14.44905 14.74092 14.71822 14.91086 14.88618 15.08078 15.05415 15.35341 15.32236 15.52335 15.49088 15.69327 15.65938 15.96585 15.9326 16.13579 16.10075 16.30571 16.2689 16.57834 16.53525 16.74828 16.70285 16.9182 16.87045 17.19083 17.14125 17.36076 17.30885 17.53069 17.47646 17.80327 17.7439 17.9732 17.91095 18.14313 18.078 18.41576 18.34634 18.5857 18.51303 18.75562 18.67973 19.02824 18.94583 19.19818 19.11253 19.3681 19.27922 19.64073 19.54774 19.81067 19.71461 19.98059 19.88148 20.25317 20.14911 20.42311 20.31543 20.59303 20.48175 20.86566 20.74782 21.0356 20.9136 21.20552 21.07938 21.47815 21.3449 21.64809 21.51053 21.81801 21.67618 22.09059 21.94183 22.26053 22.10742 22.43045 22.27303 22.70308 22.53958 22.87302 22.70432 23.04294 22.86905 23.31557 23.13055 23.4855 23.29472 23.65543 23.45891 23.92801 23.72319 24.09795 23.88774 24.26787 24.05229 24.5405 24.31694 24.71043 24.48076 24.88036 24.64458 25.15298 24.90549 25.32292 25.06857 25.49284 25.23166 25.76543 25.49294 25.93536 25.65639 26.10529 25.81984 26.37791 26.08371 26.54785 26.2468 26.71777 26.40988 26.9904 26.66966 27.16034 26.83202 27.33026 26.99437 27.60289 27.25523 27.77283 27.41728 27.94275 27.57932 28.21533 27.83841 28.38527 27.9999 28.55519 28.16138 28.82782 28.4201 28.99776 28.58124 29.16768 28.74236 29.4403 29.00049 29.61024 29.16125 29.78017 29.322 30.05275 29.57977 30.22269 29.73999 30.39261 29.9002 30.66524 30.15628 30.83517 30.31613 31.0051 30.47598 31.27773 30.73279 31.44766 30.89227 31.61758 31.05176 31.89017 31.30687 32.0601 31.4658 32.23003 31.62474 32.50266 31.87968 32.67259 32.03807 32.84251 32.19646 33.11514 32.4493 33.28508 32.60768 33.455 32.76608 33.72763 33.02225 33.89757 33.17995 34.06749 33.33766 34.34007 33.58798 34.51001 33.74442 34.67993 33.90085 34.95256 34.15117 35.1225 34.3076 35.29242 34.46404 35.56505 34.71619 35.73499 34.87207 35.9049 35.02795 36.17749 35.276 36.34743 35.43134 36.51735 35.58667 36.78998 35.83691 36.95992 35.99188 37.12984 36.14685 37.40247 36.39389 37.5724 36.54854 37.74232 36.70319 38.01491 36.9526 38.18484 37.10654 38.35477 37.26045 38.6274 37.50467 38.79733 37.65805 38.96725 37.81142 39.23988 38.05928 39.40982 38.21211 39.57974 38.36493 39.85233 38.60742 40.02226 38.7597 40.19218 38.91197 40.46481 39.15797 40.63475 39.30989 40.80467 39.4618 41.0773 39.70403 41.24724 39.85489 41.41716 40.00575 41.68979 40.24713 41.85973 40.39728 42.02965 40.54741 42.30223 40.7877 42.47217 40.93712 42.64209 41.08652 42.91472 41.32507 43.08466 41.4743 43.25458 41.62352 43.5272 41.86414 43.69714 42.01282 43.86707 42.1615 44.13965 42.39833 44.30959 42.54613 44.4795 42.69394 44.75214 42.93073 44.92207 43.07817 45.092 43.22562 45.36462 43.46217 45.53456 43.60889 45.70448 43.7556 45.97707 43.98993 46.147 44.13573 46.31693 44.28152 46.58955 44.51471 46.75949 44.65997 46.92941 44.80522 47.20204 45.03813 47.37198 45.18289 47.5419 45.32764 47.81453 45.5594 47.98447 45.70325 48.15439 45.84709 48.42697 46.07658 48.59691 46.2197 48.76683 46.36281 49.03946 46.59212 49.2094 46.73486 49.37932 46.87761 49.65195 47.10669 49.82188 47.2487 49.9918 47.39072 50.26439 47.61751 50.43433 47.75867 50.60425 47.89981 50.87688 48.12543 51.04681 48.26604 51.21674 48.40663 51.48936 48.6322 51.6593 48.77208 51.82922 48.91194 52.1018 49.13533 52.27174 49.27429 52.44167 49.41325 52.7143 49.63562 52.88423 49.77385 53.05415 49.91208 53.32678 50.13313 53.49672 50.27083 53.66664 50.40851 53.93922 50.6297 54.10916 50.76651 54.27908 50.90334 54.55171 51.12128 54.72165 51.257 54.89157 51.39273 55.1642 51.60977 55.33414 51.74495 55.50406 51.88011 55.77669 52.09688 55.94662 52.2315 56.11655 52.36613 56.38913 52.58159 56.55907 52.71553 56.72899 52.84947 57.00162 53.06409 57.17155 53.19695 57.34148 53.32979 57.6141 53.54105 57.78404 53.67316 57.95396 53.80528 58.22655 54.0178 58.39648 54.14938 58.5664 54.28094 58.83904 54.49101 59.00897 54.62172 59.1789 54.75243 59.45152 54.96185 59.62144 55.09146 59.79138 55.22107 60.06396 55.4273 60.2339 55.556 60.40382 55.68471 60.67645 55.89111 60.84637 56.01927 61.01631 56.14742 61.28894 56.35283 61.45886 56.47993 61.6288 56.60704 61.90138 56.80902 62.0713 56.9354 62.24124 57.06177 62.51387 57.265 62.68379 57.39082 62.85373 57.51665 63.12636 57.71768 63.29628 57.8424 63.46622 57.96715 63.73885 58.16626 63.90877 58.29008 64.0787 58.4139 64.35129 58.61201 64.52121 58.73515 64.69115 58.85828 64.96378 59.05562 65.1337 59.17766 65.30363 59.2997 65.57626 59.4938 65.74619 59.61493 65.91612 59.73605 66.1887 59.93053 66.35863 60.05096 66.52856 60.17142 66.8012 60.36351 66.97112 60.48303 67.14105 60.60257 67.41368 60.79375 67.5836 60.91255 67.75354 61.03136 68.02612 61.22159 68.19604 61.33948 68.36598 61.45737 68.63861 61.64604 68.80853 61.76251 68.97847 61.879 69.2511 62.06328 69.42102 62.17903 69.59096 62.29478 69.86359 62.48149 70.03351 62.59688 70.20345 62.71227 70.47603 62.89668 70.64595 63.01079 70.81589 63.1249 71.08852 63.3065 71.25844 63.41956 71.42838 63.53262 71.701 63.7134 71.87093 63.82573 72.04086 63.93805 72.31345 64.1182 72.48337 64.22925 72.6533 64.3403 72.92593 64.51634 73.09586 64.62634 73.2658 64.73634 73.53842 64.91248 73.70834 65.02211 73.87828 65.13174 74.15086 65.30788 74.32079 65.4166 74.49072 65.52533 74.76335 65.69821 74.93327 65.80585 75.10321 65.91348 75.37584 66.08595 75.54576 66.19254 75.7157 66.29912 75.98828 66.4686 76.1582 66.57408 76.32814 66.67957 76.60077 66.8484 76.77069 66.95297 76.94063 67.05754 77.21326 67.22432 77.38318 67.32799 77.55312 67.43166 77.82574 67.59756 77.99567 67.70036 78.1656 67.80316 78.43819 67.96721 78.60811 68.06891 78.77805 68.17061 79.05067 68.3331 79.2206 68.43352 79.39053 68.53395 79.66316 68.69344 79.83308 68.79298 80.00302 68.89255 80.2756 69.05212 80.44553 69.15114 80.61546 69.25014 80.88809 69.40894 81.05801 69.50667 81.22795 69.60442 81.50058 69.75906 81.6705 69.8557 81.84044 69.95233 82.11302 70.10771 82.28294 70.20349 82.45288 70.29926 82.72551 70.45135 82.89543 70.54604 83.06537 70.64072 83.338 70.79245 83.50792 70.88603 83.67786 70.97961 83.95049 71.12846 84.1204 71.22083 84.29034 71.31317 84.56293 71.45988 84.73285 71.5517 84.90279 71.6435 85.17542 71.79172 85.34534 71.88261 85.51527 71.9735 85.7879 72.11752 85.95782 72.207 86.12776 72.29648 86.40034 72.43932 86.57027 72.52753 86.7402 72.61572 87.01283 72.75574 87.18275 72.84283 87.35269 72.92995 87.62532 73.06918 87.79524 73.15556 87.96518 73.24194 88.23776 73.38054 88.40768 73.46568 88.57762 73.55083 88.85025 73.68509 89.02017 73.76933 89.19011 73.85356 89.46274 73.98965 89.63266 74.07297 89.8026 74.1563 90.07518 74.28822 90.2451 74.37013 90.41504 74.45204 90.68767 74.5822 90.85759 74.66339 91.02753 74.74457 91.30016 74.87527 91.47008 74.95535 91.64001 75.03543 91.91264 75.16212 92.08257 75.2408 92.2525 75.31947 92.52509 75.44484 92.695 75.52242 92.86494 75.59999 93.13757 75.72363 93.3075 75.80011 93.47743 75.87659 93.75006 75.99814 93.91998 76.07388 94.08992 76.14964 94.3625 76.27168 94.53242 76.34637 94.70236 76.42108 94.97499 76.53897 95.14491 76.6124 95.31485 76.68582 95.58748 76.80367 95.7574 76.87582 95.92734 76.94797 96.19992 77.06143 96.36984 77.13272 96.53978 77.204 96.81241 77.31966 96.98233 77.38966 97.15227 77.45967 97.4249 77.56894 97.59482 77.63753 97.76476 77.70612 98.03734 77.81602 98.20726 77.88408 98.3772 77.95212 98.64983 78.06088 98.81975 78.12802 98.98969 78.19516 99.26231 78.3025 99.43224 78.36804 99.60217 78.43358 99.8748 78.53629 100.04472 78.60036 100.21466 78.66444 100.48724 78.76651 100.65717 78.83003 100.8271 78.89357 101.09973 78.99594 101.26965 79.05838 101.43959 79.12082 101.71222 79.21928 101.88214 79.2803 102.05208 79.34132 102.32466 79.43855 102.49458 79.49829 102.66452 79.55804 102.93715 79.65227 103.10707 79.71109 103.27701 79.76993 103.54964 79.86484 103.71956 79.92262 103.8895 79.9804 104.16208 80.07129 104.332 80.12761 104.50194 80.18394 104.77457 80.2732 104.94449 80.32878 105.11443 80.38437 105.38705 80.47403 105.55698 80.52858 105.72691 80.58313 105.99954 80.66905 106.16946 80.72195 106.3394 80.77486 106.61198 80.85808 106.7819 80.91008 106.95184 80.96207 107.22447 81.04602 107.3944 81.09697 107.56433 81.1479 107.83696 81.22786 108.00688 81.27734 108.17682 81.32683 108.4494 81.40521 108.61932 81.4538 108.78926 81.50237 109.06189 81.58017 109.23181 81.62769 109.40175 81.6752 109.67438 81.75014 109.8443 81.79639 110.01424 81.84262 110.28682 81.916 110.45674 81.96115 110.62668 82.0063 110.8993 82.0785 111.06923 82.12206 111.23917 82.1656 111.5118 82.23274 111.68172 82.27519 111.85165 82.31766 112.12424 82.38657 112.29416 82.4283 112.4641 82.47003 112.73672 82.53592 112.90665 82.57625 113.07658 82.61656 113.34921 82.68013 113.51913 82.719 113.68907 82.75784 113.9617 82.81859 114.13162 82.85654 114.30156 82.89449 114.57414 82.95587 114.74406 82.99277 114.914 83.02966 115.18663 83.08707 115.35655 83.12251 115.52649 83.15794 115.79912 83.21385 115.96904 83.24838 116.13898 83.28291 116.41156 83.33836 116.58148 83.37166 116.75142 83.40495 117.02405 83.45644 117.19397 83.48845 117.3639 83.52046 117.63654 83.57169 117.80646 83.60265 117.9764 83.63362 118.24898 83.68196 118.4189 83.71165 118.58884 83.74133 118.86147 83.78836 119.03139 83.81677 119.20132 83.84518 119.47395 83.88947 119.64388 83.91664 119.81381 83.94383 120.08644 83.98642 120.25636 84.0127 120.4263 84.03896 120.69888 84.08115 120.8688 84.10614 121.03874 84.13113 121.31137 84.16948 121.4813 84.19307 121.65123 84.21664 121.92386 84.25363 122.09378 84.27611 122.26372 84.2986 122.5363 84.33403 122.70622 84.35524 122.87616 84.37645 123.14879 84.40906 123.31871 84.42921 123.48865 84.44937 123.76128 84.48152 123.9312 84.50058 124.10114 84.51965 124.37372 84.54897 124.54364 84.56676 124.71358 84.58455 124.9862 84.6125 125.15613 84.62906 125.32607 84.64561 125.5987 84.67088 125.76862 84.68616 125.93855 84.70143 126.21114 84.72533 126.38106 84.73933 126.551 84.75333 126.82362 84.77458 126.99355 84.78735 127.16348 84.80013 127.43611 84.81964 127.60603 84.8315 127.77597 84.84335 128.0486 84.86224 128.21852 84.873 128.38846 84.88376 128.66104 84.90018 128.83097 84.90935 129.0009 84.91852 129.27353 84.93129 129.44345 84.93918 129.61339 84.94707 129.88602 84.95943 130.05594 84.96645 130.22588 84.97346 130.49846 84.98405 130.66838 84.98979 130.83832 84.99554 131.11095 85.0033 131.28087 85.00795 131.4508 85.0126 131.72344 85.02031 131.89336 85.02354 132.0633 85.02678 132.33588 85.02916 132.5058 85.0313 132.67574 85.03345 132.94837 85.03787 133.11829 85.0391 133.28823 85.04033 133.56085 85.04056 133.73078 85.04042 133.90071 85.04028 134.1733 85.03923 134.34322 85.03783 134.51316 85.0364 134.78578 85.0329 134.9557 85.03003 135.12564 85.02715 135.39827 85.02113 135.56819 85.01703 135.73813 85.01292 136.01076 85.00517 136.18068 85.00015 136.35062 84.99513 136.6232 84.98683 136.79312 84.98073 136.96306 84.97461 137.23569 84.96358 137.40561 84.95605 137.57555 84.94853 137.84818 84.93503 138.0181 84.92622 138.18804 84.91742 138.46062 84.90219 138.63054 84.89247 138.80048 84.88277 139.0731 84.86726 139.24303 84.85612 139.41297 84.845 139.6856 84.82443 139.85552 84.81203 140.02545 84.79962 140.29804 84.77992 140.46796 84.7666 140.6379 84.75328 140.91053 84.7309 141.08045 84.71599 141.25038 84.70107 141.52301 84.6749 141.69293 84.65889 141.86287 84.64287 142.1355 84.61761 142.30542 84.60051 142.47536 84.5834 142.74794 84.55394 142.91786 84.53561 143.0878 84.51727 143.36043 84.48758 143.53035 84.46815 143.70029 84.44873 143.97292 84.41635 144.14284 84.39546 144.31278 84.37457 144.58536 84.33955 144.75528 84.31761 144.92522 84.29567 145.19785 84.26038 145.36777 84.23717 145.5377 84.21396 145.81034 84.17432 145.98026 84.15024 146.15019 84.12616 146.42278 84.08867 146.5927 84.06331 146.76264 84.03796 147.03527 83.99426 147.20519 83.96727 147.37512 83.94028 147.64775 83.89635 147.81768 83.86867 147.98761 83.84099 148.2602 83.79639 148.43012 83.76743 148.60005 83.73846 148.87268 83.68999 149.0426 83.65974 149.21254 83.62952 149.48517 83.5809 149.65509 83.54942 149.82503 83.51796 150.09766 83.46542 150.26758 83.43268 150.43752 83.39993 150.7101 83.34712 150.88002 83.31328 151.04996 83.27943 151.32259 83.22375 151.49251 83.18869 151.66245 83.15361 151.93508 83.09642 152.105 83.06026 152.27494 83.0241 152.54752 82.9653 152.71744 82.92786 152.88738 82.89043 153.16 82.829 153.32993 82.79031 153.49987 82.75165 153.77249 82.6883 153.94242 82.6489 154.11235 82.60948 154.38494 82.54701 154.55486 82.50615 154.7248 82.46529 154.99742 82.3966 155.16735 82.35432 155.33728 82.31204 155.60991 82.24442 155.77983 82.20122 155.94977 82.15804 156.2224 82.08702 156.39232 82.04292 156.56226 81.99883 156.83484 81.929 157.00476 81.8833 157.1747 81.8376 157.44733 81.7603 157.61725 81.71333 157.78719 81.66635 158.05982 81.59216 158.22974 81.54463 158.39968 81.49712 158.67226 81.41986 158.84218 81.37074 159.01212 81.32162 159.28475 81.24077 159.45467 81.19037 159.6246 81.13997 159.89723 81.0587 160.06716 81.0074 160.23709 80.95609 160.50968 80.8731 160.6796 80.82056 160.84954 80.768 161.12216 80.68231 161.29209 80.62851 161.46202 80.57469 161.73465 80.48749 161.90457 80.43259 162.07451 80.37767 162.34709 80.2887 162.51702 80.23274 162.68695 80.17677 162.95958 80.08571 163.1295 80.029 163.29944 79.97232 163.57207 79.8823 163.74199 79.82397 163.91193 79.76564 164.18456 79.66832 164.35448 79.60857 164.52442 79.54883 164.797 79.45364 164.96692 79.39317 165.13686 79.3327 165.40949 79.23415 165.5794 79.17258 165.74935 79.11101 166.02198 79.01218 166.1919 78.94939 166.36183 78.88658 166.63442 78.7836 166.80434 78.71971 166.97428 78.65582 167.2469 78.55376 167.41683 78.48877 167.58676 78.42378 167.85939 78.31752 168.02931 78.2513 168.19925 78.18507 168.47183 78.07854 168.64176 78.01123 168.81169 77.94391 169.08432 77.83437 169.25424 77.76596 169.42418 77.69754 169.69681 77.58759 169.86673 77.51813 170.03667 77.44867 170.30925 77.33585 170.47917 77.2651 170.64911 77.19438 170.92174 77.07982 171.09166 77.00816 171.2616 76.93652 171.53423 76.82132 171.70415 76.74863 171.87409 76.67593 172.14672 76.5579 172.31664 76.48393 172.48656 76.40996 172.75916 76.29056 172.92908 76.2153 173.09902 76.14006 173.37165 76.01747 173.54157 75.94154 173.71149 75.8656 173.98413 75.74457 174.15406 75.66772 174.32398 75.59087 174.59658 75.46614 174.7665 75.38747 174.93642 75.30879 175.20906 75.18024 175.37899 75.10065 175.5489 75.02107 175.82155 74.89433 175.99147 74.81389 176.16139 74.73343 176.43399 74.60219 176.60391 74.52065 176.77384 74.43909 177.04648 74.3087 177.2164 74.22607 177.38632 74.14343 177.65897 74.00871 177.82889 73.92502 177.99881 73.84134 178.27146 73.7073 178.44138 73.6227 178.6113 73.5381 178.8839 73.40125 179.05382 73.31519 179.22374 73.22913 179.49639 73.08934 179.6663 73.00241 179.83623 72.9155 180.10887 72.77608 180.2788 72.68842 180.44872 72.60077 180.72132 72.45924 180.89124 72.3705 181.06116 72.28175 181.3338 72.13869 181.50373 72.0487 181.67365 71.95872 181.94629 71.81297 182.11621 71.72171 182.28614 71.63045 182.55873 71.48296 182.72866 71.3908 182.89858 71.29863 183.17122 71.15036 183.34114 71.05733 183.51107 70.9643 183.7837 70.81406 183.95363 70.71992 184.12355 70.6258 184.39615 70.47353 184.56607 70.37866 184.736 70.2838 185.00864 70.1322 185.17856 70.03607 185.34848 69.93993 185.62113 69.78328 185.79105 69.68573 185.96097 69.58818 186.23361 69.43088 186.40354 69.33278 186.57346 69.23468 186.84606 69.07753 187.01598 68.97852 187.1859 68.8795 187.45854 68.71915 187.62847 68.6191 187.79839 68.51903 188.07103 68.35841 188.24095 68.25708 188.41088 68.15573 188.68347 67.99078 188.8534 67.88853 189.02332 67.78629 189.29596 67.62283 189.46588 67.52003 189.6358 67.41724 189.90845 67.25201 190.07837 67.14761 190.24829 67.04323 190.52089 66.87271 190.69081 66.7674 190.86074 66.6621 191.13338 66.49435 191.3033 66.3885 191.47322 66.28265 191.74587 66.11131 191.91579 66.00441 192.08571 65.8975 192.35836 65.72589 192.52828 65.61772 192.6982 65.50954 192.9708 65.33365 193.14072 65.22455 193.31064 65.11546 193.58329 64.94098 193.7532 64.83134 193.92313 64.7217 194.19577 64.54498 194.36569 64.4343 194.53562 64.32361 194.80821 64.1453 194.97814 64.03333 195.14806 63.92136 195.4207 63.73985 195.59062 63.62715 195.76055 63.51447 196.03319 63.33446 196.20311 63.22104 196.37303 63.10762 196.64563 62.92451 196.81555 62.80968 196.98548 62.69484 197.25812 62.5089 197.42804 62.39316 197.59796 62.2774 197.8706 62.09143 198.04053 61.97531 198.21045 61.85919 198.48305 61.6734 198.65297 61.5562 198.82289 61.43898 199.09554 61.249 199.26546 61.13055 199.43538 61.01212 199.70803 60.82135 199.87795 60.70236 200.04787 60.58337 200.32051 60.39275 200.49044 60.27284 200.66036 60.15294 200.93296 59.9589 201.10288 59.83812 201.2728 59.71736 201.54544 59.52399 201.71537 59.40213 201.88529 59.28027 202.15793 59.08226 202.32785 58.95967 202.49777 58.83708 202.77037 58.64178 202.94029 58.51848 203.11022 58.39516 203.38286 58.19536 203.55278 58.0708 203.7227 57.94626 203.99535 57.74564 204.16527 57.62054 204.33519 57.49544 204.60779 57.29495 204.77771 57.16895 204.94763 57.04294 205.22028 56.83894 205.3902 56.7122 205.56012 56.58546 205.83277 56.38321 206.00269 56.25542 206.1726 56.12762 206.4452 55.91957 206.61513 55.79088 206.78505 55.66217 207.0577 55.45654 207.22762 55.32765 207.39754 55.19878 207.67018 54.99176 207.8401 54.86179 208.01003 54.73181 208.28267 54.52216 208.45259 54.39078 208.62252 54.25938 208.89511 54.0465 209.06504 53.91455 209.23496 53.78261 209.5076 53.57191 209.67752 53.43962 209.84745 53.30731 210.12009 53.09438 210.29001 52.9608 210.45993 52.82721 210.73253 52.61108 210.90245 52.47678 211.07238 52.34247 211.34502 52.1274 211.51494 51.99277 211.68486 51.85814 211.9575 51.64151 212.12743 51.50615 212.29735 51.37079 212.56995 51.15361 212.73987 51.01698 212.90979 50.88034 213.18244 50.65866 213.35236 50.52129 213.52228 50.38393 213.79492 50.16443 213.96485 50.02687 214.13477 49.88933 214.40741 49.6685 214.57733 49.5299 214.74726 49.39131 215.01985 49.16743 215.18978 49.02774 215.3597 48.88805 215.63234 48.66316 215.80226 48.52293 215.97219 48.38269 216.24483 48.15767 216.41475 48.01689 216.58467 47.8761 216.85727 47.65002 217.02719 47.5082 217.19712 47.36636 217.46976 47.13655 217.63968 46.99435 217.8096 46.85216 218.08225 46.62567 218.25217 46.48311 218.42209 46.34055 218.69469 46.1101 218.86461 45.96663 219.03453 45.82315 219.30718 45.59343 219.4771 45.44891 219.64702 45.30438 219.91967 45.06992 220.08959 44.92467 220.2595 44.7794 220.5321 44.54695 220.70203 44.4017 220.87195 44.25645 221.14459 44.02368 221.31452 43.8775 221.48444 43.73134 221.75708 43.49551 221.927 43.34807 222.09693 43.20062 222.36957 42.96202 222.53949 42.81476 222.70941 42.6675 222.98201 42.43445 223.15193 42.28664 223.32186 42.13882 223.5945 41.8988 223.76442 41.7494 223.93434 41.59999 224.20699 41.35919 224.3769 41.20961 224.54683 41.06001 224.81943 40.82104 224.98935 40.6711 225.15927 40.52113 225.43192 40.27902 225.60184 40.12871 225.77176 39.97838 226.0444 39.73882 226.21433 39.58759 226.38425 39.43636 226.65685 39.19077 226.82677 39.03867 226.99669 38.88658 227.26934 38.64336 227.43926 38.49109 227.60918 38.3388 227.88182 38.0939 228.05175 37.94089 228.22167 37.78789 228.49431 37.54202 228.66423 37.3881 228.83415 37.23418 229.10675 36.98572 229.27667 36.83144 229.4466 36.67715 229.71924 36.43015 229.88916 36.27605 230.05908 36.12195 230.33173 35.87604 230.50165 35.7207 230.67157 35.56537 230.94417 35.31267 231.11409 35.15623 231.28401 34.99982 231.55666 34.7493 231.72658 34.59305 231.8965 34.43681 232.16915 34.18634 232.33907 34.0299 232.50899 33.87347 232.78159 33.62297 232.9515 33.46544 233.12143 33.30792 233.39408 33.05275 233.564 32.8945 233.73392 32.73625 234.00656 32.48291 234.17649 32.32484 234.3464 32.16676 234.619 31.91325 234.78893 31.75517 234.95885 31.5971 235.23149 31.34464 235.40142 31.18552 235.57134 31.0264 235.84398 30.76831 236.0139 30.6081 236.18383 30.44788 236.45647 30.19048 236.62639 30.03064 236.79631 29.87079 237.06891 29.61658 237.23883 29.45581 237.40876 29.29506 237.6814 29.03319 237.85132 28.87187 238.02124 28.71057 238.29389 28.4539 238.4638 28.29314 238.63373 28.13239 238.90633 27.87462 239.07625 27.71312 239.24617 27.55164 239.51882 27.29208 239.68874 27.12918 239.85866 26.96628 240.1313 26.70186 240.30123 26.53877 240.47115 26.37569 240.74375 26.1159 240.91367 25.95355 241.08359 25.7912 241.35623 25.53143 241.52616 25.36833 241.69608 25.20525 241.9687 24.94229 242.13864 24.77792 242.30857 24.61356 242.58116 24.34795 242.75109 24.1836 242.921 24.01923 243.19364 23.75717 243.36357 23.59317 243.5335 23.42917 243.80612 23.1664 243.97606 23.00148 244.14598 22.83658 244.41861 22.56987 244.58855 22.40459 244.75847 22.23932 245.03105 21.97552 245.20099 21.81026 245.37091 21.64497 245.64354 21.37878 245.81348 21.21336 245.9834 21.04796 246.25603 20.78426 246.42597 20.61775 246.59589 20.45125 246.86847 20.17975 247.0384 20.01306 247.20833 19.84637 247.48096 19.58214 247.6509 19.41617 247.82082 19.25021 248.09345 18.98318 248.26338 18.81668 248.4333 18.65018 248.70589 18.38329 248.87583 18.21587 249.04575 18.04845 249.31838 17.77751 249.48831 17.60991 249.65824 17.4423 249.93087 17.17523 250.1008 17.00781 250.27072 16.8404 250.54335 16.57164 250.71329 16.40312 250.88321 16.2346 251.15579 15.96175 251.32573 15.79324 251.49565 15.62473 251.76828 15.35616 251.93822 15.18855 252.10814 15.02095 252.38077 14.7531 252.5507 14.58513 252.72063 14.41718 252.99321 14.14705 253.16315 13.97784 253.33307 13.80865 253.6057 13.5346 253.77564 13.3654 253.94556 13.19621 254.21819 12.92682 254.38813 12.75812 254.55805 12.58942 254.83063 12.31844 255.00057 12.14955 255.17049 11.98067 255.44312 11.71014 255.61305 11.54094 255.78298 11.37173 256.0556 11.09952 256.22554 10.92978 256.39546 10.76003 256.66807 10.4863 256.83799 10.31729 257.0079 10.14827 257.28053 9.88107 257.45048 9.71132 257.6204 9.54158 257.893 9.26393 258.06297 9.09363 258.23289 8.92334 258.50553 8.65353 258.67546 8.4838 258.84538 8.31404 259.11796 8.03937 259.2879 7.86998 259.45783 7.7006 259.73045 7.43321 259.9004 7.26274 260.0703 7.09227 260.34294 6.81165 260.51286 6.64117 260.6828 6.4707 260.95539 6.20308 261.1253 6.03389 261.29524 5.86469 261.56788 5.5915 261.7378 5.4214 261.9077 5.25128 262.18034 4.97829 262.35029 4.80763 262.5202 4.63698 262.7928 4.36174 262.9627 4.19127 263.13264 4.0208 263.40528 3.7487 263.5752 3.57878 263.74513 3.40886 264.01777 3.13695 264.1877 2.9663 264.3576 2.79564 264.63026 2.51895 264.8002 2.34865 264.97013 2.17836 265.24269 1.90814 265.41264 1.73877 265.58256 1.56938 265.8552 1.29716 266.02513 1.1276 266.19505 .95804 266.46769 .68727 266.6376 .51643 266.80754 .3456 267.0801 .06685 267.25007-.10379 267.41999-.27444 267.6926-.54485 267.86253-.71368 268.03248-.8825 268.30509-1.1519 268.475-1.32092 268.64494-1.48994 268.91755-1.76129 269.08747-1.93213 269.2574-2.10297 269.53-2.38208 269.69996-2.55237 269.86988-2.72267 270.1425-2.99133 270.31245-3.15967 270.48237-3.32799 270.75495-3.59625 270.92488-3.76563 271.0948-3.93501 271.36744-4.21097 271.53739-4.38072 271.70729-4.55046 271.97993-4.8204 272.14988-4.98929 272.3198-5.15816 272.5924-5.42957 272.76234-5.5979 272.93229-5.76622 273.20487-6.03375 273.3748-6.20258 273.5447-6.37141 273.81736-6.64601 273.98728-6.81502 274.1572-6.98404 274.4298-7.25325 274.59977-7.42104 274.76969-7.58882 275.04228-7.85735 275.2122-8.0244 275.38215-8.19145 275.65476-8.45743 275.82469-8.62521 275.9946-8.793 276.26725-9.06544 276.4372-9.23378 276.6071-9.40211 276.87968-9.6716 277.04963-9.83847 277.21955-10.00534 277.49217-10.26926 277.6621-10.43668 277.83204-10.6041 278.10466-10.87782 278.2746-11.04524 278.44453-11.21266 278.7171-11.47781 278.88706-11.64346 279.05696-11.8091 279.3296-12.07379 279.49955-12.23907 279.66947-12.40436 280.112-12.83469 279.78346-12.51523"/>
<path transform="matrix(-.733542,.6796504,.6796504,.733542,18.440798,142.41655)" stroke-width=".31879" stroke-linecap="round" stroke-linejoin="round" fill="none" stroke="#000000" d="M-1.19551 1.59401C-1.09587 .99626 0 .09961 .29886 0 0-.09961-1.09587-.99626-1.19551-1.59401"/>
<path transform="matrix(.71694156,.6971209,.6971209,-.71694156,323.4096,130.48574)" stroke-width=".31879" stroke-linecap="round" stroke-linejoin="round" fill="none" stroke="#000000" d="M-1.19551 1.59401C-1.09587 .99626 0 .09961 .29886 0 0-.09961-1.09587-.99626-1.19551-1.59401"/>
</svg>
