<svg xmlns="http://www.w3.org/2000/svg" xmlns:xlink="http://www.w3.org/1999/xlink" xmlns:inkscape="http://www.inkscape.org/namespaces/inkscape" version="1.1" width="323" height="148" viewBox="0 0 323 148">
<defs>
<path id="font_1_1" d="M.33399964 .30233766C.33999635 .32835389 .36299134 .42037965 .43299867 .42037965 .43798829 .42037965 .46199037 .42037965 .48298646 .40734864 .45498658 .402359 .43499757 .37734986 .43499757 .35334779 .43499757 .33735658 .44599916 .31835938 .47299195 .31835938 .49499513 .31835938 .5269928 .3363495 .5269928 .37635804 .5269928 .42837525 .46798707 .4423828 .43399049 .4423828 .37599183 .4423828 .34098817 .38935853 .32899476 .36634828 .3039856 .43237306 .25 .4423828 .22099304 .4423828 .116989139 .4423828 .05999756 .3133545 .05999756 .28834535 .05999756 .27833558 .069992069 .27833558 .07199097 .27833558 .07998657 .27833558 .08299255 .28033448 .084991458 .28933717 .11898804 .39535523 .18499756 .42037965 .21899414 .42037965 .23799134 .42037965 .272995 .4113617 .272995 .35334779 .272995 .32235719 .2559967 .25532533 .21899414 .11528015 .20298767 .053268434 .16799927 .011245728 .12399292 .011245728 .117996219 .011245728 .09498596 .011245728 .07398987 .024276734 .09899902 .029266358 .12098694 .05027771 .12098694 .07827759 .12098694 .105270389 .09899902 .11328125 .083999637 .11328125 .053985597 .11328125 .0289917 .08728027 .0289917 .055267335 .0289917 .009246826 .07899475-.0107421879 .12298584-.0107421879 .18899536-.0107421879 .22499085 .059280397 .22799683 .0652771 .23999024 .028274537 .27598573-.0107421879 .33599855-.0107421879 .43899537-.0107421879 .49598695 .118270877 .49598695 .14328003 .49598695 .1532898 .4869995 .1532898 .48399354 .1532898 .47499085 .1532898 .47299195 .14929199 .47099305 .14228821 .43798829 .03527832 .36999513 .011245728 .33799745 .011245728 .29899598 .011245728 .2829895 .043273927 .2829895 .07727051 .2829895 .09927368 .2889862 .121276859 .2999878 .16529846L.33399964 .30233766Z"/>
<path id="font_2_82" d="M.4189911 0V.0309906H.3869934C.29699708 .0309906 .2939911 .041992189 .2939911 .07902527V.64012148C.2939911 .6640167 .2939911 .6660156 .2709961 .6660156 .20899964 .60227969 .12098694 .60227969 .08898926 .60227969V.57128909C.10899353 .57128909 .16799927 .57128909 .21998596 .5972748V.07902527C.21998596 .042999269 .21699524 .0309906 .1269989 .0309906H.09498596V0C.12998963 .0029907227 .21699524 .0029907227 .25698854 .0029907227 .29699708 .0029907227 .38398744 .0029907227 .4189911 0Z"/>
<path id="font_2_107" d="M.44898988 .17396546H.42399598C.4189911 .14398194 .4119873 .099990848 .4019928 .084991458 .394989 .07699585 .32899476 .07699585 .30699159 .07699585H.1269989L.23298645 .17996216C.3889923 .31803895 .44898988 .37210084 .44898988 .47216798 .44898988 .5860901 .35899354 .6660156 .23699951 .6660156 .12399292 .6660156 .049987794 .57411196 .049987794 .48516847 .049987794 .4291687 .099990848 .4291687 .102996829 .4291687 .11999512 .4291687 .15499878 .44117738 .15499878 .48217774 .15499878 .5081787 .13699341 .5341797 .101989749 .5341797 .09399414 .5341797 .09199524 .5341797 .08898926 .5331726 .11199951 .59806826 .1659851 .63500979 .22399903 .63500979 .31498719 .63500979 .35798646 .5541382 .35798646 .47216798 .35798646 .39196778 .30799867 .31297303 .25299073 .25097657L.06098938 .036987306C.049987794 .025985718 .049987794 .023986817 .049987794 0H.42099L.44898988 .17396546Z"/>
<path id="font_2_106" d="M.45700074 .17037964C.45700074 .252594 .3939972 .33088685 .2899933 .35191346 .37199403 .37893678 .42999269 .4490509 .42999269 .52809146 .42999269 .6100464 .34199525 .6660156 .24598694 .6660156 .14498902 .6660156 .068984989 .60606387 .068984989 .53009036 .068984989 .49710084 .09098816 .47808839 .11999512 .47808839 .15098572 .47808839 .17098999 .50009158 .17098999 .5290985 .17098999 .57910159 .12399292 .57910159 .10899353 .57910159 .13999939 .62802127 .20599365 .64100649 .24198914 .64100649 .2829895 .64100649 .33799745 .6190338 .33799745 .5290985 .33799745 .51708987 .33599855 .45906068 .30999757 .4149933 .27999879 .36691285 .24598694 .36390687 .22099304 .36291505 .21299744 .36190797 .18899536 .35990907 .18199158 .35990907 .17399597 .35890199 .16699219 .35791017 .16699219 .3479004 .16699219 .33691407 .17399597 .33691407 .19099427 .33691407H.23498535C.31698609 .33691407 .35398866 .2686615 .35398866 .17037964 .35398866 .034469606 .2849884 .0055389406 .24099732 .0055389406 .19799805 .0055389406 .12298584 .022491456 .08799744 .08137512 .12298584 .07637024 .1539917 .09837341 .1539917 .1363678 .1539917 .17237854 .1269989 .19238281 .09799194 .19238281 .07398987 .19238281 .041992189 .17837525 .041992189 .1343689 .041992189 .043441774 .1349945-.022460938 .24398804-.022460938 .3659973-.022460938 .45700074 .06838989 .45700074 .17037964Z"/>
<path id="font_2_57" d="M.47099305 .16503906V.19602967H.37098695V.6507721C.37098695 .6707611 .37098695 .6767578 .35499574 .6767578 .34599305 .6767578 .34298707 .6767578 .33499146 .6647644L.027999878 .19602967V.16503906H.2939911V.07800293C.2939911 .041992189 .2919922 .0309906 .21798706 .0309906H.19699097V0C.23799134 .0029907227 .2899933 .0029907227 .33198548 .0029907227 .37399293 .0029907227 .4269867 .0029907227 .46798707 0V.0309906H.44699098C.37298585 .0309906 .37098695 .041992189 .37098695 .07800293V.16503906H.47099305M.2999878 .19602967H.055999757L.2999878 .56881716V.19602967Z"/>
<path id="font_2_56" d="M.44898988 .20091248C.44898988 .31991578 .36698915 .41992188 .25898744 .41992188 .21099854 .41992188 .16799927 .4039154 .13198853 .36891175V.5641022C.1519928 .55778506 .18499756 .55078127 .21699524 .55078127 .33999635 .55078127 .4099884 .6418457 .4099884 .65493777 .4099884 .6609802 .40699769 .6660156 .3999939 .6660156 .3999939 .66607668 .39698792 .66607668 .3919983 .66308596 .37199403 .65408328 .32299806 .63378909 .2559967 .63378909 .21598816 .63409426 .16999817 .641098 .12298584 .6621094 .114990238 .6651001 .11099243 .6651001 .11099243 .6651001 .100997928 .66508486 .100997928 .657074 .100997928 .64108279V.3447113C.100997928 .3266449 .100997928 .31861878 .114990238 .31861878 .12199402 .31861878 .12399292 .32164 .12799073 .32765199 .13899231 .34371949 .17599488 .3979187 .25698854 .3979187 .30899049 .3979187 .33399964 .3517456 .34199525 .3336792 .35798646 .2965393 .3600006 .2574005 .3600006 .20721436 .3600006 .17218018 .3600006 .112197879 .33599855 .07032776 .31199647 .031448366 .2749939 .0055389406 .22898865 .0055389406 .1559906 .0055389406 .09899902 .05836487 .08198547 .1171875 .084991458 .11685181 .08799744 .115859989 .09899902 .115859989 .13198853 .115859989 .14898682 .14085388 .14898682 .16485596 .14898682 .18885803 .13198853 .21386719 .09899902 .21386719 .084991458 .21386719 .049987794 .2068634 .049987794 .16085816 .049987794 .07432556 .11898804-.022460938 .23098755-.022460938 .34700013-.022460938 .44898988 .07331848 .44898988 .20019531V.20091248Z"/>
<path id="font_2_101" d="M.45700074 .2036438C.45700074 .33070375 .36799623 .4267578 .25698854 .4267578 .18899536 .4267578 .1519928 .37573243 .13198853 .327713V.35173036C.13198853 .6047821 .2559967 .64100649 .30699159 .64100649 .33099366 .64100649 .37298585 .634964 .394989 .6007538 .37998963 .6007538 .33999635 .6007538 .33999635 .5557556 .33999635 .524765 .3639984 .5097656 .38598634 .5097656 .4019928 .5097656 .43199159 .51875308 .43199159 .5577545 .43199159 .6178589 .3880005 .6660156 .30499269 .6660156 .1769867 .6660156 .041992189 .5367584 .041992189 .31570436 .041992189 .048553468 .1579895-.022460938 .25099183-.022460938 .3619995-.022460938 .45700074 .07156372 .45700074 .2036438M.36698915 .20463562C.36698915 .15661621 .36698915 .10658264 .34999085 .0705719 .31999208 .010528564 .27398683 .0055389406 .25099183 .0055389406 .18798828 .0055389406 .1579895 .06556702 .1519928 .080566409 .13398743 .127594 .13398743 .2076416 .13398743 .22564698 .13398743 .30369569 .1659851 .40374757 .2559967 .40374757 .27198792 .40374757 .31799317 .40374757 .34899903 .34172059 .36698915 .30470277 .36698915 .2536621 .36698915 .20463562Z"/>
<path id="font_2_100" d="M.4850006 .6435547H.24198914C.11999512 .6435547 .117996219 .6566467 .11399841 .67578127H.08898926L.055999757 .46954347H.08099365C.083999637 .48554994 .09298706 .54855349 .10598755 .5605469 .11299133 .5665436 .19099427 .5665436 .20399475 .5665436H.41099549L.29899598 .40853883C.20899964 .2735443 .17599488 .13453675 .17599488 .03253174 .17599488 .022537232 .17599488-.022460938 .22200012-.022460938 .2679901-.022460938 .2679901 .022537232 .2679901 .03253174V.08354187C.2679901 .13853455 .2709961 .19354248 .2789917 .24754334 .2829895 .27053834 .29699708 .35653688 .34098817 .41854859L.47599793 .608551C.4850006 .62054446 .4850006 .62254336 .4850006 .6435547Z"/>
<path id="font_2_51" d="M.45700074 .16764832C.45700074 .20367432 .44599916 .24871826 .4079895 .29074098 .3889923 .31176759 .37298585 .32176209 .30899049 .36180116 .3809967 .39881898 .42999269 .4508667 .42999269 .51690676 .42999269 .6089783 .34098817 .6660156 .25 .6660156 .1499939 .6660156 .068984989 .5919647 .068984989 .49890138 .068984989 .48088075 .070999149 .43585206 .11299133 .38882447 .12399292 .3768158 .16099549 .35179139 .18598938 .33477784 .12799073 .30575563 .041992189 .24971009 .041992189 .15063477 .041992189 .044555665 .14399719-.022460938 .24899292-.022460938 .3619995-.022460938 .45700074 .060577394 .45700074 .16764832M.38598634 .51690676C.38598634 .45986939 .34700013 .41183473 .2869873 .3768158L.16299439 .4568634C.116989139 .4868927 .11299133 .5209198 .11299133 .53793337 .11299133 .5989685 .17799378 .64100649 .24899292 .64100649 .32199098 .64100649 .38598634 .588974 .38598634 .51690676M.40699769 .13162232C.40699769 .05757141 .33198548 .0055389406 .25 .0055389406 .1639862 .0055389406 .09199524 .06758118 .09199524 .15063477 .09199524 .2086792 .12399292 .2727356 .20899964 .31976319L.33198548 .24171448C.3600006 .22268677 .40699769 .19267273 .40699769 .13162232Z"/>
<path id="font_2_78" d="M.45700074 .32888795C.45700074 .598114 .34199525 .6660156 .25299073 .6660156 .19799805 .6660156 .14898682 .64801028 .10598755 .6031189 .06498718 .5580902 .041992189 .5160217 .041992189 .44091798 .041992189 .3158722 .12998963 .21777344 .24198914 .21777344 .30299378 .21777344 .34399415 .25979615 .36698915 .3178711V.28582765C.36698915 .05178833 .2630005 .0055389406 .20498657 .0055389406 .18798828 .0055389406 .13398743 .007537842 .10699463 .041778566 .15098572 .041778566 .15899658 .07078552 .15899658 .08778381 .15899658 .118774417 .1349945 .13378906 .11299133 .13378906 .09700012 .13378906 .066986087 .12478638 .066986087 .08578491 .066986087 .018615723 .12098694-.022460938 .20599365-.022460938 .33499146-.022460938 .45700074 .11378479 .45700074 .32888795M.36499024 .42089845C.36499024 .33789063 .33099366 .24076844 .24299622 .24076844 .22698975 .2407074 .18099976 .2407074 .1499939 .30371095 .13198853 .34072877 .13198853 .3908081 .13198853 .43988038 .13198853 .49397279 .13198853 .5410614 .15299988 .578125 .17999268 .62805178 .21798706 .64100649 .25299073 .64100649 .29899598 .64100649 .33198548 .60710147 .34899903 .562088 .36099244 .52989199 .36499024 .46688844 .36499024 .42089845Z"/>
<path id="font_1_2" d="M.48599244 .38136292C.48999024 .39537049 .48999024 .39736939 .48999024 .40437318 .48999024 .42237855 .47599793 .43138124 .46099855 .43138124 .45098878 .43138124 .43499757 .42536927 .42599488 .41036988 .42399598 .405365 .41600038 .37435914 .4119873 .35635377 .40499879 .33035279 .397995 .30334474 .3919983 .27633668L.34700013 .09628296C.34298707 .08126831 .2999878 .011245728 .23399353 .011245728 .18299866 .011245728 .17199707 .055267335 .17199707 .0922699 .17199707 .1382904 .18899536 .20030213 .22299195 .28833009 .23899842 .3293457 .24299622 .3403473 .24299622 .36035157 .24299622 .405365 .21099854 .4423828 .16099549 .4423828 .06599426 .4423828 .0289917 .29733277 .0289917 .28833009 .0289917 .27833558 .038986207 .27833558 .040985109 .27833558 .050994874 .27833558 .051986696 .28033448 .056991579 .29634095 .083999637 .3903656 .12399292 .42037965 .1579895 .42037965 .1659851 .42037965 .18299866 .42037965 .18299866 .3883667 .18299866 .36335755 .17298889 .3373413 .1659851 .31834413 .12599182 .21231079 .10798645 .1552887 .10798645 .10827637 .10798645 .019256592 .17098999-.0107421879 .22999573-.0107421879 .2689972-.0107421879 .30299378 .0062561037 .33099366 .03425598 .31799317-.017745972 .30599977-.06674194 .2659912-.11973572 .23999024-.15385437 .20199585-.18309021 .1559906-.18309021 .14199829-.18309021 .09700012-.18005371 .07998657-.14074707 .09599304-.14074707 .10899353-.14074707 .12298584-.1287384 .1329956-.11973572 .14299011-.10673523 .14299011-.08773804 .14299011-.056747438 .115997318-.052734376 .10598755-.052734376 .08299255-.052734376 .049987794-.068740848 .049987794-.11773682 .049987794-.16796875 .09399414-.20507813 .1559906-.20507813 .25898744-.20507813 .3619995-.11373901 .3899994-.00074768069L.48599244 .38136292Z"/>
<path id="font_2_64" d="M.27598573 .18710327V.24511719H.010986328V.18710327H.27598573Z"/>
<path id="font_2_121" d="M.45999146 .31976319C.45999146 .39982606 .45498658 .47988893 .41999818 .5539398 .37399293 .65000918 .2919922 .6660156 .25 .6660156 .18998719 .6660156 .116989139 .64001467 .07598877 .54693606 .04399109 .47789 .038986207 .39982606 .038986207 .31976319 .038986207 .24472046 .042999269 .15464783 .083999637 .07859802 .1269989-.0024719239 .19999695-.022460938 .24899292-.022460938 .30299378-.022460938 .3789978-.0014648438 .4229889 .09359741 .45498658 .16265869 .45999146 .2407074 .45999146 .31976319M.3769989 .3317871C.3769989 .25672914 .3769989 .18867493 .3659973 .12461853 .35099793 .029556275 .2939911-.00047302247 .24899292-.00047302247 .20999146-.00047302247 .15098572 .024551392 .1329956 .12062073 .12199402 .18066406 .12199402 .2727356 .12199402 .3317871 .12199402 .39582826 .12199402 .46188355 .12998963 .5159149 .14898682 .63500979 .22399903 .64401248 .24899292 .64401248 .28199769 .64401248 .34799195 .6259918 .36698915 .52693179 .3769989 .47088624 .3769989 .39482118 .3769989 .3317871Z"/>
</defs>
<path transform="matrix(1.00008,0,0,-1.00003,43.62005,47.104028)" stroke-width=".3985" stroke-linecap="butt" stroke-miterlimit="10" stroke-linejoin="miter" fill="none" stroke="#000000" d="M-42.5202 0H268.8364"/>
<path transform="matrix(1.00008,0,0,-1.00003,312.47798,47.104028)" stroke-width=".31879" stroke-linecap="round" stroke-linejoin="round" fill="none" stroke="#000000" d="M-1.19551 1.59401C-1.09587 .99626 0 .09961 .29886 0 0-.09961-1.09587-.99626-1.19551-1.59401"/>
<use data-text="x" xlink:href="#font_1_1" transform="matrix(9.963397,0,0,-9.962899,316.45689,43.583925)"/>
<path transform="matrix(1.00008,0,0,-1.00003,43.62005,47.104028)" stroke-width=".3985" stroke-linecap="butt" stroke-miterlimit="10" stroke-linejoin="miter" fill="none" stroke="#000000" d="M28.3468 1.4174V-1.4174"/>
<use data-text="1" xlink:href="#font_2_82" transform="matrix(9.963397,0,0,-9.962899,69.47812,58.676378)"/>
<path transform="matrix(1.00008,0,0,-1.00003,43.62005,47.104028)" stroke-width=".3985" stroke-linecap="butt" stroke-miterlimit="10" stroke-linejoin="miter" fill="none" stroke="#000000" d="M56.69362 1.4174V-1.4174"/>
<use data-text="2" xlink:href="#font_2_107" transform="matrix(9.963397,0,0,-9.962899,97.827388,58.676378)"/>
<path transform="matrix(1.00008,0,0,-1.00003,43.62005,47.104028)" stroke-width=".3985" stroke-linecap="butt" stroke-miterlimit="10" stroke-linejoin="miter" fill="none" stroke="#000000" d="M85.04042 1.4174V-1.4174"/>
<use data-text="3" xlink:href="#font_2_106" transform="matrix(9.963397,0,0,-9.962899,126.17665,58.676378)"/>
<path transform="matrix(1.00008,0,0,-1.00003,43.62005,47.104028)" stroke-width=".3985" stroke-linecap="butt" stroke-miterlimit="10" stroke-linejoin="miter" fill="none" stroke="#000000" d="M113.38724 1.4174V-1.4174"/>
<use data-text="4" xlink:href="#font_2_57" transform="matrix(9.963397,0,0,-9.962899,154.52593,58.786378)"/>
<path transform="matrix(1.00008,0,0,-1.00003,43.62005,47.104028)" stroke-width=".3985" stroke-linecap="butt" stroke-miterlimit="10" stroke-linejoin="miter" fill="none" stroke="#000000" d="M141.73404 1.4174V-1.4174"/>
<use data-text="5" xlink:href="#font_2_56" transform="matrix(9.963397,0,0,-9.962899,182.87418,58.676378)"/>
<path transform="matrix(1.00008,0,0,-1.00003,43.62005,47.104028)" stroke-width=".3985" stroke-linecap="butt" stroke-miterlimit="10" stroke-linejoin="miter" fill="none" stroke="#000000" d="M170.08086 1.4174V-1.4174"/>
<use data-text="6" xlink:href="#font_2_101" transform="matrix(9.963397,0,0,-9.962899,211.22345,58.676378)"/>
<path transform="matrix(1.00008,0,0,-1.00003,43.62005,47.104028)" stroke-width=".3985" stroke-linecap="butt" stroke-miterlimit="10" stroke-linejoin="miter" fill="none" stroke="#000000" d="M198.42766 1.4174V-1.4174"/>
<use data-text="7" xlink:href="#font_2_100" transform="matrix(9.963397,0,0,-9.962899,239.57273,58.77638)"/>
<path transform="matrix(1.00008,0,0,-1.00003,43.62005,47.104028)" stroke-width=".3985" stroke-linecap="butt" stroke-miterlimit="10" stroke-linejoin="miter" fill="none" stroke="#000000" d="M226.77448 1.4174V-1.4174"/>
<use data-text="8" xlink:href="#font_2_51" transform="matrix(9.963397,0,0,-9.962899,267.922,58.676378)"/>
<path transform="matrix(1.00008,0,0,-1.00003,43.62005,47.104028)" stroke-width=".3985" stroke-linecap="butt" stroke-miterlimit="10" stroke-linejoin="miter" fill="none" stroke="#000000" d="M255.12128 1.4174V-1.4174"/>
<use data-text="9" xlink:href="#font_2_78" transform="matrix(9.963397,0,0,-9.962899,296.27125,58.676378)"/>
<path transform="matrix(1.00008,0,0,-1.00003,43.62005,47.104028)" stroke-width=".3985" stroke-linecap="butt" stroke-miterlimit="10" stroke-linejoin="miter" fill="none" stroke="#000000" d="M0-99.21986V34.97739"/>
<path transform="matrix(0,-1.00003,-1.00008,-0,43.62005,12.125587)" stroke-width=".31879" stroke-linecap="round" stroke-linejoin="round" fill="none" stroke="#000000" d="M-1.19551 1.59401C-1.09587 .99626 0 .09961 .29886 0 0-.09961-1.09587-.99626-1.19551-1.59401"/>
<use data-text="y" xlink:href="#font_1_2" transform="matrix(9.963397,0,0,-9.962899,47.140329,6.209797)"/>
<path transform="matrix(1.00008,0,0,-1.00003,43.62005,47.104028)" stroke-width=".3985" stroke-linecap="butt" stroke-miterlimit="10" stroke-linejoin="miter" fill="none" stroke="#000000" d="M2.83484-85.04561H-2.83484"/>
<use data-text="-" xlink:href="#font_2_64" transform="matrix(9.963397,0,0,-9.962899,23.983483,135.36069)"/>
<use data-text="6" xlink:href="#font_2_101" transform="matrix(9.963397,0,0,-9.962899,27.3013,135.36069)"/>
<use data-text="0" xlink:href="#font_2_121" transform="matrix(9.963397,0,0,-9.962899,32.28299,135.36069)"/>
<path transform="matrix(1.00008,0,0,-1.00003,43.62005,47.104028)" stroke-width=".3985" stroke-linecap="butt" stroke-miterlimit="10" stroke-linejoin="miter" fill="none" stroke="#000000" d="M2.83484-56.69707H-2.83484"/>
<use data-text="-" xlink:href="#font_2_64" transform="matrix(9.963397,0,0,-9.962899,23.983483,107.06583)"/>
<use data-text="4" xlink:href="#font_2_57" transform="matrix(9.963397,0,0,-9.962899,27.3013,107.06583)"/>
<use data-text="0" xlink:href="#font_2_121" transform="matrix(9.963397,0,0,-9.962899,32.28299,107.06583)"/>
<path transform="matrix(1.00008,0,0,-1.00003,43.62005,47.104028)" stroke-width=".3985" stroke-linecap="butt" stroke-miterlimit="10" stroke-linejoin="miter" fill="none" stroke="#000000" d="M2.83484-28.34853H-2.83484"/>
<use data-text="-" xlink:href="#font_2_64" transform="matrix(9.963397,0,0,-9.962899,23.983483,78.66197)"/>
<use data-text="2" xlink:href="#font_2_107" transform="matrix(9.963397,0,0,-9.962899,27.3013,78.66197)"/>
<use data-text="0" xlink:href="#font_2_121" transform="matrix(9.963397,0,0,-9.962899,32.28299,78.66197)"/>
<path transform="matrix(1.00008,0,0,-1.00003,43.62005,47.104028)" stroke-width=".3985" stroke-linecap="butt" stroke-miterlimit="10" stroke-linejoin="miter" fill="none" stroke="#000000" d="M2.83484 28.34853H-2.83484"/>
<use data-text="2" xlink:href="#font_2_107" transform="matrix(9.963397,0,0,-9.962899,27.301743,21.963273)"/>
<use data-text="0" xlink:href="#font_2_121" transform="matrix(9.963397,0,0,-9.962899,32.28344,21.963273)"/>
<path transform="matrix(1.00008,0,0,-1.00003,43.62005,47.104028)" stroke-width=".3985" stroke-linecap="butt" stroke-miterlimit="10" stroke-linejoin="miter" fill="none" stroke="#000000" d="M-27.88998-90.75136-16.41783-91.65729-4.48886-92.09721 7.44006-92.03511 19.36903-91.47098 31.298-90.40482 43.22697-88.83664 55.15593-86.76643 67.0849-84.19418 79.01385-81.1199 90.94284-77.54361 102.8718-73.46529 114.80075-68.88496 126.72972-63.80255 138.65868-58.21815 150.58766-52.13171 162.51662-45.54326 174.44559-38.45277 186.37454-30.86024 198.30353-22.7657 210.23249-14.16913 222.16146-5.07053 234.09041 4.53008 246.01937 14.63274 257.60588 24.93295"/>
<path transform="matrix(-.99691978,-.07869236,-.078696299,.9968699,15.727846,137.85811)" stroke-width=".31879" stroke-linecap="round" stroke-linejoin="round" fill="none" stroke="#000000" d="M-1.19551 1.59401C-1.09587 .99626 0 .09961 .29886 0 0-.09961-1.09587-.99626-1.19551-1.59401"/>
<path transform="matrix(.7473898,-.66438999,-.66442319,-.7473525,301.24653,22.170329)" stroke-width=".31879" stroke-linecap="round" stroke-linejoin="round" fill="none" stroke="#000000" d="M-1.19551 1.59401C-1.09587 .99626 0 .09961 .29886 0 0-.09961-1.09587-.99626-1.19551-1.59401"/>
</svg>
