<svg xmlns="http://www.w3.org/2000/svg" xmlns:xlink="http://www.w3.org/1999/xlink" xmlns:inkscape="http://www.inkscape.org/namespaces/inkscape" version="1.1" width="351" height="226" viewBox="0 0 351 226">
<defs>
<path id="font_1_2" d="M.33399964 .30233766C.33999635 .32835389 .36299134 .42037965 .43299867 .42037965 .43798829 .42037965 .46199037 .42037965 .48298646 .40734864 .45498658 .402359 .43499757 .37734986 .43499757 .35334779 .43499757 .33735658 .44599916 .31835938 .47299195 .31835938 .49499513 .31835938 .5269928 .3363495 .5269928 .37635804 .5269928 .42837525 .46798707 .4423828 .43399049 .4423828 .37599183 .4423828 .34098817 .38935853 .32899476 .36634828 .3039856 .43237306 .25 .4423828 .22099304 .4423828 .116989139 .4423828 .05999756 .3133545 .05999756 .28834535 .05999756 .27833558 .069992069 .27833558 .07199097 .27833558 .07998657 .27833558 .08299255 .28033448 .084991458 .28933717 .11898804 .39535523 .18499756 .42037965 .21899414 .42037965 .23799134 .42037965 .272995 .4113617 .272995 .35334779 .272995 .32235719 .2559967 .25532533 .21899414 .11528015 .20298767 .053268434 .16799927 .011245728 .12399292 .011245728 .117996219 .011245728 .09498596 .011245728 .07398987 .024276734 .09899902 .029266358 .12098694 .05027771 .12098694 .07827759 .12098694 .105270389 .09899902 .11328125 .083999637 .11328125 .053985597 .11328125 .0289917 .08728027 .0289917 .055267335 .0289917 .009246826 .07899475-.0107421879 .12298584-.0107421879 .18899536-.0107421879 .22499085 .059280397 .22799683 .0652771 .23999024 .028274537 .27598573-.0107421879 .33599855-.0107421879 .43899537-.0107421879 .49598695 .118270877 .49598695 .14328003 .49598695 .1532898 .4869995 .1532898 .48399354 .1532898 .47499085 .1532898 .47299195 .14929199 .47099305 .14228821 .43798829 .03527832 .36999513 .011245728 .33799745 .011245728 .29899598 .011245728 .2829895 .043273927 .2829895 .07727051 .2829895 .09927368 .2889862 .121276859 .2999878 .16529846L.33399964 .30233766Z"/>
<path id="font_2_1" d="M.31098939 .36265565H.42999269C.4149933 .30274964 .3929901 .2118988 .3929901 .13302613 .3929901 .09309387 .397995 .06613159 .4039917 .044174196 .41999818-.0057678224 .43299867-.009765625 .44898988-.009765625 .47200013-.009765625 .49598695 .011230469 .49598695 .035186769 .49598695 .043182374 .49398805 .047164918 .48799134 .057159425 .46899415 .09408569 .45098878 .15100098 .45098878 .23286438 .45098878 .25183106 .45098878 .29177857 .46499635 .36265565H.58999636C.60798647 .36265565 .6159973 .36265565 .6269989 .37065126 .6409912 .380661 .6439972 .39665223 .6439972 .4016571 .6439972 .43066407 .6179962 .43066407 .6009979 .43066407H.22399903C.18299866 .43066407 .15499878 .42166139 .10998535 .37965394 .083999637 .35665895 .04499817 .30274964 .04499817 .2937622 .04499817 .28178407 .057998659 .28178407 .06199646 .28178407 .07299805 .28178407 .07398987 .28378297 .07998657 .2927704 .1309967 .36265565 .19299317 .36265565 .21499634 .36265565H.27598573C.24499512 .25283814 .19099427 .13502503 .16099549 .07511902 .15499878 .062149049 .14498902 .04118347 .14199829 .03718567 .14099121 .033187868 .13899231 .029190064 .13899231 .022201539 .13899231 .006225586 .15098572-.009765625 .17399597-.009765625 .21398926-.009765625 .22499085 .035186769 .24899292 .12504578L.31098939 .36265565Z"/>
<path id="font_3_3" d="M.5289917 .1640625V.20005799H.41799928V.64582827C.41799928 .66682437 .41799928 .6738281 .3959961 .6738281 .38398744 .6738281 .37998963 .6738281 .36999513 .65982058L.038986207 .20005799V.1640625H.33299256V.08201599C.33299256 .04800415 .33299256 .035995485 .2519989 .035995485H.22499085V0C.2749939 .0019989014 .33898927 .0039978029 .375 .0039978029 .4119873 .0039978029 .47599793 .0019989014 .526001 0V.035995485H.49899293C.41799928 .035995485 .41799928 .04800415 .41799928 .08201599V.1640625H.5289917M.33999635 .5658722V.20005799H.07598877L.33999635 .5658722Z"/>
<path id="font_3_1" d="M.5049896 .18203736H.47099305C.46798707 .16001892 .45799256 .100997928 .44499208 .09098816 .43699647 .084991458 .3600006 .084991458 .34599305 .084991458H.1619873C.2669983 .17803955 .3019867 .20603943 .3619995 .25306703 .43598939 .312088 .5049896 .374115 .5049896 .46914674 .5049896 .5900879 .39898683 .6640625 .2709961 .6640625 .14698792 .6640625 .06298828 .57710269 .06298828 .4851532 .06298828 .43414308 .10598755 .42915345 .115997318 .42915345 .13999939 .42915345 .16899109 .44615174 .16899109 .48214723 .16899109 .5001526 .1619873 .53515627 .10998535 .53515627 .14099121 .6060791 .20899964 .62805178 .2559967 .62805178 .35598756 .62805178 .4079895 .5501404 .4079895 .46914674 .4079895 .38212586 .34599305 .3130951 .31399537 .27708436L.07299805 .038986207C.06298828 .02999878 .06298828 .027999878 .06298828 0H.47499085L.5049896 .18203736Z"/>
<path id="font_3_2" d="M.272995 .33428956C.35099793 .33428956 .40699769 .2803192 .40699769 .1733551 .40699769 .04940796 .33499146 .012466431 .2769928 .012466431 .23699951 .012466431 .14898682 .0234375 .10699463 .082351688 .1539917 .084350589 .16499329 .11735535 .16499329 .13835144 .16499329 .17034912 .14099121 .19335938 .10998535 .19335938 .08198547 .19335938 .053985597 .17634583 .053985597 .13534546 .053985597 .041412355 .1579895-.01953125 .2789917-.01953125 .41799928-.01953125 .5139923 .07336426 .5139923 .1733551 .5139923 .2513275 .44999696 .32929994 .33999635 .35229493 .44499208 .39024354 .48298646 .4650879 .48298646 .5260773 .48298646 .60505679 .3919983 .6640625 .2809906 .6640625 .16999817 .6640625 .084991458 .61006167 .084991458 .5300751 .084991458 .49606324 .10699463 .47706605 .13699341 .47706605 .16799927 .47706605 .18798828 .5000763 .18798828 .5280762 .18798828 .5570679 .16799927 .57806399 .13699341 .5800781 .17199707 .62405398 .24099732 .63505557 .27799989 .63505557 .32299806 .63505557 .38598634 .6130676 .38598634 .5260773 .38598634 .48406983 .37199403 .43814088 .34599305 .4072113 .31298829 .36927796 .2849884 .3672943 .23498535 .36428834 .20999146 .3623047 .20799256 .3623047 .20298767 .3612976 .20098877 .3612976 .19299317 .3592987 .19299317 .34829713 .19299317 .33428956 .20199585 .33428956 .21899414 .33428956H.272995Z"/>
<path id="font_1_1" d="M.2649994 .37265016H.37799073C.34498597 .22489929 .33599855 .18196106 .33599855 .11508179 .33599855 .100097659 .33599855 .073150638 .34399415 .03919983 .35398866-.0047454836 .36499024-.0107421879 .37998963-.0107421879 .3999939-.0107421879 .42099 .007247925 .42099 .02722168 .42099 .033218385 .42099 .035202028 .4149933 .049179079 .38598634 .12106323 .38598634 .18595886 .38598634 .21391297 .38598634 .26683045 .3929901 .32073976 .4039917 .37265016H.5179901C.5309906 .37265016 .5669861 .37265016 .5669861 .406662 .5669861 .43066407 .54599 .43066407 .5269928 .43066407H.19198609C.16999817 .43066407 .13198853 .43066407 .08799744 .38365174 .052993776 .34469605 .026992798 .29878236 .026992798 .29379273 .026992798 .29278565 .026992798 .28379823 .038986207 .28379823 .04699707 .28379823 .04899597 .28779603 .054992677 .29577638 .10398865 .37265016 .1619873 .37265016 .18199158 .37265016H.23899842C.20698548 .25186158 .15299988 .13105774 .11099243 .04020691 .102996829 .025222779 .102996829 .023223877 .102996829 .016235352 .102996829-.002746582 .11898804-.0107421879 .13198853-.0107421879 .1619873-.0107421879 .16999817 .017242432 .18199158 .05418396 .19599915 .100097659 .19599915 .10209656 .20899964 .15202332L.2649994 .37265016Z"/>
<path id="font_1_3" d="M.48599244 .38136292C.48999024 .39537049 .48999024 .39736939 .48999024 .40437318 .48999024 .42237855 .47599793 .43138124 .46099855 .43138124 .45098878 .43138124 .43499757 .42536927 .42599488 .41036988 .42399598 .405365 .41600038 .37435914 .4119873 .35635377 .40499879 .33035279 .397995 .30334474 .3919983 .27633668L.34700013 .09628296C.34298707 .08126831 .2999878 .011245728 .23399353 .011245728 .18299866 .011245728 .17199707 .055267335 .17199707 .0922699 .17199707 .1382904 .18899536 .20030213 .22299195 .28833009 .23899842 .3293457 .24299622 .3403473 .24299622 .36035157 .24299622 .405365 .21099854 .4423828 .16099549 .4423828 .06599426 .4423828 .0289917 .29733277 .0289917 .28833009 .0289917 .27833558 .038986207 .27833558 .040985109 .27833558 .050994874 .27833558 .051986696 .28033448 .056991579 .29634095 .083999637 .3903656 .12399292 .42037965 .1579895 .42037965 .1659851 .42037965 .18299866 .42037965 .18299866 .3883667 .18299866 .36335755 .17298889 .3373413 .1659851 .31834413 .12599182 .21231079 .10798645 .1552887 .10798645 .10827637 .10798645 .019256592 .17098999-.0107421879 .22999573-.0107421879 .2689972-.0107421879 .30299378 .0062561037 .33099366 .03425598 .31799317-.017745972 .30599977-.06674194 .2659912-.11973572 .23999024-.15385437 .20199585-.18309021 .1559906-.18309021 .14199829-.18309021 .09700012-.18005371 .07998657-.14074707 .09599304-.14074707 .10899353-.14074707 .12298584-.1287384 .1329956-.11973572 .14299011-.10673523 .14299011-.08773804 .14299011-.056747438 .115997318-.052734376 .10598755-.052734376 .08299255-.052734376 .049987794-.068740848 .049987794-.11773682 .049987794-.16796875 .09399414-.20507813 .1559906-.20507813 .25898744-.20507813 .3619995-.11373901 .3899994-.00074768069L.48599244 .38136292Z"/>
<path id="font_4_64" d="M.27598573 .18710327V.24511719H.010986328V.18710327H.27598573Z"/>
<path id="font_4_82" d="M.4189911 0V.0309906H.3869934C.29699708 .0309906 .2939911 .041992189 .2939911 .07902527V.64012148C.2939911 .6640167 .2939911 .6660156 .2709961 .6660156 .20899964 .60227969 .12098694 .60227969 .08898926 .60227969V.57128909C.10899353 .57128909 .16799927 .57128909 .21998596 .5972748V.07902527C.21998596 .042999269 .21699524 .0309906 .1269989 .0309906H.09498596V0C.12998963 .0029907227 .21699524 .0029907227 .25698854 .0029907227 .29699708 .0029907227 .38398744 .0029907227 .4189911 0Z"/>
</defs>
<path transform="matrix(1.00003,0,0,-1.00003,43.617776,117.97015)" stroke-width=".3985" stroke-linecap="butt" stroke-miterlimit="10" stroke-linejoin="miter" fill="none" stroke="#000000" d="M-42.52019 0H297.1832"/>
<path transform="matrix(1.00003,0,0,-1.00003,340.8099,117.97015)" stroke-width=".31879" stroke-linecap="round" stroke-linejoin="round" fill="none" stroke="#000000" d="M-1.19551 1.59401C-1.09587 .99626 0 .09961 .29886 0 0-.09961-1.09587-.99626-1.19551-1.59401"/>
<use data-text="x" xlink:href="#font_1_2" transform="matrix(9.962899,0,0,-9.962899,344.7878,114.45005)"/>
<path transform="matrix(1.00003,0,0,-1.00003,43.617776,117.97015)" stroke-width=".3985" stroke-linecap="butt" stroke-miterlimit="10" stroke-linejoin="miter" fill="none" stroke="#000000" d="M66.757 8.50455V-8.50455"/>
<use data-text="&#x03c0;" xlink:href="#font_2_1" transform="matrix(6.9740097,0,0,-6.9740097,107.9217,132.99762)"/>
<path transform="matrix(1.00003,0,0,-1.00003,-18.893105,31.944573)" stroke-width=".3985" stroke-linecap="butt" stroke-miterlimit="10" stroke-linejoin="miter" fill="none" stroke="#000000" d="M126.811-102.482H131.72"/>
<use data-text="4" xlink:href="#font_3_3" transform="matrix(6.9740097,0,0,-6.9740097,108.39072,140.35584)"/>
<path transform="matrix(1.00003,0,0,-1.00003,43.617776,117.97015)" stroke-width=".3985" stroke-linecap="butt" stroke-miterlimit="10" stroke-linejoin="miter" fill="none" stroke="#000000" d="M133.51406 8.50455V-8.50455"/>
<use data-text="&#x03c0;" xlink:href="#font_2_1" transform="matrix(6.9740097,0,0,-6.9740097,174.68071,132.99762)"/>
<path transform="matrix(1.00003,0,0,-1.00003,47.865907,31.944573)" stroke-width=".3985" stroke-linecap="butt" stroke-miterlimit="10" stroke-linejoin="miter" fill="none" stroke="#000000" d="M126.811-102.482H131.72"/>
<use data-text="2" xlink:href="#font_3_1" transform="matrix(6.9740097,0,0,-6.9740097,175.14972,140.35584)"/>
<path transform="matrix(1.00003,0,0,-1.00003,43.617776,117.97015)" stroke-width=".3985" stroke-linecap="butt" stroke-miterlimit="10" stroke-linejoin="miter" fill="none" stroke="#000000" d="M200.35544 8.50455V-8.50455"/>
<use data-text="3" xlink:href="#font_3_2" transform="matrix(6.9740097,0,0,-6.9740097,239.53865,134.48865)"/>
<use data-text="&#x03c0;" xlink:href="#font_2_1" transform="matrix(6.9740097,0,0,-6.9740097,243.50977,134.48865)"/>
<path transform="matrix(1.00003,0,0,-1.00003,112.72385,33.435617)" stroke-width=".3985" stroke-linecap="butt" stroke-miterlimit="10" stroke-linejoin="miter" fill="none" stroke="#000000" d="M126.811-102.482H135.691"/>
<use data-text="4" xlink:href="#font_3_3" transform="matrix(6.9740097,0,0,-6.9740097,241.99373,141.84687)"/>
<path transform="matrix(1.00003,0,0,-1.00003,43.617776,117.97015)" stroke-width=".3985" stroke-linecap="butt" stroke-miterlimit="10" stroke-linejoin="miter" fill="none" stroke="#000000" d="M267.19688 8.50455V-8.50455"/>
<use data-text="&#x03c0;" xlink:href="#font_1_1" transform="matrix(9.962899,0,0,-9.962899,307.8047,134.28464)"/>
<path transform="matrix(1.00003,0,0,-1.00003,43.617776,117.97015)" stroke-width=".3985" stroke-linecap="butt" stroke-miterlimit="10" stroke-linejoin="miter" fill="none" stroke="#000000" d="M0-106.30049V105.84221"/>
<path transform="matrix(0,-1.00003,-1.00003,-0,43.617776,12.1247639)" stroke-width=".31879" stroke-linecap="round" stroke-linejoin="round" fill="none" stroke="#000000" d="M-1.19551 1.59401C-1.09587 .99626 0 .09961 .29886 0 0-.09961-1.09587-.99626-1.19551-1.59401"/>
<use data-text="y" xlink:href="#font_1_3" transform="matrix(9.962899,0,0,-9.962899,47.13788,6.209793)"/>
<path transform="matrix(1.00003,0,0,-1.00003,43.617776,117.97015)" stroke-width=".3985" stroke-linecap="butt" stroke-miterlimit="10" stroke-linejoin="miter" fill="none" stroke="#000000" d="M8.50455-85.04042H-8.50455"/>
<use data-text="-" xlink:href="#font_4_64" transform="matrix(9.962899,0,0,-9.962899,23.294167,206.33081)"/>
<use data-text="1" xlink:href="#font_4_82" transform="matrix(9.962899,0,0,-9.962899,26.611817,206.33081)"/>
<path transform="matrix(1.00003,0,0,-1.00003,43.617776,117.97015)" stroke-width=".3985" stroke-linecap="butt" stroke-miterlimit="10" stroke-linejoin="miter" fill="none" stroke="#000000" d="M8.50455 85.04042H-8.50455"/>
<use data-text="1" xlink:href="#font_4_82" transform="matrix(9.962899,0,0,-9.962899,26.61126,36.244699)"/>
<path transform="matrix(1.00003,0,0,-1.00003,43.617776,117.97015)" stroke-width=".3985" stroke-linecap="butt" stroke-miterlimit="10" stroke-linejoin="miter" fill="none" stroke="#000000" d="M-8.18024-8.1639 3.54243 3.53989 15.58951 15.50127 27.63655 27.15126 39.6836 38.25754 51.73067 48.59691 63.77771 57.9644 75.82474 66.1666 87.87178 73.04657 99.91885 78.46022 111.9659 82.30502 124.01292 84.49931 136.05997 85.00015 148.10704 83.7999 160.15409 80.92047 172.20111 76.41904 184.2482 70.38646 196.29523 62.94202 208.34227 54.23895 220.38932 44.44713 232.43639 33.7665 244.48343 22.40846 256.53047 10.60278 268.5775-1.41437 280.29978-13.08105"/>
<path transform="matrix(-.7076813,.7065312,.7065312,.7076813,35.43729,126.1343)" stroke-width=".31879" stroke-linecap="round" stroke-linejoin="round" fill="none" stroke="#000000" d="M-1.19551 1.59401C-1.09587 .99626 0 .09961 .29886 0 0-.09961-1.09587-.99626-1.19551-1.59401"/>
<path transform="matrix(.70879128,.7054212,.7054212,-.70879128,323.92597,131.05159)" stroke-width=".31879" stroke-linecap="round" stroke-linejoin="round" fill="none" stroke="#000000" d="M-1.19551 1.59401C-1.09587 .99626 0 .09961 .29886 0 0-.09961-1.09587-.99626-1.19551-1.59401"/>
<path transform="matrix(1.00003,0,0,-1.00003,43.617776,117.97015)" stroke-width=".3985" stroke-linecap="butt" stroke-dasharray="2.98883,2.98883" stroke-miterlimit="10" stroke-linejoin="miter" fill="none" stroke="#000000" d="M-25.25284-35.1977-12.75679-17.01428-.00127 0 12.75424 15.46104 25.50977 29.37665 38.26529 41.739 51.02086 52.55203 63.77638 61.8144 76.53195 69.52611 89.28748 75.6872 102.04305 80.29764 114.79857 83.35611 127.55414 84.86392 140.30966 84.82237 153.06523 83.22763 165.82076 80.08351 178.57633 75.38875 191.33185 69.14333 204.08742 61.34595 216.84294 51.99924 229.59847 41.1006 242.35404 28.65001 255.10956 14.6513 267.86515-.8966 280.34666-17.62929"/>
<path transform="matrix(-.566347,.82412478,.82412478,.566347,18.364197,153.16892)" stroke-width=".31879" stroke-linecap="round" stroke-linejoin="round" fill="none" stroke="#000000" d="M-1.19551 1.59401C-1.09587 .99626 0 .09961 .29886 0 0-.09961-1.09587-.99626-1.19551-1.59401"/>
<path transform="matrix(.59790799,.8015541,.8015541,-.59790799,323.97285,135.59996)" stroke-width=".31879" stroke-linecap="round" stroke-linejoin="round" fill="none" stroke="#000000" d="M-1.19551 1.59401C-1.09587 .99626 0 .09961 .29886 0 0-.09961-1.09587-.99626-1.19551-1.59401"/>
</svg>
