<svg xmlns="http://www.w3.org/2000/svg" xmlns:xlink="http://www.w3.org/1999/xlink" xmlns:inkscape="http://www.inkscape.org/namespaces/inkscape" version="1.1" width="351" height="98" viewBox="0 0 351 98">
<defs>
<path id="font_1_1" d="M.33399964 .30233766C.33999635 .32835389 .36299134 .42037965 .43299867 .42037965 .43798829 .42037965 .46199037 .42037965 .48298646 .40734864 .45498658 .402359 .43499757 .37734986 .43499757 .35334779 .43499757 .33735658 .44599916 .31835938 .47299195 .31835938 .49499513 .31835938 .5269928 .3363495 .5269928 .37635804 .5269928 .42837525 .46798707 .4423828 .43399049 .4423828 .37599183 .4423828 .34098817 .38935853 .32899476 .36634828 .3039856 .43237306 .25 .4423828 .22099304 .4423828 .116989139 .4423828 .05999756 .3133545 .05999756 .28834535 .05999756 .27833558 .069992069 .27833558 .07199097 .27833558 .07998657 .27833558 .08299255 .28033448 .084991458 .28933717 .11898804 .39535523 .18499756 .42037965 .21899414 .42037965 .23799134 .42037965 .272995 .4113617 .272995 .35334779 .272995 .32235719 .2559967 .25532533 .21899414 .11528015 .20298767 .053268434 .16799927 .011245728 .12399292 .011245728 .117996219 .011245728 .09498596 .011245728 .07398987 .024276734 .09899902 .029266358 .12098694 .05027771 .12098694 .07827759 .12098694 .105270389 .09899902 .11328125 .083999637 .11328125 .053985597 .11328125 .0289917 .08728027 .0289917 .055267335 .0289917 .009246826 .07899475-.0107421879 .12298584-.0107421879 .18899536-.0107421879 .22499085 .059280397 .22799683 .0652771 .23999024 .028274537 .27598573-.0107421879 .33599855-.0107421879 .43899537-.0107421879 .49598695 .118270877 .49598695 .14328003 .49598695 .1532898 .4869995 .1532898 .48399354 .1532898 .47499085 .1532898 .47299195 .14929199 .47099305 .14228821 .43798829 .03527832 .36999513 .011245728 .33799745 .011245728 .29899598 .011245728 .2829895 .043273927 .2829895 .07727051 .2829895 .09927368 .2889862 .121276859 .2999878 .16529846L.33399964 .30233766Z"/>
<path id="font_2_64" d="M.27598573 .18710327V.24511719H.010986328V.18710327H.27598573Z"/>
<path id="font_2_82" d="M.4189911 0V.0309906H.3869934C.29699708 .0309906 .2939911 .041992189 .2939911 .07902527V.64012148C.2939911 .6640167 .2939911 .6660156 .2709961 .6660156 .20899964 .60227969 .12098694 .60227969 .08898926 .60227969V.57128909C.10899353 .57128909 .16799927 .57128909 .21998596 .5972748V.07902527C.21998596 .042999269 .21699524 .0309906 .1269989 .0309906H.09498596V0C.12998963 .0029907227 .21699524 .0029907227 .25698854 .0029907227 .29699708 .0029907227 .38398744 .0029907227 .4189911 0Z"/>
<path id="font_1_2" d="M.48599244 .38136292C.48999024 .39537049 .48999024 .39736939 .48999024 .40437318 .48999024 .42237855 .47599793 .43138124 .46099855 .43138124 .45098878 .43138124 .43499757 .42536927 .42599488 .41036988 .42399598 .405365 .41600038 .37435914 .4119873 .35635377 .40499879 .33035279 .397995 .30334474 .3919983 .27633668L.34700013 .09628296C.34298707 .08126831 .2999878 .011245728 .23399353 .011245728 .18299866 .011245728 .17199707 .055267335 .17199707 .0922699 .17199707 .1382904 .18899536 .20030213 .22299195 .28833009 .23899842 .3293457 .24299622 .3403473 .24299622 .36035157 .24299622 .405365 .21099854 .4423828 .16099549 .4423828 .06599426 .4423828 .0289917 .29733277 .0289917 .28833009 .0289917 .27833558 .038986207 .27833558 .040985109 .27833558 .050994874 .27833558 .051986696 .28033448 .056991579 .29634095 .083999637 .3903656 .12399292 .42037965 .1579895 .42037965 .1659851 .42037965 .18299866 .42037965 .18299866 .3883667 .18299866 .36335755 .17298889 .3373413 .1659851 .31834413 .12599182 .21231079 .10798645 .1552887 .10798645 .10827637 .10798645 .019256592 .17098999-.0107421879 .22999573-.0107421879 .2689972-.0107421879 .30299378 .0062561037 .33099366 .03425598 .31799317-.017745972 .30599977-.06674194 .2659912-.11973572 .23999024-.15385437 .20199585-.18309021 .1559906-.18309021 .14199829-.18309021 .09700012-.18005371 .07998657-.14074707 .09599304-.14074707 .10899353-.14074707 .12298584-.1287384 .1329956-.11973572 .14299011-.10673523 .14299011-.08773804 .14299011-.056747438 .115997318-.052734376 .10598755-.052734376 .08299255-.052734376 .049987794-.068740848 .049987794-.11773682 .049987794-.16796875 .09399414-.20507813 .1559906-.20507813 .25898744-.20507813 .3619995-.11373901 .3899994-.00074768069L.48599244 .38136292Z"/>
<path id="font_2_121" d="M.45999146 .31976319C.45999146 .39982606 .45498658 .47988893 .41999818 .5539398 .37399293 .65000918 .2919922 .6660156 .25 .6660156 .18998719 .6660156 .116989139 .64001467 .07598877 .54693606 .04399109 .47789 .038986207 .39982606 .038986207 .31976319 .038986207 .24472046 .042999269 .15464783 .083999637 .07859802 .1269989-.0024719239 .19999695-.022460938 .24899292-.022460938 .30299378-.022460938 .3789978-.0014648438 .4229889 .09359741 .45498658 .16265869 .45999146 .2407074 .45999146 .31976319M.3769989 .3317871C.3769989 .25672914 .3769989 .18867493 .3659973 .12461853 .35099793 .029556275 .2939911-.00047302247 .24899292-.00047302247 .20999146-.00047302247 .15098572 .024551392 .1329956 .12062073 .12199402 .18066406 .12199402 .2727356 .12199402 .3317871 .12199402 .39582826 .12199402 .46188355 .12998963 .5159149 .14898682 .63500979 .22399903 .64401248 .24899292 .64401248 .28199769 .64401248 .34799195 .6259918 .36698915 .52693179 .3769989 .47088624 .3769989 .39482118 .3769989 .3317871Z"/>
<path id="font_2_88" d="M.19198609 .052993776C.19198609 .08198547 .16799927 .10598755 .13899231 .10598755 .10998535 .10598755 .085998538 .08198547 .085998538 .052993776 .085998538 .023986817 .10998535 0 .13899231 0 .16799927 0 .19198609 .023986817 .19198609 .052993776Z"/>
<path id="font_2_57" d="M.47099305 .16503906V.19602967H.37098695V.6507721C.37098695 .6707611 .37098695 .6767578 .35499574 .6767578 .34599305 .6767578 .34298707 .6767578 .33499146 .6647644L.027999878 .19602967V.16503906H.2939911V.07800293C.2939911 .041992189 .2919922 .0309906 .21798706 .0309906H.19699097V0C.23799134 .0029907227 .2899933 .0029907227 .33198548 .0029907227 .37399293 .0029907227 .4269867 .0029907227 .46798707 0V.0309906H.44699098C.37298585 .0309906 .37098695 .041992189 .37098695 .07800293V.16503906H.47099305M.2999878 .19602967H.055999757L.2999878 .56881716V.19602967Z"/>
<path id="font_2_107" d="M.44898988 .17396546H.42399598C.4189911 .14398194 .4119873 .099990848 .4019928 .084991458 .394989 .07699585 .32899476 .07699585 .30699159 .07699585H.1269989L.23298645 .17996216C.3889923 .31803895 .44898988 .37210084 .44898988 .47216798 .44898988 .5860901 .35899354 .6660156 .23699951 .6660156 .12399292 .6660156 .049987794 .57411196 .049987794 .48516847 .049987794 .4291687 .099990848 .4291687 .102996829 .4291687 .11999512 .4291687 .15499878 .44117738 .15499878 .48217774 .15499878 .5081787 .13699341 .5341797 .101989749 .5341797 .09399414 .5341797 .09199524 .5341797 .08898926 .5331726 .11199951 .59806826 .1659851 .63500979 .22399903 .63500979 .31498719 .63500979 .35798646 .5541382 .35798646 .47216798 .35798646 .39196778 .30799867 .31297303 .25299073 .25097657L.06098938 .036987306C.049987794 .025985718 .049987794 .023986817 .049987794 0H.42099L.44898988 .17396546Z"/>
</defs>
<path transform="matrix(1.00003,0,0,-1.00006,171.1806,54.19247)" stroke-width=".3985" stroke-linecap="butt" stroke-miterlimit="10" stroke-linejoin="miter" fill="none" stroke="#000000" d="M-170.08083 0H169.62255"/>
<path transform="matrix(1.00003,0,0,-1.00006,340.80824,54.19247)" stroke-width=".31879" stroke-linecap="round" stroke-linejoin="round" fill="none" stroke="#000000" d="M-1.19551 1.59401C-1.09587 .99626 0 .09961 .29886 0 0-.09961-1.09587-.99626-1.19551-1.59401"/>
<use data-text="x" xlink:href="#font_1_1" transform="matrix(9.962899,0,0,-9.963197,344.7868,50.67226)"/>
<path transform="matrix(1.00003,0,0,-1.00006,171.1806,54.19247)" stroke-width=".3985" stroke-linecap="butt" stroke-miterlimit="10" stroke-linejoin="miter" fill="none" stroke="#000000" d="M-113.38724 8.49911V-8.49911"/>
<use data-text="-" xlink:href="#font_2_64" transform="matrix(9.962899,0,0,-9.963197,53.64006,72.84759)"/>
<use data-text="1" xlink:href="#font_2_82" transform="matrix(9.962899,0,0,-9.963197,56.957704,72.84759)"/>
<path transform="matrix(1.00003,0,0,-1.00006,171.1806,54.19247)" stroke-width=".3985" stroke-linecap="butt" stroke-miterlimit="10" stroke-linejoin="miter" fill="none" stroke="#000000" d="M113.38724 8.49911V-8.49911"/>
<use data-text="1" xlink:href="#font_2_82" transform="matrix(9.962899,0,0,-9.963197,282.08094,72.84759)"/>
<path transform="matrix(1.00003,0,0,-1.00006,171.1806,54.19247)" stroke-width=".3985" stroke-linecap="butt" stroke-miterlimit="10" stroke-linejoin="miter" fill="none" stroke="#000000" d="M0-42.5225V42.06422"/>
<path transform="matrix(0,-1.00006,-1.00003,-0,171.1806,12.125729)" stroke-width=".31879" stroke-linecap="round" stroke-linejoin="round" fill="none" stroke="#000000" d="M-1.19551 1.59401C-1.09587 .99626 0 .09961 .29886 0 0-.09961-1.09587-.99626-1.19551-1.59401"/>
<use data-text="y" xlink:href="#font_1_2" transform="matrix(9.962899,0,0,-9.963197,174.70072,6.2095949)"/>
<path transform="matrix(1.00003,0,0,-1.00006,171.1806,54.19247)" stroke-width=".3985" stroke-linecap="butt" stroke-miterlimit="10" stroke-linejoin="miter" fill="none" stroke="#000000" d="M11.33939-34.01016H-11.33939"/>
<use data-text="-" xlink:href="#font_2_64" transform="matrix(9.962899,0,0,-9.963197,135.28853,91.467708)"/>
<use data-text="0" xlink:href="#font_2_121" transform="matrix(9.962899,0,0,-9.963197,138.60617,91.467708)"/>
<use data-text="." xlink:href="#font_2_88" transform="matrix(9.962899,0,0,-9.963197,143.58762,91.467708)"/>
<use data-text="0" xlink:href="#font_2_121" transform="matrix(9.962899,0,0,-9.963197,146.3573,91.467708)"/>
<use data-text="4" xlink:href="#font_2_57" transform="matrix(9.962899,0,0,-9.963197,151.33875,91.467708)"/>
<path transform="matrix(1.00003,0,0,-1.00006,171.1806,54.19247)" stroke-width=".3985" stroke-linecap="butt" stroke-miterlimit="10" stroke-linejoin="miter" fill="none" stroke="#000000" d="M11.33939-17.01146H-11.33939"/>
<use data-text="-" xlink:href="#font_2_64" transform="matrix(9.962899,0,0,-9.963197,135.28853,74.41368)"/>
<use data-text="0" xlink:href="#font_2_121" transform="matrix(9.962899,0,0,-9.963197,138.60617,74.41368)"/>
<use data-text="." xlink:href="#font_2_88" transform="matrix(9.962899,0,0,-9.963197,143.58762,74.41368)"/>
<use data-text="0" xlink:href="#font_2_121" transform="matrix(9.962899,0,0,-9.963197,146.3573,74.41368)"/>
<use data-text="2" xlink:href="#font_2_107" transform="matrix(9.962899,0,0,-9.963197,151.33875,74.41368)"/>
<path transform="matrix(1.00003,0,0,-1.00006,171.1806,54.19247)" stroke-width=".3985" stroke-linecap="butt" stroke-miterlimit="10" stroke-linejoin="miter" fill="none" stroke="#000000" d="M11.33939 17.01146H-11.33939"/>
<use data-text="0" xlink:href="#font_2_121" transform="matrix(9.962899,0,0,-9.963197,138.60663,40.38864)"/>
<use data-text="." xlink:href="#font_2_88" transform="matrix(9.962899,0,0,-9.963197,143.58808,40.38864)"/>
<use data-text="0" xlink:href="#font_2_121" transform="matrix(9.962899,0,0,-9.963197,146.35776,40.38864)"/>
<use data-text="2" xlink:href="#font_2_107" transform="matrix(9.962899,0,0,-9.963197,151.3392,40.38864)"/>
<path transform="matrix(1.00003,0,0,-1.00006,171.1806,54.19247)" stroke-width=".3985" stroke-linecap="butt" stroke-miterlimit="10" stroke-linejoin="miter" fill="none" stroke="#000000" d="M11.33939 34.01016H-11.33939"/>
<use data-text="0" xlink:href="#font_2_121" transform="matrix(9.962899,0,0,-9.963197,138.60663,23.443627)"/>
<use data-text="." xlink:href="#font_2_88" transform="matrix(9.962899,0,0,-9.963197,143.58808,23.443627)"/>
<use data-text="0" xlink:href="#font_2_121" transform="matrix(9.962899,0,0,-9.963197,146.35776,23.443627)"/>
<use data-text="4" xlink:href="#font_2_57" transform="matrix(9.962899,0,0,-9.963197,151.3392,23.443627)"/>
<path transform="matrix(1.00003,0,0,-1.00006,171.1806,54.19247)" stroke-width=".3985" stroke-linecap="butt" stroke-dasharray="2.98883,2.98883" stroke-miterlimit="10" stroke-linejoin="miter" fill="none" stroke="#000000" d="M-113.38724 0-112.24878 7.78539-111.11034 14.46802-109.9719 20.08667-108.83345 24.7973-107.695 28.54749-106.55656 31.58347-105.4181 33.88065-104.27966 35.51561-103.14122 36.56638-102.00278 37.12459-100.8644 37.22812-99.72594 36.87787-98.5875 36.20335-97.44905 35.20413-96.31061 33.98416-95.17216 32.50517-94.03372 30.8702-92.89526 29.07925-91.75682 27.15878-90.61838 25.14757-89.47993 23.07112-88.34155 20.96915-87.2031 18.82794-86.06465 16.72597-84.92621 14.624-83.78777 12.58678-82.64932 10.58832-81.51088 8.64186-80.37242 6.77339-79.23398 5.00844-78.09554 3.32147-76.95715 1.7385-75.81871 .25949-74.68025-1.07675-73.54181-2.33548-72.40337-3.47745-71.26492-4.51544-70.12648-5.43668-68.98804-6.2544-67.84958-6.9549-66.71114-7.53911-65.5727-8.01889-64.43431-8.39513-63.29587-8.68063-62.15741-8.87537-61.01897-8.96613-59.88052-8.97934-58.74208-8.90135-57.60364-8.77184-56.4652-8.5511-55.32674-8.27838-54.1883-7.92813-53.04991-7.53911-51.91147-7.11087-50.77303-6.63065-49.63457-6.11165-48.49612-5.56665-47.35768-5.00844-46.21924-4.42468-45.0808-3.81493-43.94234-3.21794-42.8039-2.6082-41.66545-1.99799-40.52707-1.38824-39.38863-.79126-38.25018-.22028-37.11172 .32425-35.97328 .86925-34.83484 1.37502-33.6964 1.86847-32.55795 2.30948-31.4195 2.73772-30.28105 3.1272-29.14267 3.47745-28.00423 3.77571-26.86578 4.04843-25.72734 4.28194-24.58888 4.46344-23.45044 4.60619-22.312 4.71017-21.17355 4.77493-20.03511 4.80093-18.89665 4.77493-17.75821 4.71017-16.61983 4.61942-15.48138 4.47667-14.34294 4.30792-13.2045 4.10042-12.06604 3.8537-10.9276 3.5942-9.78915 3.29547-8.65071 2.97122-7.51227 2.62097-6.37381 2.25749-5.23543 1.88124-4.09698 1.47899-2.95854 1.07675-1.8201 .66173-.68166 .24626 .45673-.14229 1.59517-.57053 2.73361-.99876 3.87206-1.401 5.0105-1.79048 6.14896-2.17996 7.28734-2.54298 8.42578-2.90646 9.56422-3.23071 10.70267-3.52943 11.84111-3.78894 12.97957-4.0352 14.11801-4.25594 15.25645-4.43745 16.3949-4.5802 17.53334-4.68417 18.6718-4.76216 19.81018-4.78816 20.94862-4.77493 22.08707-4.72295 23.22551-4.63219 24.36395-4.50267 25.50241-4.3207 26.64085-4.08719 27.7793-3.8277 28.91774-3.52943 30.05618-3.19196 31.19458-2.80247 32.33302-2.40024 33.47147-1.946 34.60991-1.46622 35.74835-.95999 36.8868-.42778 38.02525 .09074 39.1637 .6745 40.30214 1.25826 41.44058 1.86847 42.57903 2.47823 43.71742 3.08797 44.85587 3.69818 45.99431 4.29471 47.13275 4.89168 48.2712 5.46268 49.40964 6.00766 50.5481 6.52666 51.68654 7.00688 52.82498 7.46112 53.96342 7.86337 55.1018 8.21362 56.24026 8.49911 57.37871 8.73262 58.51715 8.8886 59.6556 8.97934H60.79404L61.93248 8.90135 63.07094 8.73262 64.20938 8.47311 65.34782 8.10963 66.48627 7.65585 67.62465 7.08487 68.7631 6.40991 69.90155 5.61864 71.04 4.72295 72.17844 3.71095 73.31688 2.5822 74.45534 1.33624 75.59378 0 76.73222-1.453 77.87067-3.02321 79.00905-4.68417 80.14749-6.4359 81.28595-8.29161 82.4244-10.21207 83.56284-12.1973 84.70128-14.24774 85.83972-16.33694 86.97818-18.43893 88.11662-20.5669 89.25507-22.6821 90.39351-24.75809 91.53189-26.78253 92.67033-28.71577 93.80879-30.54549 94.94724-32.23244 96.08568-33.7379 97.22412-35.03539 98.36256-36.07338 99.50102-36.81311 100.63947-37.20258 101.77791-37.21535 102.91629-36.76111 104.05473-35.81387 105.19318-34.28288 106.33163-32.12846 107.47008-29.27399 108.60852-25.62779 109.74696-21.1379 110.8854-15.70074 112.02386-9.22562 113.16231-1.63496"/>
<path transform="matrix(1.00003,0,0,-1.00006,171.1806,54.19247)" stroke-width=".3985" stroke-linecap="butt" stroke-miterlimit="10" stroke-linejoin="miter" fill="none" stroke="#000000" d="M-113.38724-13.28728-112.24878-7.24039-111.11034-2.17996-109.9719 1.99799-108.83345 5.41068-107.695 8.0841-106.55656 10.16008-105.4181 11.65231-104.27966 12.62553-103.14122 13.15776-102.00278 13.26129-100.8644 13.05377-99.72594 12.56078-98.5875 11.80783-97.44905 10.84782-96.31061 9.70584-95.17216 8.46034-94.03372 7.07166-92.89526 5.61864-91.75682 4.11319-90.61838 2.59497-89.47993 1.10274-88.34155-.389-87.2031-1.86847-86.06465-3.28271-84.92621-4.63219-83.78777-5.92967-82.64932-7.12364-81.51088-8.23962-80.37242-9.23885-79.23398-10.14731-78.09554-10.88658-76.95715-11.58755-75.81871-12.14531-74.68025-12.59955-73.54181-12.93703-72.40337-13.15776-71.26492-13.24852-70.12648-13.2745-68.98804-13.17053-67.84958-12.96303-66.71114-12.6643-65.5727-12.2493-64.43431-11.78229-63.29587-11.19807-62.15741-10.54956-61.01897-9.86182-59.88052-9.08287-58.74208-8.25238-57.60364-7.37036-56.4652-6.4619-55.32674-5.48866-54.1883-4.50267-53.04991-3.50343-51.91147-2.47823-50.77303-1.427-49.63457-.389-48.49612 .62251-47.35768 1.64774-46.21924 2.67296-45.0808 3.65895-43.94234 4.60619-42.8039 5.56665-41.66545 6.4359-40.52707 7.31837-39.38863 8.12286-38.25018 8.8886-37.11172 9.57632-35.97328 10.25084-34.83484 10.84782-33.6964 11.38004-32.55795 11.84705-31.4195 12.2493-30.28105 12.58678-29.14267 12.88504-28.00423 13.07977-26.86578 13.20929-25.72734 13.2745H-24.58888L-23.45044 13.1833-22.312 13.06654-21.17355 12.84627-20.03511 12.57355-18.89665 12.23607-17.75821 11.84705-16.61983 11.38004-15.48138 10.87381-14.34294 10.30283-13.2045 9.67986-12.06604 9.00534-10.9276 8.30438-9.78915 7.55188-8.65071 6.76016-7.51227 5.9429-6.37381 5.0992-5.23543 4.21718-4.09698 3.32147-2.95854 2.41345-1.8201 1.49222-.68166 .55775 .45673-.36302 1.59517-1.29749 2.73361-2.23149 3.87206-3.15318 5.0105-4.04843 6.14896-4.91768 7.28734-5.77415 8.42578-6.60464 9.56422-7.39636 10.70267-8.14886 11.84111-8.8626 12.97957-9.55034 14.11801-10.17285 15.25645-10.74384 16.3949-11.28883 17.53334-11.74306 18.6718-12.15854 19.81018-12.50879 20.94862-12.80705 22.08707-13.02779 23.22551-13.17053 24.36395-13.26129 25.50241-13.28728 26.64085-13.22252 27.7793-13.10577 28.91774-12.9238 30.05618-12.65154 31.19458-12.34004 32.33302-11.9378 33.47147-11.48357 34.60991-10.9518 35.74835-10.35481 36.8868-9.71907 38.02525-9.01811 39.1637-8.26561 40.30214-7.47389 41.44058-6.61742 42.57903-5.74817 43.71742-4.8137 44.85587-3.84093 45.99431-2.85446 47.13275-1.86847 48.2712-.83002 49.40964 .1815 50.5481 1.24548 51.68654 2.25749 52.82498 3.28271 53.96342 4.3207 55.1018 5.30716 56.24026 6.2544 57.37871 7.1884 58.51715 8.0841 59.6556 8.92735 60.79404 9.70584 61.93248 10.4328 63.07094 11.08133 64.20938 11.6783 65.34782 12.15854 66.48627 12.58678 67.62465 12.91103 68.7631 13.14453 69.90155 13.24852 71.04 13.2745 72.17844 13.19653 73.31688 13.01501 74.45534 12.67754 75.59378 12.27528 76.73222 11.7043 77.87067 11.05533 79.00905 10.30283 80.14749 9.40758 81.28595 8.44713 82.4244 7.35715 83.56284 6.1764 84.70128 4.91768 85.83972 3.55544 86.97818 2.15396 88.11662 .71327 89.25507-.76526 90.39351-2.30948 91.53189-3.8277 92.67033-5.33315 93.80879-6.78615 94.94724-8.17485 96.08568-9.47235 97.22412-10.62709 98.36256-11.63954 99.50102-12.4308 100.63947-12.98901 101.77791-13.26129 102.91629-13.19653 104.05473-12.75552 105.19318-11.87305 106.33163-10.51033 107.47008-8.56387 108.60852-6.02089 109.74696-2.73772 110.8854 1.29749 112.02386 6.16364 113.16231 11.98979"/>
<path transform="matrix(1.00003,0,0,-1.00006,171.1806,54.19247)" stroke-width="1.19553" stroke-linecap="butt" stroke-dasharray="1.19553,1.99255" stroke-miterlimit="10" stroke-linejoin="miter" fill="none" stroke="#000000" d="M-97.51308-29.89696-96.45418-26.00404-95.39532-22.55212-94.33647-19.47691-93.27763-16.7132-92.21878-14.28651-91.15993-12.14531-90.10109-10.26407-89.04224-8.61586-87.98338-7.17563-86.92455-5.92967-85.86569-4.85292-84.80684-3.94444-83.748-3.16595-82.68909-2.49098-81.63023-1.946-80.5714-1.49222-79.51254-1.10274-78.45369-.80447-77.39485-.55775-76.336-.36302-75.27715-.22028-74.2183-.11674-73.15945-.03876-72.1006 0-71.04176 .02553-69.98291 .05153H-68.924-67.86516L-66.8063 .03876-65.74745 .02553-64.6886 .01276-63.62976 0H-62.5709-61.51205L-60.45322-.01276H-59.39436-58.33551-57.27667-56.21776L-55.1589 0H-54.10007-53.04121L-51.98236 .01276H-50.92352L-49.86467 .02553H-48.80582-47.74698-46.68813L-45.62927 .01276-44.57043 0H-43.51158L-42.45267-.02553-41.39383-.06476-40.33498-.10352-39.27612-.1555-38.21729-.2075-37.15843-.28503-36.09958-.36302-35.04074-.441-33.98189-.54498-32.92303-.64851-31.8642-.76526-30.80534-.89523-29.74649-1.02477-28.68759-1.16751-27.62874-1.32347-26.56989-1.46622-25.51105-1.63496-24.4522-1.80325-23.39334-1.95923-22.3345-2.12796-21.27565-2.30948-20.2168-2.47823-19.15794-2.63373-18.0991-2.80247-17.04025-2.95845-15.98134-3.11397-14.9225-3.24394-13.86365-3.37346-12.8048-3.49022-11.74596-3.5942-10.6871-3.68495-9.62825-3.74971-8.56941-3.8017-7.51056-3.8277H-6.4517L-5.39287-3.8017-4.33401-3.73694-3.27516-3.65895-2.21626-3.5422-1.15741-3.39946-.09856-3.21794 .9602-2.99721 2.01906-2.73772 3.07791-2.43945 4.13675-2.10197 5.1956-1.72572 6.25446-1.29749 7.3133-.84325 8.37215-.32425 9.431 .2075 10.48984 .80447 11.54875 1.453 12.6076 2.14073 13.66644 2.89323 14.7253 3.67218 15.78415 4.50267 16.84299 5.38469 17.90184 6.30638 18.9607 7.25362 20.01953 8.26561 21.07838 9.31683 22.13724 10.39359 23.19609 11.50957 24.25499 12.67754 25.31384 13.87103 26.3727 15.091 27.43153 16.33694 28.49039 17.59521 29.54924 18.89316 30.60808 20.20341 31.66693 21.52736 32.72578 22.86362 33.78462 24.20033 34.84348 25.53658 35.90233 26.88652 36.96117 28.22276 38.02008 29.54625 39.07893 30.85696 40.13777 32.12846 41.19662 33.4004 42.25548 34.61992 43.31432 35.81387 44.37317 36.95586 45.43202 38.0586 46.49086 39.09705 47.54971 40.08305 48.60857 41.00429 49.6674 41.84799 50.72626 42.61327 51.78517 43.31422 52.84401 43.91121 53.90286 44.4042 54.96172 44.81923 56.02055 45.10472 57.0794 45.29945 58.13826 45.37744 59.1971 45.33823 60.25595 45.16994 61.3148 44.85844 62.37364 44.44298 63.4325 43.88521 64.49141 43.18425 65.55025 42.341 66.6091 41.35454 67.66795 40.23857 68.72679 38.96707 69.78564 37.55283 70.8445 36.00862 71.90335 34.30888 72.96219 32.47917 74.02104 30.50671 75.0799 28.40474 76.13873 26.18555 77.19759 23.83685 78.2565 21.37138 79.31534 18.81517 80.37419 16.15498 81.43304 13.41725 82.49188 10.60109 83.55074 7.74661 84.60959 4.82692 85.66843 1.90723 86.72728-.97276 87.78613-3.89246 88.84497-6.76016 89.90382-9.55034 90.96268-12.27528 92.02158-14.8575 93.08043-17.29695 94.13928-19.54169 95.19812-21.55336 96.25697-23.31786 97.31583-24.77132 98.37466-25.88728 99.43352-26.60103 100.49237-26.87329 101.55121-26.63979 102.61006-25.84807 103.66891-24.43382 104.72781-22.35785 105.78667-19.51569 106.84552-15.86949 107.90436-11.32805 108.96321-5.81293 110.02206 .7005 111.0809 8.42113 112.13976 17.34895 113.19861 27.639"/>
</svg>
