<svg xmlns="http://www.w3.org/2000/svg" xmlns:xlink="http://www.w3.org/1999/xlink" xmlns:inkscape="http://www.inkscape.org/namespaces/inkscape" version="1.1" width="210" height="200" viewBox="0 0 210 200">
<defs>
<path id="font_1_1" d="M.33399964 .30233766C.33999635 .32835389 .36299134 .42037965 .43299867 .42037965 .43798829 .42037965 .46199037 .42037965 .48298646 .40734864 .45498658 .402359 .43499757 .37734986 .43499757 .35334779 .43499757 .33735658 .44599916 .31835938 .47299195 .31835938 .49499513 .31835938 .5269928 .3363495 .5269928 .37635804 .5269928 .42837525 .46798707 .4423828 .43399049 .4423828 .37599183 .4423828 .34098817 .38935853 .32899476 .36634828 .3039856 .43237306 .25 .4423828 .22099304 .4423828 .116989139 .4423828 .05999756 .3133545 .05999756 .28834535 .05999756 .27833558 .069992069 .27833558 .07199097 .27833558 .07998657 .27833558 .08299255 .28033448 .084991458 .28933717 .11898804 .39535523 .18499756 .42037965 .21899414 .42037965 .23799134 .42037965 .272995 .4113617 .272995 .35334779 .272995 .32235719 .2559967 .25532533 .21899414 .11528015 .20298767 .053268434 .16799927 .011245728 .12399292 .011245728 .117996219 .011245728 .09498596 .011245728 .07398987 .024276734 .09899902 .029266358 .12098694 .05027771 .12098694 .07827759 .12098694 .105270389 .09899902 .11328125 .083999637 .11328125 .053985597 .11328125 .0289917 .08728027 .0289917 .055267335 .0289917 .009246826 .07899475-.0107421879 .12298584-.0107421879 .18899536-.0107421879 .22499085 .059280397 .22799683 .0652771 .23999024 .028274537 .27598573-.0107421879 .33599855-.0107421879 .43899537-.0107421879 .49598695 .118270877 .49598695 .14328003 .49598695 .1532898 .4869995 .1532898 .48399354 .1532898 .47499085 .1532898 .47299195 .14929199 .47099305 .14228821 .43798829 .03527832 .36999513 .011245728 .33799745 .011245728 .29899598 .011245728 .2829895 .043273927 .2829895 .07727051 .2829895 .09927368 .2889862 .121276859 .2999878 .16529846L.33399964 .30233766Z"/>
<path id="font_2_64" d="M.27598573 .18710327V.24511719H.010986328V.18710327H.27598573Z"/>
<path id="font_2_106" d="M.45700074 .17037964C.45700074 .252594 .3939972 .33088685 .2899933 .35191346 .37199403 .37893678 .42999269 .4490509 .42999269 .52809146 .42999269 .6100464 .34199525 .6660156 .24598694 .6660156 .14498902 .6660156 .068984989 .60606387 .068984989 .53009036 .068984989 .49710084 .09098816 .47808839 .11999512 .47808839 .15098572 .47808839 .17098999 .50009158 .17098999 .5290985 .17098999 .57910159 .12399292 .57910159 .10899353 .57910159 .13999939 .62802127 .20599365 .64100649 .24198914 .64100649 .2829895 .64100649 .33799745 .6190338 .33799745 .5290985 .33799745 .51708987 .33599855 .45906068 .30999757 .4149933 .27999879 .36691285 .24598694 .36390687 .22099304 .36291505 .21299744 .36190797 .18899536 .35990907 .18199158 .35990907 .17399597 .35890199 .16699219 .35791017 .16699219 .3479004 .16699219 .33691407 .17399597 .33691407 .19099427 .33691407H.23498535C.31698609 .33691407 .35398866 .2686615 .35398866 .17037964 .35398866 .034469606 .2849884 .0055389406 .24099732 .0055389406 .19799805 .0055389406 .12298584 .022491456 .08799744 .08137512 .12298584 .07637024 .1539917 .09837341 .1539917 .1363678 .1539917 .17237854 .1269989 .19238281 .09799194 .19238281 .07398987 .19238281 .041992189 .17837525 .041992189 .1343689 .041992189 .043441774 .1349945-.022460938 .24398804-.022460938 .3659973-.022460938 .45700074 .06838989 .45700074 .17037964Z"/>
<path id="font_2_107" d="M.44898988 .17396546H.42399598C.4189911 .14398194 .4119873 .099990848 .4019928 .084991458 .394989 .07699585 .32899476 .07699585 .30699159 .07699585H.1269989L.23298645 .17996216C.3889923 .31803895 .44898988 .37210084 .44898988 .47216798 .44898988 .5860901 .35899354 .6660156 .23699951 .6660156 .12399292 .6660156 .049987794 .57411196 .049987794 .48516847 .049987794 .4291687 .099990848 .4291687 .102996829 .4291687 .11999512 .4291687 .15499878 .44117738 .15499878 .48217774 .15499878 .5081787 .13699341 .5341797 .101989749 .5341797 .09399414 .5341797 .09199524 .5341797 .08898926 .5331726 .11199951 .59806826 .1659851 .63500979 .22399903 .63500979 .31498719 .63500979 .35798646 .5541382 .35798646 .47216798 .35798646 .39196778 .30799867 .31297303 .25299073 .25097657L.06098938 .036987306C.049987794 .025985718 .049987794 .023986817 .049987794 0H.42099L.44898988 .17396546Z"/>
<path id="font_2_82" d="M.4189911 0V.0309906H.3869934C.29699708 .0309906 .2939911 .041992189 .2939911 .07902527V.64012148C.2939911 .6640167 .2939911 .6660156 .2709961 .6660156 .20899964 .60227969 .12098694 .60227969 .08898926 .60227969V.57128909C.10899353 .57128909 .16799927 .57128909 .21998596 .5972748V.07902527C.21998596 .042999269 .21699524 .0309906 .1269989 .0309906H.09498596V0C.12998963 .0029907227 .21699524 .0029907227 .25698854 .0029907227 .29699708 .0029907227 .38398744 .0029907227 .4189911 0Z"/>
<path id="font_1_2" d="M.48599244 .38136292C.48999024 .39537049 .48999024 .39736939 .48999024 .40437318 .48999024 .42237855 .47599793 .43138124 .46099855 .43138124 .45098878 .43138124 .43499757 .42536927 .42599488 .41036988 .42399598 .405365 .41600038 .37435914 .4119873 .35635377 .40499879 .33035279 .397995 .30334474 .3919983 .27633668L.34700013 .09628296C.34298707 .08126831 .2999878 .011245728 .23399353 .011245728 .18299866 .011245728 .17199707 .055267335 .17199707 .0922699 .17199707 .1382904 .18899536 .20030213 .22299195 .28833009 .23899842 .3293457 .24299622 .3403473 .24299622 .36035157 .24299622 .405365 .21099854 .4423828 .16099549 .4423828 .06599426 .4423828 .0289917 .29733277 .0289917 .28833009 .0289917 .27833558 .038986207 .27833558 .040985109 .27833558 .050994874 .27833558 .051986696 .28033448 .056991579 .29634095 .083999637 .3903656 .12399292 .42037965 .1579895 .42037965 .1659851 .42037965 .18299866 .42037965 .18299866 .3883667 .18299866 .36335755 .17298889 .3373413 .1659851 .31834413 .12599182 .21231079 .10798645 .1552887 .10798645 .10827637 .10798645 .019256592 .17098999-.0107421879 .22999573-.0107421879 .2689972-.0107421879 .30299378 .0062561037 .33099366 .03425598 .31799317-.017745972 .30599977-.06674194 .2659912-.11973572 .23999024-.15385437 .20199585-.18309021 .1559906-.18309021 .14199829-.18309021 .09700012-.18005371 .07998657-.14074707 .09599304-.14074707 .10899353-.14074707 .12298584-.1287384 .1329956-.11973572 .14299011-.10673523 .14299011-.08773804 .14299011-.056747438 .115997318-.052734376 .10598755-.052734376 .08299255-.052734376 .049987794-.068740848 .049987794-.11773682 .049987794-.16796875 .09399414-.20507813 .1559906-.20507813 .25898744-.20507813 .3619995-.11373901 .3899994-.00074768069L.48599244 .38136292Z"/>
<path id="font_2_121" d="M.45999146 .31976319C.45999146 .39982606 .45498658 .47988893 .41999818 .5539398 .37399293 .65000918 .2919922 .6660156 .25 .6660156 .18998719 .6660156 .116989139 .64001467 .07598877 .54693606 .04399109 .47789 .038986207 .39982606 .038986207 .31976319 .038986207 .24472046 .042999269 .15464783 .083999637 .07859802 .1269989-.0024719239 .19999695-.022460938 .24899292-.022460938 .30299378-.022460938 .3789978-.0014648438 .4229889 .09359741 .45498658 .16265869 .45999146 .2407074 .45999146 .31976319M.3769989 .3317871C.3769989 .25672914 .3769989 .18867493 .3659973 .12461853 .35099793 .029556275 .2939911-.00047302247 .24899292-.00047302247 .20999146-.00047302247 .15098572 .024551392 .1329956 .12062073 .12199402 .18066406 .12199402 .2727356 .12199402 .3317871 .12199402 .39582826 .12199402 .46188355 .12998963 .5159149 .14898682 .63500979 .22399903 .64401248 .24899292 .64401248 .28199769 .64401248 .34799195 .6259918 .36698915 .52693179 .3769989 .47088624 .3769989 .39482118 .3769989 .3317871Z"/>
<path id="font_2_56" d="M.44898988 .20091248C.44898988 .31991578 .36698915 .41992188 .25898744 .41992188 .21099854 .41992188 .16799927 .4039154 .13198853 .36891175V.5641022C.1519928 .55778506 .18499756 .55078127 .21699524 .55078127 .33999635 .55078127 .4099884 .6418457 .4099884 .65493777 .4099884 .6609802 .40699769 .6660156 .3999939 .6660156 .3999939 .66607668 .39698792 .66607668 .3919983 .66308596 .37199403 .65408328 .32299806 .63378909 .2559967 .63378909 .21598816 .63409426 .16999817 .641098 .12298584 .6621094 .114990238 .6651001 .11099243 .6651001 .11099243 .6651001 .100997928 .66508486 .100997928 .657074 .100997928 .64108279V.3447113C.100997928 .3266449 .100997928 .31861878 .114990238 .31861878 .12199402 .31861878 .12399292 .32164 .12799073 .32765199 .13899231 .34371949 .17599488 .3979187 .25698854 .3979187 .30899049 .3979187 .33399964 .3517456 .34199525 .3336792 .35798646 .2965393 .3600006 .2574005 .3600006 .20721436 .3600006 .17218018 .3600006 .112197879 .33599855 .07032776 .31199647 .031448366 .2749939 .0055389406 .22898865 .0055389406 .1559906 .0055389406 .09899902 .05836487 .08198547 .1171875 .084991458 .11685181 .08799744 .115859989 .09899902 .115859989 .13198853 .115859989 .14898682 .14085388 .14898682 .16485596 .14898682 .18885803 .13198853 .21386719 .09899902 .21386719 .084991458 .21386719 .049987794 .2068634 .049987794 .16085816 .049987794 .07432556 .11898804-.022460938 .23098755-.022460938 .34700013-.022460938 .44898988 .07331848 .44898988 .20019531V.20091248Z"/>
<clipPath id="clip_3">
<path transform="matrix(1.00003,0,0,-1.00003,100.28589,130.72354)" d="M-113.38724-56.69275V124.72404H85.04042V-56.69275ZM85.04042 124.72404"/>
</clipPath>
</defs>
<path transform="matrix(1.00003,0,0,-1.00003,100.28589,130.72354)" stroke-width=".3985" stroke-linecap="butt" stroke-miterlimit="10" stroke-linejoin="miter" fill="none" stroke="#000000" d="M-99.21382 0H98.75554"/>
<path transform="matrix(1.00003,0,0,-1.00003,199.0444,130.72354)" stroke-width=".31879" stroke-linecap="round" stroke-linejoin="round" fill="none" stroke="#000000" d="M-1.19551 1.59401C-1.09587 .99626 0 .09961 .29886 0 0-.09961-1.09587-.99626-1.19551-1.59401"/>
<use data-text="x" xlink:href="#font_1_1" transform="matrix(9.962899,0,0,-9.962899,203.02298,127.20344)"/>
<path transform="matrix(1.00003,0,0,-1.00003,100.28589,130.72354)" stroke-width=".3985" stroke-linecap="butt" stroke-miterlimit="10" stroke-linejoin="miter" fill="none" stroke="#000000" d="M-85.04042 .56696V-.56696"/>
<use data-text="-" xlink:href="#font_2_64" transform="matrix(9.962899,0,0,-9.962899,11.093216,141.44586)"/>
<use data-text="3" xlink:href="#font_2_106" transform="matrix(9.962899,0,0,-9.962899,14.410873,141.44586)"/>
<path transform="matrix(1.00003,0,0,-1.00003,100.28589,130.72354)" stroke-width=".3985" stroke-linecap="butt" stroke-miterlimit="10" stroke-linejoin="miter" fill="none" stroke="#000000" d="M-56.69362 .56696V-.56696"/>
<use data-text="-" xlink:href="#font_2_64" transform="matrix(9.962899,0,0,-9.962899,39.441057,141.44586)"/>
<use data-text="2" xlink:href="#font_2_107" transform="matrix(9.962899,0,0,-9.962899,42.758714,141.44586)"/>
<path transform="matrix(1.00003,0,0,-1.00003,100.28589,130.72354)" stroke-width=".3985" stroke-linecap="butt" stroke-miterlimit="10" stroke-linejoin="miter" fill="none" stroke="#000000" d="M-28.3468 .56696V-.56696"/>
<use data-text="-" xlink:href="#font_2_64" transform="matrix(9.962899,0,0,-9.962899,67.78891,141.44586)"/>
<use data-text="1" xlink:href="#font_2_82" transform="matrix(9.962899,0,0,-9.962899,71.10657,141.44586)"/>
<path transform="matrix(1.00003,0,0,-1.00003,100.28589,130.72354)" stroke-width=".3985" stroke-linecap="butt" stroke-miterlimit="10" stroke-linejoin="miter" fill="none" stroke="#000000" d="M28.3468 .56696V-.56696"/>
<use data-text="1" xlink:href="#font_2_82" transform="matrix(9.962899,0,0,-9.962899,126.14267,141.44586)"/>
<path transform="matrix(1.00003,0,0,-1.00003,100.28589,130.72354)" stroke-width=".3985" stroke-linecap="butt" stroke-miterlimit="10" stroke-linejoin="miter" fill="none" stroke="#000000" d="M56.69362 .56696V-.56696"/>
<use data-text="2" xlink:href="#font_2_107" transform="matrix(9.962899,0,0,-9.962899,154.49051,141.44586)"/>
<path transform="matrix(1.00003,0,0,-1.00003,100.28589,130.72354)" stroke-width=".3985" stroke-linecap="butt" stroke-miterlimit="10" stroke-linejoin="miter" fill="none" stroke="#000000" d="M85.04042 .56696V-.56696"/>
<use data-text="3" xlink:href="#font_2_106" transform="matrix(9.962899,0,0,-9.962899,182.83838,141.44586)"/>
<path transform="matrix(1.00003,0,0,-1.00003,100.28589,130.72354)" stroke-width=".3985" stroke-linecap="butt" stroke-miterlimit="10" stroke-linejoin="miter" fill="none" stroke="#000000" d="M0-68.0313V118.5965"/>
<path transform="matrix(0,-1.00003,-1.00003,-0,100.28589,12.123482)" stroke-width=".31879" stroke-linecap="round" stroke-linejoin="round" fill="none" stroke="#000000" d="M-1.19551 1.59401C-1.09587 .99626 0 .09961 .29886 0 0-.09961-1.09587-.99626-1.19551-1.59401"/>
<use data-text="y" xlink:href="#font_1_2" transform="matrix(9.962899,0,0,-9.962899,103.80599,6.207802)"/>
<path transform="matrix(1.00003,0,0,-1.00003,100.28589,130.72354)" stroke-width=".3985" stroke-linecap="butt" stroke-miterlimit="10" stroke-linejoin="miter" fill="none" stroke="#000000" d="M2.83484-56.69275H-2.83484"/>
<use data-text="-" xlink:href="#font_2_64" transform="matrix(9.962899,0,0,-9.962899,80.6503,190.62635)"/>
<use data-text="1" xlink:href="#font_2_82" transform="matrix(9.962899,0,0,-9.962899,83.96796,190.62635)"/>
<use data-text="0" xlink:href="#font_2_121" transform="matrix(9.962899,0,0,-9.962899,88.9494,190.62635)"/>
<path transform="matrix(1.00003,0,0,-1.00003,100.28589,130.72354)" stroke-width=".3985" stroke-linecap="butt" stroke-miterlimit="10" stroke-linejoin="miter" fill="none" stroke="#000000" d="M2.83484-28.34636H-2.83484"/>
<use data-text="-" xlink:href="#font_2_64" transform="matrix(9.962899,0,0,-9.962899,85.63145,162.27849)"/>
<use data-text="5" xlink:href="#font_2_56" transform="matrix(9.962899,0,0,-9.962899,88.949108,162.27849)"/>
<path transform="matrix(1.00003,0,0,-1.00003,100.28589,130.72354)" stroke-width=".3985" stroke-linecap="butt" stroke-miterlimit="10" stroke-linejoin="miter" fill="none" stroke="#000000" d="M2.83484 28.34636H-2.83484"/>
<use data-text="5" xlink:href="#font_2_56" transform="matrix(9.962899,0,0,-9.962899,88.94955,105.584789)"/>
<path transform="matrix(1.00003,0,0,-1.00003,100.28589,130.72354)" stroke-width=".3985" stroke-linecap="butt" stroke-miterlimit="10" stroke-linejoin="miter" fill="none" stroke="#000000" d="M2.83484 56.69275H-2.83484"/>
<use data-text="1" xlink:href="#font_2_82" transform="matrix(9.962899,0,0,-9.962899,83.9684,77.23694)"/>
<use data-text="0" xlink:href="#font_2_121" transform="matrix(9.962899,0,0,-9.962899,88.949848,77.23694)"/>
<path transform="matrix(1.00003,0,0,-1.00003,100.28589,130.72354)" stroke-width=".3985" stroke-linecap="butt" stroke-miterlimit="10" stroke-linejoin="miter" fill="none" stroke="#000000" d="M2.83484 85.03911H-2.83484"/>
<use data-text="1" xlink:href="#font_2_82" transform="matrix(9.962899,0,0,-9.962899,83.9684,48.890085)"/>
<use data-text="5" xlink:href="#font_2_56" transform="matrix(9.962899,0,0,-9.962899,88.949848,48.890085)"/>
<path transform="matrix(1.00003,0,0,-1.00003,100.28589,130.72354)" stroke-width=".3985" stroke-linecap="butt" stroke-miterlimit="10" stroke-linejoin="miter" fill="none" stroke="#000000" d="M2.83484 113.3855H-2.83484"/>
<use data-text="2" xlink:href="#font_2_107" transform="matrix(9.962899,0,0,-9.962899,83.9684,20.543229)"/>
<use data-text="0" xlink:href="#font_2_121" transform="matrix(9.962899,0,0,-9.962899,88.949848,20.543229)"/>
<g clip-path="url(#clip_3)">
<path transform="matrix(1.00003,0,0,-1.00003,100.28589,130.72354)" stroke-width=".3985" stroke-linecap="butt" stroke-miterlimit="10" stroke-linejoin="miter" fill="none" stroke="#000000" d="M-90.69604-153.86359-89.56822-116.0415-88.42676-81.63942-87.28528-50.86412-86.14381-23.4745-85.00235 .7595-83.86089 22.0584-82.71942 40.63216-81.57794 56.68124-80.43648 70.39705-79.29501 81.96175-78.15355 91.54793-77.01207 99.3201-75.8706 105.43495-74.72914 110.04073-73.58768 113.27684-72.44621 115.27669-71.30473 116.1645-70.16327 116.05957-69.0218 115.07176-67.88034 113.30676-66.73886 110.86159-65.5974 107.8291-64.45592 104.29506-63.31447 100.33861-62.173 96.03398-61.03152 91.45157-59.89006 86.65515-58.74858 81.70258-57.60713 76.6493-56.46565 71.5438-55.32419 66.43118-54.18272 61.35526-53.04126 56.34914-51.8998 51.44994-50.75832 46.68483-49.61685 42.08002-48.47537 37.65936-47.33392 33.44183-46.19244 29.44499-45.05098 25.68309-43.90952 22.16592-42.76804 18.90395-41.62659 15.90218-40.4851 13.16512-39.34364 10.69588-38.20216 8.49507-37.0607 6.56001-35.91924 4.8887-34.77777 3.47658-33.6363 2.31549-32.49483 1.40129-31.35338 .72343-30.2119 .27266-29.07043 .03961-27.92896 .01286-26.78749 .17966-25.64603 .52759-24.50456 1.04541-23.3631 1.71687-22.22162 2.53029-21.08015 3.47156-19.93869 4.52547-18.79723 5.67886-17.65575 6.91737-16.51428 8.22552-15.37282 9.59145-14.23135 10.9997-13.08989 12.43742-11.94841 13.89142-10.80695 15.3493-9.66548 16.79802-8.52402 18.22556-7.38254 19.62247-6.24107 20.97542-5.09961 22.27682-3.95815 23.5149-2.81668 24.68298-1.6752 25.77159-.53374 26.77437 .60771 27.68407 1.74916 28.49507 2.89064 29.20311 4.0321 29.8032 5.17357 30.29283 6.31505 30.66853 7.4565 30.92902 8.59798 31.07373 9.73944 31.10202 10.88092 31.0155 12.02238 30.81413 13.16385 30.50192 14.30531 30.08029 15.44678 29.55406 16.58826 28.92682 17.7297 28.20457 18.87119 27.39238 20.01265 26.49747 21.15413 25.52504 22.2956 24.48463 23.43704 23.38176 24.57852 22.22517 25.71999 21.02411 26.86147 19.78699 28.00293 18.52444 29.1444 17.24414 30.28586 15.95416 31.42734 14.6673 32.5688 13.39012 33.71027 12.13136 34.85173 10.90228 35.9932 9.71005 37.13467 8.56488 38.27614 7.47075 39.4176 6.43735 40.55907 5.4714 41.70055 4.57936 42.84201 3.76318 43.98347 3.02744 45.12494 2.37459 46.2664 1.80995 47.40788 1.32768 48.54935 .92984 49.69083 .61383 50.83228 .37187 51.97375 .20102 53.11522 .09012 54.25668 .02844 55.39816 .00336 56.53961 0H57.68109L58.82256-.02057 59.96404-.08139 61.10548-.2171 62.24695-.44937 63.38843-.81573 64.52989-1.3519 65.67137-2.1046 66.81282-3.11221 67.9543-4.42374 69.09576-6.09703 70.23724-8.18971 71.37871-10.76413 72.52016-13.88052 73.66164-17.62312 74.8031-22.07024 75.94458-27.2979 77.08604-33.394 78.22751-40.46008 79.30533-48.14325"/>
<path transform="matrix(-.029800896,.99954006,.99954006,.029800896,9.587128,284.59175)" stroke-width=".31879" stroke-linecap="round" stroke-linejoin="round" fill="none" stroke="#000000" d="M-1.19551 1.59401C-1.09587 .99626 0 .09961 .29886 0 0-.09961-1.09587-.99626-1.19551-1.59401"/>
<path transform="matrix(.13890417,.9903097,.9903097,-.13890417,179.59358,178.86823)" stroke-width=".31879" stroke-linecap="round" stroke-linejoin="round" fill="none" stroke="#000000" d="M-1.19551 1.59401C-1.09587 .99626 0 .09961 .29886 0 0-.09961-1.09587-.99626-1.19551-1.59401"/>
<path transform="matrix(1.00003,0,0,-1.00003,100.28589,130.72354)" stroke-width=".3985" stroke-linecap="butt" stroke-dasharray="2.98883,2.98883" stroke-miterlimit="10" stroke-linejoin="miter" fill="none" stroke="#000000" d="M-90.68681-112.92609-90.23735-103.93727-89.76503-94.4908-89.2927-85.04431-88.82036-75.59782-88.34804-66.15134-87.8757-56.70485-87.40337-47.25836-86.93103-37.81187-86.45871-28.36539-85.98637-18.91891-85.51404-9.47243-85.04172-.02592-84.56937 9.42052-84.09705 18.867-83.62473 28.31348-83.15237 37.75998-82.68005 47.20647-82.20772 56.65295-81.7354 66.09943-81.26306 75.54591-80.79073 84.9924-80.3184 94.43889-79.84607 103.88538-79.3966 112.87418"/>
<path transform="matrix(-.0499315,.99875,.99875,.0499315,9.596352,243.65302)" stroke-width=".31879" stroke-linecap="round" stroke-linejoin="round" fill="none" stroke="#000000" d="M-1.19551 1.59401C-1.09587 .99626 0 .09961 .29886 0 0-.09961-1.09587-.99626-1.19551-1.59401"/>
<path transform="matrix(.0499315,-.99875,-.99875,-.0499315,20.886902,17.845993)" stroke-width=".31879" stroke-linecap="round" stroke-linejoin="round" fill="none" stroke="#000000" d="M-1.19551 1.59401C-1.09587 .99626 0 .09961 .29886 0 0-.09961-1.09587-.99626-1.19551-1.59401"/>
<path transform="matrix(1.00003,0,0,-1.00003,100.28589,130.72354)" stroke-width=".3985" stroke-linecap="butt" stroke-dasharray="2.98883,2.98883" stroke-miterlimit="10" stroke-linejoin="miter" fill="none" stroke="#000000" d="M-42.32092 14.89436-41.33937 12.86198-40.15854 10.63005-38.9777 8.61108-37.79689 6.80421-36.61606 5.21034-35.43523 3.82858-34.2544 2.65883-33.07356 1.70218-31.89275 .95752-30.71191 .42593-29.53108 .10646-28.35025 0-27.16942 .10553-25.9886 .42317-24.80777 .9538-23.62694 1.69655-22.4461 2.65236-21.26527 3.82106-20.08446 5.201-18.90363 6.79393-17.7228 8.59982-16.54196 10.61784-15.36113 12.84894-14.37971 14.87946"/>
<path transform="matrix(-.43489305,-.90047708,-.90047708,.43489305,57.96372,115.828739)" stroke-width=".31879" stroke-linecap="round" stroke-linejoin="round" fill="none" stroke="#000000" d="M-1.19551 1.59401C-1.09587 .99626 0 .09961 .29886 0 0-.09961-1.09587-.99626-1.19551-1.59401"/>
<path transform="matrix(.43513308,-.90033707,-.90033707,-.43513308,85.90575,115.84365)" stroke-width=".31879" stroke-linecap="round" stroke-linejoin="round" fill="none" stroke="#000000" d="M-1.19551 1.59401C-1.09587 .99626 0 .09961 .29886 0 0-.09961-1.09587-.99626-1.19551-1.59401"/>
<path transform="matrix(1.00003,0,0,-1.00003,100.28589,130.72354)" stroke-width=".3985" stroke-linecap="butt" stroke-dasharray="2.98883,2.98883" stroke-miterlimit="10" stroke-linejoin="miter" fill="none" stroke="#000000" d="M31.29227 36.75003 33.30757 28.6493 35.43349 21.52551 37.55942 15.69179 39.68535 11.02045 41.81126 7.38303 43.9372 4.64952 46.06311 2.69069 48.18904 1.37724 50.31497 .58078 52.44089 .17204 54.5668 .021 56.69275 0 58.81866-.021 60.94458-.17128 63.07051-.58 65.19644-1.37646 67.32236-2.68912 69.44829-4.64719 71.5742-7.3807 73.70012-11.01733 75.82607-15.68712 77.95198-21.52007 80.0779-28.64307 82.09319-36.74225"/>
<path transform="matrix(-.24136725,-.97043916,-.97043916,.24136725,131.5791,93.97242)" stroke-width=".31879" stroke-linecap="round" stroke-linejoin="round" fill="none" stroke="#000000" d="M-1.19551 1.59401C-1.09587 .99626 0 .09961 .29886 0 0-.09961-1.09587-.99626-1.19551-1.59401"/>
<path transform="matrix(.24144726,.9704291,.9704291,-.24144726,182.38155,167.46688)" stroke-width=".31879" stroke-linecap="round" stroke-linejoin="round" fill="none" stroke="#000000" d="M-1.19551 1.59401C-1.09587 .99626 0 .09961 .29886 0 0-.09961-1.09587-.99626-1.19551-1.59401"/>
</g>
</svg>
