<svg xmlns="http://www.w3.org/2000/svg" xmlns:xlink="http://www.w3.org/1999/xlink" xmlns:inkscape="http://www.inkscape.org/namespaces/inkscape" version="1.1" width="153" height="155" viewBox="0 0 153 155">
<defs>
<path id="font_1_1" d="M.33399964 .30233766C.33999635 .32835389 .36299134 .42037965 .43299867 .42037965 .43798829 .42037965 .46199037 .42037965 .48298646 .40734864 .45498658 .402359 .43499757 .37734986 .43499757 .35334779 .43499757 .33735658 .44599916 .31835938 .47299195 .31835938 .49499513 .31835938 .5269928 .3363495 .5269928 .37635804 .5269928 .42837525 .46798707 .4423828 .43399049 .4423828 .37599183 .4423828 .34098817 .38935853 .32899476 .36634828 .3039856 .43237306 .25 .4423828 .22099304 .4423828 .116989139 .4423828 .05999756 .3133545 .05999756 .28834535 .05999756 .27833558 .069992069 .27833558 .07199097 .27833558 .07998657 .27833558 .08299255 .28033448 .084991458 .28933717 .11898804 .39535523 .18499756 .42037965 .21899414 .42037965 .23799134 .42037965 .272995 .4113617 .272995 .35334779 .272995 .32235719 .2559967 .25532533 .21899414 .11528015 .20298767 .053268434 .16799927 .011245728 .12399292 .011245728 .117996219 .011245728 .09498596 .011245728 .07398987 .024276734 .09899902 .029266358 .12098694 .05027771 .12098694 .07827759 .12098694 .105270389 .09899902 .11328125 .083999637 .11328125 .053985597 .11328125 .0289917 .08728027 .0289917 .055267335 .0289917 .009246826 .07899475-.0107421879 .12298584-.0107421879 .18899536-.0107421879 .22499085 .059280397 .22799683 .0652771 .23999024 .028274537 .27598573-.0107421879 .33599855-.0107421879 .43899537-.0107421879 .49598695 .118270877 .49598695 .14328003 .49598695 .1532898 .4869995 .1532898 .48399354 .1532898 .47499085 .1532898 .47299195 .14929199 .47099305 .14228821 .43798829 .03527832 .36999513 .011245728 .33799745 .011245728 .29899598 .011245728 .2829895 .043273927 .2829895 .07727051 .2829895 .09927368 .2889862 .121276859 .2999878 .16529846L.33399964 .30233766Z"/>
<path id="font_2_64" d="M.27598573 .18710327V.24511719H.010986328V.18710327H.27598573Z"/>
<path id="font_2_82" d="M.4189911 0V.0309906H.3869934C.29699708 .0309906 .2939911 .041992189 .2939911 .07902527V.64012148C.2939911 .6640167 .2939911 .6660156 .2709961 .6660156 .20899964 .60227969 .12098694 .60227969 .08898926 .60227969V.57128909C.10899353 .57128909 .16799927 .57128909 .21998596 .5972748V.07902527C.21998596 .042999269 .21699524 .0309906 .1269989 .0309906H.09498596V0C.12998963 .0029907227 .21699524 .0029907227 .25698854 .0029907227 .29699708 .0029907227 .38398744 .0029907227 .4189911 0Z"/>
<path id="font_1_2" d="M.48599244 .38136292C.48999024 .39537049 .48999024 .39736939 .48999024 .40437318 .48999024 .42237855 .47599793 .43138124 .46099855 .43138124 .45098878 .43138124 .43499757 .42536927 .42599488 .41036988 .42399598 .405365 .41600038 .37435914 .4119873 .35635377 .40499879 .33035279 .397995 .30334474 .3919983 .27633668L.34700013 .09628296C.34298707 .08126831 .2999878 .011245728 .23399353 .011245728 .18299866 .011245728 .17199707 .055267335 .17199707 .0922699 .17199707 .1382904 .18899536 .20030213 .22299195 .28833009 .23899842 .3293457 .24299622 .3403473 .24299622 .36035157 .24299622 .405365 .21099854 .4423828 .16099549 .4423828 .06599426 .4423828 .0289917 .29733277 .0289917 .28833009 .0289917 .27833558 .038986207 .27833558 .040985109 .27833558 .050994874 .27833558 .051986696 .28033448 .056991579 .29634095 .083999637 .3903656 .12399292 .42037965 .1579895 .42037965 .1659851 .42037965 .18299866 .42037965 .18299866 .3883667 .18299866 .36335755 .17298889 .3373413 .1659851 .31834413 .12599182 .21231079 .10798645 .1552887 .10798645 .10827637 .10798645 .019256592 .17098999-.0107421879 .22999573-.0107421879 .2689972-.0107421879 .30299378 .0062561037 .33099366 .03425598 .31799317-.017745972 .30599977-.06674194 .2659912-.11973572 .23999024-.15385437 .20199585-.18309021 .1559906-.18309021 .14199829-.18309021 .09700012-.18005371 .07998657-.14074707 .09599304-.14074707 .10899353-.14074707 .12298584-.1287384 .1329956-.11973572 .14299011-.10673523 .14299011-.08773804 .14299011-.056747438 .115997318-.052734376 .10598755-.052734376 .08299255-.052734376 .049987794-.068740848 .049987794-.11773682 .049987794-.16796875 .09399414-.20507813 .1559906-.20507813 .25898744-.20507813 .3619995-.11373901 .3899994-.00074768069L.48599244 .38136292Z"/>
</defs>
<path transform="matrix(1.00009,0,0,-1,71.96886,82.533)" stroke-width=".3985" stroke-linecap="butt" stroke-miterlimit="10" stroke-linejoin="miter" fill="none" stroke="#000000" d="M-70.86699 0H70.40872"/>
<path transform="matrix(1.00009,0,0,-1,142.38391,82.533)" stroke-width=".31879" stroke-linecap="round" stroke-linejoin="round" fill="none" stroke="#000000" d="M-1.19551 1.59401C-1.09587 .99626 0 .09961 .29886 0 0-.09961-1.09587-.99626-1.19551-1.59401"/>
<use data-text="x" xlink:href="#font_1_1" transform="matrix(9.963496,0,0,-9.9626,146.36255,79.013)"/>
<path transform="matrix(1.00009,0,0,-1,71.96886,82.533)" stroke-width=".3985" stroke-linecap="butt" stroke-miterlimit="10" stroke-linejoin="miter" fill="none" stroke="#000000" d="M-56.69362 5.6697V-5.6697"/>
<use data-text="-" xlink:href="#font_2_64" transform="matrix(9.963496,0,0,-9.9626,11.120377,98.358)"/>
<use data-text="1" xlink:href="#font_2_82" transform="matrix(9.963496,0,0,-9.9626,14.438232,98.358)"/>
<path transform="matrix(1.00009,0,0,-1,71.96886,82.533)" stroke-width=".3985" stroke-linecap="butt" stroke-miterlimit="10" stroke-linejoin="miter" fill="none" stroke="#000000" d="M56.69362 5.6697V-5.6697"/>
<use data-text="1" xlink:href="#font_2_82" transform="matrix(9.963496,0,0,-9.9626,126.176738,98.358)"/>
<path transform="matrix(1.00009,0,0,-1,71.96886,82.533)" stroke-width=".3985" stroke-linecap="butt" stroke-miterlimit="10" stroke-linejoin="miter" fill="none" stroke="#000000" d="M0-70.86699V70.40872"/>
<path transform="matrix(0,-1,-1.00009,-0,71.96886,12.124275)" stroke-width=".31879" stroke-linecap="round" stroke-linejoin="round" fill="none" stroke="#000000" d="M-1.19551 1.59401C-1.09587 .99626 0 .09961 .29886 0 0-.09961-1.09587-.99626-1.19551-1.59401"/>
<use data-text="y" xlink:href="#font_1_2" transform="matrix(9.963496,0,0,-9.9626,75.489177,6.2089998)"/>
<path transform="matrix(1.00009,0,0,-1,71.96886,82.533)" stroke-width=".3985" stroke-linecap="butt" stroke-miterlimit="10" stroke-linejoin="miter" fill="none" stroke="#000000" d="M5.6697-56.69362H-5.6697"/>
<use data-text="-" xlink:href="#font_2_64" transform="matrix(9.963496,0,0,-9.9626,54.47928,142.544)"/>
<use data-text="1" xlink:href="#font_2_82" transform="matrix(9.963496,0,0,-9.9626,57.797136,142.544)"/>
<path transform="matrix(1.00009,0,0,-1,71.96886,82.533)" stroke-width=".3985" stroke-linecap="butt" stroke-miterlimit="10" stroke-linejoin="miter" fill="none" stroke="#000000" d="M5.6697 56.69362H-5.6697"/>
<use data-text="1" xlink:href="#font_2_82" transform="matrix(9.963496,0,0,-9.9626,57.796586,29.156998)"/>
<path transform="matrix(1.00009,0,0,-1,71.96886,82.533)" stroke-width=".3985" stroke-linecap="butt" stroke-miterlimit="10" stroke-linejoin="miter" fill="none" stroke="#000000" d="M-56.69362 56.69362H-51.96942-47.24525-42.52106-37.79689-33.0727-28.34853-23.62433-18.90016-14.176-9.4518-4.72763-.00343 4.72069 9.44489 14.16905 18.89322 23.61742 28.34158 33.06578 37.78995 42.51414 47.23831 51.96248 56.68668"/>
<path transform="matrix(1.00009,0,0,-1,71.96886,82.533)" stroke-width=".3985" stroke-linecap="butt" stroke-miterlimit="10" stroke-linejoin="miter" fill="none" stroke="#000000" d="M-56.69362-56.69362-51.96942-51.96942-47.24525-47.24525-42.52106-42.52106-37.79689-37.79689-33.0727-33.0727-28.34853-28.34853-23.62433-23.62433-18.90016-18.90016-14.176-14.176-9.4518-9.4518-4.72763-4.72763-.00343-.00343 4.72069 4.72069 9.44489 9.44489 14.16905 14.16905 18.89322 18.89322 23.61742 23.61742 28.34158 28.34158 33.06578 33.06578 37.78995 37.78995 42.51414 42.51414 47.23831 47.23831 51.96248 51.96248 56.68668 56.68668"/>
<path transform="matrix(1.00009,0,0,-1,71.96886,82.533)" stroke-width=".3985" stroke-linecap="butt" stroke-miterlimit="10" stroke-linejoin="miter" fill="none" stroke="#000000" d="M-56.69362 56.69362-56.12439 54.4271-55.55516 52.18483-54.98595 49.96503-54.41672 47.76775-53.8475 45.59468-53.27827 43.44235-52.70905 41.31429-52.13983 39.2087-51.5706 37.1273-51.00139 35.0667-50.43219 33.0303-49.86296 31.0164-49.29375 29.02501-48.72452 27.0561-48.1553 25.1114-47.58607 23.18921-47.01686 21.2895-46.44763 19.41228-45.8784 17.55754-45.30919 15.72705-44.73996 13.91905-44.17078 12.13354-43.60155 10.37051-43.03232 8.6317-42.4631 6.9154-41.89388 5.21983-41.32466 3.55026-40.75543 1.90143-40.1862 .2768-39.61699-1.327-39.04776-2.90665-38.47858-4.46205-37.90935-5.99669-37.34012-7.5071-36.7709-8.99677-36.20168-10.46048-35.63246-11.90341-35.06323-13.32388-34.49402-14.7201-33.92479-16.09384-33.35556-17.44511-32.78635-18.77386-32.21715-20.0784-31.64793-21.36044-31.0787-22.62-30.50948-23.85704-29.94026-25.07161-29.37103-26.26196-28.80182-27.42981-28.23259-28.57518-27.66336-29.69803-27.09415-30.79842-26.52495-31.87456-25.95573-32.92824-25.3865-33.95938-24.81728-34.96634-24.24806-35.95255-23.67883-36.9145-23.10962-37.85399-22.54039-38.77097-21.97116-39.66545-21.40195-40.5357-20.83272-41.38348-20.26353-42.20877-19.6943-43.01155-19.12509-43.79184-18.55586-44.54793-17.98663-45.28152-17.41742-45.9926-16.84819-46.6812-16.27898-47.34558-15.70975-47.98747-15.14052-48.60686-14.57133-49.20378-14.0021-49.77817-13.43289-50.32835-12.86366-50.85779-12.29443-51.363-11.72522-51.84396-11.15599-52.3042-10.58678-52.74019-10.01755-53.15372-9.44832-53.54474-8.8791-53.91324-8.3099-54.25755-7.74069-54.58109-7.17146-54.88042-6.60225-55.15721-6.03302-55.40984-5.46379-55.64166-4.89458-55.84929-4.32535-56.03442-3.75613-56.19705-3.1869-56.33545-2.6177-56.45311-2.0485-56.54655-1.47926-56.61748-.91005-56.66591-.34082-56.69014 .22836-56.69188 .79758-56.67285 1.3668-56.62785 1.93602-56.56212 2.50525-56.47388 3.07448-56.36142 3.64366-56.22646 4.21289-56.06903 4.7821-55.88736 5.35133-55.68494 5.92055-55.45827 6.48978-55.20914 7.059-54.93578 7.62822-54.64165 8.19745-54.32329 8.76666-53.98247 9.33589-53.61911 9.90509-53.2333 10.4743-52.82498 11.04353-52.39243 11.61275-51.9374 12.18198-51.45987 12.7512-50.95815 13.32042-50.43562 13.88965-49.8889 14.45886-49.31969 15.02809-48.72798 15.59729-48.11203 16.1665-47.47362 16.73573-46.81442 17.30495-46.13103 17.87418-45.42339 18.44339-44.69499 19.01262-43.94237 19.58185-43.16725 20.15106-42.36967 20.72029-41.54959 21.2895-40.70526 21.8587-39.83846 22.42793-38.94916 22.99715-38.03738 23.56638-37.1031 24.13559-36.14458 24.70482-35.1636 25.27405-34.16008 25.84326-33.13411 26.41249-32.08392 26.9817-31.01294 27.5509-29.91776 28.12013-28.79834 28.68935-27.6582 29.25858-26.49551 29.82779-25.30864 30.39702-24.09926 30.96623-22.86739 31.53546-21.61131 32.10469-20.33446 32.6739-19.03339 33.24313-17.70981 33.81232-16.36203 34.38155-14.99345 34.95078-13.60072 35.51999-12.18544 36.08922-10.74767 36.65843-9.28743 37.22766-7.80295 37.79689-6.29771 38.3661-4.76828 38.93533-3.2146 39.50452-1.64017 40.07375-.04149 40.64297 1.57787 41.21219 3.22154 41.78142 4.88937 42.35063 6.578 42.91986 8.29088 43.48909 10.02621 44.0583 11.78404 44.62753 13.56438 45.19675 15.36891 45.76595 17.19421 46.33516 19.04375 46.90439 20.91579 47.47362 22.81203 48.04283 24.72905 48.61206 26.67029 49.18127 28.63399 49.7505 30.62021 50.31973 32.63065 50.88895 34.66357 51.45815 36.71727 52.02736 38.79517 52.59659 40.8973 53.16582 43.02019 53.73503 45.16731 54.30426 47.33694 54.87347 49.52904 55.4427 51.74364 56.01193 53.98247 56.58115 56.24376"/>
<path transform="matrix(1.00009,0,0,-1,71.96886,82.533)" stroke-width=".3985" stroke-linecap="butt" stroke-miterlimit="10" stroke-linejoin="miter" fill="none" stroke="#000000" d="M-56.69362-56.69362-56.12439-51.63637-55.55516-46.71753-54.98595-41.93367-54.41672-37.2813-53.8475-32.76387-53.27827-28.37102-52.70905-24.10963-52.13983-19.9763-51.5706-15.97101-51.00139-12.09027-50.43219-8.33064-49.86296-4.6956-49.29375-1.1782-48.72452 2.22148-48.1553 5.49666-47.58607 8.6611-47.01686 11.70792-46.44763 14.64053-45.8784 17.46242-45.30919 20.17354-44.73996 22.77396-44.17078 25.2671-43.60155 27.653-43.03232 29.9316-42.4631 32.10641-41.89388 34.18085-41.32466 36.15152-40.75543 38.02179-40.1862 39.79521-39.61699 41.47173-39.04776 43.05482-38.47858 44.53757-37.90935 45.93031-37.34012 47.22964-36.7709 48.44249-36.20168 49.5619-35.63246 50.59825-35.06323 51.54468-34.49402 52.40802-33.92479 53.18831-33.35556 53.88556-32.78635 54.50322-32.21715 55.03784-31.64793 55.49634-31.0787 55.88216-30.50948 56.18839-29.94026 56.42195-29.37103 56.58289-28.80182 56.67458-28.23259 56.69362-27.66336 56.64688-27.09415 56.53442-26.52495 56.35275-25.95573 56.1088-25.3865 55.80257-24.81728 55.43057-24.24806 55.00325-23.67883 54.51706-23.10962 53.97206-22.54039 53.3717-21.97116 52.71599-21.40195 52.00833-20.83272 51.24881-20.26353 50.43736-19.6943 49.57747-19.12509 48.67262-18.55586 47.7193-17.98663 46.721-17.41742 45.6777-16.84819 44.59636-16.27898 43.47005-15.70975 42.30563-15.14052 41.1032-14.57133 39.86615-14.0021 38.591-13.43289 37.28476-12.86366 35.94388-12.29443 34.57187-11.72522 33.17216-11.15599 31.74136-10.58678 30.28629-10.01755 28.80354-9.44832 27.29657-8.8791 25.76886-8.3099 24.21692-7.74069 22.64766-7.17146 21.05765-6.60225 19.45035-6.03302 17.82921-5.46379 16.19073-4.89458 14.53844-4.32535 12.87576-3.75613 11.20273-3.1869 9.52272-2.6177 7.83238-2.0485 6.13509-1.47926 4.43434-.91005 2.73015-.34082 1.0225 .22836-.68512 .79758-2.39278 1.3668-4.10045 1.93602-5.8012 2.50525-7.49846 3.07448-9.18883 3.64366-10.87227 4.21289-12.54877 4.7821-14.21144 5.35133-15.86374 5.92055-17.50565 6.48978-19.13025 7.059-20.74103 7.62822-22.3345 8.19745-23.90723 8.76666-25.46263 9.33589-26.99728 9.90509-28.50769 10.4743-29.9939 11.04353-31.45587 11.61275-32.89017 12.18198-34.30025 12.7512-35.67572 13.32042-37.0235 13.88965-38.33667 14.45886-39.61871 15.02809-40.8627 15.59729-42.07208 16.1665-43.2434 16.73573-44.37663 17.30495-45.46838 17.87418-46.51857 18.44339-47.52377 19.01262-48.48749 19.58185-49.40274 20.15106-50.273 20.72029-51.09138 21.2895-51.86127 21.8587-52.57928 22.42793-53.2454 22.99715-53.85616 23.56638-54.415 24.13559-54.91154 24.70482-55.35274 25.27405-55.73163 25.84326-56.05173 26.41249-56.3095 26.9817-56.50156 27.5509-56.63132 28.12013-56.68842 28.68935-56.68321 29.25858-56.60881 29.82779-56.46175 30.39702-56.24202 30.96623-55.94963 31.53546-55.5811 32.10469-55.13647 32.6739-54.61568 33.24313-54.01534 33.81232-53.33191 34.38155-52.56892 34.95078-51.72287 35.51999-50.79031 36.08922-49.7747 36.65843-48.66916 37.22766-47.47708 37.79689-46.19504 38.3661-44.82303 38.93533-43.35413 39.50452-41.79181 40.07375-40.13258 40.64297-38.3834 41.21219-36.53041 41.78142-34.57707 42.35063-32.52338 42.91986-30.36935 43.48909-28.10803 44.0583-25.7429 44.62753-23.27397 45.19675-20.69432 45.76595-18.0074 46.33516-15.20975 46.90439-12.29791 47.47362-9.27187 48.04283-6.13165 48.61206-2.87721 49.18127 .49825 49.7505 3.98799 50.31973 7.60226 50.88895 11.33766 51.45815 15.19415 52.02736 19.17525 52.59659 23.28438 53.16582 27.51804 53.73503 31.88322 54.30426 36.3764 54.87347 41.00113 55.4427 45.76077 56.01193 50.65192 56.58115 55.68146"/>
<path transform="matrix(1.00009,0,0,-1,71.96886,82.533)" stroke-width=".3985" stroke-linecap="butt" stroke-miterlimit="10" stroke-linejoin="miter" fill="none" stroke="#000000" d="M-56.69362 56.69362-56.12439 47.80754-55.55516 39.37132-54.98595 31.3711-54.41672 23.79994-53.8475 16.63713-53.27827 9.88261-52.70905 3.51563-52.13983-2.46371-51.5706-8.06941-51.00139-13.31522-50.43219-18.2081-49.86296-22.76186-49.29375-26.97652-48.72452-30.8728-48.1553-34.45078-47.58607-37.72421-47.01686-40.707-46.44763-43.40602-45.8784-45.8213-45.30919-47.97363-44.73996-49.86296-44.17078-51.50314-43.60155-52.90111-43.03232-54.0707-42.4631-55.01187-41.89388-55.73856-41.32466-56.25069-40.75543-56.56902-40.1862-56.69362-39.61699-56.63824-39.04776-56.39601-38.47858-55.99463-37.90935-55.42714-37.34012-54.70738-36.7709-53.8423-36.20168-52.83882-35.63246-51.6969-35.06323-50.43736-34.49402-49.05325-33.92479-47.55841-33.35556-45.95973-32.78635-44.26418-32.21715-42.47867-31.64793-40.60316-31.0787-38.64464-30.50948-36.61691-29.94026-34.51997-29.37103-32.36765-28.80182-30.15306-28.23259-27.89003-27.66336-25.58546-27.09415-23.23245-26.52495-20.85869-25.95573-18.45033-25.3865-16.01427-24.81728-13.56438-24.24806-11.10063-23.67883-8.62305-23.10962-6.14548-22.54039-3.6679-21.97116-1.1903-21.40195 1.26643-20.83272 3.71632-20.26353 6.15239-19.6943 8.56767-19.12509 10.95529-18.55586 13.30832-17.98663 15.63362-17.41742 17.92435-16.84819 20.18047-16.27898 22.38123-15.70975 24.54045-15.14052 26.65125-14.57133 28.70665-14.0021 30.71364-13.43289 32.65831-12.86366 34.54764-12.29443 36.36778-11.72522 38.11868-11.15599 39.81425-10.58678 41.42673-10.01755 42.97003-9.44832 44.44414-8.8791 45.84207-8.3099 47.15698-7.74069 48.3958-7.17146 49.55154-6.60225 50.63115-6.03302 51.61388-5.46379 52.52046-4.89458 53.33711-4.32535 54.0707-3.75613 54.71431-3.1869 55.26103-2.6177 55.73163-2.0485 56.10536-1.47926 56.38908-.91005 56.58289-.34082 56.67975 .22836 56.68668 .79758 56.61055 1.3668 56.43062 1.93602 56.16762 2.50525 55.8147 3.07448 55.36484 3.64366 54.83195 4.21289 54.2022 4.7821 53.48936 5.35133 52.69348 5.92055 51.80074 6.48978 50.83185 7.059 49.76607 7.62822 48.63109 8.19745 47.40614 8.76666 46.10507 9.33589 44.72786 9.90509 43.27455 10.4743 41.74509 11.04353 40.13951 11.61275 38.4647 12.18198 36.72073 12.7512 34.90753 13.32042 33.03897 13.88965 31.10811 14.45886 29.11497 15.02809 27.06648 15.59729 24.96262 16.1665 22.81029 16.73573 20.61646 17.30495 18.37419 17.87418 16.09041 18.44339 13.77199 19.01262 11.41899 19.58185 9.0383 20.15106 6.62991 20.72029 4.20772 21.2895 1.7578 21.8587-.70589 22.42793-3.17654 22.99715-5.65413 23.56638-8.13168 24.13559-10.60927 24.70482-13.07993 25.27405-15.52982 25.84326-17.96587 26.41249-20.38116 26.9817-22.76878 27.5509-25.12178 28.12013-27.4402 28.68935-29.71016 29.25858-31.93166 29.82779-34.09782 30.39702-36.20862 30.96623-38.25018 31.53546-40.22255 32.10469-42.11188 32.6739-43.91814 33.24313-45.63448 33.81232-47.25388 34.38155-48.76949 34.95078-50.1744 35.51999-51.46161 36.08922-52.62428 36.65843-53.65544 37.22766-54.54822 37.79689-55.29564 38.3661-55.89772 38.93533-56.33372 39.50452-56.60362 40.07375-56.69362 40.64297-56.61055 41.21219-56.33372 41.78142-55.8562 42.35063-55.17107 42.91986-54.2714 43.48909-53.15024 44.0583-51.80074 44.62753-50.209 45.19675-48.36119 45.76595-46.26424 46.33516-43.90431 46.90439-41.26756 47.47362-38.34015 48.04283-35.12207 48.61206-31.6064 49.18127-27.77237 49.7505-23.62001 50.31973-19.13545 50.88895-14.3118 51.45815-9.13516 52.02736-3.60562 52.59659 2.30455 53.16582 8.59537 53.73503 15.27376 54.30426 22.35353 54.87347 29.84163 55.4427 37.75189 56.01193 46.10507 56.58115 54.90115"/>
</svg>
